<?xml version="1.0" encoding="utf-8"?>
<svg version="1.1" viewBox="0.00 0.00 1024.00 1024.00" xmlns="http://www.w3.org/2000/svg">
  <path fill="#351b29" d="M 661.31 813.96 C 665.01 815.613 679.314 839.597 679.337 840.012 C 679.34 840.055 679.347 840.098 679.36 840.14 C 679.967 842.007 680.05 843.873 679.61 845.74 C 677.86 853.05 673.21 856.92 666.23 858.31 C 662.62 859.03 658.96 860.06 655.31 859.47 C 651.083 858.783 646.063 857.797 640.25 856.51 C 637.85 855.983 635.493 855.85 633.18 856.11 C 632.8 856.15 632.53 856.343 632.37 856.69 C 631.597 858.343 630.443 859.873 628.91 861.28 C 627.643 862.44 626.343 863.817 625.01 865.41 C 621.877 869.13 617.833 871.067 612.88 871.22 C 609.773 871.313 607.043 870.503 604.69 868.79 C 601.39 866.383 599.237 863.897 598.23 861.33 C 597.743 860.083 596.893 859.743 595.68 860.31 C 587.107 864.29 578.417 866.187 569.61 866 C 561.86 865.84 554.52 863.23 552.24 855.26 C 552.043 854.573 551.43 854.089 550.72 854.06 C 547.767 853.927 544.78 853.45 541.76 852.63 C 539.99 852.15 538.29 852.51 536.51 852.11 C 532.81 851.28 527.31 852.91 523.96 854.12 C 521.71 854.93 520.36 857.02 518.35 858.29 C 515.03 860.39 512.87 863.5 509.21 865.11 C 506.743 866.203 504.733 866.82 503.18 866.96 C 496.153 867.587 490.94 864.703 487.54 858.31 C 486.995 857.286 485.764 856.841 484.69 857.28 C 479.72 859.31 474.76 859.58 469.49 860.16 C 466.56 860.48 464.21 859.6 461.41 859.25 C 452.3 858.12 446.12 849.18 448.51 840.15 C 448.635 839.673 459 822.24 459.96 821.46 C 472.387 811.327 486.617 806.493 502.65 806.96 C 503.183 806.973 503.453 806.713 503.46 806.18 C 503.62 788.373 503.73 769.917 503.79 750.81 C 503.8 748.62 503.45 746.75 503.02 744.66 C 502.889 744.045 502.381 743.585 501.76 743.52 C 499.227 743.247 496.72 742.757 494.24 742.05 C 452.733 730.223 415.443 710.773 382.37 683.7 C 377.697 679.873 372.783 675.387 367.63 670.24 C 360.59 663.207 355.747 658.17 353.1 655.13 C 343.167 643.717 333.667 630.687 324.6 616.04 C 306.987 587.6 292.863 557.92 282.23 527 C 277.863 514.293 273.96 499.67 270.52 483.13 C 270.12 481.17 270.01 479.19 269.62 477.2 C 268.347 470.68 267.327 463.683 266.56 456.21 C 266.29 453.53 265.44 451.07 265.79 448.35 C 265.891 447.603 265.488 446.878 264.8 446.57 C 258.99 443.95 252.84 442.3 246.9 439.71 C 239.167 436.337 233.37 433.71 229.51 431.83 C 224.13 429.21 217.55 425.68 213.57 421.2 C 211.52 418.89 209.11 416.95 207.65 414.18 C 202.703 404.78 203.457 395.917 209.91 387.59 C 210.957 386.243 212.08 385.09 213.28 384.13 C 215.07 382.7 216.32 381.09 218.4 379.91 C 225.29 375.98 231.55 373.46 238.64 370.99 C 241.04 370.157 243.643 369.393 246.45 368.7 C 252.13 367.307 257.847 365.8 263.6 364.18 C 264.115 364.037 264.484 363.584 264.52 363.05 C 264.613 361.637 264.777 360.217 265.01 358.79 C 266.71 348.403 268.697 339.41 270.97 331.81 C 271.743 329.203 272.533 326.523 273.34 323.77 C 276.68 312.357 281.383 300.787 287.45 289.06 C 293.237 277.867 299.667 267.23 306.74 257.15 C 310.073 252.397 314.26 247.223 319.3 241.63 C 341.573 216.91 368.14 199.237 399 188.61 C 399.365 188.483 399.531 188.061 399.35 187.72 C 397.65 184.493 396.583 180.94 396.15 177.06 C 395.277 169.207 397.01 161.813 401.35 154.88 C 402.283 153.393 403.387 152.07 404.66 150.91 C 406.44 149.31 407.63 147.73 409.83 146.53 C 412.643 144.997 415.617 143.667 418.75 142.54 C 421.37 141.593 423.78 141.16 425.98 141.24 C 427.593 141.307 429.193 141.313 430.78 141.26 C 439.28 140.95 448.45 145.61 455.49 149.96 C 456.149 150.368 457.015 150.034 457.23 149.29 C 458.523 144.723 460.81 140.847 464.09 137.66 C 465.437 136.353 467.27 134.917 469.59 133.35 C 482.85 124.35 502.91 129.01 513.89 139.37 C 521.543 146.597 527.217 155.253 530.91 165.34 C 532.857 170.673 534.587 175.95 536.1 181.17 C 536.44 182.35 537.213 183.06 538.42 183.3 C 555.287 186.687 571.413 192.303 586.8 200.15 C 596.34 205.023 603.323 209.073 607.75 212.3 C 611.463 215.007 615.327 217.927 619.34 221.06 C 623.347 224.187 627.06 227.387 630.48 230.66 C 640.92 240.66 650.11 251.707 658.05 263.8 C 662.66 270.81 666.47 278.3 670.37 285.75 C 676.24 296.95 680.26 308.5 684.03 320.64 C 685.777 326.26 687.157 331.377 688.17 335.99 C 690.79 347.977 692.3 360.893 692.7 374.74 C 692.72 375.327 692.73 375.913 692.73 376.5 C 692.763 383.107 692.68 389.8 692.48 396.58 C 692.41 399.09 691.85 401.38 691.83 403.8 C 691.823 404.767 691.753 405.73 691.62 406.69 C 690.867 412.203 690.09 417.78 689.29 423.42 C 688.9 426.18 687.59 428.46 687.68 431.31 C 687.687 431.617 687.84 431.81 688.14 431.89 C 691.33 432.73 694.32 434.14 697.63 435.07 C 700.737 435.943 703.82 436.873 706.88 437.86 C 720.953 442.413 732.9 445.503 742.72 447.13 C 753.24 448.87 761.573 450.627 767.72 452.4 C 777.18 455.12 784.6 458.2 791.28 465.6 C 791.507 465.853 791.747 465.87 792 465.65 C 796.81 461.45 800.01 457.06 803.71 452.29 C 807.18 447.8 810.14 443.02 813.3 438.32 C 814.627 436.34 815.87 434.31 817.03 432.23 C 822.25 422.883 826.517 414.623 829.83 407.45 C 833.357 399.823 836.977 393.647 840.69 388.92 C 841.643 387.7 842.707 386.663 843.88 385.81 C 845.32 384.78 845.86 383.28 847.38 382.4 C 850.61 380.51 853.39 378.31 857.07 377.14 C 867.283 373.893 877 374.283 886.22 378.31 C 892.49 381.05 899.15 386.19 901.77 392.65 C 902.597 394.69 903.507 396.59 904.5 398.35 C 905.15 399.51 905.11 400.91 905.22 402.23 C 905.252 402.529 905.59 402.687 905.84 402.52 C 908.14 401 909.95 399.21 912.47 397.93 C 925.71 391.197 939.023 391.117 952.41 397.69 C 953.757 398.35 954.923 399.12 955.91 400 C 957.41 401.34 959.2 402.15 960.48 403.71 C 963.547 407.45 966.05 411.523 967.99 415.93 C 969.3 418.93 969.3 421.99 970.09 425.14 C 970.95 428.58 970.4 432.69 970.42 436.29 C 970.43 441.25 968.78 445.9 967.48 450.72 C 966.4 454.76 964.41 458.47 962.69 462.28 C 961.8 464.28 960.55 465.63 959.32 467.35 C 959.08 467.683 959.163 467.877 959.57 467.93 C 964.363 468.563 968.427 469.417 971.76 470.49 C 974.247 471.29 977.233 472.92 980.72 475.38 C 990.61 482.34 995.07 494.56 994.23 506.43 C 993.56 515.93 989.78 524 984.18 532 C 975.627 544.233 965.383 555.153 953.45 564.76 C 937.71 577.42 921.193 587.517 903.9 595.05 C 884.973 603.303 864.293 609.77 841.86 614.45 C 840.407 614.75 839.297 615.357 838.53 616.27 C 837.15 617.903 836.277 619.77 835.91 621.87 C 835.857 622.183 835.727 622.463 835.52 622.71 C 833.4 625.23 832 628.04 830.19 630.74 C 809.017 662.18 782.367 687.71 750.24 707.33 C 729.053 720.27 706.967 730.197 683.98 737.11 C 677.78 738.97 671.63 740.88 665.28 742.32 C 653.1 745.073 641.55 747.087 630.63 748.36 C 628.483 748.613 627.397 749.873 627.37 752.14 C 627.15 769.133 627.147 785.84 627.36 802.26 C 627.387 804.293 627.523 806.417 627.77 808.63 C 627.814 808.971 628.146 809.194 628.47 809.1 C 630.89 808.44 633.55 807.81 636.07 808.09 C 640.18 808.55 644.57 808.32 648.55 809.41 C 652.923 810.597 657.177 812.113 661.31 813.96 Z M 478.3 165.65 C 481.113 170.27 484.103 174.873 487.27 179.46 C 489.53 182.73 491.39 186.33 491.85 190.09 C 492.03 191.583 491.443 193.35 490.09 195.39 C 489.31 196.557 488.16 197.31 486.64 197.65 C 483.61 198.32 480.71 198.98 477.87 197.39 C 473.957 195.197 470.777 192.77 468.33 190.11 C 463.65 184.29 458.66 179.057 453.36 174.41 C 449.46 170.99 444.85 168.53 440.52 165.66 C 436.94 163.287 432.907 162.227 428.42 162.48 C 423.15 162.77 420.06 164.51 418.58 169.53 C 417.89 171.87 418.97 174.64 419.38 177.21 C 420.387 180.123 421.773 182.543 423.54 184.47 C 425.44 186.55 428.06 188.93 431.4 191.61 C 433.51 193.3 436.01 194.53 438.25 196.17 C 441.79 198.76 445.64 200.11 449.42 202.26 C 453.25 204.44 457.5 209.3 455.25 213.9 C 454.21 216.027 452.957 217.387 451.49 217.98 C 447.377 219.653 443.087 219.75 438.62 218.27 C 431.37 215.87 423.97 211.25 417.12 207.03 C 416.02 206.35 415.027 206.483 414.14 207.43 C 413.827 207.763 413.173 208.047 412.18 208.28 C 409.667 208.293 407.313 208.993 405.12 210.38 C 404.18 210.98 402.45 210.59 401.06 211.27 C 397.087 213.203 393.06 215.023 388.98 216.73 C 386.607 217.723 381.97 220.47 375.07 224.97 C 373.32 226.11 371.27 226.95 369.46 228.22 C 354.367 238.793 341.087 251.277 329.62 265.67 C 328.29 267.35 327.4 269.15 326.02 270.76 C 325.047 271.88 324.167 273.107 323.38 274.44 C 322.04 276.7 320.28 279.477 318.1 282.77 C 315.54 286.643 313.15 290.587 310.93 294.6 C 308.837 298.393 306.853 302.53 304.98 307.01 C 302.98 311.79 301.007 316.57 299.06 321.35 C 298.813 322.35 298.53 323.333 298.21 324.3 C 295.63 332.153 293.63 339.297 292.21 345.73 C 291.19 350.36 290.74 355.13 289.46 359.7 C 289.333 360.153 289.752 360.57 290.214 360.451 C 290.236 360.445 290.258 360.438 290.28 360.43 C 293.093 359.317 295.923 358.757 298.77 358.75 C 300.55 358.74 301.88 357.86 303.53 357.45 C 308.357 356.257 312.94 355.25 317.28 354.43 C 324.79 353.01 333.91 352.33 340.96 352.45 C 351.08 352.63 361.357 355.803 371.79 361.97 C 372.857 362.603 373.95 363.443 375.07 364.49 C 377.72 366.97 380.56 368.94 382.87 371.91 C 389.543 380.463 393.753 390.163 395.5 401.01 C 395.913 403.557 396.253 407.697 396.52 413.43 C 396.64 416.01 396.02 418.15 395.88 420.68 C 395.78 422.433 395.48 424.233 394.98 426.08 C 393.587 431.187 391.763 436.003 389.51 440.53 C 388.23 443.07 386.71 445.03 385.13 447.32 C 382.48 451.15 378.51 454.28 375.07 457.44 C 369.097 461.133 364.073 463.4 360 464.24 C 357.787 464.7 355.567 465.153 353.34 465.6 C 351.013 466.067 348.88 466.26 346.94 466.18 C 345.167 466.113 343.407 466.127 341.66 466.22 C 340.287 466.293 338.813 466.21 337.24 465.97 C 331.59 465.12 326.01 464.6 320.36 463.19 C 310.62 460.757 300.953 457.933 291.36 454.72 C 291.107 454.636 290.854 454.846 290.89 455.11 L 292.99 470.09 C 295.363 483.817 297.363 493.703 298.99 499.75 C 304.15 518.917 310.937 537.46 319.35 555.38 C 324.65 566.67 331.4 577.86 337.47 588.93 C 337.661 589.273 338.121 589.348 338.4 589.08 C 344.027 583.82 349.91 579.27 356.05 575.43 C 363.14 571 371.68 567.64 379.6 564.9 C 385.86 562.74 393.223 561.337 401.69 560.69 C 404.703 560.457 407.543 560.413 410.21 560.56 C 413.243 560.727 416.207 560.863 419.1 560.97 C 424.01 561.16 429.05 562.38 433.93 563.25 C 437.397 563.863 440.92 564.767 444.5 565.96 C 452.26 568.54 459.43 571.543 466.01 574.97 C 469.857 576.97 473.673 578.987 477.46 581.02 C 481.82 583.36 485.72 586.17 489.72 588.84 C 492.7 590.84 495.13 593.09 498.05 595.38 C 504.317 600.28 511.36 606.247 519.18 613.28 C 521.33 615.22 523.1 617.3 525.19 619.27 C 532.08 625.76 538.86 632.9 545.52 638.98 C 548.487 641.687 551.363 644.32 554.15 646.88 C 556.823 649.34 559.697 651.73 562.77 654.05 C 569.62 659.23 576.12 664.77 584.02 668.29 C 586.92 670.783 590.043 672.88 593.39 674.58 C 597.01 676.42 599.583 677.783 601.11 678.67 C 606.21 681.65 611.71 683.58 616.86 686.02 C 619.533 687.287 622.183 688.29 624.81 689.03 C 630.44 690.62 635.92 693.01 641.56 694.47 C 645.54 695.49 649.437 696.53 653.25 697.59 C 656.42 698.46 659.86 698.48 663.13 699.19 C 667.24 700.08 671.35 700.43 675.49 700.99 C 680.28 701.64 685.23 701.26 690.07 701.27 C 703.64 701.33 717.37 697.08 729.52 690.75 C 733.687 688.577 737.203 686.57 740.07 684.73 C 761.67 670.837 779.977 654.947 794.99 637.06 C 803.257 627.207 809.767 618.557 814.52 611.11 C 817.007 607.223 819.397 603.073 821.69 598.66 C 823.09 595.973 824.93 594.407 827.21 593.96 C 832.337 592.967 837.647 592.027 843.14 591.14 C 847.76 590.4 852.39 589 857.07 587.85 C 860.29 587.057 863.7 586.057 867.3 584.85 C 885.753 578.657 902.777 570.63 918.37 560.77 C 930.217 553.283 940.61 545.323 949.55 536.89 C 955.063 531.683 960.377 525.673 965.49 518.86 C 967.43 516.28 968.55 513.38 969.92 510.5 C 971.16 507.9 971.433 504.833 970.74 501.3 C 970.12 495.107 966.783 491.21 960.73 489.61 C 957.323 488.717 954.26 488.583 951.54 489.21 C 948.18 489.99 945.04 491.413 942.12 493.48 C 938.027 496.373 933.84 500.19 929.56 504.93 C 923.727 511.397 913.807 520.583 899.8 532.49 C 896.28 535.49 892.6 537.91 888.93 540.82 C 886.357 542.873 882.997 545.137 878.85 547.61 C 875.263 549.743 872.283 550.823 869.91 550.85 C 865.543 550.897 862.53 548.573 860.87 543.88 C 860.34 542.39 861.07 540.81 861.25 539.28 C 861.47 537.32 862.79 535.46 864.38 534.34 C 870.07 530.35 875.85 526.63 881.24 522.16 C 885.093 518.973 888.787 515.787 892.32 512.6 C 903.31 502.7 914.98 490.15 925.39 477.99 C 928.71 474.11 932.53 468.683 936.85 461.71 C 940.43 455.917 943.623 449.247 946.43 441.7 C 946.89 440.46 947.133 438.98 947.16 437.26 L 947.39 431.7 C 947.403 431.373 947.473 431.057 947.6 430.75 C 948.013 429.71 948.063 428.507 947.75 427.14 C 946.463 421.493 943.227 417.553 938.04 415.32 C 936.38 414.607 934.623 414.307 932.77 414.42 C 929.877 414.593 927.437 415.017 925.45 415.69 C 922.26 416.77 917.7 418.82 915.09 421.44 C 912.82 423.71 910.71 425.32 908.79 428.14 C 906.54 431.45 904.18 434.66 902.61 438.32 C 902.17 439.36 901.64 440.377 901.02 441.37 C 898.907 444.777 896.923 448.2 895.07 451.64 C 893.44 454.67 891.01 456.97 889.91 460.32 C 889.757 460.787 889.867 460.857 890.24 460.53 C 892.17 458.83 893.88 454.94 896.34 454.23 C 898.91 454.3 901.83 453.79 903.71 456.06 C 906.043 458.887 906.273 461.917 904.4 465.15 C 902.813 467.897 900.797 470.857 898.35 474.03 C 895.4 477.86 890.75 480.91 886.31 476.98 C 883.61 474.593 883.063 472.053 884.67 469.36 C 886.197 466.787 887.75 464.24 889.33 461.72 C 889.39 461.633 889.373 461.56 889.28 461.5 C 889.247 461.487 889.213 461.48 889.18 461.48 C 889.06 461.493 888.96 461.543 888.88 461.63 C 887.95 462.72 886.91 463.77 886.14 464.97 C 884.647 467.317 883.057 469.467 881.37 471.42 C 880.41 472.54 879.94 473.91 879.05 475.03 C 871.903 483.983 864.44 492.667 856.66 501.08 C 851.34 506.83 845.59 512.05 839.82 517.28 C 836.033 520.727 832.11 523.017 828.05 524.15 C 827.73 524.243 827.61 524.453 827.69 524.78 C 828.41 527.673 828.74 530.647 828.68 533.7 C 828.65 534.89 827.83 535.58 828.56 536.83 C 828.719 537.118 828.755 537.454 828.66 537.76 L 827.98 539.82 C 825.82 545.52 823.963 549.39 822.41 551.43 C 818.15 557.03 812.777 561.767 806.29 565.64 C 804.97 566.427 804.71 567.473 805.51 568.78 C 807.82 572.56 808.19 576.19 809.1 580.39 C 809.373 581.677 809.473 583.117 809.4 584.71 C 808.83 596.83 801.69 606.94 792.05 614.32 C 784.237 620.293 775.043 625.51 764.47 629.97 C 754.497 634.17 745.37 637.26 737.09 639.24 C 733.723 640.04 730.387 640.82 727.08 641.58 C 724.25 642.22 721.49 642.53 718.7 643.37 C 716.54 644.02 714.5 643.28 712.28 643.71 C 707.56 644.623 702.933 644.917 698.4 644.59 C 696.88 644.48 695.5 644.83 693.99 644.8 C 689.683 644.7 685.637 644.53 681.85 644.29 C 677.903 644.037 673.91 643.607 669.87 643 C 657.537 641.147 645.107 638.37 632.58 634.67 C 626.907 632.99 621.47 631.037 616.27 628.81 C 609.597 625.957 604.35 623.51 600.53 621.47 C 592.623 617.257 585.41 612.893 578.89 608.38 C 577.097 607.133 575.253 605.817 573.36 604.43 C 561.92 596.057 551.487 585.79 542.06 573.63 C 539.6 570.45 537.44 566.64 535.3 563.17 C 532.093 557.97 529.637 551.997 527.93 545.25 C 527.183 542.317 526.857 538.367 526.95 533.4 C 527.07 526.7 531.8 519.07 539.09 518.51 C 541.35 518.337 543.357 518.847 545.11 520.04 C 546.857 521.227 548.24 522.92 549.26 525.12 C 548.74 526.213 548.543 527.34 548.67 528.5 C 548.71 528.813 548.683 529.12 548.59 529.42 C 547.29 533.74 549.19 540.75 551.15 544.26 C 554.5 550.26 558.01 556.28 562.46 561.72 C 567.727 568.16 573.313 573.887 579.22 578.9 C 582.83 581.96 586.74 584.56 590.48 587.45 C 593.15 589.51 596.11 591.05 599.1 592.7 C 601.153 593.827 603.207 595.093 605.26 596.5 C 608.287 598.573 611.99 600.663 616.37 602.77 C 628.623 608.677 639.77 612.753 649.81 615 C 651.74 615.43 653.75 616.24 655.76 616.72 C 665.66 619.1 674.857 620.623 683.35 621.29 C 690.037 621.81 698.323 621.763 708.21 621.15 C 728.04 619.92 748.69 614.25 765.65 604.93 C 771.71 601.603 776.837 598.177 781.03 594.65 C 782.41 593.49 783.663 591.943 784.79 590.01 C 785.603 588.61 786.017 587.233 786.03 585.88 C 786.043 584.067 785.95 582.27 785.75 580.49 C 785.31 576.577 783.303 574.337 779.73 573.77 C 777.11 573.35 773.297 573.323 768.29 573.69 C 761.663 574.177 753.157 574.02 742.77 573.22 C 739.19 572.94 736.017 571.513 733.25 568.94 C 730.85 565.747 730.403 562.41 731.91 558.93 C 732.997 556.423 735.15 554.467 738.37 553.06 C 744.31 553.247 750.21 553.38 756.07 553.46 C 763.27 553.56 770.63 552.8 777.64 552.31 C 786.39 551.69 797 548.34 802.54 541.2 C 804.16 539.11 804.68 536.47 805.43 534.02 C 805.53 533.68 805.523 533.343 805.41 533.01 C 805.083 532.01 804.96 530.943 805.04 529.81 C 805.067 529.47 805.01 529.143 804.87 528.83 C 803.43 525.71 802.86 523.07 799.68 521.06 C 796.447 519.007 793.067 518.09 789.54 518.31 C 786.193 517.677 783.013 517.5 780 517.78 C 772.39 518.5 764.72 519.57 757.08 519.72 C 755.127 519.76 753.043 519.827 750.83 519.92 C 747.117 520.08 741.837 519.853 734.99 519.24 C 734.283 519.18 733.69 518.903 733.21 518.41 C 732.163 517.33 731.147 516.247 730.16 515.16 C 729.187 514.1 728.497 512.09 728.09 509.13 C 728.023 508.67 728.133 508.253 728.42 507.88 C 729.71 506.17 729.46 504.02 731.14 502.72 C 733.107 501.187 735.027 500.497 736.9 500.65 C 737.227 500.677 737.533 500.613 737.82 500.46 C 738.3 500.207 738.843 500.083 739.45 500.09 C 747.97 500.237 756.457 499.78 764.91 498.72 C 768.21 498.31 773.46 497.12 775.36 494.13 C 775.96 493.19 776.487 492.247 776.94 491.3 C 777.893 482.327 774.35 476.813 766.31 474.76 C 765.41 474.527 764.577 474.187 763.81 473.74 C 762.663 473.067 761.837 472.69 761.33 472.61 C 757.617 472.043 753.883 471.457 750.13 470.85 C 747.48 470.43 745.27 469.05 742.59 469.25 C 740.76 469.39 738.82 468.7 737.12 468.06 C 735.43 467.41 733.93 468.06 732.27 467.4 C 731.27 466.993 730.233 466.683 729.16 466.47 C 726.427 465.923 723.71 465.4 721.01 464.9 C 717.8 464.3 714.6 463.06 711.05 462.1 C 707.397 461.113 703.68 460.033 699.9 458.86 C 689.98 455.78 680.29 451.95 670.52 448.49 C 664.82 446.69 659.78 443.48 660.13 436.7 C 660.23 434.747 660.5 433.16 660.94 431.94 C 664.553 421.893 666.857 411.023 667.85 399.33 C 669.903 375.23 667.693 352.44 661.22 330.96 C 658.447 320.32 655.047 310.33 651.02 300.99 C 646.14 289.643 640.103 278.967 632.91 268.96 C 631.3 266.71 629.39 264.76 627.83 262.47 C 626.743 260.877 625.523 259.357 624.17 257.91 C 616.643 249.883 608.46 242.473 599.62 235.68 C 597.2 233.82 594.47 232.59 592.26 230.7 C 590.753 229.407 589.093 228.29 587.28 227.35 C 584.41 225.85 581.88 223.81 578.94 222.18 C 567.36 215.773 555.057 210.713 542.03 207 C 537.6 205.74 533.03 205.1 528.34 203.92 C 527.8 203.78 526.553 203.667 524.6 203.58 C 522.773 203.5 521.047 202.757 519.42 201.35 C 518.02 199.783 516.91 197.827 516.09 195.48 C 514.797 191.767 513.787 188.05 513.06 184.33 C 510.893 176.257 507.79 168.64 503.75 161.48 C 502.897 159.967 501.57 158.243 499.77 156.31 C 495.597 151.817 490.937 149.83 485.79 150.35 C 481.97 150.743 479.143 152.68 477.31 156.16 C 476.603 157.493 476.393 159.04 476.68 160.8 C 476.947 162.427 477.487 164.043 478.3 165.65 Z M 228.67 398.7 C 228.043 398.893 227.59 399.36 227.31 400.1 C 227.097 400.673 227.1 401.237 227.32 401.79 C 228.98 405.92 231.44 409.21 235.47 411.3 C 241.563 414.46 248.333 417.46 255.78 420.3 C 268.293 425.08 279.047 428.86 288.04 431.64 C 291.693 432.773 295.247 433.89 298.7 434.99 C 302.767 436.283 306.34 437.307 309.42 438.06 C 314.94 439.4 320.28 440.84 325.76 441.92 C 327.78 442.32 329.913 442.743 332.16 443.19 C 336.673 444.09 341.817 444.48 347.59 444.36 C 350.97 444.293 354.62 443.403 358.54 441.69 C 360.95 440.63 362.77 438.67 364.92 437.17 C 366.313 436.19 367.487 434.83 368.44 433.09 C 371.273 427.91 373.08 422.32 373.86 416.32 C 374.74 410.333 374.457 404.65 373.01 399.27 C 370.283 389.15 364.217 381.803 354.81 377.23 C 347.203 373.15 339.017 371.88 330.25 373.42 C 329.177 373.607 328.227 373.693 327.4 373.68 C 326.113 373.653 325.18 373.703 324.6 373.83 C 320 374.82 315.38 376.09 310.79 376.48 C 309.33 376.607 307.867 376.84 306.4 377.18 C 304.273 377.673 302.117 378.093 299.93 378.44 C 282.17 381.287 264.853 384.83 247.98 389.07 C 243.57 390.18 239.05 391.92 234.99 393.77 C 232.817 394.763 230.71 396.407 228.67 398.7 Z M 840.14 436.83 C 836.473 443.263 833.983 447.553 832.67 449.7 C 831.15 452.21 829.04 454.23 827.58 456.82 C 826.507 458.727 825.217 460.52 823.71 462.2 C 822.09 464 821.34 466.07 819.59 467.79 C 815.68 471.63 812.7 476.62 808.41 480.34 C 805.85 482.57 803.94 485.22 801.31 487.42 C 800.623 488.001 800.271 488.886 800.37 489.78 C 800.63 492.133 800.303 494.61 799.39 497.21 C 799.068 498.132 799.724 499.104 800.7 499.15 C 806.56 499.4 812.21 502.93 817.33 505.67 C 818.16 506.11 818.72 506.79 819.2 507.59 C 819.853 508.703 820.72 508.907 821.8 508.2 C 824.67 506.33 826.86 503.83 829.65 501.74 C 832.57 499.57 834.93 496.76 837.61 494.21 C 838.857 493.023 840.08 491.803 841.28 490.55 C 845.613 486.01 849.58 481.303 853.18 476.43 C 855.28 473.597 857.397 470.677 859.53 467.67 C 864.103 461.237 868.95 453.457 874.07 444.33 C 878.237 436.883 881.33 430.207 883.35 424.3 C 884.123 422.027 884.483 419.673 884.43 417.24 C 885.077 412.567 884.78 409.063 883.54 406.73 C 882.62 405.003 881.62 403.227 880.54 401.4 C 878.78 398.41 874.52 397.09 871.25 396.47 C 870.47 396.323 868.177 396.783 864.37 397.85 C 859.34 399.26 854.92 406.07 853.11 410.27 C 851.363 414.337 849.37 418.52 847.13 422.82 C 845.82 425.32 844.82 427.95 843.32 430.33 C 841.99 432.43 841.23 434.6 840.14 436.83 Z M 356.62 596.66 C 352.813 599.04 349.933 601.677 347.98 604.57 C 347.787 604.85 347.753 605.15 347.88 605.47 C 348.573 607.17 349.317 608.65 350.11 609.91 C 355.563 618.537 362.003 627.383 369.43 636.45 C 371.163 638.557 372.923 640.51 374.71 642.31 C 377.93 645.55 380.93 649.12 384.28 652.38 C 387.8 655.81 391.32 659.13 395.09 662.25 C 399.77 666.11 404.36 670.44 409.34 674.06 C 410.787 675.113 412.297 676.26 413.87 677.5 C 416.63 679.68 419.91 681.943 423.71 684.29 C 424.643 684.863 425.593 685.46 426.56 686.08 C 434.133 690.947 443.027 695.803 453.24 700.65 C 463.493 705.523 476.167 710.447 491.26 715.42 C 497.353 717.427 503.837 719.153 510.71 720.6 C 522.017 722.98 532.7 724.82 542.76 726.12 C 569.067 729.513 596.35 729.327 624.61 725.56 C 630.55 724.767 635.533 724.053 639.56 723.42 C 644.353 722.667 649.247 721.69 654.24 720.49 C 655.687 720.143 657.137 719.663 658.59 719.05 C 659.197 718.79 659.17 718.623 658.51 718.55 C 657.33 718.41 656.17 718.61 655 718.28 C 650.653 717.06 646.357 716.143 642.11 715.53 C 640.903 715.357 639.713 715.09 638.54 714.73 C 637.407 714.383 636.18 714.04 634.86 713.7 C 628.627 712.073 622.91 710.313 617.71 708.42 C 614.297 707.173 610.543 705.647 606.45 703.84 C 602.737 702.207 599.023 700.57 595.31 698.93 C 589.377 696.31 581.35 691.817 571.23 685.45 C 568.8 683.92 566.71 682.22 564.31 680.73 C 562.71 679.737 561.05 678.5 559.33 677.02 C 557.05 675.06 554.65 673.227 552.13 671.52 C 551.117 670.367 549.933 669.32 548.58 668.38 C 546.94 667.247 545.72 666.29 544.92 665.51 C 541.46 662.123 538.353 659.417 535.6 657.39 C 534.167 656.33 532.99 655.247 532.07 654.14 C 531.337 653.253 530.6 652.457 529.86 651.75 C 525.433 647.53 520.553 642.733 515.22 637.36 C 506.893 628.993 497.817 620.797 487.99 612.77 C 482.61 608.37 476.58 604.18 470.88 600.27 C 466.167 597.037 460.383 593.827 453.53 590.64 C 444.103 586.253 433.637 583.177 422.13 581.41 C 418.863 580.903 415.87 580.623 413.15 580.57 C 410.503 580.51 407.93 580.507 405.43 580.56 C 400.017 580.66 393.383 581.66 385.53 583.56 C 374.697 586.18 365.06 590.547 356.62 596.66 Z M 584.31 813.33 C 589.517 811.317 595.41 810.45 601.99 810.73 C 602.33 810.75 602.557 810.6 602.67 810.28 C 603.137 809 603.377 807.723 603.39 806.45 C 603.57 789.15 603.493 771.277 603.16 752.83 C 603.14 751.443 602.42 750.803 601 750.91 C 576.88 752.7 553.06 751.36 529.42 748.58 C 528.153 748.433 527.517 748.997 527.51 750.27 C 527.47 765.683 527.567 782.677 527.8 801.25 C 527.82 802.743 527.89 804.23 528.01 805.71 C 528.046 806.153 528.487 806.447 528.91 806.31 C 530.73 805.73 532.6 805.22 534.54 805.33 C 536.847 805.45 539.133 805.573 541.4 805.7 C 546.6 805.973 551.807 807.183 557.02 809.33 C 559.333 810.283 561.467 811.473 563.42 812.9 C 565.71 814.56 569.72 817.15 570.81 819.66 C 571.037 820.177 571.681 820.353 572.13 820.02 C 575.95 817.22 580.01 814.99 584.31 813.33 Z M 510.81 824.55 C 508.343 823.657 506.49 823.223 505.25 823.25 C 499.377 823.363 493.573 824.657 487.84 827.13 C 482.227 828.697 477.31 831.757 473.09 836.31 C 472.443 837.003 471.88 837.707 471.4 838.42 C 470.876 839.19 471.382 840.239 472.311 840.307 C 472.327 840.309 472.344 840.309 472.36 840.31 C 473.613 840.357 474.81 840.197 475.95 839.83 C 479.04 838.82 482.38 838.72 485.57 838.08 C 491.45 836.92 497.04 838.99 497.89 845.68 C 497.972 846.296 498.619 846.663 499.19 846.42 C 501.43 845.44 503.7 844.63 505.79 843.33 C 514.91 837.68 525.69 832.53 536.83 833.4 C 541.87 833.793 546.83 834.803 551.71 836.43 C 552.89 836.823 554.01 836.383 555.07 835.11 C 557.69 831.97 553.05 828.77 550.62 827.59 C 542.24 823.49 533.517 822.027 524.45 823.2 C 522.163 823.493 519.877 823.71 517.59 823.85 C 515.19 823.997 512.93 824.23 510.81 824.55 Z M 579.26 837.04 C 576.953 838.68 575.107 841.273 573.72 844.82 C 573.58 845.167 573.69 845.4 574.05 845.52 C 576.53 846.347 578.7 846.33 580.56 845.47 C 581.707 844.937 582.877 844.567 584.07 844.36 C 588.19 843.65 591.87 841.88 596.08 841.6 C 598.767 841.427 600.82 841.597 602.24 842.11 C 605.18 843.183 606.957 845.873 607.57 850.18 C 607.61 850.467 607.77 850.58 608.05 850.52 C 611.197 849.9 613.673 848.96 615.48 847.7 C 618.567 845.54 621.833 843.437 625.28 841.39 C 628.3 839.59 631.727 838.447 635.56 837.96 C 641.76 837.187 647.713 837.65 653.42 839.35 C 654.58 839.7 655.79 839.63 656.82 838.94 C 657.642 838.399 657.806 837.261 657.17 836.51 C 654.43 833.277 650.94 830.793 646.7 829.06 C 642.82 828.507 639.09 827.597 635.51 826.33 C 634.04 825.81 632.88 826.03 631.38 825.89 C 630.34 825.79 629.26 825.833 628.14 826.02 C 625.193 826.5 623.017 826.583 621.61 826.27 C 619.263 825.737 617.023 825.483 614.89 825.51 C 612.477 825.543 610.03 825.593 607.55 825.66 C 599.62 825.85 593.04 829.42 585.75 832.27 C 584.023 832.943 581.86 834.533 579.26 837.04 Z"/>
  <path fill="#fdfbef" d=" M 513.06 184.33 L 508.61 183.57 Q 508.10 183.48 507.84 183.04 C 502.80 174.56 493.17 158.13 480.66 163.65 Q 479.52 164.15 478.30 165.65 Q 477.08 163.24 476.68 160.80 Q 476.25 158.16 477.31 156.16 Q 480.06 150.94 485.79 150.35 Q 493.51 149.57 499.77 156.31 Q 502.47 159.21 503.75 161.48 Q 509.81 172.22 513.06 184.33 Z"/>
  <path fill="#fdfbef" d=" M 468.33 190.11 Q 464.88 188.04 455.16 181.35 Q 446.60 175.45 434.47 173.52 Q 432.00 173.12 430.99 173.51 Q 425.27 175.73 419.38 177.21 C 418.97 174.64 417.89 171.87 418.58 169.53 C 420.06 164.51 423.15 162.77 428.42 162.48 Q 435.15 162.10 440.52 165.66 C 444.85 168.53 449.46 170.99 453.36 174.41 Q 461.31 181.38 468.33 190.11 Z"/>
  <path d=" M 513.06 184.33 Q 514.15 189.91 516.09 195.48 Q 517.32 199.00 519.42 201.35 L 514.40 209.70 Q 513.48 211.23 515.08 212.01 C 518.89 213.87 522.73 213.75 526.64 215.12 C 529.90 216.27 533.48 216.93 536.53 218.02 Q 554.81 224.59 565.34 230.52 Q 579.53 238.52 588.08 244.75 Q 609.06 260.04 626.27 280.49 Q 642.79 300.12 661.22 330.96 Q 670.93 363.18 667.85 399.33 Q 666.36 416.87 660.94 431.94 Q 660.28 433.77 660.13 436.70 C 659.78 443.48 664.82 446.69 670.52 448.49 C 668.73 450.66 664.89 453.95 665.21 456.88 Q 665.32 457.83 666.16 458.29 C 669.85 460.30 673.15 462.49 677.14 464.16 Q 682.98 466.59 688.64 469.34 C 686.65 471.65 684.03 473.88 683.36 476.73 C 681.97 482.61 686.92 484.37 691.35 485.94 C 695.57 487.42 699.11 487.89 703.29 486.32 C 709.01 484.16 707.79 479.10 706.53 474.18 Q 710.10 474.63 713.68 475.06 Q 717.15 475.47 720.55 476.11 Q 729.48 477.79 738.26 478.72 Q 741.20 479.04 744.44 479.54 Q 747.32 479.99 750.56 480.16 Q 755.14 480.39 761.38 481.97 Q 768.31 483.72 769.52 484.99 Q 772.88 488.54 776.94 491.30 Q 776.26 492.72 775.36 494.13 C 773.46 497.12 768.21 498.31 764.91 498.72 Q 752.23 500.31 739.45 500.09 Q 738.54 500.08 737.82 500.46 Q 737.39 500.69 736.90 500.65 Q 734.09 500.42 731.14 502.72 C 729.46 504.02 729.71 506.17 728.42 507.88 Q 727.99 508.44 728.09 509.13 Q 728.70 513.57 730.16 515.16 Q 731.64 516.79 733.21 518.41 Q 733.93 519.15 734.99 519.24 Q 745.26 520.16 750.83 519.92 Q 754.15 519.78 757.08 519.72 C 764.72 519.57 772.39 518.50 780.00 517.78 Q 784.52 517.36 789.54 518.31 Q 792.46 521.71 792.98 523.76 C 794.23 528.80 790.35 533.89 786.70 536.87 C 780.91 541.60 772.46 545.61 764.58 547.13 Q 758.86 548.23 752.61 550.26 Q 750.42 550.98 746.43 551.22 Q 741.99 551.48 738.37 553.06 Q 733.54 555.17 731.91 558.93 Q 729.65 564.15 733.25 568.94 Q 729.47 580.99 718.51 586.06 Q 712.23 588.96 707.71 590.46 Q 702.97 592.03 694.86 593.00 Q 688.87 593.72 682.40 593.28 C 668.15 592.32 656.19 591.30 643.02 587.28 Q 641.62 586.85 639.40 586.70 Q 637.21 586.55 635.78 585.83 C 637.87 578.78 632.92 576.29 627.27 574.10 Q 624.54 573.03 619.15 569.17 Q 616.71 567.42 614.35 568.29 C 612.01 569.15 609.13 570.74 608.35 573.28 Q 606.58 579.02 611.72 582.80 Q 613.68 584.24 615.94 585.14 Q 615.66 586.10 614.61 585.63 C 609.97 583.58 605.09 581.98 600.77 579.56 Q 593.87 575.69 587.62 571.64 Q 572.42 561.82 561.91 547.89 Q 558.53 543.41 555.07 536.71 Q 552.08 530.90 549.26 525.12 Q 547.73 521.82 545.11 520.04 Q 542.48 518.25 539.09 518.51 C 531.80 519.07 527.07 526.70 526.95 533.40 Q 526.47 535.74 526.58 538.07 Q 526.72 540.82 526.58 542.77 Q 526.33 546.16 526.91 549.01 Q 527.02 549.52 526.77 550.02 A 1.25 1.23 -35.0 0 0 526.65 550.67 Q 527.32 559.96 530.09 566.96 Q 532.40 572.79 535.11 578.68 Q 540.86 591.22 549.89 603.11 Q 557.97 613.75 564.77 620.64 Q 569.04 624.96 574.86 630.18 Q 580.02 634.80 585.58 638.50 C 597.48 646.43 609.77 653.79 622.31 658.45 Q 628.65 660.80 637.38 661.77 Q 643.85 666.72 652.96 665.83 Q 651.62 669.39 648.83 671.12 C 645.52 673.16 640.75 673.16 637.00 672.84 Q 625.19 671.83 613.35 671.03 C 610.68 670.84 606.40 670.87 602.97 670.38 C 599.24 669.83 593.07 669.79 588.25 668.02 Q 586.83 667.49 584.02 668.29 C 576.12 664.77 569.62 659.23 562.77 654.05 Q 558.16 650.57 554.15 646.88 Q 549.97 643.04 545.52 638.98 C 538.86 632.90 532.08 625.76 525.19 619.27 C 523.10 617.30 521.33 615.22 519.18 613.28 Q 507.45 602.73 498.05 595.38 C 495.13 593.09 492.70 590.84 489.72 588.84 C 485.72 586.17 481.82 583.36 477.46 581.02 Q 471.78 577.97 466.01 574.97 Q 456.14 569.83 444.50 565.96 Q 439.13 564.17 433.93 563.25 C 429.05 562.38 424.01 561.16 419.10 560.97 Q 414.76 560.81 410.21 560.56 Q 406.21 560.34 401.69 560.69 Q 388.99 561.66 379.60 564.90 C 371.68 567.64 363.14 571.00 356.05 575.43 Q 346.84 581.19 338.40 589.08 A 0.60 0.59 54.0 0 1 337.47 588.93 C 331.40 577.86 324.65 566.67 319.35 555.38 Q 306.73 528.50 298.99 499.75 Q 296.55 490.68 292.99 470.09 Q 296.54 473.59 300.75 475.04 Q 306.97 477.20 313.41 478.75 C 317.35 479.69 321.60 479.81 325.64 479.97 C 340.14 480.52 354.85 476.40 366.17 467.04 C 368.06 465.47 369.14 463.74 370.83 462.12 Q 373.08 459.97 375.07 457.44 C 378.51 454.28 382.48 451.15 385.13 447.32 C 386.71 445.03 388.23 443.07 389.51 440.53 Q 392.89 433.74 394.98 426.08 Q 395.73 423.31 395.88 420.68 C 396.02 418.15 396.64 416.01 396.52 413.43 Q 396.12 404.83 395.50 401.01 Q 392.88 384.74 382.87 371.91 C 380.56 368.94 377.72 366.97 375.07 364.49 Q 373.39 362.92 371.79 361.97 Q 356.14 352.72 340.96 352.45 C 333.91 352.33 324.79 353.01 317.28 354.43 Q 310.77 355.66 303.53 357.45 C 301.88 357.86 300.55 358.74 298.77 358.75 Q 294.50 358.76 290.28 360.43 A 0.62 0.61 -3.0 0 1 289.46 359.70 C 290.74 355.13 291.19 350.36 292.21 345.73 Q 294.34 336.08 298.21 324.30 Q 298.69 322.85 299.06 321.35 Q 299.83 321.86 300.09 321.43 Q 301.04 319.78 302.41 318.38 Q 303.85 316.91 304.55 315.35 Q 305.70 312.79 307.69 310.26 C 311.12 305.91 314.02 301.27 317.29 296.61 C 320.09 292.63 323.42 289.08 326.38 285.16 Q 329.52 281.01 333.42 276.95 Q 342.93 267.10 351.78 259.01 Q 360.09 251.40 373.59 241.41 Q 375.63 239.90 377.86 238.67 C 381.42 236.71 384.55 234.32 388.10 232.30 Q 404.10 223.19 420.51 218.40 A 0.82 0.82 0.0 0 0 420.86 217.03 L 412.18 208.28 Q 413.67 207.93 414.14 207.43 Q 415.47 206.01 417.12 207.03 C 423.97 211.25 431.37 215.87 438.62 218.27 Q 445.32 220.49 451.49 217.98 Q 453.69 217.09 455.25 213.90 C 457.50 209.30 453.25 204.44 449.42 202.26 C 445.64 200.11 441.79 198.76 438.25 196.17 C 436.01 194.53 433.51 193.30 431.40 191.61 Q 426.39 187.59 423.54 184.47 Q 420.89 181.58 419.38 177.21 Q 425.27 175.73 430.99 173.51 Q 432.00 173.12 434.47 173.52 Q 446.60 175.45 455.16 181.35 Q 464.88 188.04 468.33 190.11 Q 472.00 194.10 477.87 197.39 C 480.71 198.98 483.61 198.32 486.64 197.65 Q 488.92 197.14 490.09 195.39 Q 492.12 192.33 491.85 190.09 C 491.39 186.33 489.53 182.73 487.27 179.46 Q 482.52 172.58 478.30 165.65 Q 479.52 164.15 480.66 163.65 C 493.17 158.13 502.80 174.56 507.84 183.04 Q 508.10 183.48 508.61 183.57 L 513.06 184.33 Z M 593.38 296.65 Q 591.65 297.59 589.88 299.86 Q 587.40 303.05 587.51 306.33 Q 587.95 319.02 599.67 321.57 C 601.68 322.01 603.62 321.35 605.62 321.22 C 609.45 320.97 613.03 318.25 615.42 315.57 C 618.67 311.92 620.19 303.61 616.33 299.42 Q 615.10 298.08 612.05 296.00 Q 612.07 288.47 606.33 286.06 C 602.11 284.29 597.28 285.59 594.81 289.51 Q 592.63 292.97 593.38 296.65 Z M 625.9424 340.2151 A 8.61 7.85 133.6 0 0 637.5647 339.3935 A 8.61 7.85 133.6 0 0 637.8176 327.7449 A 8.61 7.85 133.6 0 0 626.1953 328.5665 A 8.61 7.85 133.6 0 0 625.9424 340.2151 Z M 434.11 361.28 Q 430.50 368.98 429.69 375.01 Q 427.40 392.13 435.66 408.02 C 441.44 419.16 450.97 426.97 463.00 430.73 Q 468.40 432.41 473.93 432.38 C 475.50 432.38 476.78 432.91 478.36 432.71 C 482.67 432.17 487.42 431.66 491.51 430.43 Q 503.04 426.99 511.42 418.99 Q 518.94 411.82 522.83 401.97 Q 530.95 381.42 521.87 359.98 Q 520.30 356.28 514.91 348.44 Q 513.57 346.49 511.76 345.04 C 508.58 342.48 505.99 339.63 502.24 337.82 Q 489.24 331.56 478.28 331.88 Q 468.67 332.16 457.31 337.18 Q 453.92 338.69 449.61 341.93 Q 445.38 345.12 442.95 347.68 Q 438.09 352.80 434.11 361.28 Z M 331.50 342.31 A 9.72 9.72 0.0 0 0 321.78 332.59 A 9.72 9.72 0.0 0 0 312.06 342.31 A 9.72 9.72 0.0 0 0 321.78 352.03 A 9.72 9.72 0.0 0 0 331.50 342.31 Z M 669.36 506.11 Q 674.82 508.05 683.55 509.82 C 687.58 510.63 690.31 509.82 692.81 506.58 C 696.63 501.62 692.03 496.19 686.95 494.96 Q 679.08 493.06 672.62 490.35 C 667.54 488.21 662.56 492.25 662.68 497.45 Q 662.81 503.77 669.36 506.11 Z M 364.97 529.30 Q 366.68 533.28 369.61 536.93 C 372.40 540.41 376.67 541.47 380.87 542.66 C 385.35 543.93 387.74 543.52 391.25 540.81 Q 393.12 539.36 393.29 537.27 C 393.69 532.32 390.74 529.82 386.23 529.93 C 378.80 530.10 375.64 520.40 375.41 514.44 Q 375.26 510.41 372.22 508.08 C 369.44 505.95 365.90 506.97 364.25 509.83 Q 361.93 513.87 362.32 518.22 Q 362.88 524.40 364.97 529.30 Z M 414.08 538.90 C 418.80 544.03 430.77 547.99 436.46 543.54 C 442.45 538.85 439.50 531.86 432.19 532.01 C 428.50 532.09 422.54 528.74 421.29 525.14 Q 419.69 520.52 418.38 515.69 C 416.52 508.88 409.98 509.61 407.16 515.06 Q 406.11 517.09 406.28 519.93 Q 406.95 531.16 414.08 538.90 Z M 629.41 520.12 C 625.64 518.69 622.63 515.96 619.77 513.09 C 616.89 510.20 611.60 509.99 608.98 513.48 C 606.63 516.63 606.33 520.12 608.64 523.39 Q 611.11 526.89 612.88 528.03 Q 615.30 529.59 617.44 531.12 C 620.69 533.44 623.54 534.04 626.87 535.53 Q 628.76 536.37 630.57 535.83 Q 635.34 534.39 636.87 530.63 C 638.70 526.14 632.78 521.41 629.41 520.12 Z M 657.22 550.25 C 656.28 555.73 660.02 559.25 665.05 559.98 Q 671.77 560.95 678.47 561.71 C 683.03 562.23 688.01 561.09 690.17 556.65 C 692.07 552.73 689.15 547.04 684.67 546.65 Q 681.49 546.37 678.47 545.44 C 675.60 544.56 672.83 545.65 670.13 544.56 C 665.13 542.55 658.27 544.15 657.22 550.25 Z" style="fill: rgb(89, 171, 217);"/>
  <path fill="#fdfbef" d=" M 519.42 201.35 Q 521.86 203.46 524.60 203.58 Q 527.53 203.71 528.34 203.92 C 533.03 205.10 537.60 205.74 542.03 207.00 Q 561.57 212.57 578.94 222.18 C 581.88 223.81 584.41 225.85 587.28 227.35 Q 590.00 228.76 592.26 230.70 C 594.47 232.59 597.20 233.82 599.62 235.68 Q 612.88 245.87 624.17 257.91 Q 626.20 260.08 627.83 262.47 C 629.39 264.76 631.30 266.71 632.91 268.96 Q 643.70 283.97 651.02 300.99 Q 657.06 315.00 661.22 330.96 Q 642.79 300.12 626.27 280.49 Q 609.06 260.04 588.08 244.75 Q 579.53 238.52 565.34 230.52 Q 554.81 224.59 536.53 218.02 C 533.48 216.93 529.90 216.27 526.64 215.12 C 522.73 213.75 518.89 213.87 515.08 212.01 Q 513.48 211.23 514.40 209.70 L 519.42 201.35 Z"/>
  <path fill="#fdfbef" d=" M 412.18 208.28 L 420.86 217.03 A 0.82 0.82 0.0 0 1 420.51 218.40 Q 404.10 223.19 388.10 232.30 C 384.55 234.32 381.42 236.71 377.86 238.67 Q 375.63 239.90 373.59 241.41 Q 360.09 251.40 351.78 259.01 Q 342.93 267.10 333.42 276.95 Q 329.52 281.01 326.38 285.16 C 323.42 289.08 320.09 292.63 317.29 296.61 C 314.02 301.27 311.12 305.91 307.69 310.26 Q 305.70 312.79 304.55 315.35 Q 303.85 316.91 302.41 318.38 Q 301.04 319.78 300.09 321.43 Q 299.83 321.86 299.06 321.35 Q 301.98 314.18 304.98 307.01 Q 307.79 300.29 310.93 294.60 Q 314.26 288.58 318.10 282.77 Q 321.37 277.83 323.38 274.44 Q 324.56 272.44 326.02 270.76 C 327.40 269.15 328.29 267.35 329.62 265.67 Q 346.82 244.08 369.46 228.22 C 371.27 226.95 373.32 226.11 375.07 224.97 Q 385.42 218.22 388.98 216.73 Q 395.10 214.17 401.06 211.27 C 402.45 210.59 404.18 210.98 405.12 210.38 Q 408.41 208.30 412.18 208.28 Z"/>
  <path fill="#fdfbef" d=" M 612.05 296.00 Q 610.15 301.41 605.76 302.75 Q 597.96 305.14 593.38 296.65 Q 592.63 292.97 594.81 289.51 C 597.28 285.59 602.11 284.29 606.33 286.06 Q 612.07 288.47 612.05 296.00 Z"/>
  <path fill="#6a798b" d=" M 593.38 296.65 Q 597.96 305.14 605.76 302.75 Q 610.15 301.41 612.05 296.00 Q 615.10 298.08 616.33 299.42 C 620.19 303.61 618.67 311.92 615.42 315.57 C 613.03 318.25 609.45 320.97 605.62 321.22 C 603.62 321.35 601.68 322.01 599.67 321.57 Q 587.95 319.02 587.51 306.33 Q 587.40 303.05 589.88 299.86 Q 591.65 297.59 593.38 296.65 Z"/>
  <ellipse fill="#6a798b" cx="0.00" cy="0.00" transform="translate(631.88,333.98) rotate(133.6)" rx="8.61" ry="7.85"/>
  <path fill="#351b29" d=" M 434.11 361.28 Q 438.09 352.80 442.95 347.68 Q 445.38 345.12 449.61 341.93 Q 453.92 338.69 457.31 337.18 Q 468.67 332.16 478.28 331.88 Q 489.24 331.56 502.24 337.82 C 505.99 339.63 508.58 342.48 511.76 345.04 Q 513.57 346.49 514.91 348.44 Q 520.30 356.28 521.87 359.98 Q 530.95 381.42 522.83 401.97 Q 518.94 411.82 511.42 418.99 Q 503.04 426.99 491.51 430.43 C 487.42 431.66 482.67 432.17 478.36 432.71 C 476.78 432.91 475.50 432.38 473.93 432.38 Q 468.40 432.41 463.00 430.73 C 450.97 426.97 441.44 419.16 435.66 408.02 Q 427.40 392.13 429.69 375.01 Q 430.50 368.98 434.11 361.28 Z M 501.1596 373.1812 A 16.75 16.13 20.3 0 0 491.0461 352.2419 A 16.75 16.13 20.3 0 0 469.7404 361.5588 A 16.75 16.13 20.3 0 0 479.8539 382.4981 A 16.75 16.13 20.3 0 0 501.1596 373.1812 Z M 501.2573 397.6565 A 6.09 5.40 -37.1 0 0 493.1427 397.0230 A 6.09 5.40 -37.1 0 0 491.5427 405.0035 A 6.09 5.40 -37.1 0 0 499.6573 405.6370 A 6.09 5.40 -37.1 0 0 501.2573 397.6565 Z"/>
  <circle fill="#351b29" cx="321.78" cy="342.31" r="9.72"/>
  <ellipse fill="#fdfbef" cx="0.00" cy="0.00" transform="translate(485.45,367.37) rotate(20.3)" rx="16.75" ry="16.13"/>
  <path fill="#fdfbef" d=" M 354.81 377.23 Q 353.78 378.76 350.69 379.15 Q 347.78 379.52 346.36 379.91 Q 340.25 381.59 334.03 381.93 C 332.27 382.03 330.69 382.59 329.00 382.97 Q 327.07 383.40 325.22 383.54 Q 321.15 383.84 315.24 384.75 Q 303.05 386.62 290.52 388.36 C 287.66 388.76 284.71 388.83 281.92 389.45 Q 278.46 390.21 275.50 390.50 Q 270.02 391.04 264.57 391.96 C 255.97 393.41 247.37 393.95 238.33 395.37 Q 234.78 395.93 232.40 397.28 L 228.67 398.70 Q 231.73 395.26 234.99 393.77 C 239.05 391.92 243.57 390.18 247.98 389.07 Q 273.29 382.71 299.93 378.44 Q 303.21 377.92 306.40 377.18 Q 308.60 376.67 310.79 376.48 C 315.38 376.09 320.00 374.82 324.60 373.83 Q 325.47 373.64 327.40 373.68 Q 328.64 373.70 330.25 373.42 Q 343.40 371.11 354.81 377.23 Z"/>
  <path fill="#fdd870" d=" M 354.81 377.23 Q 368.92 384.09 373.01 399.27 Q 375.18 407.34 373.86 416.32 Q 372.70 419.12 370.01 421.61 C 367.22 424.21 361.31 423.79 357.74 423.96 Q 355.02 424.09 352.35 424.00 C 332.43 423.34 312.50 420.28 293.23 416.22 Q 279.60 413.35 272.67 411.93 C 267.07 410.78 261.57 409.32 255.93 407.97 C 250.76 406.73 245.59 404.83 240.49 403.11 Q 235.53 401.44 232.40 397.28 Q 234.78 395.93 238.33 395.37 C 247.37 393.95 255.97 393.41 264.57 391.96 Q 270.02 391.04 275.50 390.50 Q 278.46 390.21 281.92 389.45 C 284.71 388.83 287.66 388.76 290.52 388.36 Q 303.05 386.62 315.24 384.75 Q 321.15 383.84 325.22 383.54 Q 327.07 383.40 329.00 382.97 C 330.69 382.59 332.27 382.03 334.03 381.93 Q 340.25 381.59 346.36 379.91 Q 347.78 379.52 350.69 379.15 Q 353.78 378.76 354.81 377.23 Z"/>
  <ellipse fill="#fdfbef" cx="0.00" cy="0.00" transform="translate(496.40,401.33) rotate(-37.1)" rx="6.09" ry="5.40"/>
  <path fill="#fdfbef" d=" M 884.43 417.24 Q 880.22 414.99 876.63 412.11 Q 874.33 410.26 872.00 409.92 C 862.64 408.56 856.90 415.17 851.14 421.45 C 849.08 423.70 847.72 426.27 845.81 428.65 Q 843.69 431.30 841.65 435.65 Q 840.47 438.15 840.14 436.83 C 841.23 434.60 841.99 432.43 843.32 430.33 C 844.82 427.95 845.82 425.32 847.13 422.82 Q 850.49 416.37 853.11 410.27 C 854.92 406.07 859.34 399.26 864.37 397.85 Q 870.08 396.25 871.25 396.47 C 874.52 397.09 878.78 398.41 880.54 401.40 Q 882.16 404.14 883.54 406.73 Q 885.40 410.23 884.43 417.24 Z"/>
  <path fill="#d5a165" d=" M 232.40 397.28 Q 235.53 401.44 240.49 403.11 C 245.59 404.83 250.76 406.73 255.93 407.97 C 261.57 409.32 267.07 410.78 272.67 411.93 Q 279.60 413.35 293.23 416.22 C 312.50 420.28 332.43 423.34 352.35 424.00 Q 355.02 424.09 357.74 423.96 C 361.31 423.79 367.22 424.21 370.01 421.61 Q 372.70 419.12 373.86 416.32 Q 372.69 425.32 368.44 433.09 Q 367.01 435.70 364.92 437.17 C 362.77 438.67 360.95 440.63 358.54 441.69 Q 352.66 444.26 347.59 444.36 Q 338.93 444.54 332.16 443.19 Q 328.79 442.52 325.76 441.92 C 320.28 440.84 314.94 439.40 309.42 438.06 Q 304.80 436.93 298.70 434.99 Q 293.52 433.34 288.04 431.64 Q 274.55 427.47 255.78 420.30 Q 244.61 416.04 235.47 411.30 C 231.44 409.21 228.98 405.92 227.32 401.79 Q 226.99 400.96 227.31 400.10 Q 227.73 398.99 228.67 398.70 L 232.40 397.28 Z"/>
  <path d=" M 884.43 417.24 Q 884.51 420.89 883.35 424.30 Q 880.32 433.16 874.07 444.33 Q 866.39 458.02 859.53 467.67 Q 856.33 472.18 853.18 476.43 Q 847.78 483.74 841.28 490.55 Q 839.48 492.43 837.61 494.21 C 834.93 496.76 832.57 499.57 829.65 501.74 C 826.86 503.83 824.67 506.33 821.80 508.20 Q 820.18 509.26 819.20 507.59 C 818.72 506.79 818.16 506.11 817.33 505.67 C 812.21 502.93 806.56 499.40 800.70 499.15 A 1.46 1.46 0.0 0 1 799.39 497.21 Q 800.76 493.31 800.37 489.78 A 2.70 2.70 0.0 0 1 801.31 487.42 C 803.94 485.22 805.85 482.57 808.41 480.34 C 812.70 476.62 815.68 471.63 819.59 467.79 C 821.34 466.07 822.09 464.00 823.71 462.20 Q 825.97 459.68 827.58 456.82 C 829.04 454.23 831.15 452.21 832.67 449.70 Q 834.64 446.48 840.14 436.83 Q 840.47 438.15 841.65 435.65 Q 843.69 431.30 845.81 428.65 C 847.72 426.27 849.08 423.70 851.14 421.45 C 856.90 415.17 862.64 408.56 872.00 409.92 Q 874.33 410.26 876.63 412.11 Q 880.22 414.99 884.43 417.24 Z M 836.9205 458.2952 A 8.64 7.33 125.6 0 0 847.9100 455.5370 A 8.64 7.33 125.6 0 0 846.9795 444.2448 A 8.64 7.33 125.6 0 0 835.9900 447.0030 A 8.64 7.33 125.6 0 0 836.9205 458.2952 Z M 820.24 497.29 Q 826.47 493.68 832.64 487.73 C 836.54 483.96 836.60 479.50 832.63 475.63 C 828.44 471.55 823.13 477.00 820.33 479.79 C 817.62 482.48 814.54 484.61 811.47 486.94 C 806.57 490.64 813.89 500.97 820.24 497.29 Z" style="fill: rgb(89, 171, 217);"/>
  <path fill="#fdfbef" d=" M 947.16 437.26 Q 946.59 437.04 946.27 435.80 A 1.68 1.66 9.4 0 0 945.54 434.79 Q 943.01 433.20 940.78 431.23 C 935.24 426.34 927.31 426.42 921.20 429.86 C 918.76 431.24 917.04 433.37 914.69 434.82 Q 912.38 436.25 910.50 438.66 Q 906.14 444.25 899.92 449.58 Q 898.90 450.47 898.06 451.83 Q 897.27 453.13 896.34 454.23 C 893.88 454.94 892.17 458.83 890.24 460.53 Q 889.68 461.02 889.91 460.32 C 891.01 456.97 893.44 454.67 895.07 451.64 Q 897.85 446.48 901.02 441.37 Q 901.95 439.88 902.61 438.32 C 904.18 434.66 906.54 431.45 908.79 428.14 C 910.71 425.32 912.82 423.71 915.09 421.44 C 917.70 418.82 922.26 416.77 925.45 415.69 Q 928.43 414.68 932.77 414.42 Q 935.55 414.25 938.04 415.32 Q 945.82 418.67 947.75 427.14 Q 948.22 429.19 947.60 430.75 Q 947.41 431.21 947.39 431.70 L 947.16 437.26 Z"/>
  <path d=" M 947.16 437.26 Q 947.12 439.84 946.43 441.70 Q 942.22 453.02 936.85 461.71 Q 930.37 472.17 925.39 477.99 C 914.98 490.15 903.31 502.70 892.32 512.60 Q 887.02 517.38 881.24 522.16 C 875.85 526.63 870.07 530.35 864.38 534.34 C 862.79 535.46 861.47 537.32 861.25 539.28 C 861.07 540.81 860.34 542.39 860.87 543.88 Q 863.36 550.92 869.91 550.85 Q 873.47 550.81 878.85 547.61 Q 885.07 543.90 888.93 540.82 C 892.60 537.91 896.28 535.49 899.80 532.49 Q 920.81 514.63 929.56 504.93 Q 935.98 497.82 942.12 493.48 Q 946.50 490.38 951.54 489.21 Q 955.62 488.27 960.73 489.61 Q 969.81 492.01 970.74 501.30 Q 966.09 507.81 959.69 514.18 Q 955.38 518.47 948.01 524.27 Q 938.56 531.70 928.06 535.09 C 925.29 529.85 920.28 525.45 914.35 529.36 Q 909.01 532.87 911.44 539.51 Q 911.41 541.85 906.88 544.12 Q 889.33 552.92 875.15 557.61 C 866.83 560.36 860.60 562.39 852.87 560.68 C 844.62 558.86 846.55 553.30 843.97 547.48 Q 839.32 536.99 827.98 539.82 L 828.66 537.76 A 1.21 1.17 39.8 0 0 828.56 536.83 C 827.83 535.58 828.65 534.89 828.68 533.70 Q 828.77 529.12 827.69 524.78 Q 827.57 524.29 828.05 524.15 Q 834.14 522.45 839.82 517.28 C 845.59 512.05 851.34 506.83 856.66 501.08 Q 868.33 488.46 879.05 475.03 C 879.94 473.91 880.41 472.54 881.37 471.42 Q 883.90 468.49 886.14 464.97 C 886.91 463.77 887.95 462.72 888.88 461.63 Q 889.00 461.50 889.18 461.48 Q 889.23 461.48 889.28 461.50 Q 889.42 461.59 889.33 461.72 Q 886.96 465.50 884.67 469.36 Q 882.26 473.40 886.31 476.98 C 890.75 480.91 895.40 477.86 898.35 474.03 Q 902.02 469.27 904.40 465.15 Q 907.21 460.30 903.71 456.06 C 901.83 453.79 898.91 454.30 896.34 454.23 Q 897.27 453.13 898.06 451.83 Q 898.90 450.47 899.92 449.58 Q 906.14 444.25 910.50 438.66 Q 912.38 436.25 914.69 434.82 C 917.04 433.37 918.76 431.24 921.20 429.86 C 927.31 426.42 935.24 426.34 940.78 431.23 Q 943.01 433.20 945.54 434.79 A 1.68 1.66 9.4 0 1 946.27 435.80 Q 946.59 437.04 947.16 437.26 Z M 865.8439 508.8958 A 8.35 7.76 129.9 0 0 877.1532 507.4676 A 8.35 7.76 129.9 0 0 876.5561 496.0842 A 8.35 7.76 129.9 0 0 865.2468 497.5124 A 8.35 7.76 129.9 0 0 865.8439 508.8958 Z" style="fill: rgb(89, 171, 217);"/>
  <ellipse fill="#351b29" cx="0.00" cy="0.00" transform="translate(841.95,451.27) rotate(125.6)" rx="8.64" ry="7.33"/>
  <path fill="#fdfbef" d=" M 670.52 448.49 C 680.29 451.95 689.98 455.78 699.90 458.86 Q 705.57 460.62 711.05 462.10 C 714.60 463.06 717.80 464.30 721.01 464.90 Q 725.06 465.65 729.16 466.47 Q 730.77 466.79 732.27 467.40 C 733.93 468.06 735.43 467.41 737.12 468.06 C 738.82 468.70 740.76 469.39 742.59 469.25 C 745.27 469.05 747.48 470.43 750.13 470.85 Q 755.76 471.76 761.33 472.61 Q 762.09 472.73 763.81 473.74 Q 764.96 474.41 766.31 474.76 Q 778.37 477.84 776.94 491.30 Q 772.88 488.54 769.52 484.99 Q 768.31 483.72 761.38 481.97 Q 755.14 480.39 750.56 480.16 Q 747.32 479.99 744.44 479.54 Q 741.20 479.04 738.26 478.72 Q 729.48 477.79 720.55 476.11 Q 717.15 475.47 713.68 475.06 Q 710.10 474.63 706.53 474.18 L 688.64 469.34 Q 682.98 466.59 677.14 464.16 C 673.15 462.49 669.85 460.30 666.16 458.29 Q 665.32 457.83 665.21 456.88 C 664.89 453.95 668.73 450.66 670.52 448.49 Z"/>
  <path fill="#7f8fa0" d=" M 375.07 457.44 Q 373.08 459.97 370.83 462.12 C 369.14 463.74 368.06 465.47 366.17 467.04 C 354.85 476.40 340.14 480.52 325.64 479.97 C 321.60 479.81 317.35 479.69 313.41 478.75 Q 306.97 477.20 300.75 475.04 Q 296.54 473.59 292.99 470.09 L 290.89 455.11 A 0.36 0.36 0.0 0 1 291.36 454.72 Q 305.75 459.54 320.36 463.19 C 326.01 464.60 331.59 465.12 337.24 465.97 Q 339.60 466.33 341.66 466.22 Q 344.28 466.08 346.94 466.18 Q 349.85 466.30 353.34 465.60 Q 356.68 464.93 360.00 464.24 Q 366.11 462.98 375.07 457.44 Z"/>
  <path fill="#6a798b" d=" M 688.64 469.34 L 706.53 474.18 C 707.79 479.10 709.01 484.16 703.29 486.32 C 699.11 487.89 695.57 487.42 691.35 485.94 C 686.92 484.37 681.97 482.61 683.36 476.73 C 684.03 473.88 686.65 471.65 688.64 469.34 Z"/>
  <path fill="#6a798b" d=" M 820.24 497.29 C 813.89 500.97 806.57 490.64 811.47 486.94 C 814.54 484.61 817.62 482.48 820.33 479.79 C 823.13 477.00 828.44 471.55 832.63 475.63 C 836.60 479.50 836.54 483.96 832.64 487.73 Q 826.47 493.68 820.24 497.29 Z"/>
  <path fill="#6a798b" d=" M 669.36 506.11 Q 662.81 503.77 662.68 497.45 C 662.56 492.25 667.54 488.21 672.62 490.35 Q 679.08 493.06 686.95 494.96 C 692.03 496.19 696.63 501.62 692.81 506.58 C 690.31 509.82 687.58 510.63 683.55 509.82 Q 674.82 508.05 669.36 506.11 Z"/>
  <ellipse fill="#6a798b" cx="0.00" cy="0.00" transform="translate(871.20,502.49) rotate(129.9)" rx="8.35" ry="7.76"/>
  <path d=" M 970.74 501.30 Q 971.78 506.60 969.92 510.50 C 968.55 513.38 967.43 516.28 965.49 518.86 Q 957.82 529.08 949.55 536.89 Q 936.14 549.54 918.37 560.77 Q 894.98 575.56 867.30 584.85 Q 861.90 586.66 857.07 587.85 C 852.39 589.00 847.76 590.40 843.14 591.14 Q 834.90 592.47 827.21 593.96 Q 823.79 594.63 821.69 598.66 Q 818.25 605.28 814.52 611.11 Q 807.39 622.28 794.99 637.06 Q 772.47 663.89 740.07 684.73 Q 735.77 687.49 729.52 690.75 C 717.37 697.08 703.64 701.33 690.07 701.27 C 685.23 701.26 680.28 701.64 675.49 700.99 C 671.35 700.43 667.24 700.08 663.13 699.19 C 659.86 698.48 656.42 698.46 653.25 697.59 Q 647.53 696.00 641.56 694.47 C 635.92 693.01 630.44 690.62 624.81 689.03 Q 620.87 687.92 616.86 686.02 C 611.71 683.58 606.21 681.65 601.11 678.67 Q 598.82 677.34 593.39 674.58 Q 588.37 672.03 584.02 668.29 Q 586.83 667.49 588.25 668.02 C 593.07 669.79 599.24 669.83 602.97 670.38 C 606.40 670.87 610.68 670.84 613.35 671.03 Q 625.19 671.83 637.00 672.84 C 640.75 673.16 645.52 673.16 648.83 671.12 Q 651.62 669.39 652.96 665.83 Q 655.55 663.45 656.45 660.29 C 657.87 655.27 650.45 651.84 646.55 650.28 Q 643.44 649.03 641.21 649.60 C 635.81 650.98 635.64 657.03 637.38 661.77 Q 628.65 660.80 622.31 658.45 C 609.77 653.79 597.48 646.43 585.58 638.50 Q 580.02 634.80 574.86 630.18 Q 569.04 624.96 564.77 620.64 Q 557.97 613.75 549.89 603.11 Q 540.86 591.22 535.11 578.68 Q 532.40 572.79 530.09 566.96 Q 527.32 559.96 526.65 550.67 A 1.25 1.23 -35.0 0 1 526.77 550.02 Q 527.02 549.52 526.91 549.01 Q 526.33 546.16 526.58 542.77 Q 526.72 540.82 526.58 538.07 Q 526.47 535.74 526.95 533.40 Q 526.81 540.85 527.93 545.25 Q 530.49 555.37 535.30 563.17 C 537.44 566.64 539.60 570.45 542.06 573.63 Q 556.20 591.87 573.36 604.43 Q 576.20 606.51 578.89 608.38 Q 588.67 615.15 600.53 621.47 Q 606.26 624.53 616.27 628.81 Q 624.07 632.15 632.58 634.67 Q 651.37 640.22 669.87 643.00 Q 675.93 643.91 681.85 644.29 Q 687.53 644.65 693.99 644.80 C 695.50 644.83 696.88 644.48 698.40 644.59 Q 705.20 645.08 712.28 643.71 C 714.50 643.28 716.54 644.02 718.70 643.37 C 721.49 642.53 724.25 642.22 727.08 641.58 Q 732.04 640.44 737.09 639.24 Q 749.51 636.27 764.47 629.97 Q 780.33 623.28 792.05 614.32 C 801.69 606.94 808.83 596.83 809.40 584.71 Q 809.51 582.32 809.10 580.39 C 808.19 576.19 807.82 572.56 805.51 568.78 Q 804.31 566.82 806.29 565.64 Q 816.02 559.83 822.41 551.43 Q 824.74 548.37 827.98 539.82 Q 839.32 536.99 843.97 547.48 C 846.55 553.30 844.62 558.86 852.87 560.68 C 860.60 562.39 866.83 560.36 875.15 557.61 Q 889.33 552.92 906.88 544.12 Q 911.41 541.85 911.44 539.51 Q 913.40 542.71 916.30 544.19 Q 920.24 546.21 924.42 543.46 Q 926.87 541.84 927.27 539.75 Q 927.73 537.34 928.06 535.09 Q 938.56 531.70 948.01 524.27 Q 955.38 518.47 959.69 514.18 Q 966.09 507.81 970.74 501.30 Z M 734.50 665.41 Q 738.09 664.25 739.13 659.83 C 739.72 657.27 739.73 655.28 737.82 653.23 Q 735.51 650.77 733.22 650.79 C 728.73 650.84 723.62 652.68 718.76 653.44 C 715.62 653.93 712.55 654.10 709.43 655.12 C 705.64 656.35 701.72 655.26 698.07 657.29 C 694.55 659.24 692.47 663.86 694.75 667.56 C 696.06 669.69 698.02 671.65 700.71 671.22 Q 702.58 670.91 704.28 671.06 C 707.62 671.36 710.48 670.29 713.76 670.21 Q 716.07 670.16 718.31 669.68 Q 727.19 667.78 734.50 665.41 Z" style="fill: rgb(69, 116, 165);"/>
  <path fill="#6a798b" d=" M 364.97 529.30 Q 362.88 524.40 362.32 518.22 Q 361.93 513.87 364.25 509.83 C 365.90 506.97 369.44 505.95 372.22 508.08 Q 375.26 510.41 375.41 514.44 C 375.64 520.40 378.80 530.10 386.23 529.93 C 390.74 529.82 393.69 532.32 393.29 537.27 Q 393.12 539.36 391.25 540.81 C 387.74 543.52 385.35 543.93 380.87 542.66 C 376.67 541.47 372.40 540.41 369.61 536.93 Q 366.68 533.28 364.97 529.30 Z"/>
  <path fill="#351b29" d=" M 436.46 543.54 C 430.77 547.99 418.80 544.03 414.08 538.90 Q 406.95 531.16 406.28 519.93 Q 406.11 517.09 407.16 515.06 C 409.98 509.61 416.52 508.88 418.38 515.69 Q 419.69 520.52 421.29 525.14 C 422.54 528.74 428.50 532.09 432.19 532.01 C 439.50 531.86 442.45 538.85 436.46 543.54 Z"/>
  <path fill="#6a798b" d=" M 629.41 520.12 C 632.78 521.41 638.70 526.14 636.87 530.63 Q 635.34 534.39 630.57 535.83 Q 628.76 536.37 626.87 535.53 C 623.54 534.04 620.69 533.44 617.44 531.12 Q 615.30 529.59 612.88 528.03 Q 611.11 526.89 608.64 523.39 C 606.33 520.12 606.63 516.63 608.98 513.48 C 611.60 509.99 616.89 510.20 619.77 513.09 C 622.63 515.96 625.64 518.69 629.41 520.12 Z"/>
  <path fill="#7f8fa0" d=" M 789.54 518.31 Q 794.83 517.98 799.68 521.06 C 802.86 523.07 803.43 525.71 804.87 528.83 Q 805.08 529.30 805.04 529.81 Q 804.92 531.51 805.41 533.01 Q 805.58 533.51 805.43 534.02 C 804.68 536.47 804.16 539.11 802.54 541.20 C 797.00 548.34 786.39 551.69 777.64 552.31 C 770.63 552.80 763.27 553.56 756.07 553.46 Q 747.28 553.34 738.37 553.06 Q 741.99 551.48 746.43 551.22 Q 750.42 550.98 752.61 550.26 Q 758.86 548.23 764.58 547.13 C 772.46 545.61 780.91 541.60 786.70 536.87 C 790.35 533.89 794.23 528.80 792.98 523.76 Q 792.46 521.71 789.54 518.31 Z"/>
  <path d=" M 549.26 525.12 Q 552.08 530.90 555.07 536.71 Q 558.53 543.41 561.91 547.89 Q 572.42 561.82 587.62 571.64 Q 593.87 575.69 600.77 579.56 C 605.09 581.98 609.97 583.58 614.61 585.63 Q 615.66 586.10 615.94 585.14 Q 620.80 587.19 625.56 589.71 Q 627.57 590.78 630.51 589.73 Q 631.78 589.28 633.25 587.96 Q 634.66 586.70 635.78 585.83 Q 637.21 586.55 639.40 586.70 Q 641.62 586.85 643.02 587.28 C 656.19 591.30 668.15 592.32 682.40 593.28 Q 688.87 593.72 694.86 593.00 Q 702.97 592.03 707.71 590.46 Q 712.23 588.96 718.51 586.06 Q 729.47 580.99 733.25 568.94 Q 737.40 572.80 742.77 573.22 Q 758.35 574.42 768.29 573.69 Q 775.80 573.14 779.73 573.77 Q 785.09 574.62 785.75 580.49 Q 786.05 583.16 786.03 585.88 Q 786.01 587.91 784.79 590.01 Q 783.10 592.91 781.03 594.65 Q 774.74 599.94 765.65 604.93 C 748.69 614.25 728.04 619.92 708.21 621.15 Q 693.38 622.07 683.35 621.29 Q 670.61 620.29 655.76 616.72 C 653.75 616.24 651.74 615.43 649.81 615.00 Q 634.75 611.63 616.37 602.77 Q 609.80 599.61 605.26 596.50 Q 602.18 594.39 599.10 592.70 C 596.11 591.05 593.15 589.51 590.48 587.45 C 586.74 584.56 582.83 581.96 579.22 578.90 Q 570.36 571.38 562.46 561.72 C 558.01 556.28 554.50 550.26 551.15 544.26 C 549.19 540.75 547.29 533.74 548.59 529.42 Q 548.73 528.97 548.67 528.50 Q 548.48 526.76 549.26 525.12 Z" style="fill: rgb(69, 116, 165);"/>
  <path fill="#6a798b" d=" M 928.06 535.09 Q 927.73 537.34 927.27 539.75 Q 926.87 541.84 924.42 543.46 Q 920.24 546.21 916.30 544.19 Q 913.40 542.71 911.44 539.51 Q 909.01 532.87 914.35 529.36 C 920.28 525.45 925.29 529.85 928.06 535.09 Z"/>
  <path fill="#6a798b" d=" M 665.05 559.98 C 660.02 559.25 656.28 555.73 657.22 550.25 C 658.27 544.15 665.13 542.55 670.13 544.56 C 672.83 545.65 675.60 544.56 678.47 545.44 Q 681.49 546.37 684.67 546.65 C 689.15 547.04 692.07 552.73 690.17 556.65 C 688.01 561.09 683.03 562.23 678.47 561.71 Q 671.77 560.95 665.05 559.98 Z"/>
  <path fill="#6a798b" d=" M 635.78 585.83 Q 634.66 586.70 633.25 587.96 Q 631.78 589.28 630.51 589.73 Q 627.57 590.78 625.56 589.71 Q 620.80 587.19 615.94 585.14 Q 613.68 584.24 611.72 582.80 Q 606.58 579.02 608.35 573.28 C 609.13 570.74 612.01 569.15 614.35 568.29 Q 616.71 567.42 619.15 569.17 Q 624.54 573.03 627.27 574.10 C 632.92 576.29 637.87 578.78 635.78 585.83 Z"/>
  <path fill="#ffeabe" d=" M 552.13 671.52 Q 550.48 672.81 548.77 673.93 C 545.82 675.86 541.94 676.60 538.65 677.81 Q 535.88 678.83 532.07 679.68 Q 526.97 680.83 522.00 681.72 Q 514.47 683.07 503.64 683.06 Q 490.08 683.05 475.75 680.60 Q 469.20 679.48 462.85 677.87 Q 456.10 676.16 449.96 674.30 Q 437.74 670.59 423.88 664.01 Q 409.04 656.96 393.69 645.36 C 383.09 637.35 374.52 627.20 367.34 616.00 Q 365.32 612.86 361.92 606.37 Q 359.34 601.46 356.62 596.66 Q 369.28 587.49 385.53 583.56 Q 397.31 580.71 405.43 580.56 Q 409.18 580.48 413.15 580.57 Q 417.23 580.65 422.13 581.41 Q 439.39 584.06 453.53 590.64 Q 463.81 595.42 470.88 600.27 C 476.58 604.18 482.61 608.37 487.99 612.77 Q 502.73 624.81 515.22 637.36 Q 523.22 645.42 529.86 651.75 Q 530.97 652.81 532.07 654.14 Q 533.45 655.80 535.60 657.39 Q 539.73 660.43 544.92 665.51 Q 546.12 666.68 548.58 668.38 Q 550.61 669.79 552.13 671.52 Z M 421.49 617.91 C 419.87 614.35 421.40 610.08 416.81 608.31 C 412.48 606.64 408.35 610.24 407.98 614.38 Q 406.95 626.16 413.55 635.34 Q 419.19 643.18 429.57 643.25 Q 431.48 643.26 433.08 642.24 C 438.94 638.45 438.77 631.56 431.31 630.08 Q 426.25 629.08 423.51 624.11 C 422.38 622.06 422.44 619.97 421.49 617.91 Z M 474.1973 635.7249 A 8.46 7.57 60.8 0 0 476.6780 624.6469 A 8.46 7.57 60.8 0 0 465.9427 620.9551 A 8.46 7.57 60.8 0 0 463.4620 632.0331 A 8.46 7.57 60.8 0 0 474.1973 635.7249 Z M 505.7276 654.0381 A 6.97 6.60 62.6 0 0 508.3796 644.8127 A 6.97 6.60 62.6 0 0 499.3124 641.6619 A 6.97 6.60 62.6 0 0 496.6604 650.8873 A 6.97 6.60 62.6 0 0 505.7276 654.0381 Z"/>
  <path fill="#cdb199" d=" M 356.62 596.66 Q 359.34 601.46 361.92 606.37 Q 365.32 612.86 367.34 616.00 C 374.52 627.20 383.09 637.35 393.69 645.36 Q 409.04 656.96 423.88 664.01 Q 437.74 670.59 449.96 674.30 Q 456.10 676.16 462.85 677.87 Q 469.20 679.48 475.75 680.60 Q 490.08 683.05 503.64 683.06 Q 514.47 683.07 522.00 681.72 Q 526.97 680.83 532.07 679.68 Q 535.88 678.83 538.65 677.81 C 541.94 676.60 545.82 675.86 548.77 673.93 Q 550.48 672.81 552.13 671.52 Q 555.91 674.08 559.33 677.02 Q 561.91 679.24 564.31 680.73 C 566.71 682.22 568.80 683.92 571.23 685.45 Q 586.41 695.00 595.31 698.93 Q 600.88 701.39 606.45 703.84 Q 612.59 706.55 617.71 708.42 Q 625.51 711.26 634.86 713.70 Q 636.84 714.21 638.54 714.73 Q 640.30 715.27 642.11 715.53 Q 648.48 716.45 655.00 718.28 C 656.17 718.61 657.33 718.41 658.51 718.55 Q 659.50 718.66 658.59 719.05 Q 656.41 719.97 654.24 720.49 Q 646.75 722.29 639.56 723.42 Q 633.52 724.37 624.61 725.56 Q 582.22 731.21 542.76 726.12 Q 527.67 724.17 510.71 720.60 Q 500.40 718.43 491.26 715.42 Q 468.62 707.96 453.24 700.65 Q 437.92 693.38 426.56 686.08 Q 425.11 685.15 423.71 684.29 Q 418.01 680.77 413.87 677.50 Q 411.51 675.64 409.34 674.06 C 404.36 670.44 399.77 666.11 395.09 662.25 C 391.32 659.13 387.80 655.81 384.28 652.38 C 380.93 649.12 377.93 645.55 374.71 642.31 Q 372.03 639.61 369.43 636.45 Q 358.29 622.85 350.11 609.91 Q 348.92 608.02 347.88 605.47 Q 347.69 604.99 347.98 604.57 Q 350.91 600.23 356.62 596.66 Z"/>
  <path fill="#351b29" d=" M 421.49 617.91 C 422.44 619.97 422.38 622.06 423.51 624.11 Q 426.25 629.08 431.31 630.08 C 438.77 631.56 438.94 638.45 433.08 642.24 Q 431.48 643.26 429.57 643.25 Q 419.19 643.18 413.55 635.34 Q 406.95 626.16 407.98 614.38 C 408.35 610.24 412.48 606.64 416.81 608.31 C 421.40 610.08 419.87 614.35 421.49 617.91 Z"/>
  <ellipse fill="#6a798b" cx="0.00" cy="0.00" transform="translate(470.07,628.34) rotate(60.8)" rx="8.46" ry="7.57"/>
  <ellipse fill="#6a798b" cx="0.00" cy="0.00" transform="translate(502.52,647.85) rotate(62.6)" rx="6.97" ry="6.60"/>
  <path fill="#351b29" d=" M 652.96 665.83 Q 643.85 666.72 637.38 661.77 C 635.64 657.03 635.81 650.98 641.21 649.60 Q 643.44 649.03 646.55 650.28 C 650.45 651.84 657.87 655.27 656.45 660.29 Q 655.55 663.45 652.96 665.83 Z"/>
  <path fill="#351b29" d=" M 734.50 665.41 Q 727.19 667.78 718.31 669.68 Q 716.07 670.16 713.76 670.21 C 710.48 670.29 707.62 671.36 704.28 671.06 Q 702.58 670.91 700.71 671.22 C 698.02 671.65 696.06 669.69 694.75 667.56 C 692.47 663.86 694.55 659.24 698.07 657.29 C 701.72 655.26 705.64 656.35 709.43 655.12 C 712.55 654.10 715.62 653.93 718.76 653.44 C 723.62 652.68 728.73 650.84 733.22 650.79 Q 735.51 650.77 737.82 653.23 C 739.73 655.28 739.72 657.27 739.13 659.83 Q 738.09 664.25 734.50 665.41 Z"/>
  <path fill="#d5a165" d=" M 487.84 827.13 Q 491.73 827.22 495.49 826.72 Q 498.44 826.32 503.08 825.99 Q 507.02 825.71 510.81 824.55 Q 513.99 824.07 517.59 823.85 Q 521.02 823.64 524.45 823.20 Q 538.05 821.44 550.62 827.59 C 553.05 828.77 557.69 831.97 555.07 835.11 Q 553.48 837.02 551.71 836.43 Q 544.39 833.99 536.83 833.40 C 525.69 832.53 514.91 837.68 505.79 843.33 C 503.70 844.63 501.43 845.44 499.19 846.42 A 0.94 0.94 0.0 0 1 497.89 845.68 C 497.04 838.99 491.45 836.92 485.57 838.08 C 482.38 838.72 479.04 838.82 475.95 839.83 Q 474.24 840.38 472.36 840.31 A 1.21 1.21 0.0 0 1 471.40 838.42 Q 472.12 837.35 473.09 836.31 Q 479.42 829.48 487.84 827.13 Z"/>
  <path fill="#cdb199" d=" M 510.81 824.55 Q 507.02 825.71 503.08 825.99 Q 498.44 826.32 495.49 826.72 Q 491.73 827.22 487.84 827.13 Q 496.44 823.42 505.25 823.25 Q 507.11 823.21 510.81 824.55 Z"/>
  <path fill="#fdfbef" d=" M 646.70 829.06 Q 647.42 831.48 642.75 830.40 Q 636.80 829.03 624.17 829.52 Q 620.03 829.69 615.67 829.88 C 609.19 830.18 602.50 831.93 596.50 832.68 Q 587.06 833.86 579.26 837.04 Q 583.16 833.28 585.75 832.27 C 593.04 829.42 599.62 825.85 607.55 825.66 Q 611.27 825.56 614.89 825.51 Q 618.09 825.47 621.61 826.27 Q 623.72 826.74 628.14 826.02 Q 629.82 825.74 631.38 825.89 C 632.88 826.03 634.04 825.81 635.51 826.33 Q 640.88 828.23 646.70 829.06 Z"/>
  <path fill="#fdd870" d=" M 646.70 829.06 Q 653.06 831.66 657.17 836.51 A 1.64 1.64 0.0 0 1 656.82 838.94 C 655.79 839.63 654.58 839.70 653.42 839.35 Q 644.86 836.80 635.56 837.96 Q 629.81 838.69 625.28 841.39 Q 620.11 844.46 615.48 847.70 Q 612.77 849.59 608.05 850.52 Q 607.63 850.61 607.57 850.18 Q 606.65 843.72 602.24 842.11 Q 600.11 841.34 596.08 841.60 C 591.87 841.88 588.19 843.65 584.07 844.36 Q 582.28 844.67 580.56 845.47 Q 577.77 846.76 574.05 845.52 Q 573.51 845.34 573.72 844.82 Q 575.80 839.50 579.26 837.04 Q 587.06 833.86 596.50 832.68 C 602.50 831.93 609.19 830.18 615.67 829.88 Q 620.03 829.69 624.17 829.52 Q 636.80 829.03 642.75 830.40 Q 647.42 831.48 646.70 829.06 Z"/>
</svg>