<?xml version="1.0" encoding="utf-8"?>
<svg version="1.1" viewBox="0.00 0.00 1024.00 1024.00" xmlns="http://www.w3.org/2000/svg">
  <path fill="#2f0000" d=" M 736.43 846.07 Q 735.73 848.65 735.10 850.97 Q 732.97 858.76 728.89 864.78 C 712.71 888.67 675.98 890.45 650.37 885.17 Q 644.34 883.92 638.76 881.35 A 1.13 1.13 0.0 0 0 637.49 881.57 Q 626.31 892.49 609.03 896.52 Q 585.96 901.90 560.79 898.49 Q 541.41 895.87 527.70 881.55 A 2.25 2.24 -28.8 0 0 525.53 880.93 Q 521.22 882.02 516.59 882.23 Q 500.02 883.00 485.40 881.51 Q 484.83 881.45 484.44 881.87 Q 473.36 893.74 456.98 897.17 Q 430.13 902.78 401.77 896.28 C 391.09 893.83 382.08 889.03 374.25 881.58 Q 373.89 881.24 373.39 881.23 Q 372.76 881.22 372.23 881.63 Q 371.39 882.28 370.36 882.63 C 352.09 888.75 332.16 889.06 313.96 884.67 C 293.92 879.85 279.21 866.36 275.45 845.76 Q 272.62 828.64 282.10 813.99 A 0.56 0.56 0.0 0 0 281.71 813.13 Q 278.50 812.67 275.38 811.69 Q 236.67 799.42 216.15 764.89 Q 210.75 755.80 207.82 746.55 C 201.98 728.13 202.63 707.38 207.93 689.02 C 215.88 661.45 236.35 636.31 264.70 628.64 C 293.40 620.88 324.09 631.77 335.96 660.22 C 340.32 670.66 340.51 682.77 337.87 693.87 C 334.33 708.78 322.21 721.49 308.36 727.19 A 0.90 0.90 0.0 0 0 307.97 728.54 Q 311.40 733.39 317.04 735.47 A 1.19 1.18 22.6 0 0 318.53 734.86 Q 325.74 719.26 335.71 705.40 Q 343.61 694.43 353.51 686.66 Q 354.61 685.79 354.79 684.46 Q 358.47 657.38 370.34 630.73 A 0.66 0.66 0.0 0 0 369.96 629.84 Q 343.46 620.27 319.27 606.61 Q 278.83 583.76 253.65 547.46 Q 248.85 540.55 245.30 533.66 Q 245.04 533.15 244.55 533.45 Q 234.45 539.59 223.62 549.62 C 218.75 554.13 211.22 551.16 210.12 544.80 Q 209.29 539.99 213.15 536.08 C 220.82 528.30 228.52 523.81 237.00 518.33 Q 237.43 518.05 237.24 517.58 Q 234.58 510.87 232.82 503.55 A 0.92 0.91 -17.3 0 0 231.59 502.91 Q 223.35 506.14 215.98 509.45 Q 210.36 511.98 206.58 509.68 C 201.92 506.86 201.35 500.70 205.19 496.82 Q 208.07 493.92 212.53 492.21 Q 219.95 489.37 228.10 487.44 A 0.81 0.81 0.0 0 0 228.72 486.54 Q 227.27 475.79 227.25 464.80 Q 227.25 463.83 226.28 463.82 Q 215.03 463.67 202.60 463.72 C 192.21 463.76 190.75 450.62 200.51 447.59 Q 204.23 446.44 208.73 446.50 Q 217.70 446.61 226.84 446.91 Q 227.37 446.92 227.42 446.39 C 230.85 410.38 241.75 374.01 257.57 342.07 A 2.24 2.24 0.0 0 0 257.62 340.17 Q 256.26 337.01 255.24 333.91 Q 247.11 309.30 244.70 280.71 Q 240.30 228.51 251.00 178.37 Q 253.97 164.43 257.12 155.86 C 264.63 135.45 281.72 135.67 299.68 140.45 Q 311.40 143.57 322.70 147.91 C 354.14 159.99 383.84 176.51 409.88 198.20 A 1.15 1.15 0.0 0 0 411.13 198.34 Q 412.68 197.56 414.35 196.96 Q 449.21 184.58 487.02 180.91 C 520.28 177.67 554.85 182.43 587.13 192.14 Q 596.87 195.06 605.67 198.63 A 0.72 0.72 0.0 0 0 606.40 198.51 Q 651.41 160.04 708.44 142.29 Q 717.09 139.60 727.08 138.06 C 740.27 136.02 752.35 139.66 758.11 152.40 Q 760.45 157.60 762.00 163.97 Q 773.17 210.04 772.65 254.87 C 772.31 284.76 768.99 312.63 759.04 339.75 Q 758.83 340.31 759.01 340.87 Q 760.11 344.45 761.65 347.71 Q 773.15 372.09 780.37 398.84 Q 787.66 425.88 788.77 446.80 Q 788.80 447.38 789.37 447.33 Q 803.87 446.18 814.17 446.99 C 818.25 447.32 824.37 451.42 823.16 456.37 Q 821.40 463.54 814.09 463.67 Q 802.01 463.87 789.88 463.71 Q 789.25 463.71 789.24 464.34 Q 789.19 475.92 787.38 486.60 A 0.67 0.66 11.4 0 0 787.89 487.36 Q 791.51 488.19 794.81 489.24 C 799.85 490.85 805.10 492.35 809.47 495.16 C 813.40 497.69 815.11 502.43 812.47 506.59 C 808.51 512.83 802.71 510.71 797.00 508.14 Q 791.09 505.48 784.22 502.98 Q 783.65 502.77 783.49 503.36 Q 781.67 510.32 779.21 517.00 A 1.36 1.35 25.7 0 0 779.79 518.64 C 788.53 523.82 798.02 529.46 804.39 537.14 Q 810.40 544.39 803.68 549.97 C 799.89 553.10 795.52 551.90 792.24 548.73 Q 783.52 540.29 772.57 533.17 A 0.62 0.61 -58.1 0 0 771.70 533.38 Q 751.67 568.71 716.55 593.57 Q 692.86 610.33 663.80 621.91 Q 653.68 625.94 643.16 629.59 A 0.76 0.76 0.0 0 0 642.71 630.62 C 647.61 641.64 650.87 653.83 653.89 665.84 Q 656.25 675.20 657.21 684.02 Q 657.40 685.71 658.61 686.83 C 688.24 714.03 706.16 754.21 706.60 794.40 A 0.79 0.79 0.0 0 0 707.08 795.11 Q 730.66 804.89 736.23 829.48 Q 737.80 836.40 736.43 846.07 Z M 625.74 208.36 L 656.43 224.75 A 1.10 1.09 34.6 0 0 657.77 224.51 Q 665.47 215.73 673.42 207.67 Q 689.68 191.20 709.13 178.66 Q 712.31 176.60 715.71 175.25 Q 717.76 175.18 719.39 177.10 Q 722.52 180.79 719.91 184.36 Q 717.23 188.04 713.97 191.24 Q 692.19 212.61 671.94 235.26 A 1.12 1.12 0.0 0 0 672.08 236.89 Q 686.31 248.21 698.10 259.09 Q 722.49 281.60 740.36 309.66 Q 743.56 314.67 745.80 319.51 Q 746.71 321.48 747.10 319.35 L 751.41 296.07 Q 755.84 265.34 753.68 236.67 Q 753.78 229.72 753.16 222.75 Q 750.83 196.85 745.03 171.50 Q 743.68 165.58 741.69 160.01 L 739.82 157.97 C 735.85 154.63 727.69 156.07 722.77 157.34 Q 709.99 160.64 698.05 165.32 C 671.77 175.61 647.42 189.16 625.07 206.77 Q 624.25 207.42 625.14 207.98 L 625.74 208.36 Z M 275.89 159.22 L 274.61 161.29 Q 271.22 171.02 269.04 181.25 Q 263.92 205.25 262.41 229.76 Q 261.87 238.61 262.17 242.48 C 261.45 260.52 261.87 278.46 264.94 296.50 L 269.45 320.04 Q 269.73 321.50 270.41 320.18 Q 274.77 311.82 280.12 303.84 C 296.63 279.27 317.99 257.32 341.74 238.90 Q 343.23 237.75 344.85 236.78 A 0.87 0.87 0.0 0 0 345.04 235.45 Q 326.00 214.98 301.23 190.23 C 298.56 187.57 294.19 183.08 295.44 179.76 Q 296.66 176.55 299.95 175.41 Q 305.22 177.18 309.33 179.90 Q 325.94 190.89 340.90 205.35 Q 346.47 210.74 358.46 223.84 Q 358.55 224.48 359.23 224.66 Q 359.66 224.77 360.22 224.47 Q 371.38 218.53 382.29 211.31 Q 385.64 210.34 388.74 208.01 L 390.05 207.38 A 0.50 0.49 -39.4 0 0 390.14 206.54 Q 350.21 176.07 303.21 160.61 Q 295.14 157.96 286.74 156.52 C 283.09 155.89 278.14 155.93 275.89 159.22 Z M 256.35 395.46 Q 252.06 408.43 250.70 416.00 Q 249.04 425.23 247.75 433.05 Q 243.82 456.85 246.31 479.31 C 247.51 490.11 250.54 499.80 253.54 509.82 A 0.71 0.71 0.0 0 0 254.43 510.29 L 266.80 506.39 Q 275.35 505.03 279.75 505.42 C 284.87 505.88 289.24 509.45 286.93 515.18 C 285.03 519.88 279.38 520.61 274.75 521.53 Q 268.69 522.38 262.17 525.10 A 1.07 1.07 0.0 0 0 261.66 526.64 Q 280.38 557.50 309.53 578.52 C 332.76 595.27 360.32 607.64 388.05 616.48 Q 388.63 616.67 389.70 616.47 Q 390.14 616.89 390.84 617.14 Q 406.83 622.68 422.11 625.91 Q 449.91 631.80 479.29 634.44 Q 489.61 635.37 499.48 635.54 Q 562.68 636.67 623.48 617.25 Q 626.05 616.43 628.23 615.47 Q 641.98 611.09 659.48 603.93 C 694.76 589.51 724.82 568.48 747.26 538.34 Q 751.53 532.60 755.22 526.34 A 0.70 0.70 0.0 0 0 754.80 525.31 L 740.87 521.62 Q 735.76 520.17 734.24 519.55 C 729.33 517.54 728.44 510.76 732.54 507.35 C 734.93 505.36 738.54 505.12 741.50 505.39 Q 745.71 505.78 749.11 506.26 L 761.74 509.90 A 0.98 0.98 0.0 0 0 762.94 509.29 Q 768.79 493.13 770.22 478.46 C 771.22 468.09 771.99 457.03 770.96 446.68 Q 770.26 439.69 769.11 431.99 Q 766.13 412.04 759.44 391.16 A 0.09 0.08 -9.7 0 0 759.36 391.11 Q 759.31 391.12 759.29 391.17 Q 759.25 391.24 759.28 391.31 Q 759.35 391.54 759.19 391.75 Q 737.10 317.33 678.87 266.40 Q 666.87 255.91 655.43 247.52 Q 628.92 228.10 596.86 215.14 Q 586.82 211.09 577.32 208.33 C 550.92 200.67 522.82 196.81 495.50 198.55 Q 419.22 203.39 357.95 248.94 C 320.43 276.84 291.04 312.20 271.64 354.64 Q 261.91 375.93 256.35 395.46 Z M 418.13 654.02 Q 437.89 661.83 458.75 665.55 Q 525.21 677.40 589.04 656.45 C 602.10 651.50 615.06 645.82 626.21 637.11 Q 627.05 636.46 626.26 635.70 A 1.03 1.01 57.8 0 0 625.25 635.46 C 618.58 637.58 612.40 639.73 605.49 641.38 Q 578.56 647.82 561.70 650.14 Q 473.39 662.29 388.25 635.37 Q 386.38 634.78 387.56 636.35 Q 388.43 637.51 389.59 638.39 Q 399.86 646.20 413.22 652.04 Q 417.05 653.72 418.13 654.02 Z M 225.92 693.53 L 225.07 695.77 C 219.77 713.72 221.10 734.73 229.49 751.68 C 241.86 776.65 266.08 793.35 293.55 797.45 C 298.20 798.15 300.99 796.64 304.83 795.09 Q 305.45 794.84 305.44 794.18 Q 305.20 773.86 311.50 753.94 A 1.31 1.30 21.5 0 0 310.81 752.36 C 298.84 746.69 287.63 734.68 287.22 720.63 A 0.77 0.77 0.0 0 0 286.42 719.88 Q 278.63 720.22 271.84 716.39 Q 271.41 716.15 271.41 715.66 Q 271.41 715.11 271.14 714.64 Q 271.55 714.55 271.83 714.16 C 278.16 715.64 285.06 716.93 291.40 715.26 C 301.10 712.69 310.02 707.63 315.79 699.28 Q 323.64 687.94 321.21 673.35 C 316.69 648.91 290.31 639.01 268.00 646.17 C 246.29 653.13 232.16 672.12 225.92 693.53 Z M 378.85 659.70 Q 374.43 675.51 372.13 691.55 C 371.35 697.04 371.26 702.42 371.01 707.93 Q 370.88 710.69 371.95 708.15 L 374.53 701.99 A 0.34 0.34 0.0 0 1 374.94 701.80 L 375.20 701.89 Q 375.50 701.98 375.40 702.28 L 372.33 711.54 Q 372.22 711.88 371.86 711.83 Q 371.66 711.80 371.63 712.00 Q 370.33 718.45 370.46 726.00 Q 370.98 742.67 371.47 760.50 Q 371.72 769.35 373.30 783.37 Q 373.30 783.43 374.76 800.14 Q 376.31 817.97 380.36 835.45 Q 380.87 837.63 381.38 839.68 Q 378.54 844.99 378.15 851.25 Q 377.57 855.28 379.16 859.08 Q 383.58 869.69 394.61 874.96 Q 396.26 875.20 397.76 876.40 Q 408.55 881.34 421.05 881.81 Q 421.88 881.85 421.60 881.06 Q 418.54 872.66 420.02 863.74 Q 420.82 856.20 425.78 851.81 C 427.86 849.98 432.05 849.42 433.90 852.11 Q 435.18 853.96 434.71 855.51 Q 433.69 858.86 432.82 861.34 Q 430.12 872.48 435.29 881.53 A 0.94 0.93 -13.9 0 0 436.09 882.01 C 449.00 882.15 464.18 878.90 472.62 869.14 Q 478.90 861.87 478.82 851.12 Q 477.28 843.56 474.53 836.00 Q 474.13 834.90 474.10 833.01 Q 474.07 831.21 473.84 830.03 Q 469.52 807.65 467.39 791.00 Q 466.29 782.38 465.64 768.60 Q 465.96 762.09 471.44 759.29 Q 475.51 758.16 479.16 761.15 Q 482.14 763.60 482.72 767.51 Q 483.43 772.30 483.73 776.99 C 485.84 798.67 490.08 819.76 493.86 841.22 C 495.35 849.67 496.49 856.51 493.69 864.20 A 0.57 0.57 0.0 0 0 494.21 864.96 C 501.78 865.12 509.74 865.72 517.20 864.55 Q 517.75 864.46 517.54 863.96 C 514.95 857.57 515.86 849.30 517.23 842.53 Q 523.07 813.80 526.97 784.75 Q 527.25 782.61 527.71 776.32 C 528.43 769.80 527.34 762.86 534.40 759.63 Q 537.80 758.07 541.27 760.11 Q 544.87 763.19 545.02 767.99 C 545.45 782.24 543.89 795.54 541.28 810.28 Q 539.20 822.02 537.38 833.81 C 537.01 836.21 535.92 839.49 535.83 842.54 Q 533.91 846.22 533.34 851.03 Q 532.40 856.52 534.55 861.18 C 541.85 876.98 558.65 882.16 575.14 882.27 A 1.70 1.69 -74.4 0 0 576.62 881.43 Q 582.48 871.35 578.78 860.24 C 577.70 857.85 575.97 853.90 577.84 851.79 C 580.36 848.95 584.97 850.22 587.17 852.83 Q 590.98 857.35 591.89 863.36 Q 592.96 872.56 589.90 881.55 A 0.44 0.44 0.0 0 0 590.38 882.13 Q 596.40 881.33 602.49 880.19 Q 608.80 879.01 613.81 876.38 L 617.28 874.90 Q 629.32 868.78 633.36 856.93 Q 634.28 854.21 634.20 851.52 Q 634.11 848.72 633.44 846.02 Q 632.92 843.94 631.46 842.13 Q 631.33 840.81 630.51 839.54 Q 630.42 837.42 631.33 834.24 Q 634.02 824.82 635.57 812.66 Q 637.01 801.41 638.07 790.20 Q 640.01 769.59 640.83 736.89 Q 640.89 734.32 640.84 731.61 Q 640.78 728.62 641.10 726.29 Q 641.61 717.60 640.29 714.74 Q 637.99 709.75 636.20 704.24 Q 635.96 703.50 635.92 702.72 Q 635.79 700.12 637.21 702.31 Q 638.75 704.69 639.88 707.87 Q 640.71 710.22 640.66 707.73 Q 640.34 689.40 636.54 670.71 Q 636.36 668.05 635.21 665.53 L 634.14 660.80 L 632.67 654.52 A 0.74 0.74 0.0 0 0 631.53 654.08 Q 616.46 664.44 599.06 670.60 C 595.86 671.73 590.55 673.98 585.95 675.01 Q 547.27 687.05 503.50 686.83 Q 463.01 686.64 427.42 675.13 Q 402.52 667.85 380.90 653.28 Q 380.48 653.00 380.28 653.47 Q 379.00 656.55 378.85 659.70 Z M 658.71 723.71 Q 658.50 751.85 657.07 779.74 Q 656.47 791.36 654.96 802.22 Q 654.65 804.45 656.07 802.70 Q 657.85 800.50 660.93 798.98 C 665.92 796.51 671.09 793.69 676.50 792.74 Q 678.85 792.33 686.54 791.50 Q 689.13 792.08 688.48 787.24 Q 688.15 784.85 688.14 784.74 Q 683.85 745.01 659.50 713.48 Q 659.05 712.90 658.85 712.20 Q 658.67 711.60 658.59 712.23 Q 658.44 713.48 658.49 714.51 Q 658.70 719.23 658.71 723.71 Z M 325.44 791.61 Q 327.64 791.81 330.94 792.15 C 340.06 793.08 346.86 796.44 354.46 800.85 Q 355.83 801.65 356.82 802.96 Q 357.30 803.58 357.16 802.81 C 356.98 801.79 356.53 801.00 356.41 799.90 C 354.11 780.15 353.46 760.29 352.87 740.51 Q 352.75 736.55 353.09 728.51 Q 353.34 722.50 353.03 716.48 L 353.13 712.34 A 0.21 0.21 0.0 0 0 352.76 712.21 Q 332.73 738.49 325.80 771.01 Q 323.54 781.61 323.06 790.91 Q 323.03 791.49 323.61 791.52 L 325.44 791.61 Z M 295.77 847.49 Q 295.60 843.48 296.24 839.73 Q 296.26 839.63 296.36 839.65 Q 296.57 839.68 296.78 839.58 A 0.05 0.05 0.0 0 1 296.85 839.62 Q 296.72 847.13 300.59 856.63 C 303.41 863.55 313.05 866.58 319.80 867.69 Q 320.41 867.78 320.24 867.19 Q 317.61 857.77 320.50 848.77 Q 322.32 844.62 325.32 842.58 C 328.27 840.57 332.97 841.39 333.41 845.29 Q 333.63 847.27 332.23 849.60 Q 328.73 859.81 334.17 868.97 A 1.96 1.95 -13.8 0 0 335.73 869.91 Q 349.54 870.73 362.97 866.34 Q 363.61 866.14 363.40 865.50 C 362.19 861.83 360.91 857.94 360.97 854.03 Q 361.01 851.59 361.43 848.53 Q 362.35 841.82 361.71 835.31 L 361.17 828.66 A 2.79 2.75 19.0 0 0 360.26 826.83 Q 353.37 820.68 344.47 815.46 C 336.71 810.92 328.08 808.50 319.36 809.38 C 303.24 811.01 292.06 823.13 292.54 839.26 Q 292.75 846.59 297.37 853.71 Q 297.49 853.89 297.67 853.78 L 297.68 853.77 Q 297.85 853.66 297.74 853.49 Q 296.03 850.74 295.77 847.49 Z M 649.81 840.21 Q 649.88 845.13 650.31 849.79 Q 650.79 854.95 650.30 857.70 Q 649.60 861.68 648.28 865.54 Q 648.01 866.33 648.81 866.56 Q 661.68 870.33 673.87 870.30 C 674.98 870.30 675.95 870.09 676.60 869.09 Q 682.56 859.96 678.91 849.87 C 677.76 847.08 676.99 842.66 680.25 841.74 Q 684.70 840.49 688.13 843.87 Q 690.67 846.37 691.46 849.32 Q 693.91 859.20 690.56 867.91 Q 690.38 868.38 690.87 868.28 Q 699.70 866.54 707.02 861.84 Q 713.13 858.45 715.41 852.13 Q 717.66 848.97 718.34 845.51 Q 721.87 827.48 709.23 816.59 C 697.55 806.51 680.65 808.30 668.00 815.24 Q 659.50 819.91 651.10 826.50 A 1.45 1.45 0.0 0 0 650.56 827.54 L 649.81 840.21 Z"/>
  <path fill="#fefffb" d=" M 739.82 157.97 Q 739.87 158.26 739.77 158.46 Q 739.63 158.74 739.30 158.82 C 726.43 161.68 714.28 166.28 700.93 172.08 Q 695.33 174.51 690.05 176.70 C 681.37 180.30 672.91 184.89 664.39 189.27 Q 657.75 192.68 649.57 197.36 Q 637.21 204.43 632.53 206.73 Q 630.99 207.48 625.74 208.36 L 625.14 207.98 Q 624.25 207.42 625.07 206.77 C 647.42 189.16 671.77 175.61 698.05 165.32 Q 709.99 160.64 722.77 157.34 C 727.69 156.07 735.85 154.63 739.82 157.97 Z"/>
  <path fill="#fefffb" d=" M 388.74 208.01 Q 382.65 206.66 376.33 202.91 Q 355.65 190.62 329.82 178.56 C 323.71 175.71 316.93 173.13 310.57 170.45 C 304.29 167.81 294.65 164.65 286.98 161.06 Q 281.83 158.64 276.40 159.86 Q 276.09 159.93 275.94 159.64 Q 275.84 159.45 275.89 159.22 C 278.14 155.93 283.09 155.89 286.74 156.52 Q 295.14 157.96 303.21 160.61 Q 350.21 176.07 390.14 206.54 A 0.50 0.49 -39.4 0 1 390.05 207.38 L 388.74 208.01 Z"/>
  <path fill="#afada1" d=" M 739.82 157.97 L 741.69 160.01 Q 740.77 160.67 740.16 161.52 Q 739.87 161.93 739.40 162.09 Q 730.95 165.00 723.69 170.11 C 721.23 171.85 718.26 173.31 715.71 175.25 Q 712.31 176.60 709.13 178.66 Q 689.68 191.20 673.42 207.67 Q 665.47 215.73 657.77 224.51 A 1.10 1.09 34.6 0 1 656.43 224.75 L 625.74 208.36 Q 630.99 207.48 632.53 206.73 Q 637.21 204.43 649.57 197.36 Q 657.75 192.68 664.39 189.27 C 672.91 184.89 681.37 180.30 690.05 176.70 Q 695.33 174.51 700.93 172.08 C 714.28 166.28 726.43 161.68 739.30 158.82 Q 739.63 158.74 739.77 158.46 Q 739.87 158.26 739.82 157.97 Z"/>
  <path fill="#afada1" d=" M 275.89 159.22 Q 275.84 159.45 275.94 159.64 Q 276.09 159.93 276.40 159.86 Q 281.83 158.64 286.98 161.06 C 294.65 164.65 304.29 167.81 310.57 170.45 C 316.93 173.13 323.71 175.71 329.82 178.56 Q 355.65 190.62 376.33 202.91 Q 382.65 206.66 388.74 208.01 Q 385.64 210.34 382.29 211.31 Q 369.55 215.96 358.46 223.84 Q 346.47 210.74 340.90 205.35 Q 325.94 190.89 309.33 179.90 Q 305.22 177.18 299.95 175.41 Q 289.89 167.47 278.14 162.91 Q 277.48 162.66 276.26 162.54 Q 274.54 162.38 274.61 161.29 L 275.89 159.22 Z"/>
  <path fill="#c75a66" d=" M 741.69 160.01 Q 743.68 165.58 745.03 171.50 Q 750.83 196.85 753.16 222.75 Q 753.78 229.72 753.68 236.67 Q 752.77 230.00 751.81 223.28 Q 751.33 219.85 750.12 216.53 Q 748.83 213.00 747.92 208.74 Q 746.05 200.04 742.64 190.39 Q 742.02 188.62 740.85 187.24 A 0.93 0.92 -41.4 0 0 739.52 187.16 C 725.26 200.18 713.18 214.36 699.99 230.29 C 697.47 233.33 695.39 236.52 693.15 239.72 A 0.69 0.69 0.0 0 0 693.28 240.66 Q 711.29 255.08 727.99 270.49 Q 739.36 280.97 751.41 296.07 L 747.10 319.35 Q 746.71 321.48 745.80 319.51 Q 743.56 314.67 740.36 309.66 Q 722.49 281.60 698.10 259.09 Q 686.31 248.21 672.08 236.89 A 1.12 1.12 0.0 0 1 671.94 235.26 Q 692.19 212.61 713.97 191.24 Q 717.23 188.04 719.91 184.36 Q 722.52 180.79 719.39 177.10 Q 717.76 175.18 715.71 175.25 C 718.26 173.31 721.23 171.85 723.69 170.11 Q 730.95 165.00 739.40 162.09 Q 739.87 161.93 740.16 161.52 Q 740.77 160.67 741.69 160.01 Z"/>
  <path fill="#c75a66" d=" M 274.61 161.29 Q 274.54 162.38 276.26 162.54 Q 277.48 162.66 278.14 162.91 Q 289.89 167.47 299.95 175.41 Q 296.66 176.55 295.44 179.76 C 294.19 183.08 298.56 187.57 301.23 190.23 Q 326.00 214.98 345.04 235.45 A 0.87 0.87 0.0 0 1 344.85 236.78 Q 343.23 237.75 341.74 238.90 C 317.99 257.32 296.63 279.27 280.12 303.84 Q 274.77 311.82 270.41 320.18 Q 269.73 321.50 269.45 320.04 L 264.94 296.50 Q 267.44 293.09 269.80 290.00 Q 272.30 286.73 274.99 283.86 Q 297.17 260.25 322.59 240.98 Q 322.98 240.68 322.88 240.20 Q 322.47 238.11 321.12 236.39 Q 302.03 212.17 281.32 190.88 C 280.06 189.57 278.03 188.31 276.79 186.69 A 0.98 0.98 0.0 0 0 275.13 186.87 C 273.36 190.61 271.68 194.41 270.56 198.43 Q 264.50 220.11 262.17 242.48 Q 261.87 238.61 262.41 229.76 Q 263.92 205.25 269.04 181.25 Q 271.22 171.02 274.61 161.29 Z"/>
  <path fill="#ff807b" d=" M 264.94 296.50 C 261.87 278.46 261.45 260.52 262.17 242.48 Q 264.50 220.11 270.56 198.43 C 271.68 194.41 273.36 190.61 275.13 186.87 A 0.98 0.98 0.0 0 1 276.79 186.69 C 278.03 188.31 280.06 189.57 281.32 190.88 Q 302.03 212.17 321.12 236.39 Q 322.47 238.11 322.88 240.20 Q 322.98 240.68 322.59 240.98 Q 297.17 260.25 274.99 283.86 Q 272.30 286.73 269.80 290.00 Q 267.44 293.09 264.94 296.50 Z"/>
  <path fill="#ff807b" d=" M 753.68 236.67 Q 755.84 265.34 751.41 296.07 Q 739.36 280.97 727.99 270.49 Q 711.29 255.08 693.28 240.66 A 0.69 0.69 0.0 0 1 693.15 239.72 C 695.39 236.52 697.47 233.33 699.99 230.29 C 713.18 214.36 725.26 200.18 739.52 187.16 A 0.93 0.92 -41.4 0 1 740.85 187.24 Q 742.02 188.62 742.64 190.39 Q 746.05 200.04 747.92 208.74 Q 748.83 213.00 750.12 216.53 Q 751.33 219.85 751.81 223.28 Q 752.77 230.00 753.68 236.67 Z"/>
  <path fill="#fefffb" d=" M 759.19 391.75 C 759.34 392.46 759.08 393.07 759.24 393.74 Q 760.11 397.46 760.76 401.23 Q 761.47 405.42 762.21 408.73 Q 766.12 426.28 766.54 443.51 Q 767.13 467.44 756.64 489.89 Q 756.26 488.43 756.78 486.56 Q 757.45 484.12 757.54 483.37 Q 759.52 467.42 758.73 449.19 Q 756.78 404.13 739.98 366.07 Q 728.46 339.96 712.36 318.39 Q 681.42 276.91 639.00 249.19 Q 624.39 239.64 609.70 232.70 C 602.36 229.23 595.15 225.59 587.50 222.92 Q 567.85 216.04 547.94 212.24 Q 504.72 204.00 460.94 213.88 Q 399.15 227.82 351.78 267.13 Q 335.82 280.37 318.96 299.10 C 310.07 308.97 301.85 320.64 294.94 331.49 C 283.18 349.96 273.14 371.25 266.97 392.78 Q 256.81 428.25 258.22 465.41 Q 258.22 465.46 258.36 473.08 Q 258.45 478.12 258.98 482.54 Q 259.10 483.53 259.50 484.38 Q 259.69 484.77 259.63 485.21 Q 259.37 486.91 260.01 488.34 Q 260.20 488.78 259.72 488.75 L 259.24 488.71 Q 253.31 476.43 251.53 462.25 Q 249.44 445.56 251.42 429.60 Q 253.53 412.55 254.88 407.25 Q 256.67 400.19 256.35 395.46 Q 261.91 375.93 271.64 354.64 C 291.04 312.20 320.43 276.84 357.95 248.94 Q 419.22 203.39 495.50 198.55 C 522.82 196.81 550.92 200.67 577.32 208.33 Q 586.82 211.09 596.86 215.14 Q 628.92 228.10 655.43 247.52 Q 666.87 255.91 678.87 266.40 Q 737.10 317.33 759.19 391.75 Z"/>
  <path fill="#afada1" d=" M 756.64 489.89 L 749.11 506.26 Q 745.71 505.78 741.50 505.39 C 738.54 505.12 734.93 505.36 732.54 507.35 C 728.44 510.76 729.33 517.54 734.24 519.55 Q 735.76 520.17 740.87 521.62 Q 740.62 522.90 739.54 524.06 Q 738.14 525.58 737.77 526.12 Q 731.77 534.81 723.07 542.32 Q 707.94 555.39 691.86 564.58 Q 666.01 579.33 637.12 589.42 Q 644.36 564.74 640.77 541.51 Q 635.33 506.30 610.39 479.48 Q 594.44 462.32 572.91 449.47 Q 562.78 443.43 551.79 439.89 Q 539.74 436.02 528.00 433.30 Q 527.22 433.11 526.49 432.73 Q 524.84 431.87 524.84 432.64 Q 515.75 428.09 505.12 429.32 Q 497.98 430.14 492.25 433.63 Q 488.19 434.24 479.24 436.22 Q 456.51 441.23 437.96 453.57 Q 418.14 466.75 403.57 483.94 C 378.63 513.38 370.05 552.91 381.28 590.10 C 378.49 589.69 375.91 589.37 373.25 588.37 C 342.44 576.77 311.13 560.14 287.69 537.57 Q 281.02 531.16 274.75 521.53 C 279.38 520.61 285.03 519.88 286.93 515.18 C 289.24 509.45 284.87 505.88 279.75 505.42 Q 275.35 505.03 266.80 506.39 L 259.24 488.71 L 259.72 488.75 Q 260.20 488.78 260.01 488.34 Q 259.37 486.91 259.63 485.21 Q 259.69 484.77 259.50 484.38 Q 259.10 483.53 258.98 482.54 Q 258.45 478.12 258.36 473.08 Q 258.22 465.46 258.22 465.41 Q 256.81 428.25 266.97 392.78 C 273.14 371.25 283.18 349.96 294.94 331.49 C 301.85 320.64 310.07 308.97 318.96 299.10 Q 335.82 280.37 351.78 267.13 Q 399.15 227.82 460.94 213.88 Q 504.72 204.00 547.94 212.24 Q 567.85 216.04 587.50 222.92 C 595.15 225.59 602.36 229.23 609.70 232.70 Q 624.39 239.64 639.00 249.19 Q 681.42 276.91 712.36 318.39 Q 728.46 339.96 739.98 366.07 Q 756.78 404.13 758.73 449.19 Q 759.52 467.42 757.54 483.37 Q 757.45 484.12 756.78 486.56 Q 756.26 488.43 756.64 489.89 Z M 465.6205 231.3354 A 6.23 5.94 15.6 0 0 461.2174 223.9388 A 6.23 5.94 15.6 0 0 453.6195 227.9846 A 6.23 5.94 15.6 0 0 458.0226 235.3812 A 6.23 5.94 15.6 0 0 465.6205 231.3354 Z M 596.7443 236.8094 A 5.36 5.22 11.4 0 0 592.5218 230.6330 A 5.36 5.22 11.4 0 0 586.2357 234.6906 A 5.36 5.22 11.4 0 0 590.4582 240.8670 A 5.36 5.22 11.4 0 0 596.7443 236.8094 Z M 397.23 321.36 C 402.11 320.67 406.26 316.42 405.60 311.51 C 404.37 302.32 393.93 301.40 386.38 303.11 C 381.19 304.29 377.01 308.67 378.12 314.24 C 379.90 323.16 390.27 322.35 397.23 321.36 Z M 616.87 320.38 C 620.75 322.57 628.50 321.90 632.54 321.05 C 637.20 320.08 640.87 315.22 639.45 310.37 C 637.24 302.80 627.82 301.97 621.46 302.82 C 611.87 304.11 607.69 315.19 616.87 320.38 Z M 382.8765 464.2414 A 60.15 58.49 96.6 0 0 447.8924 411.2127 A 60.15 58.49 96.6 0 0 396.7035 344.7386 A 60.15 58.49 96.6 0 0 331.6876 397.7673 A 60.15 58.49 96.6 0 0 382.8765 464.2414 Z M 605.90 460.10 Q 616.27 465.06 629.27 464.91 C 653.59 464.64 673.96 448.92 682.91 426.83 C 701.31 381.43 659.23 334.04 612.22 346.80 C 588.58 353.22 573.17 374.95 570.96 398.86 Q 568.60 424.43 584.11 443.24 Q 592.87 453.87 605.90 460.10 Z M 328.37 503.62 C 334.58 502.28 341.14 499.63 344.45 494.21 C 347.87 488.62 350.24 481.72 348.77 475.43 Q 347.32 469.23 343.23 463.26 Q 340.64 459.48 336.07 456.75 Q 331.43 453.99 327.80 452.93 Q 321.33 451.03 309.86 452.68 Q 300.88 453.97 294.50 459.98 Q 288.99 465.17 287.64 473.91 Q 286.21 483.19 291.02 491.67 C 293.79 496.57 298.11 499.76 302.96 502.22 Q 306.46 504.00 311.15 504.42 Q 316.62 504.91 320.37 504.82 Q 323.14 504.75 328.37 503.62 Z M 730.9527 477.2164 A 31.13 26.90 -2.4 0 0 698.7235 451.6436 A 31.13 26.90 -2.4 0 0 668.7473 479.8236 A 31.13 26.90 -2.4 0 0 700.9765 505.3964 A 31.13 26.90 -2.4 0 0 730.9527 477.2164 Z"/>
  <path fill="#7f7580" d=" M 382.29 211.31 Q 371.38 218.53 360.22 224.47 Q 359.66 224.77 359.23 224.66 Q 358.55 224.48 358.46 223.84 Q 369.55 215.96 382.29 211.31 Z"/>
  <ellipse fill="#fefffb" cx="0.00" cy="0.00" transform="translate(459.62,229.66) rotate(15.6)" rx="6.23" ry="5.94"/>
  <ellipse fill="#fefffb" cx="0.00" cy="0.00" transform="translate(591.49,235.75) rotate(11.4)" rx="5.36" ry="5.22"/>
  <path fill="#2f0000" d=" M 397.23 321.36 C 390.27 322.35 379.90 323.16 378.12 314.24 C 377.01 308.67 381.19 304.29 386.38 303.11 C 393.93 301.40 404.37 302.32 405.60 311.51 C 406.26 316.42 402.11 320.67 397.23 321.36 Z"/>
  <path fill="#2f0000" d=" M 616.87 320.38 C 607.69 315.19 611.87 304.11 621.46 302.82 C 627.82 301.97 637.24 302.80 639.45 310.37 C 640.87 315.22 637.20 320.08 632.54 321.05 C 628.50 321.90 620.75 322.57 616.87 320.38 Z"/>
  <path fill="#2f0000" d=" M 382.8765 464.2414 A 60.15 58.49 96.6 0 1 331.6876 397.7673 A 60.15 58.49 96.6 0 1 396.7035 344.7386 A 60.15 58.49 96.6 0 1 447.8924 411.2127 A 60.15 58.49 96.6 0 1 382.8765 464.2414 Z M 422.6418 404.2007 A 25.29 23.22 41.6 0 0 419.1464 370.0461 A 25.29 23.22 41.6 0 0 384.8182 370.6193 A 25.29 23.22 41.6 0 0 388.3136 404.7739 A 25.29 23.22 41.6 0 0 422.6418 404.2007 Z"/>
  <path fill="#2f0000" d=" M 605.90 460.10 Q 592.87 453.87 584.11 443.24 Q 568.60 424.43 570.96 398.86 C 573.17 374.95 588.58 353.22 612.22 346.80 C 659.23 334.04 701.31 381.43 682.91 426.83 C 673.96 448.92 653.59 464.64 629.27 464.91 Q 616.27 465.06 605.90 460.10 Z M 634.7490 371.1446 A 25.18 23.28 -40.0 0 0 600.4959 369.4965 A 25.18 23.28 -40.0 0 0 596.1710 403.5154 A 25.18 23.28 -40.0 0 0 630.4241 405.1635 A 25.18 23.28 -40.0 0 0 634.7490 371.1446 Z"/>
  <ellipse fill="#fefffb" cx="0.00" cy="0.00" transform="translate(615.46,387.33) rotate(-40.0)" rx="25.18" ry="23.28"/>
  <ellipse fill="#fefffb" cx="0.00" cy="0.00" transform="translate(403.73,387.41) rotate(41.6)" rx="25.29" ry="23.22"/>
  <path fill="#7f7580" d=" M 749.11 506.26 L 756.64 489.89 Q 767.13 467.44 766.54 443.51 Q 766.12 426.28 762.21 408.73 Q 761.47 405.42 760.76 401.23 Q 760.11 397.46 759.24 393.74 C 759.08 393.07 759.34 392.46 759.19 391.75 Q 759.35 391.54 759.28 391.31 Q 759.25 391.24 759.29 391.17 Q 759.31 391.12 759.36 391.11 A 0.09 0.08 -9.7 0 1 759.44 391.16 Q 766.13 412.04 769.11 431.99 Q 770.26 439.69 770.96 446.68 C 771.99 457.03 771.22 468.09 770.22 478.46 Q 768.79 493.13 762.94 509.29 A 0.98 0.98 0.0 0 1 761.74 509.90 L 749.11 506.26 Z"/>
  <path fill="#7f7580" d=" M 256.35 395.46 Q 256.67 400.19 254.88 407.25 Q 253.53 412.55 251.42 429.60 Q 249.44 445.56 251.53 462.25 Q 253.31 476.43 259.24 488.71 L 266.80 506.39 L 254.43 510.29 A 0.71 0.71 0.0 0 1 253.54 509.82 C 250.54 499.80 247.51 490.11 246.31 479.31 Q 243.82 456.85 247.75 433.05 Q 249.04 425.23 250.70 416.00 Q 252.06 408.43 256.35 395.46 Z"/>
  <path fill="#2f0000" d=" M 524.84 432.64 C 532.43 437.58 536.91 446.79 530.71 454.97 Q 525.81 461.46 516.29 463.02 A 0.60 0.60 0.0 0 0 515.78 463.65 C 516.06 469.25 515.98 475.47 518.00 480.50 Q 523.28 493.63 538.83 492.79 C 545.93 492.40 553.90 487.83 554.18 479.96 Q 554.28 477.06 554.04 474.19 C 553.69 469.75 557.50 465.88 561.95 466.21 C 567.69 466.64 570.13 472.01 570.41 477.18 C 571.07 489.85 563.60 501.40 552.14 506.13 Q 532.87 514.09 516.29 502.76 C 513.85 501.09 511.77 498.80 509.71 496.62 Q 509.26 496.15 508.83 496.64 C 508.10 497.48 507.53 498.48 506.74 499.27 Q 500.17 505.93 491.97 508.02 Q 472.13 513.08 457.45 499.62 Q 447.18 490.20 448.34 476.46 C 448.80 470.98 452.06 465.17 458.27 466.30 C 463.62 467.27 464.93 471.39 464.41 476.18 C 463.88 480.99 464.91 485.31 468.67 488.40 Q 476.43 494.78 486.70 492.53 C 495.73 490.56 501.09 483.77 502.11 474.93 Q 502.76 469.29 502.75 463.38 Q 502.75 462.86 502.24 462.81 Q 494.33 462.00 488.99 456.29 C 481.80 448.59 484.36 439.59 492.25 433.63 Q 497.98 430.14 505.12 429.32 Q 515.75 428.09 524.84 432.64 Z M 519.4158 438.8738 A 3.84 3.46 33.4 0 0 518.1147 433.8714 A 3.84 3.46 33.4 0 0 513.0042 434.6462 A 3.84 3.46 33.4 0 0 514.3053 439.6486 A 3.84 3.46 33.4 0 0 519.4158 438.8738 Z"/>
  <path fill="#fefffb" d=" M 637.12 589.42 L 636.58 590.17 Q 605.13 603.02 569.00 609.50 Q 520.19 618.26 475.37 613.40 Q 445.86 610.20 417.57 602.77 Q 409.00 600.51 399.75 597.25 Q 391.27 594.27 382.75 591.18 Q 382.23 591.00 381.74 590.79 Q 381.40 590.46 381.28 590.10 C 370.05 552.91 378.63 513.38 403.57 483.94 Q 418.14 466.75 437.96 453.57 Q 456.51 441.23 479.24 436.22 Q 488.19 434.24 492.25 433.63 C 484.36 439.59 481.80 448.59 488.99 456.29 Q 494.33 462.00 502.24 462.81 Q 502.75 462.86 502.75 463.38 Q 502.76 469.29 502.11 474.93 C 501.09 483.77 495.73 490.56 486.70 492.53 Q 476.43 494.78 468.67 488.40 C 464.91 485.31 463.88 480.99 464.41 476.18 C 464.93 471.39 463.62 467.27 458.27 466.30 C 452.06 465.17 448.80 470.98 448.34 476.46 Q 447.18 490.20 457.45 499.62 Q 472.13 513.08 491.97 508.02 Q 500.17 505.93 506.74 499.27 C 507.53 498.48 508.10 497.48 508.83 496.64 Q 509.26 496.15 509.71 496.62 C 511.77 498.80 513.85 501.09 516.29 502.76 Q 532.87 514.09 552.14 506.13 C 563.60 501.40 571.07 489.85 570.41 477.18 C 570.13 472.01 567.69 466.64 561.95 466.21 C 557.50 465.88 553.69 469.75 554.04 474.19 Q 554.28 477.06 554.18 479.96 C 553.90 487.83 545.93 492.40 538.83 492.79 Q 523.28 493.63 518.00 480.50 C 515.98 475.47 516.06 469.25 515.78 463.65 A 0.60 0.60 0.0 0 1 516.29 463.02 Q 525.81 461.46 530.71 454.97 C 536.91 446.79 532.43 437.58 524.84 432.64 Q 524.84 431.87 526.49 432.73 Q 527.22 433.11 528.00 433.30 Q 539.74 436.02 551.79 439.89 Q 562.78 443.43 572.91 449.47 Q 594.44 462.32 610.39 479.48 Q 635.33 506.30 640.77 541.51 Q 644.36 564.74 637.12 589.42 Z"/>
  <ellipse fill="#fefffb" cx="0.00" cy="0.00" transform="translate(516.21,436.76) rotate(33.4)" rx="3.84" ry="3.46"/>
  <path fill="#ff807b" d=" M 328.37 503.62 Q 323.14 504.75 320.37 504.82 Q 316.62 504.91 311.15 504.42 Q 306.46 504.00 302.96 502.22 C 298.11 499.76 293.79 496.57 291.02 491.67 Q 286.21 483.19 287.64 473.91 Q 288.99 465.17 294.50 459.98 Q 300.88 453.97 309.86 452.68 Q 321.33 451.03 327.80 452.93 Q 331.43 453.99 336.07 456.75 Q 340.64 459.48 343.23 463.26 Q 347.32 469.23 348.77 475.43 C 350.24 481.72 347.87 488.62 344.45 494.21 C 341.14 499.63 334.58 502.28 328.37 503.62 Z"/>
  <ellipse fill="#ff807b" cx="0.00" cy="0.00" transform="translate(699.85,478.52) rotate(-2.4)" rx="31.13" ry="26.90"/>
  <path fill="#7f7580" d=" M 274.75 521.53 Q 281.02 531.16 287.69 537.57 C 311.13 560.14 342.44 576.77 373.25 588.37 C 375.91 589.37 378.49 589.69 381.28 590.10 Q 381.40 590.46 381.74 590.79 Q 381.58 591.66 381.76 592.51 Q 384.44 604.87 389.70 616.47 Q 388.63 616.67 388.05 616.48 C 360.32 607.64 332.76 595.27 309.53 578.52 Q 280.38 557.50 261.66 526.64 A 1.07 1.07 0.0 0 1 262.17 525.10 Q 268.69 522.38 274.75 521.53 Z"/>
  <path fill="#7f7580" d=" M 740.87 521.62 L 754.80 525.31 A 0.70 0.70 0.0 0 1 755.22 526.34 Q 751.53 532.60 747.26 538.34 C 724.82 568.48 694.76 589.51 659.48 603.93 Q 641.98 611.09 628.23 615.47 Q 629.03 612.42 631.32 607.52 Q 634.15 601.46 636.58 590.17 L 637.12 589.42 Q 666.01 579.33 691.86 564.58 Q 707.94 555.39 723.07 542.32 Q 731.77 534.81 737.77 526.12 Q 738.14 525.58 739.54 524.06 Q 740.62 522.90 740.87 521.62 Z"/>
  <path fill="#c0bfce" d=" M 636.58 590.17 Q 634.15 601.46 631.32 607.52 Q 629.03 612.42 628.23 615.47 Q 626.05 616.43 623.48 617.25 Q 562.68 636.67 499.48 635.54 Q 489.61 635.37 479.29 634.44 Q 449.91 631.80 422.11 625.91 Q 406.83 622.68 390.84 617.14 Q 390.14 616.89 389.70 616.47 Q 384.44 604.87 381.76 592.51 Q 381.58 591.66 381.74 590.79 Q 382.23 591.00 382.75 591.18 Q 391.27 594.27 399.75 597.25 Q 409.00 600.51 417.57 602.77 Q 445.86 610.20 475.37 613.40 Q 520.19 618.26 569.00 609.50 Q 605.13 603.02 636.58 590.17 Z"/>
  <path fill="#c75a66" d=" M 589.04 656.45 Q 587.84 652.29 584.00 653.29 Q 573.80 655.96 561.20 658.50 Q 551.40 660.49 542.70 661.36 Q 524.37 663.21 508.90 663.59 Q 494.74 663.94 481.69 662.47 Q 468.52 660.99 453.31 658.66 Q 439.90 656.60 426.11 652.18 A 2.86 2.83 33.9 0 0 423.44 652.69 Q 422.73 653.26 421.86 653.51 Q 421.33 653.67 420.81 653.49 Q 419.31 652.98 418.13 654.02 Q 417.05 653.72 413.22 652.04 Q 399.86 646.20 389.59 638.39 Q 388.43 637.51 387.56 636.35 Q 386.38 634.78 388.25 635.37 Q 473.39 662.29 561.70 650.14 Q 578.56 647.82 605.49 641.38 C 612.40 639.73 618.58 637.58 625.25 635.46 A 1.03 1.01 57.8 0 1 626.26 635.70 Q 627.05 636.46 626.21 637.11 C 615.06 645.82 602.10 651.50 589.04 656.45 Z"/>
  <path fill="#fefffb" d=" M 321.21 673.35 Q 320.94 679.77 320.50 681.50 Q 317.58 692.86 305.94 698.79 Q 313.55 687.46 310.71 674.96 Q 309.08 667.83 303.88 662.50 C 288.02 646.28 261.29 653.51 246.56 666.92 Q 235.03 677.42 227.74 692.22 Q 227.17 693.39 225.92 693.53 C 232.16 672.12 246.29 653.13 268.00 646.17 C 290.31 639.01 316.69 648.91 321.21 673.35 Z"/>
  <path fill="#ff807b" d=" M 589.04 656.45 Q 525.21 677.40 458.75 665.55 Q 437.89 661.83 418.13 654.02 Q 419.31 652.98 420.81 653.49 Q 421.33 653.67 421.86 653.51 Q 422.73 653.26 423.44 652.69 A 2.86 2.83 33.9 0 1 426.11 652.18 Q 439.90 656.60 453.31 658.66 Q 468.52 660.99 481.69 662.47 Q 494.74 663.94 508.90 663.59 Q 524.37 663.21 542.70 661.36 Q 551.40 660.49 561.20 658.50 Q 573.80 655.96 584.00 653.29 Q 587.84 652.29 589.04 656.45 Z"/>
  <path fill="#7f7580" d=" M 427.42 675.13 L 428.24 688.21 Q 428.02 688.36 427.77 688.42 Q 427.55 688.47 427.29 688.35 Q 416.97 683.81 414.38 682.62 C 404.49 678.05 394.53 672.06 385.74 664.92 Q 382.38 662.19 378.85 659.70 Q 379.00 656.55 380.28 653.47 Q 380.48 653.00 380.90 653.28 Q 402.52 667.85 427.42 675.13 Z"/>
  <path fill="#afada1" d=" M 305.94 698.79 Q 298.53 703.91 293.64 705.43 Q 282.19 708.99 275.93 711.37 Q 273.98 712.12 271.83 714.16 Q 271.55 714.55 271.14 714.64 Q 269.03 716.14 269.81 719.24 Q 270.74 722.91 273.11 726.93 Q 280.02 738.69 288.55 747.06 Q 292.78 751.21 297.13 755.18 C 300.67 758.41 300.23 763.88 298.62 767.84 Q 296.00 774.29 288.85 773.66 Q 283.96 773.24 278.99 771.70 C 252.53 763.52 234.78 740.22 229.02 713.25 Q 228.49 710.78 228.06 705.30 Q 227.77 701.62 227.01 697.35 Q 226.93 696.86 226.47 696.68 Q 225.46 696.28 225.07 695.77 L 225.92 693.53 Q 227.17 693.39 227.74 692.22 Q 235.03 677.42 246.56 666.92 C 261.29 653.51 288.02 646.28 303.88 662.50 Q 309.08 667.83 310.71 674.96 Q 313.55 687.46 305.94 698.79 Z M 238.5985 703.0181 A 5.71 5.45 86.3 0 0 243.6686 696.9683 A 5.71 5.45 86.3 0 0 237.8615 691.6219 A 5.71 5.45 86.3 0 0 232.7914 697.6717 A 5.71 5.45 86.3 0 0 238.5985 703.0181 Z"/>
  <path fill="#7f7580" d=" M 634.14 660.80 Q 630.73 662.94 627.78 665.48 C 625.23 667.68 622.50 669.69 619.65 671.44 Q 604.23 680.94 585.73 688.30 C 585.21 688.51 585.02 688.41 584.50 688.53 L 585.95 675.01 C 590.55 673.98 595.86 671.73 599.06 670.60 Q 616.46 664.44 631.53 654.08 A 0.74 0.74 0.0 0 1 632.67 654.52 L 634.14 660.80 Z"/>
  <path fill="#afada1" d=" M 378.85 659.70 Q 382.38 662.19 385.74 664.92 C 394.53 672.06 404.49 678.05 414.38 682.62 Q 416.97 683.81 427.29 688.35 Q 427.55 688.47 427.77 688.42 Q 428.02 688.36 428.24 688.21 L 428.80 689.21 Q 428.70 689.72 428.79 690.24 Q 432.16 708.07 440.68 724.05 Q 451.89 745.07 471.44 759.29 Q 465.96 762.09 465.64 768.60 Q 464.48 775.89 465.71 783.22 Q 466.13 785.74 466.11 787.82 Q 466.08 790.11 466.09 792.50 Q 466.09 792.91 466.35 793.11 A 0.53 0.52 19.1 0 1 466.54 793.49 Q 466.74 801.40 468.14 810.03 C 469.40 817.81 469.96 825.55 471.75 833.22 A 1.75 1.73 12.6 0 0 472.38 834.20 Q 473.95 835.41 473.88 837.02 Q 473.82 838.29 474.39 839.50 Q 475.10 841.01 475.92 842.43 Q 476.17 842.86 476.18 843.35 L 476.21 844.24 Q 475.81 844.63 475.53 843.75 Q 474.74 841.22 473.08 839.17 C 465.80 830.17 455.97 824.53 445.28 821.30 Q 429.19 816.44 415.75 818.76 Q 412.88 819.26 404.30 821.36 Q 399.54 815.36 394.78 809.70 Q 391.92 806.32 394.68 802.65 Q 395.85 801.10 396.98 799.67 A 1.48 1.48 0.0 0 0 396.88 797.72 C 396.16 796.98 395.10 796.55 394.60 795.63 Q 393.22 793.05 392.22 790.17 Q 387.00 775.13 384.11 761.75 Q 380.99 747.26 379.15 725.64 Q 378.73 720.78 378.88 716.02 Q 378.88 715.76 378.81 715.51 Q 378.75 715.27 378.67 715.03 Q 378.33 713.98 377.73 714.90 L 370.46 726.00 Q 370.33 718.45 371.63 712.00 Q 371.66 711.80 371.86 711.83 Q 372.22 711.88 372.33 711.54 L 375.40 702.28 Q 375.50 701.98 375.20 701.89 L 374.94 701.80 A 0.34 0.34 0.0 0 0 374.53 701.99 L 371.95 708.15 Q 370.88 710.69 371.01 707.93 C 371.26 702.42 371.35 697.04 372.13 691.55 Q 374.43 675.51 378.85 659.70 Z"/>
  <path fill="#afada1" d=" M 634.14 660.80 L 635.21 665.53 Q 635.12 667.96 636.54 670.71 Q 640.34 689.40 640.66 707.73 Q 640.71 710.22 639.88 707.87 Q 638.75 704.69 637.21 702.31 Q 635.79 700.12 635.92 702.72 Q 635.96 703.50 636.20 704.24 Q 637.99 709.75 640.29 714.74 Q 641.61 717.60 641.10 726.29 Q 636.09 720.15 633.68 713.22 Q 633.65 713.15 633.59 713.13 Q 633.45 713.08 633.32 713.16 A 0.61 0.61 0.0 0 0 633.05 713.72 Q 633.39 717.41 633.18 720.24 Q 632.23 732.75 630.47 745.63 C 628.15 762.62 623.72 778.91 618.17 794.93 C 617.84 795.91 617.06 796.38 616.12 796.67 A 1.97 1.97 0.0 0 0 614.83 799.17 Q 615.74 801.96 617.38 804.25 C 618.26 805.47 618.71 807.59 617.77 808.79 Q 615.69 811.46 606.65 821.09 Q 604.60 820.67 601.85 819.97 Q 598.95 819.22 597.05 818.93 Q 564.61 813.97 539.36 836.62 Q 541.96 821.09 544.36 806.51 Q 545.29 800.84 545.47 794.64 Q 545.65 788.89 546.51 783.45 Q 547.66 776.29 547.66 768.99 Q 547.66 764.00 544.22 760.43 Q 543.83 760.02 543.76 759.46 Q 543.62 758.38 543.22 758.66 Q 543.61 757.80 544.24 757.23 C 548.95 753.06 554.12 748.83 558.08 744.40 Q 578.94 721.14 584.17 689.68 Q 584.11 689.07 584.50 688.53 C 585.02 688.41 585.21 688.51 585.73 688.30 Q 604.23 680.94 619.65 671.44 C 622.50 669.69 625.23 667.68 627.78 665.48 Q 630.73 662.94 634.14 660.80 Z"/>
  <path fill="#7f7580" d=" M 635.21 665.53 Q 636.36 668.05 636.54 670.71 Q 635.12 667.96 635.21 665.53 Z"/>
  <path fill="#7f7580" d=" M 321.21 673.35 Q 323.64 687.94 315.79 699.28 C 310.02 707.63 301.10 712.69 291.40 715.26 C 285.06 716.93 278.16 715.64 271.83 714.16 Q 273.98 712.12 275.93 711.37 Q 282.19 708.99 293.64 705.43 Q 298.53 703.91 305.94 698.79 Q 317.58 692.86 320.50 681.50 Q 320.94 679.77 321.21 673.35 Z"/>
  <path fill="#c0bfce" d=" M 585.95 675.01 L 584.50 688.53 Q 584.11 689.07 584.17 689.68 Q 583.88 689.21 582.77 689.60 Q 563.99 696.28 540.79 700.20 C 510.14 705.39 478.17 703.31 448.30 695.22 C 442.24 693.58 435.91 691.22 429.76 689.01 Q 429.18 688.80 428.80 689.21 L 428.24 688.21 L 427.42 675.13 Q 463.01 686.64 503.50 686.83 Q 547.27 687.05 585.95 675.01 Z"/>
  <path fill="#fefffb" d=" M 584.17 689.68 Q 578.94 721.14 558.08 744.40 C 554.12 748.83 548.95 753.06 544.24 757.23 Q 543.61 757.80 543.22 758.66 Q 542.39 759.97 541.27 760.11 Q 537.80 758.07 534.40 759.63 C 527.34 762.86 528.43 769.80 527.71 776.32 Q 522.21 778.01 516.24 778.90 Q 505.24 780.53 494.26 778.70 Q 489.15 777.86 483.73 776.99 Q 483.43 772.30 482.72 767.51 Q 482.14 763.60 479.16 761.15 Q 475.51 758.16 471.44 759.29 Q 451.89 745.07 440.68 724.05 Q 432.16 708.07 428.79 690.24 Q 428.70 689.72 428.80 689.21 Q 429.18 688.80 429.76 689.01 C 435.91 691.22 442.24 693.58 448.30 695.22 C 478.17 703.31 510.14 705.39 540.79 700.20 Q 563.99 696.28 582.77 689.60 Q 583.88 689.21 584.17 689.68 Z"/>
  <ellipse fill="#fefffb" cx="0.00" cy="0.00" transform="translate(238.23,697.32) rotate(86.3)" rx="5.71" ry="5.45"/>
  <path fill="#7f7580" d=" M 225.07 695.77 Q 225.46 696.28 226.47 696.68 Q 226.93 696.86 227.01 697.35 Q 227.77 701.62 228.06 705.30 Q 228.49 710.78 229.02 713.25 C 234.78 740.22 252.53 763.52 278.99 771.70 Q 283.96 773.24 288.85 773.66 Q 296.00 774.29 298.62 767.84 C 300.23 763.88 300.67 758.41 297.13 755.18 Q 292.78 751.21 288.55 747.06 Q 280.02 738.69 273.11 726.93 Q 270.74 722.91 269.81 719.24 Q 269.03 716.14 271.14 714.64 Q 271.41 715.11 271.41 715.66 Q 271.41 716.15 271.84 716.39 Q 278.63 720.22 286.42 719.88 A 0.77 0.77 0.0 0 1 287.22 720.63 C 287.63 734.68 298.84 746.69 310.81 752.36 A 1.31 1.30 21.5 0 1 311.50 753.94 Q 305.20 773.86 305.44 794.18 Q 305.45 794.84 304.83 795.09 C 300.99 796.64 298.20 798.15 293.55 797.45 C 266.08 793.35 241.86 776.65 229.49 751.68 C 221.10 734.73 219.77 713.72 225.07 695.77 Z"/>
  <path fill="#fdf7eb" d=" M 686.54 791.50 Q 685.40 779.76 684.31 775.25 Q 678.84 752.56 664.71 732.05 Q 660.16 725.46 658.71 723.71 Q 658.70 719.23 658.49 714.51 Q 658.44 713.48 658.59 712.23 Q 658.67 711.60 658.85 712.20 Q 659.05 712.90 659.50 713.48 Q 683.85 745.01 688.14 784.74 Q 688.15 784.85 688.48 787.24 Q 689.13 792.08 686.54 791.50 Z"/>
  <path fill="#fdf7eb" d=" M 353.03 716.48 Q 352.55 722.98 350.24 726.22 Q 336.45 745.56 330.25 764.99 Q 326.86 775.65 325.44 791.61 L 323.61 791.52 Q 323.03 791.49 323.06 790.91 Q 323.54 781.61 325.80 771.01 Q 332.73 738.49 352.76 712.21 A 0.21 0.21 0.0 0 1 353.13 712.34 L 353.03 716.48 Z"/>
  <path fill="#7f7580" d=" M 641.10 726.29 Q 640.78 728.62 640.84 731.61 Q 640.89 734.32 640.83 736.89 Q 640.01 769.59 638.07 790.20 Q 637.01 801.41 635.57 812.66 Q 634.02 824.82 631.33 834.24 Q 630.42 837.42 630.51 839.54 C 625.16 830.62 616.64 824.71 606.65 821.09 Q 615.69 811.46 617.77 808.79 C 618.71 807.59 618.26 805.47 617.38 804.25 Q 615.74 801.96 614.83 799.17 A 1.97 1.97 0.0 0 1 616.12 796.67 C 617.06 796.38 617.84 795.91 618.17 794.93 C 623.72 778.91 628.15 762.62 630.47 745.63 Q 632.23 732.75 633.18 720.24 Q 633.39 717.41 633.05 713.72 A 0.61 0.61 0.0 0 1 633.32 713.16 Q 633.45 713.08 633.59 713.13 Q 633.65 713.15 633.68 713.22 Q 636.09 720.15 641.10 726.29 Z"/>
  <path fill="#7f7580" d=" M 404.30 821.36 Q 389.37 827.08 381.38 839.68 Q 380.87 837.63 380.36 835.45 Q 376.31 817.97 374.76 800.14 Q 373.30 783.43 373.30 783.37 Q 371.72 769.35 371.47 760.50 Q 370.98 742.67 370.46 726.00 L 377.73 714.90 Q 378.33 713.98 378.67 715.03 Q 378.75 715.27 378.81 715.51 Q 378.88 715.76 378.88 716.02 Q 378.73 720.78 379.15 725.64 Q 380.99 747.26 384.11 761.75 Q 387.00 775.13 392.22 790.17 Q 393.22 793.05 394.60 795.63 C 395.10 796.55 396.16 796.98 396.88 797.72 A 1.48 1.48 0.0 0 1 396.98 799.67 Q 395.85 801.10 394.68 802.65 Q 391.92 806.32 394.78 809.70 Q 399.54 815.36 404.30 821.36 Z"/>
  <path fill="#7f7580" d=" M 353.03 716.48 Q 353.34 722.50 353.09 728.51 Q 352.75 736.55 352.87 740.51 C 353.46 760.29 354.11 780.15 356.41 799.90 C 356.53 801.00 356.98 801.79 357.16 802.81 Q 357.30 803.58 356.82 802.96 Q 355.83 801.65 354.46 800.85 C 346.86 796.44 340.06 793.08 330.94 792.15 Q 327.64 791.81 325.44 791.61 Q 326.86 775.65 330.25 764.99 Q 336.45 745.56 350.24 726.22 Q 352.55 722.98 353.03 716.48 Z"/>
  <path fill="#7f7580" d=" M 658.71 723.71 Q 660.16 725.46 664.71 732.05 Q 678.84 752.56 684.31 775.25 Q 685.40 779.76 686.54 791.50 Q 678.85 792.33 676.50 792.74 C 671.09 793.69 665.92 796.51 660.93 798.98 Q 657.85 800.50 656.07 802.70 Q 654.65 804.45 654.96 802.22 Q 656.47 791.36 657.07 779.74 Q 658.50 751.85 658.71 723.71 Z"/>
  <path fill="#7f7580" d=" M 539.36 836.62 L 535.83 842.54 C 535.92 839.49 537.01 836.21 537.38 833.81 Q 539.20 822.02 541.28 810.28 C 543.89 795.54 545.45 782.24 545.02 767.99 Q 544.87 763.19 541.27 760.11 Q 542.39 759.97 543.22 758.66 Q 543.62 758.38 543.76 759.46 Q 543.83 760.02 544.22 760.43 Q 547.66 764.00 547.66 768.99 Q 547.66 776.29 546.51 783.45 Q 545.65 788.89 545.47 794.64 Q 545.29 800.84 544.36 806.51 Q 541.96 821.09 539.36 836.62 Z"/>
  <path fill="#7f7580" d=" M 465.64 768.60 Q 466.29 782.38 467.39 791.00 Q 469.52 807.65 473.84 830.03 Q 474.07 831.21 474.10 833.01 Q 474.13 834.90 474.53 836.00 Q 477.28 843.56 478.82 851.12 L 477.88 849.74 Q 477.59 849.32 477.59 848.81 Q 477.61 847.70 476.92 846.90 Q 476.61 846.53 476.63 846.05 Q 476.66 845.05 476.21 844.24 L 476.18 843.35 Q 476.17 842.86 475.92 842.43 Q 475.10 841.01 474.39 839.50 Q 473.82 838.29 473.88 837.02 Q 473.95 835.41 472.38 834.20 A 1.75 1.73 12.6 0 1 471.75 833.22 C 469.96 825.55 469.40 817.81 468.14 810.03 Q 466.74 801.40 466.54 793.49 A 0.53 0.52 19.1 0 0 466.35 793.11 Q 466.09 792.91 466.09 792.50 Q 466.08 790.11 466.11 787.82 Q 466.13 785.74 465.71 783.22 Q 464.48 775.89 465.64 768.60 Z"/>
  <path fill="#c0bfce" d=" M 527.71 776.32 Q 527.25 782.61 526.97 784.75 Q 523.07 813.80 517.23 842.53 C 515.86 849.30 514.95 857.57 517.54 863.96 Q 517.75 864.46 517.20 864.55 C 509.74 865.72 501.78 865.12 494.21 864.96 A 0.57 0.57 0.0 0 1 493.69 864.20 C 496.49 856.51 495.35 849.67 493.86 841.22 C 490.08 819.76 485.84 798.67 483.73 776.99 Q 489.15 777.86 494.26 778.70 Q 505.24 780.53 516.24 778.90 Q 522.21 778.01 527.71 776.32 Z"/>
  <path fill="#fefffb" d=" M 361.71 835.31 Q 361.21 837.24 361.36 839.42 Q 361.39 839.79 361.12 839.54 Q 361.06 839.49 361.07 839.41 Q 361.15 838.68 360.66 839.23 C 357.44 842.90 353.93 846.27 349.25 847.70 Q 341.48 850.06 332.23 849.60 Q 333.63 847.27 333.41 845.29 C 332.97 841.39 328.27 840.57 325.32 842.58 Q 322.32 844.62 320.50 848.77 Q 308.46 844.75 298.61 837.10 Q 298.22 836.79 298.07 836.32 Q 297.80 835.46 297.33 835.24 Q 296.13 834.68 295.92 835.99 Q 294.95 841.80 295.77 847.49 Q 296.03 850.74 297.74 853.49 Q 297.85 853.66 297.68 853.77 L 297.67 853.78 Q 297.49 853.89 297.37 853.71 Q 292.75 846.59 292.54 839.26 C 292.06 823.13 303.24 811.01 319.36 809.38 C 328.08 808.50 336.71 810.92 344.47 815.46 Q 353.37 820.68 360.26 826.83 A 2.79 2.75 19.0 0 1 361.17 828.66 L 361.71 835.31 Z"/>
  <path fill="#fefffb" d=" M 715.41 852.13 Q 716.14 846.60 716.34 841.51 C 716.40 839.79 715.81 838.18 715.28 836.58 A 0.90 0.89 -22.9 0 0 714.02 836.07 Q 713.03 836.58 713.36 837.04 Q 703.00 844.90 691.46 849.32 Q 690.67 846.37 688.13 843.87 Q 684.70 840.49 680.25 841.74 C 676.99 842.66 677.76 847.08 678.91 849.87 Q 677.53 849.60 672.50 849.54 Q 664.35 849.44 656.14 844.52 Q 653.22 842.78 649.81 840.21 L 650.56 827.54 A 1.45 1.45 0.0 0 1 651.10 826.50 Q 659.50 819.91 668.00 815.24 C 680.65 808.30 697.55 806.51 709.23 816.59 Q 721.87 827.48 718.34 845.51 Q 717.66 848.97 715.41 852.13 Z"/>
  <path fill="#fefffb" d=" M 476.21 844.24 C 476.00 846.32 476.90 848.18 476.94 849.77 Q 477.08 855.32 471.86 857.89 Q 467.95 859.82 464.38 860.40 C 459.10 861.27 452.73 861.86 447.50 861.43 Q 438.95 860.73 432.82 861.34 Q 433.69 858.86 434.71 855.51 Q 435.18 853.96 433.90 852.11 C 432.05 849.42 427.86 849.98 425.78 851.81 Q 420.82 856.20 420.02 863.74 Q 409.73 861.34 400.68 856.39 Q 395.52 853.57 393.66 848.90 Q 392.65 846.35 392.27 849.06 Q 391.86 851.90 391.87 856.04 Q 391.41 858.23 391.71 859.84 Q 391.20 861.00 391.20 861.00 Q 390.41 862.08 389.26 861.39 Q 382.15 857.06 378.15 851.25 Q 378.54 844.99 381.38 839.68 Q 389.37 827.08 404.30 821.36 Q 412.88 819.26 415.75 818.76 Q 429.19 816.44 445.28 821.30 C 455.97 824.53 465.80 830.17 473.08 839.17 Q 474.74 841.22 475.53 843.75 Q 475.81 844.63 476.21 844.24 Z"/>
  <path fill="#fefffb" d=" M 606.65 821.09 C 616.64 824.71 625.16 830.62 630.51 839.54 Q 631.33 840.81 631.46 842.13 Q 632.34 846.22 631.92 850.05 Q 631.87 850.47 632.21 850.72 Q 632.39 850.86 632.39 851.10 Q 632.40 851.55 632.14 851.88 Q 630.70 853.73 629.29 855.81 C 627.42 858.57 624.70 860.69 621.89 862.47 A 0.75 0.75 0.0 0 1 620.82 862.16 L 620.30 861.08 Q 620.34 857.86 619.51 850.51 Q 619.34 849.03 618.48 848.54 Q 618.00 848.27 617.78 848.77 Q 617.23 850.02 617.38 851.34 Q 615.27 853.03 613.15 854.66 Q 610.83 856.46 608.65 857.58 Q 600.79 861.64 591.89 863.36 Q 590.98 857.35 587.17 852.83 C 584.97 850.22 580.36 848.95 577.84 851.79 C 575.97 853.90 577.70 857.85 578.78 860.24 Q 565.69 862.72 552.88 861.65 Q 546.21 861.09 540.90 859.14 Q 534.24 856.69 533.34 851.03 Q 533.91 846.22 535.83 842.54 L 539.36 836.62 Q 564.61 813.97 597.05 818.93 Q 598.95 819.22 601.85 819.97 Q 604.60 820.67 606.65 821.09 Z"/>
  <path fill="#c0bfce" d=" M 320.50 848.77 Q 317.61 857.77 320.24 867.19 Q 320.41 867.78 319.80 867.69 C 313.05 866.58 303.41 863.55 300.59 856.63 Q 296.72 847.13 296.85 839.62 A 0.05 0.05 0.0 0 0 296.78 839.58 Q 296.57 839.68 296.36 839.65 Q 296.26 839.63 296.24 839.73 Q 295.60 843.48 295.77 847.49 Q 294.95 841.80 295.92 835.99 Q 296.13 834.68 297.33 835.24 Q 297.80 835.46 298.07 836.32 Q 298.22 836.79 298.61 837.10 Q 308.46 844.75 320.50 848.77 Z"/>
  <path fill="#c0bfce" d=" M 361.71 835.31 Q 362.35 841.82 361.43 848.53 Q 361.01 851.59 360.97 854.03 C 360.91 857.94 362.19 861.83 363.40 865.50 Q 363.61 866.14 362.97 866.34 Q 349.54 870.73 335.73 869.91 A 1.96 1.95 -13.8 0 1 334.17 868.97 Q 328.73 859.81 332.23 849.60 Q 341.48 850.06 349.25 847.70 C 353.93 846.27 357.44 842.90 360.66 839.23 Q 361.15 838.68 361.07 839.41 Q 361.06 839.49 361.12 839.54 Q 361.39 839.79 361.36 839.42 Q 361.21 837.24 361.71 835.31 Z"/>
  <path fill="#7f7580" d=" M 715.41 852.13 Q 713.13 858.45 707.02 861.84 Q 711.62 856.83 712.94 850.51 Q 714.38 843.59 713.36 837.04 Q 713.03 836.58 714.02 836.07 A 0.90 0.89 -22.9 0 1 715.28 836.58 C 715.81 838.18 716.40 839.79 716.34 841.51 Q 716.14 846.60 715.41 852.13 Z"/>
  <path fill="#c0bfce" d=" M 713.36 837.04 Q 714.38 843.59 712.94 850.51 Q 711.62 856.83 707.02 861.84 Q 699.70 866.54 690.87 868.28 Q 690.38 868.38 690.56 867.91 Q 693.91 859.20 691.46 849.32 Q 703.00 844.90 713.36 837.04 Z"/>
  <path fill="#c0bfce" d=" M 649.81 840.21 Q 653.22 842.78 656.14 844.52 Q 664.35 849.44 672.50 849.54 Q 677.53 849.60 678.91 849.87 Q 682.56 859.96 676.60 869.09 C 675.95 870.09 674.98 870.30 673.87 870.30 Q 661.68 870.33 648.81 866.56 Q 648.01 866.33 648.28 865.54 Q 649.60 861.68 650.30 857.70 Q 650.79 854.95 650.31 849.79 Q 649.88 845.13 649.81 840.21 Z"/>
  <path fill="#c0bfce" d=" M 631.46 842.13 Q 632.92 843.94 633.44 846.02 Q 634.11 848.72 634.20 851.52 Q 634.28 854.21 633.36 856.93 Q 629.32 868.78 617.28 874.90 Q 616.75 874.15 617.57 872.44 Q 618.19 871.17 618.35 870.20 Q 619.14 865.66 620.30 861.08 L 620.82 862.16 A 0.75 0.75 0.0 0 0 621.89 862.47 C 624.70 860.69 627.42 858.57 629.29 855.81 Q 630.70 853.73 632.14 851.88 Q 632.40 851.55 632.39 851.10 Q 632.39 850.86 632.21 850.72 Q 631.87 850.47 631.92 850.05 Q 632.34 846.22 631.46 842.13 Z"/>
  <path fill="#c0bfce" d=" M 476.21 844.24 Q 476.66 845.05 476.63 846.05 Q 476.61 846.53 476.92 846.90 Q 477.61 847.70 477.59 848.81 Q 477.59 849.32 477.88 849.74 L 478.82 851.12 Q 478.90 861.87 472.62 869.14 C 464.18 878.90 449.00 882.15 436.09 882.01 A 0.94 0.93 -13.9 0 1 435.29 881.53 Q 430.12 872.48 432.82 861.34 Q 438.95 860.73 447.50 861.43 C 452.73 861.86 459.10 861.27 464.38 860.40 Q 467.95 859.82 471.86 857.89 Q 477.08 855.32 476.94 849.77 C 476.90 848.18 476.00 846.32 476.21 844.24 Z"/>
  <path fill="#c0bfce" d=" M 420.02 863.74 Q 418.54 872.66 421.60 881.06 Q 421.88 881.85 421.05 881.81 Q 408.55 881.34 397.76 876.40 Q 395.19 865.14 393.28 854.87 Q 393.19 854.38 392.78 854.61 Q 392.66 854.68 392.50 854.60 Q 392.02 854.38 391.97 854.91 L 391.87 856.04 Q 391.86 851.90 392.27 849.06 Q 392.65 846.35 393.66 848.90 Q 395.52 853.57 400.68 856.39 Q 409.73 861.34 420.02 863.74 Z"/>
  <path fill="#7f7580" d=" M 620.30 861.08 Q 619.14 865.66 618.35 870.20 Q 618.19 871.17 617.57 872.44 Q 616.75 874.15 617.28 874.90 L 613.81 876.38 Q 616.95 865.48 618.13 858.00 Q 618.69 854.45 617.38 851.34 Q 617.23 850.02 617.78 848.77 Q 618.00 848.27 618.48 848.54 Q 619.34 849.03 619.51 850.51 Q 620.34 857.86 620.30 861.08 Z"/>
  <path fill="#c0bfce" d=" M 533.34 851.03 Q 534.24 856.69 540.90 859.14 Q 546.21 861.09 552.88 861.65 Q 565.69 862.72 578.78 860.24 Q 582.48 871.35 576.62 881.43 A 1.70 1.69 -74.4 0 1 575.14 882.27 C 558.65 882.16 541.85 876.98 534.55 861.18 Q 532.40 856.52 533.34 851.03 Z"/>
  <path fill="#c0bfce" d=" M 378.15 851.25 Q 382.15 857.06 389.26 861.39 Q 390.41 862.08 391.20 861.00 Q 391.20 861.00 391.71 859.84 Q 392.70 864.13 393.01 868.46 Q 393.13 870.13 393.65 871.73 Q 394.13 873.22 394.61 874.96 Q 383.58 869.69 379.16 859.08 Q 377.57 855.28 378.15 851.25 Z"/>
  <path fill="#c0bfce" d=" M 617.38 851.34 Q 618.69 854.45 618.13 858.00 Q 616.95 865.48 613.81 876.38 Q 608.80 879.01 602.49 880.19 Q 596.40 881.33 590.38 882.13 A 0.44 0.44 0.0 0 1 589.90 881.55 Q 592.96 872.56 591.89 863.36 Q 600.79 861.64 608.65 857.58 Q 610.83 856.46 613.15 854.66 Q 615.27 853.03 617.38 851.34 Z"/>
  <path fill="#7f7580" d=" M 397.76 876.40 Q 396.26 875.20 394.61 874.96 Q 394.13 873.22 393.65 871.73 Q 393.13 870.13 393.01 868.46 Q 392.70 864.13 391.71 859.84 Q 391.41 858.23 391.87 856.04 L 391.97 854.91 Q 392.02 854.38 392.50 854.60 Q 392.66 854.68 392.78 854.61 Q 393.19 854.38 393.28 854.87 Q 395.19 865.14 397.76 876.40 Z"/>
</svg>