<?xml version="1.0" encoding="utf-8"?>
<svg version="1.1" viewBox="0.00 0.00 1024.00 1024.00" xmlns="http://www.w3.org/2000/svg">
  <path fill="#001c34" d=" M 781.29 807.71 Q 779.22 813.87 776.40 819.15 C 765.79 838.94 743.50 845.39 722.45 844.02 Q 711.99 843.34 702.96 839.53 C 685.23 832.04 676.18 817.08 673.13 797.59 A 1.21 1.20 70.0 0 0 671.32 796.74 Q 670.10 797.48 669.66 798.77 C 668.42 802.46 667.37 806.32 665.37 809.72 C 654.73 827.83 632.32 834.60 612.52 830.27 Q 582.36 823.66 577.60 792.94 Q 577.79 790.98 577.27 789.08 Q 577.12 788.55 576.61 788.33 Q 573.39 786.98 570.95 784.18 Q 570.45 783.60 570.32 784.36 L 568.94 792.94 Q 567.52 803.23 565.32 813.75 Q 562.94 825.09 557.10 834.25 C 544.44 854.10 519.74 859.43 497.81 855.41 Q 476.39 851.48 464.65 832.96 Q 460.70 826.74 457.62 814.91 Q 455.03 805.00 453.66 794.76 Q 450.58 776.95 449.07 758.87 Q 449.02 758.21 448.40 757.98 L 442.20 755.63 Q 441.60 755.40 441.51 756.04 L 435.65 797.37 Q 433.99 806.55 432.78 810.26 Q 425.11 833.59 401.79 840.29 Q 382.98 845.70 364.45 839.35 C 348.71 833.96 337.78 819.88 334.38 803.74 Q 331.78 790.11 330.43 781.00 Q 320.56 714.55 319.74 646.75 Q 319.72 645.35 319.16 644.22 Q 314.92 635.76 310.43 625.82 A 0.97 0.97 0.0 0 0 309.61 625.25 Q 301.46 624.74 293.05 624.11 C 269.40 622.33 246.42 617.52 226.01 606.75 C 189.17 587.30 165.39 548.85 167.83 506.78 Q 170.04 468.48 199.70 443.34 Q 200.09 443.00 199.97 442.51 Q 193.35 416.44 194.96 388.99 Q 195.00 388.42 194.42 388.38 C 164.82 386.39 131.61 370.60 117.66 342.95 Q 113.67 335.06 113.69 327.55 C 113.76 306.53 139.79 290.94 156.90 284.22 Q 187.84 272.06 222.08 272.00 Q 230.79 271.99 238.74 272.27 A 4.12 4.10 -68.6 0 0 242.00 270.84 L 252.18 258.97 Q 252.66 258.41 252.50 257.69 C 250.08 246.86 249.29 235.86 250.46 224.85 C 253.02 200.88 265.61 178.85 284.24 164.51 C 294.84 156.34 309.76 150.82 322.52 155.41 C 334.81 159.84 339.90 173.46 334.01 185.12 Q 332.44 188.21 330.68 191.35 C 328.02 196.05 328.54 201.51 329.73 206.67 A 0.49 0.48 71.9 0 0 330.39 207.01 C 372.78 189.43 421.30 186.80 466.12 195.60 C 475.27 197.39 484.57 199.96 493.25 203.16 Q 499.30 205.40 505.23 207.32 Q 506.06 207.59 506.66 206.95 C 510.86 202.47 514.26 196.30 515.09 190.12 C 515.62 186.09 513.94 181.51 513.20 177.49 C 511.85 170.17 513.97 163.43 519.30 157.98 C 525.59 151.56 535.82 150.21 544.45 152.58 Q 555.23 155.55 564.19 163.82 Q 587.36 185.19 590.42 216.21 Q 593.18 244.23 577.90 267.93 Q 577.48 268.58 577.87 269.25 L 581.23 275.05 Q 581.65 275.79 582.50 275.71 Q 621.32 272.21 659.10 280.71 C 679.78 285.37 701.66 293.28 717.14 307.45 Q 733.78 322.68 724.05 343.72 C 716.17 360.77 699.48 375.76 682.21 383.54 Q 648.18 398.85 611.50 392.56 Q 610.94 392.46 611.00 393.02 Q 613.45 415.64 610.47 438.14 A 0.56 0.56 0.0 0 0 611.17 438.75 Q 620.68 436.27 629.56 434.63 Q 659.33 429.16 687.97 434.31 C 714.20 439.02 739.13 453.43 757.98 472.38 Q 772.93 487.42 784.95 506.16 C 797.20 525.24 806.99 546.57 817.13 567.18 C 820.23 573.48 823.81 579.90 828.68 584.82 C 832.03 588.21 837.69 591.67 842.70 591.23 A 1.01 1.01 0.0 0 0 843.38 589.56 Q 834.27 578.92 832.85 565.58 C 830.17 540.50 843.22 515.59 861.96 499.25 C 866.81 495.02 873.06 492.57 879.15 496.43 Q 883.47 499.16 886.93 502.93 Q 906.69 524.45 914.98 550.11 Q 917.89 559.10 917.63 569.40 Q 917.13 589.03 901.48 599.97 A 1.88 1.87 -12.8 0 0 900.71 601.19 C 896.08 628.33 876.79 645.66 849.97 650.31 C 830.91 653.60 812.49 649.19 796.39 638.25 Q 795.90 637.92 795.90 638.51 Q 796.36 674.66 794.02 708.99 Q 791.12 751.46 785.46 788.25 Q 784.28 795.91 781.29 807.71 Z M 505.98 250.46 Q 508.47 258.97 514.89 264.20 C 527.22 275.54 543.94 273.95 554.23 261.12 C 569.78 241.70 571.32 214.24 557.91 193.31 Q 552.24 183.95 543.13 177.95 L 537.37 175.52 A 0.33 0.32 3.2 0 0 536.93 175.91 C 539.28 183.96 539.62 191.89 536.85 199.84 Q 531.86 214.16 521.02 224.39 C 517.61 227.61 513.70 230.08 509.91 232.93 Q 505.46 236.29 505.09 241.99 Q 504.79 246.66 505.98 250.46 Z M 297.30 184.64 Q 294.49 186.22 292.98 187.76 Q 272.04 209.12 273.35 239.29 A 0.35 0.35 0.0 0 0 273.93 239.53 Q 280.40 233.66 287.42 229.15 L 306.79 217.61 Q 307.21 217.36 307.10 216.88 Q 304.03 202.82 306.06 191.66 Q 307.24 185.18 311.30 178.88 A 0.35 0.34 -75.5 0 0 310.99 178.35 Q 307.73 178.54 304.83 179.87 Q 300.38 181.89 297.30 184.64 Z M 255.98 290.97 Q 240.49 310.48 231.18 333.66 C 219.16 364.43 216.75 397.51 222.20 429.84 A 0.69 0.69 0.0 0 0 223.20 430.34 Q 226.22 428.76 229.43 427.59 Q 251.56 419.54 273.56 417.53 Q 311.83 414.02 352.56 420.62 Q 366.13 422.81 378.51 426.40 Q 381.85 427.37 394.77 431.80 Q 402.71 434.60 412.74 440.23 Q 433.33 451.77 448.89 466.12 Q 477.00 492.07 484.19 529.09 C 485.56 539.86 486.06 551.18 484.26 561.82 A 0.91 0.91 0.0 0 0 485.50 562.81 Q 502.47 555.97 518.00 545.89 C 524.90 541.41 531.64 535.72 537.92 530.24 C 553.99 516.17 566.81 499.09 575.11 479.53 Q 580.91 465.86 583.95 451.66 Q 587.15 436.71 587.47 414.83 Q 587.72 398.13 586.61 385.17 C 586.46 383.47 586.03 381.56 584.50 380.56 Q 576.50 375.33 570.52 368.23 Q 565.78 362.61 560.19 356.60 Q 555.97 348.36 554.03 343.26 Q 549.90 332.35 555.31 323.97 Q 557.99 319.81 565.00 315.51 Q 572.83 310.71 581.32 306.99 Q 593.57 303.20 606.51 303.19 C 616.31 304.02 622.79 307.09 632.65 312.25 Q 641.59 317.97 652.63 319.37 Q 664.16 320.84 674.54 317.61 Q 679.13 316.42 682.64 313.71 A 0.49 0.49 0.0 0 0 682.51 312.86 C 651.85 301.39 619.78 297.44 587.25 299.90 L 570.88 302.05 L 569.20 302.01 Q 568.67 302.00 568.50 301.50 Q 567.22 297.81 564.70 295.47 L 560.61 287.38 A 1.04 1.04 0.0 0 0 559.15 286.97 Q 551.90 291.46 543.80 293.91 Q 526.69 297.04 511.33 289.67 C 493.31 281.01 481.02 263.06 481.76 242.71 C 481.95 237.54 483.54 232.45 485.68 227.72 A 0.83 0.82 22.0 0 0 485.20 226.60 Q 470.53 221.52 455.69 218.91 Q 382.91 205.84 318.79 238.57 Q 282.04 257.33 255.98 290.97 Z M 157.37 315.21 Q 163.42 317.31 169.92 317.46 Q 177.19 317.62 182.52 316.64 Q 191.04 315.06 197.45 308.70 C 204.47 304.64 211.51 300.48 219.53 300.02 A 3.91 3.89 -68.3 0 0 222.00 298.95 Q 223.00 297.98 223.69 296.83 Q 224.12 296.12 223.29 296.13 Q 202.82 296.41 181.83 301.66 Q 166.46 305.50 153.75 312.23 A 0.79 0.79 0.0 0 0 153.80 313.65 L 157.37 315.21 Z M 571.21 338.79 Q 574.79 345.47 582.42 351.83 Q 600.52 366.90 621.03 369.58 C 648.20 373.12 675.01 365.75 694.10 346.11 Q 699.08 340.97 702.30 333.50 Q 703.68 330.54 703.37 327.60 A 0.67 0.67 0.0 0 0 702.32 327.13 C 696.39 331.28 689.59 335.58 683.05 337.83 Q 660.10 345.70 637.43 338.07 C 631.10 335.94 624.77 332.31 618.80 328.92 Q 610.71 324.33 601.25 325.34 C 590.93 326.45 579.49 330.51 569.72 333.99 Q 569.23 334.16 569.31 334.67 Q 569.82 337.63 571.21 338.79 Z M 199.38 356.30 L 200.90 350.18 Q 203.49 338.11 208.71 326.92 Q 209.05 326.20 208.40 326.67 Q 200.45 332.34 190.72 335.78 Q 168.40 343.64 145.69 333.73 Q 141.61 331.95 138.27 329.16 Q 137.53 328.54 137.91 329.43 C 142.16 339.52 150.49 347.52 160.43 353.47 Q 175.92 362.74 196.29 364.96 Q 197.08 365.04 197.28 364.28 L 199.38 356.30 Z M 204.68 554.91 Q 218.70 577.19 243.01 588.01 C 257.60 594.51 273.41 597.22 289.20 598.78 Q 328.02 602.61 366.73 605.29 C 391.21 606.99 417.56 605.44 438.41 591.04 Q 448.69 583.94 455.12 572.87 Q 461.13 562.53 461.39 548.60 Q 461.82 526.25 450.29 507.19 Q 442.87 494.91 433.95 486.21 C 418.79 470.86 398.55 458.83 378.30 452.52 Q 357.38 445.99 331.62 443.37 Q 303.37 440.51 277.69 442.67 Q 256.40 444.47 237.77 450.73 Q 226.79 454.41 220.13 458.89 C 196.62 474.70 187.79 501.52 194.09 528.73 Q 197.29 542.55 204.68 554.91 Z M 611.00 463.86 Q 606.30 463.42 604.96 467.47 Q 602.86 473.82 600.59 480.51 Q 598.29 487.31 595.39 493.20 Q 571.12 542.68 523.75 570.27 C 520.33 572.26 516.63 574.03 513.43 576.38 Q 493.87 586.26 472.88 591.97 Q 472.32 592.12 471.97 592.59 C 452.68 618.19 419.41 629.53 388.29 629.72 Q 365.81 629.86 337.94 627.31 A 0.29 0.29 0.0 0 0 337.65 627.72 C 348.89 652.66 363.66 675.77 382.84 694.59 C 400.39 711.80 423.97 724.38 447.44 731.78 A 0.38 0.38 0.0 0 0 447.93 731.36 Q 446.94 724.97 447.31 718.24 Q 447.61 712.98 451.47 709.54 C 457.59 704.50 466.19 707.00 469.37 713.87 Q 470.76 716.87 471.08 723.16 Q 472.42 750.00 476.91 785.31 Q 477.12 786.97 477.61 788.48 Q 477.77 788.96 478.27 789.02 Q 503.21 791.85 528.25 790.50 Q 531.88 790.31 536.02 789.74 L 544.68 789.08 A 0.74 0.74 0.0 0 0 545.36 788.45 Q 550.54 754.05 552.63 719.25 Q 552.94 714.18 557.32 709.47 Q 561.22 706.66 565.50 707.32 Q 574.63 708.75 576.04 719.03 L 575.20 740.54 Q 575.18 741.05 575.69 741.03 Q 598.25 740.28 620.39 735.59 Q 642.55 730.90 663.45 721.08 Q 663.98 720.83 663.93 720.25 Q 663.54 715.71 663.44 711.28 C 663.25 703.52 669.44 697.63 677.12 699.38 Q 682.26 700.56 684.54 704.79 Q 685.88 707.42 686.00 708.75 Q 689.16 742.40 693.76 775.69 A 0.96 0.96 0.0 0 0 694.62 776.52 Q 723.53 779.48 752.28 776.95 L 761.66 776.15 A 1.31 1.30 1.4 0 0 762.84 775.03 Q 765.88 752.42 767.72 732.25 Q 770.01 707.17 770.85 658.53 Q 771.70 629.48 770.90 600.44 Q 770.35 581.67 768.37 562.99 Q 767.03 550.22 763.98 537.75 C 758.91 516.96 749.01 498.23 733.42 483.97 Q 707.84 460.57 673.00 456.95 Q 670.25 456.67 669.00 456.77 Q 660.44 455.83 653.75 456.33 Q 632.96 457.91 611.00 463.86 Z M 862.69 576.34 Q 862.70 573.42 862.85 570.60 Q 862.96 568.34 866.56 565.27 C 871.83 560.76 877.24 566.74 880.82 570.91 Q 883.24 575.62 884.62 582.67 A 1.76 1.76 0.0 0 0 887.32 583.80 Q 897.13 577.23 894.92 564.80 Q 892.09 548.86 882.23 535.40 L 874.27 522.71 L 872.96 520.26 A 0.45 0.45 0.0 0 0 872.22 520.18 C 860.30 533.68 849.56 554.57 857.92 572.59 Q 859.55 576.10 862.36 578.84 A 0.31 0.31 0.0 0 0 862.89 578.59 L 862.69 576.34 Z M 877.27 599.68 C 874.20 599.42 869.98 596.00 868.04 593.89 Q 867.55 593.37 867.29 594.03 C 865.98 597.30 864.35 600.70 862.10 603.37 C 849.56 618.19 828.26 616.79 814.48 603.85 C 805.46 595.38 799.58 584.72 795.17 573.09 Q 794.16 570.44 794.39 573.27 Q 795.50 587.25 795.88 601.00 Q 795.95 603.73 797.11 605.38 Q 811.64 626.09 835.84 627.66 C 855.04 628.90 872.02 619.28 877.89 600.61 Q 878.16 599.76 877.27 599.68 Z M 363.92 776.50 Q 388.31 779.32 413.69 776.21 Q 414.30 776.14 414.39 775.52 Q 416.60 760.28 417.67 747.33 Q 417.72 746.72 417.17 746.45 Q 402.38 739.31 391.84 732.67 Q 378.97 724.57 366.77 713.23 Q 362.28 709.05 351.56 697.04 L 346.07 689.71 Q 345.67 689.18 345.72 689.84 Q 348.13 719.37 351.19 749.27 Q 352.44 761.56 354.35 774.39 A 1.26 1.26 0.0 0 0 355.44 775.46 L 363.92 776.50 Z M 636.08 764.87 L 653.58 766.31 Q 653.63 771.93 655.14 777.20 Q 655.54 778.62 656.71 779.57 Q 662.50 784.29 667.92 779.69 C 669.18 778.62 669.34 776.78 669.17 775.28 Q 667.56 761.59 665.88 747.25 Q 665.78 746.43 665.02 746.75 Q 642.52 755.98 617.86 759.81 Q 617.28 759.90 617.24 760.49 Q 616.89 765.33 617.43 769.83 Q 617.77 772.67 620.20 774.79 C 623.26 777.46 626.89 778.00 630.45 775.85 Q 635.82 772.60 636.08 764.87 Z M 595.31 763.58 L 578.89 764.52 A 0.20 0.20 0.0 0 0 578.71 764.73 L 578.87 767.48 A 8.47 8.31 86.7 0 0 587.65 775.46 L 587.87 775.44 A 8.47 8.31 86.7 0 0 595.68 766.51 L 595.52 763.76 A 0.20 0.20 0.0 0 0 595.31 763.58 Z M 614.47 807.21 Q 614.70 807.60 615.50 807.72 Q 622.45 808.81 628.42 808.07 Q 640.52 807.40 645.32 797.54 C 646.03 796.09 647.24 795.25 645.79 793.55 Q 643.76 791.18 642.01 788.24 Q 641.30 787.05 640.20 787.88 L 635.34 791.52 Q 623.16 795.23 613.49 788.95 Q 610.02 786.70 607.82 783.77 Q 607.61 783.33 607.58 783.31 Q 607.12 782.88 606.66 783.33 Q 604.04 785.88 601.27 787.91 A 0.95 0.94 -21.9 0 0 600.89 788.79 Q 601.97 796.96 606.90 803.08 Q 608.55 805.13 614.47 807.21 Z M 374.01 818.26 Q 380.77 820.41 388.03 819.58 C 404.74 819.02 411.55 807.63 412.04 792.05 A 0.95 0.94 88.1 0 0 411.01 791.08 L 397.94 792.35 Q 381.24 792.93 364.84 790.93 L 357.00 789.90 Q 356.51 789.83 356.56 790.32 Q 357.06 794.98 359.08 802.72 Q 362.30 815.06 374.01 818.26 Z M 714.01 819.10 Q 723.21 822.04 735.64 820.26 Q 743.15 819.76 749.64 815.75 C 756.75 811.35 759.57 799.08 760.40 791.12 A 0.27 0.27 0.0 0 0 760.11 790.83 L 747.73 791.88 Q 722.07 793.31 696.63 790.68 Q 696.09 790.62 696.15 791.15 Q 697.18 800.67 700.69 807.89 C 703.53 813.75 707.60 816.20 714.01 819.10 Z M 496.64 831.26 Q 501.62 833.32 510.25 833.47 Q 515.49 833.57 519.27 832.48 C 535.42 831.03 540.38 818.70 542.62 804.82 A 0.84 0.84 0.0 0 0 541.77 803.85 L 531.19 804.24 Q 505.45 805.45 479.87 802.80 A 0.36 0.36 0.0 0 0 479.48 803.22 C 481.60 815.46 484.14 825.54 496.64 831.26 Z"/>
  <path fill="#d1d2d4" d=" M 543.13 177.95 Q 541.50 179.85 542.78 182.14 Q 544.23 184.77 544.42 185.40 Q 548.46 199.30 543.30 212.86 Q 539.91 221.77 534.48 228.52 Q 526.62 238.29 515.75 245.18 Q 514.30 246.11 510.83 247.73 Q 508.23 248.95 505.98 250.46 Q 504.79 246.66 505.09 241.99 Q 505.46 236.29 509.91 232.93 C 513.70 230.08 517.61 227.61 521.02 224.39 Q 531.86 214.16 536.85 199.84 C 539.62 191.89 539.28 183.96 536.93 175.91 A 0.33 0.32 3.2 0 1 537.37 175.52 L 543.13 177.95 Z"/>
  <path fill="#ffffff" d=" M 287.42 229.15 Q 282.37 213.66 288.59 200.07 Q 291.24 194.30 297.30 184.64 Q 300.38 181.89 304.83 179.87 Q 307.73 178.54 310.99 178.35 A 0.35 0.34 -75.5 0 1 311.30 178.88 Q 307.24 185.18 306.06 191.66 Q 304.03 202.82 307.10 216.88 Q 307.21 217.36 306.79 217.61 L 287.42 229.15 Z"/>
  <path fill="#ffffff" d=" M 543.13 177.95 Q 552.24 183.95 557.91 193.31 Q 557.86 194.68 558.65 196.19 Q 558.87 196.62 558.74 197.09 Q 558.37 198.40 558.62 199.25 C 561.28 208.47 558.71 220.41 554.68 229.43 Q 546.46 247.85 530.97 257.05 Q 527.49 259.12 523.82 261.10 Q 521.84 262.16 519.46 262.84 Q 517.21 263.48 514.89 264.20 Q 508.47 258.97 505.98 250.46 Q 508.23 248.95 510.83 247.73 Q 514.30 246.11 515.75 245.18 Q 526.62 238.29 534.48 228.52 Q 539.91 221.77 543.30 212.86 Q 548.46 199.30 544.42 185.40 Q 544.23 184.77 542.78 182.14 Q 541.50 179.85 543.13 177.95 Z"/>
  <path fill="#d1d2d4" d=" M 297.30 184.64 Q 291.24 194.30 288.59 200.07 Q 282.37 213.66 287.42 229.15 Q 280.40 233.66 273.93 239.53 A 0.35 0.35 0.0 0 1 273.35 239.29 Q 272.04 209.12 292.98 187.76 Q 294.49 186.22 297.30 184.64 Z"/>
  <path fill="#d1d2d4" d=" M 557.91 193.31 C 571.32 214.24 569.78 241.70 554.23 261.12 C 543.94 273.95 527.22 275.54 514.89 264.20 Q 517.21 263.48 519.46 262.84 Q 521.84 262.16 523.82 261.10 Q 527.49 259.12 530.97 257.05 Q 546.46 247.85 554.68 229.43 C 558.71 220.41 561.28 208.47 558.62 199.25 Q 558.37 198.40 558.74 197.09 Q 558.87 196.62 558.65 196.19 Q 557.86 194.68 557.91 193.31 Z"/>
  <path fill="#ffffff" d=" M 455.69 218.91 Q 447.23 224.34 444.81 232.28 Q 443.20 237.52 444.36 243.89 C 446.34 254.82 455.19 262.83 465.27 267.25 Q 465.91 267.54 465.26 267.80 Q 436.89 279.41 417.75 302.08 Q 393.78 330.46 388.26 366.99 Q 383.34 399.48 394.77 431.80 Q 381.85 427.37 378.51 426.40 Q 366.13 422.81 352.56 420.62 Q 311.83 414.02 273.56 417.53 Q 251.56 419.54 229.43 427.59 Q 226.22 428.76 223.20 430.34 A 0.69 0.69 0.0 0 1 222.20 429.84 C 216.75 397.51 219.16 364.43 231.18 333.66 Q 232.43 333.58 232.70 333.79 A 2.29 2.12 -57.4 0 1 233.20 336.56 Q 232.07 338.75 231.67 340.92 Q 231.42 342.33 230.91 343.63 Q 230.37 345.01 230.13 346.40 Q 229.55 349.70 228.95 353.24 C 228.76 354.30 227.82 355.22 227.79 356.34 Q 227.66 361.82 227.13 366.70 Q 227.08 367.19 227.32 367.62 Q 227.55 368.03 227.36 368.46 Q 225.23 373.50 225.64 378.45 Q 225.68 378.97 225.42 379.42 Q 225.03 380.11 225.06 380.51 Q 225.24 382.51 225.32 384.30 Q 225.38 385.49 225.82 386.54 Q 226.31 387.69 226.11 389.03 Q 226.06 389.32 226.23 389.60 Q 226.55 390.12 226.68 389.53 Q 227.71 385.00 228.12 380.15 Q 228.60 374.35 229.43 370.94 Q 231.08 364.14 232.64 358.01 Q 233.14 356.06 234.16 349.84 Q 234.84 345.67 235.99 341.77 Q 242.56 319.42 254.86 298.86 Q 255.97 297.01 256.44 295.02 Q 256.55 294.56 256.91 294.25 Q 258.10 293.21 257.91 291.53 Q 257.83 290.77 257.32 291.34 Q 257.01 291.69 256.62 291.89 Q 255.97 292.24 255.98 291.50 L 255.98 290.97 Q 282.04 257.33 318.79 238.57 Q 382.91 205.84 455.69 218.91 Z M 255.7143 414.0270 A 33.61 30.68 99.1 0 0 291.3239 385.6923 A 33.61 30.68 99.1 0 0 266.3457 347.6530 A 33.61 30.68 99.1 0 0 230.7361 375.9877 A 33.61 30.68 99.1 0 0 255.7143 414.0270 Z"/>
  <path fill="#405974" d=" M 455.69 218.91 Q 470.53 221.52 485.20 226.60 A 0.83 0.82 22.0 0 1 485.68 227.72 C 483.54 232.45 481.95 237.54 481.76 242.71 C 481.02 263.06 493.31 281.01 511.33 289.67 Q 526.69 297.04 543.80 293.91 Q 553.91 293.35 564.70 295.47 Q 567.22 297.81 568.50 301.50 Q 568.67 302.00 569.20 302.01 L 570.88 302.05 Q 564.73 304.31 558.78 306.53 Q 556.52 307.37 555.39 308.73 Q 553.77 310.68 556.27 310.23 Q 565.96 308.47 574.72 307.14 C 576.96 306.80 579.03 307.10 581.32 306.99 Q 572.83 310.71 565.00 315.51 Q 557.99 319.81 555.31 323.97 Q 549.90 332.35 554.03 343.26 Q 555.97 348.36 560.19 356.60 Q 562.89 368.20 570.60 378.17 Q 573.20 381.53 575.58 383.38 C 577.13 384.58 577.34 386.11 577.38 387.93 Q 577.67 399.05 577.28 409.45 Q 576.55 428.67 570.71 445.83 Q 567.15 456.30 562.74 464.74 Q 548.42 492.16 521.39 511.23 Q 512.98 517.16 504.21 521.17 Q 495.24 525.26 484.19 529.09 Q 477.00 492.07 448.89 466.12 Q 433.33 451.77 412.74 440.23 Q 402.71 434.60 394.77 431.80 Q 383.34 399.48 388.26 366.99 Q 393.78 330.46 417.75 302.08 Q 436.89 279.41 465.26 267.80 Q 465.91 267.54 465.27 267.25 C 455.19 262.83 446.34 254.82 444.36 243.89 Q 443.20 237.52 444.81 232.28 Q 447.23 224.34 455.69 218.91 Z M 423.27 384.86 Q 418.12 395.11 417.69 405.50 Q 417.06 420.82 427.13 432.70 C 437.54 444.99 453.30 451.11 469.46 448.82 C 489.43 445.99 504.87 429.81 505.72 409.26 Q 506.15 398.70 502.35 388.67 Q 499.12 376.43 488.93 367.34 C 478.27 357.83 466.23 354.53 452.22 358.44 Q 431.86 364.12 423.27 384.86 Z"/>
  <path fill="#243e57" d=" M 564.70 295.47 Q 553.91 293.35 543.80 293.91 Q 551.90 291.46 559.15 286.97 A 1.04 1.04 0.0 0 1 560.61 287.38 L 564.70 295.47 Z"/>
  <path fill="#d1d2d4" d=" M 255.98 290.97 L 255.98 291.50 Q 255.97 292.24 256.62 291.89 Q 257.01 291.69 257.32 291.34 Q 257.83 290.77 257.91 291.53 Q 258.10 293.21 256.91 294.25 Q 256.55 294.56 256.44 295.02 Q 255.97 297.01 254.86 298.86 Q 242.56 319.42 235.99 341.77 Q 234.84 345.67 234.16 349.84 Q 233.14 356.06 232.64 358.01 Q 231.08 364.14 229.43 370.94 Q 228.60 374.35 228.12 380.15 Q 227.71 385.00 226.68 389.53 Q 226.55 390.12 226.23 389.60 Q 226.06 389.32 226.11 389.03 Q 226.31 387.69 225.82 386.54 Q 225.38 385.49 225.32 384.30 Q 225.24 382.51 225.06 380.51 Q 225.03 380.11 225.42 379.42 Q 225.68 378.97 225.64 378.45 Q 225.23 373.50 227.36 368.46 Q 227.55 368.03 227.32 367.62 Q 227.08 367.19 227.13 366.70 Q 227.66 361.82 227.79 356.34 C 227.82 355.22 228.76 354.30 228.95 353.24 Q 229.55 349.70 230.13 346.40 Q 230.37 345.01 230.91 343.63 Q 231.42 342.33 231.67 340.92 Q 232.07 338.75 233.20 336.56 A 2.29 2.12 -57.4 0 0 232.70 333.79 Q 232.43 333.58 231.18 333.66 Q 240.49 310.48 255.98 290.97 Z"/>
  <path fill="#ffffff" d=" M 197.45 308.70 Q 177.21 309.83 157.37 315.21 L 153.80 313.65 A 0.79 0.79 0.0 0 1 153.75 312.23 Q 166.46 305.50 181.83 301.66 Q 202.82 296.41 223.29 296.13 Q 224.12 296.12 223.69 296.83 Q 223.00 297.98 222.00 298.95 A 3.91 3.89 -68.3 0 1 219.53 300.02 C 211.51 300.48 204.47 304.64 197.45 308.70 Z"/>
  <path fill="#ffffff" d=" M 674.54 317.61 Q 664.97 316.37 655.37 315.88 Q 649.73 315.58 632.65 312.25 C 622.79 307.09 616.31 304.02 606.51 303.19 Q 602.30 302.65 598.06 302.18 Q 596.50 302.01 592.95 302.35 Q 590.02 302.63 587.49 301.74 Q 586.30 301.31 587.25 299.90 C 619.78 297.44 651.85 301.39 682.51 312.86 A 0.49 0.49 0.0 0 1 682.64 313.71 Q 679.13 316.42 674.54 317.61 Z"/>
  <path fill="#d1d2d4" d=" M 587.25 299.90 Q 586.30 301.31 587.49 301.74 Q 590.02 302.63 592.95 302.35 Q 596.50 302.01 598.06 302.18 Q 602.30 302.65 606.51 303.19 Q 593.57 303.20 581.32 306.99 C 579.03 307.10 576.96 306.80 574.72 307.14 Q 565.96 308.47 556.27 310.23 Q 553.77 310.68 555.39 308.73 Q 556.52 307.37 558.78 306.53 Q 564.73 304.31 570.88 302.05 L 587.25 299.90 Z"/>
  <path fill="#405974" d=" M 197.45 308.70 Q 191.04 315.06 182.52 316.64 Q 177.19 317.62 169.92 317.46 Q 163.42 317.31 157.37 315.21 Q 177.21 309.83 197.45 308.70 Z"/>
  <path fill="#405974" d=" M 632.65 312.25 Q 649.73 315.58 655.37 315.88 Q 664.97 316.37 674.54 317.61 Q 664.16 320.84 652.63 319.37 Q 641.59 317.97 632.65 312.25 Z"/>
  <path fill="#d8a3a1" d=" M 702.30 333.50 Q 701.95 331.85 700.35 333.13 A 1.06 1.03 30.7 0 1 699.48 333.34 Q 698.88 333.23 698.44 333.61 Q 698.15 333.86 697.79 333.99 C 695.73 334.71 693.62 335.29 691.80 336.55 Q 667.98 352.93 639.54 353.67 Q 623.94 354.08 612.52 350.59 Q 598.73 346.37 585.24 337.88 Q 583.38 336.71 584.17 338.76 C 585.15 341.26 585.47 343.82 587.09 346.00 Q 590.15 350.12 594.35 353.11 Q 598.56 356.11 602.81 358.13 Q 608.34 360.75 613.94 363.06 Q 614.68 363.36 613.95 363.69 Q 612.09 364.51 610.47 363.95 Q 607.14 362.80 602.79 361.43 Q 601.67 361.08 600.91 360.40 Q 600.10 359.68 599.20 359.00 Q 598.04 358.12 596.70 357.65 Q 595.58 357.25 594.76 356.31 Q 594.01 355.46 593.03 354.73 Q 591.69 353.74 590.40 353.03 Q 589.22 352.38 587.24 351.89 Q 586.39 351.68 584.34 350.24 Q 577.61 345.51 571.21 338.79 Q 569.82 337.63 569.31 334.67 Q 569.23 334.16 569.72 333.99 C 579.49 330.51 590.93 326.45 601.25 325.34 Q 610.71 324.33 618.80 328.92 C 624.77 332.31 631.10 335.94 637.43 338.07 Q 660.10 345.70 683.05 337.83 C 689.59 335.58 696.39 331.28 702.32 327.13 A 0.67 0.67 0.0 0 1 703.37 327.60 Q 703.68 330.54 702.30 333.50 Z"/>
  <path fill="#d8a3a1" d=" M 200.90 350.18 Q 200.64 349.49 199.27 349.78 Q 198.29 349.99 197.25 349.93 Q 189.25 349.48 180.23 349.11 Q 175.86 348.93 179.92 350.54 Q 185.08 352.58 190.23 355.11 Q 193.31 356.61 199.38 356.30 L 197.28 364.28 Q 197.08 365.04 196.29 364.96 Q 175.92 362.74 160.43 353.47 C 150.49 347.52 142.16 339.52 137.91 329.43 Q 137.53 328.54 138.27 329.16 Q 141.61 331.95 145.69 333.73 Q 168.40 343.64 190.72 335.78 Q 200.45 332.34 208.40 326.67 Q 209.05 326.20 208.71 326.92 Q 203.49 338.11 200.90 350.18 Z"/>
  <path fill="#f8ccc3" d=" M 702.30 333.50 Q 699.08 340.97 694.10 346.11 C 675.01 365.75 648.20 373.12 621.03 369.58 Q 600.52 366.90 582.42 351.83 Q 574.79 345.47 571.21 338.79 Q 577.61 345.51 584.34 350.24 Q 586.39 351.68 587.24 351.89 Q 589.22 352.38 590.40 353.03 Q 591.69 353.74 593.03 354.73 Q 594.01 355.46 594.76 356.31 Q 595.58 357.25 596.70 357.65 Q 598.04 358.12 599.20 359.00 Q 600.10 359.68 600.91 360.40 Q 601.67 361.08 602.79 361.43 Q 607.14 362.80 610.47 363.95 Q 612.09 364.51 613.95 363.69 Q 614.68 363.36 613.94 363.06 Q 608.34 360.75 602.81 358.13 Q 598.56 356.11 594.35 353.11 Q 590.15 350.12 587.09 346.00 C 585.47 343.82 585.15 341.26 584.17 338.76 Q 583.38 336.71 585.24 337.88 Q 598.73 346.37 612.52 350.59 Q 623.94 354.08 639.54 353.67 Q 667.98 352.93 691.80 336.55 C 693.62 335.29 695.73 334.71 697.79 333.99 Q 698.15 333.86 698.44 333.61 Q 698.88 333.23 699.48 333.34 A 1.06 1.03 30.7 0 0 700.35 333.13 Q 701.95 331.85 702.30 333.50 Z"/>
  <path fill="#001c34" d=" M 255.7143 414.0270 A 33.61 30.68 99.1 0 1 230.7361 375.9877 A 33.61 30.68 99.1 0 1 266.3457 347.6530 A 33.61 30.68 99.1 0 1 291.3239 385.6923 A 33.61 30.68 99.1 0 1 255.7143 414.0270 Z M 268.9990 377.4667 A 10.29 10.05 75.6 0 0 276.1743 365.0007 A 10.29 10.05 75.6 0 0 263.8810 357.5333 A 10.29 10.05 75.6 0 0 256.7057 369.9993 A 10.29 10.05 75.6 0 0 268.9990 377.4667 Z M 279.49 385.42 A 5.88 5.88 0.0 0 0 273.61 379.54 A 5.88 5.88 0.0 0 0 267.73 385.42 A 5.88 5.88 0.0 0 0 273.61 391.30 A 5.88 5.88 0.0 0 0 279.49 385.42 Z"/>
  <path fill="#f8ccc3" d=" M 200.90 350.18 L 199.38 356.30 Q 193.31 356.61 190.23 355.11 Q 185.08 352.58 179.92 350.54 Q 175.86 348.93 180.23 349.11 Q 189.25 349.48 197.25 349.93 Q 198.29 349.99 199.27 349.78 Q 200.64 349.49 200.90 350.18 Z"/>
  <path fill="#001c34" d=" M 502.35 388.67 Q 504.94 404.90 497.97 418.15 Q 493.10 427.41 485.12 432.88 C 462.66 448.30 434.81 438.29 424.82 413.97 Q 419.13 400.14 423.27 384.86 Q 431.86 364.12 452.22 358.44 C 466.23 354.53 478.27 357.83 488.93 367.34 Q 499.12 376.43 502.35 388.67 Z M 478.6086 383.8252 A 12.23 12.06 25.5 0 0 472.7620 367.6748 A 12.23 12.06 25.5 0 0 456.5314 373.2948 A 12.23 12.06 25.5 0 0 462.3780 389.4452 A 12.23 12.06 25.5 0 0 478.6086 383.8252 Z M 487.12 399.61 A 8.15 8.15 0.0 0 0 478.97 391.46 A 8.15 8.15 0.0 0 0 470.82 399.61 A 8.15 8.15 0.0 0 0 478.97 407.76 A 8.15 8.15 0.0 0 0 487.12 399.61 Z"/>
  <path fill="#243e57" d=" M 560.19 356.60 Q 565.78 362.61 570.52 368.23 Q 576.50 375.33 584.50 380.56 C 586.03 381.56 586.46 383.47 586.61 385.17 Q 587.72 398.13 587.47 414.83 Q 587.15 436.71 583.95 451.66 Q 580.91 465.86 575.11 479.53 C 566.81 499.09 553.99 516.17 537.92 530.24 C 531.64 535.72 524.90 541.41 518.00 545.89 Q 502.47 555.97 485.50 562.81 A 0.91 0.91 0.0 0 1 484.26 561.82 C 486.06 551.18 485.56 539.86 484.19 529.09 Q 495.24 525.26 504.21 521.17 Q 512.98 517.16 521.39 511.23 Q 548.42 492.16 562.74 464.74 Q 567.15 456.30 570.71 445.83 Q 576.55 428.67 577.28 409.45 Q 577.67 399.05 577.38 387.93 C 577.34 386.11 577.13 384.58 575.58 383.38 Q 573.20 381.53 570.60 378.17 Q 562.89 368.20 560.19 356.60 Z"/>
  <ellipse fill="#ffffff" cx="0.00" cy="0.00" transform="translate(266.44,367.50) rotate(75.6)" rx="10.29" ry="10.05"/>
  <ellipse fill="#ffffff" cx="0.00" cy="0.00" transform="translate(467.57,378.56) rotate(25.5)" rx="12.23" ry="12.06"/>
  <circle fill="#ffffff" cx="273.61" cy="385.42" r="5.88"/>
  <path fill="#ffffff" d=" M 423.27 384.86 Q 419.13 400.14 424.82 413.97 C 434.81 438.29 462.66 448.30 485.12 432.88 Q 493.10 427.41 497.97 418.15 Q 504.94 404.90 502.35 388.67 Q 506.15 398.70 505.72 409.26 C 504.87 429.81 489.43 445.99 469.46 448.82 C 453.30 451.11 437.54 444.99 427.13 432.70 Q 417.06 420.82 417.69 405.50 Q 418.12 395.11 423.27 384.86 Z"/>
  <circle fill="#ffffff" cx="478.97" cy="399.61" r="8.15"/>
  <path fill="#ffffff" d=" M 433.95 486.21 Q 433.92 486.73 434.34 487.36 Q 434.61 487.76 434.38 488.18 Q 433.83 489.18 434.38 490.23 Q 438.79 498.66 441.99 507.28 Q 445.11 515.65 444.62 524.53 C 444.52 526.48 443.82 528.32 443.35 530.25 C 440.26 531.37 435.22 534.12 434.05 528.85 C 432.95 523.90 432.23 518.93 430.44 514.14 C 422.25 492.33 400.77 478.31 379.30 471.61 Q 369.79 468.64 361.41 467.00 Q 325.91 460.04 289.42 460.81 Q 275.72 461.10 261.49 463.18 Q 246.80 465.32 235.59 470.38 Q 230.14 472.84 223.96 477.79 Q 220.48 480.56 219.06 476.35 Q 219.00 476.17 218.97 475.99 Q 218.30 471.85 221.47 468.60 Q 226.05 463.91 231.77 461.18 Q 232.56 460.81 232.62 459.94 Q 232.66 459.34 232.05 459.37 Q 230.19 459.48 228.59 460.19 Q 219.95 463.98 212.71 471.62 Q 195.96 489.30 195.77 513.74 Q 195.70 523.09 196.86 529.23 Q 198.33 538.05 201.42 546.51 Q 202.17 548.54 204.90 553.23 Q 205.17 553.68 205.18 554.07 Q 205.21 554.82 204.68 554.91 Q 197.29 542.55 194.09 528.73 C 187.79 501.52 196.62 474.70 220.13 458.89 Q 226.79 454.41 237.77 450.73 Q 256.40 444.47 277.69 442.67 Q 303.37 440.51 331.62 443.37 Q 357.38 445.99 378.30 452.52 C 398.55 458.83 418.79 470.86 433.95 486.21 Z"/>
  <path fill="#405974" d=" M 669.00 456.77 Q 683.23 461.20 693.02 472.73 C 712.77 495.96 705.15 529.62 677.55 542.18 A 0.49 0.49 0.0 0 0 677.49 543.04 C 711.52 564.46 706.01 611.65 666.75 622.71 Q 666.21 622.86 666.19 623.42 C 665.07 651.19 643.36 672.00 617.26 677.65 C 576.88 686.39 540.14 663.48 524.30 626.26 Q 521.96 620.73 519.33 612.21 L 515.64 592.48 Q 529.49 585.82 541.42 576.95 Q 547.86 572.17 555.77 564.52 Q 574.07 546.79 586.68 526.93 Q 598.80 507.82 606.45 480.32 Q 607.48 476.59 609.34 465.42 Q 609.43 464.85 609.93 464.53 L 611.00 463.86 Q 632.96 457.91 653.75 456.33 Q 660.44 455.83 669.00 456.77 Z"/>
  <path fill="#ffffff" d=" M 669.00 456.77 Q 670.25 456.67 673.00 456.95 Q 707.84 460.57 733.42 483.97 C 749.01 498.23 758.91 516.96 763.98 537.75 Q 767.03 550.22 768.37 562.99 Q 770.35 581.67 770.90 600.44 C 758.37 608.75 751.86 619.54 753.62 634.99 Q 754.20 640.10 756.28 644.01 Q 759.96 650.89 765.37 655.64 Q 764.48 664.82 763.97 673.70 Q 763.25 686.09 762.74 691.76 Q 761.80 702.12 760.79 712.47 Q 759.98 720.76 758.59 730.50 Q 756.85 742.78 756.21 748.50 Q 754.29 765.72 752.28 776.95 Q 723.53 779.48 694.62 776.52 A 0.96 0.96 0.0 0 1 693.76 775.69 Q 689.16 742.40 686.00 708.75 Q 685.88 707.42 684.54 704.79 Q 685.52 702.56 688.78 702.51 A 0.92 0.92 0.0 0 0 689.53 701.08 Q 684.23 693.18 675.00 694.17 Q 670.67 694.63 667.72 696.20 Q 656.89 701.92 651.52 704.01 Q 616.62 717.57 576.04 719.03 Q 574.63 708.75 565.50 707.32 Q 561.22 706.66 557.32 709.47 Q 547.52 710.70 545.79 722.25 Q 544.75 729.25 544.08 735.91 Q 543.39 742.76 542.43 749.56 Q 540.71 761.85 538.93 773.23 Q 538.09 778.63 536.72 785.19 Q 536.26 787.39 536.02 789.74 Q 531.88 790.31 528.25 790.50 Q 503.21 791.85 478.27 789.02 Q 477.77 788.96 477.61 788.48 Q 477.12 786.97 476.91 785.31 Q 472.42 750.00 471.08 723.16 Q 470.76 716.87 469.37 713.87 C 466.19 707.00 457.59 704.50 451.47 709.54 Q 424.74 699.93 404.34 683.91 Q 385.92 669.45 371.19 651.80 Q 369.92 650.28 371.87 650.64 Q 436.41 662.70 493.08 630.85 Q 507.13 622.96 519.33 612.21 Q 521.96 620.73 524.30 626.26 C 540.14 663.48 576.88 686.39 617.26 677.65 C 643.36 672.00 665.07 651.19 666.19 623.42 Q 666.21 622.86 666.75 622.71 C 706.01 611.65 711.52 564.46 677.49 543.04 A 0.49 0.49 0.0 0 1 677.55 542.18 C 705.15 529.62 712.77 495.96 693.02 472.73 Q 683.23 461.20 669.00 456.77 Z"/>
  <path fill="#f8ccc3" d=" M 443.35 530.25 C 442.20 543.49 431.55 556.21 420.75 563.27 Q 406.03 572.90 387.04 576.24 Q 369.59 579.30 348.20 578.93 Q 329.34 578.60 311.76 576.52 Q 303.86 575.59 290.25 574.63 Q 277.08 573.71 261.37 571.12 C 240.99 567.77 223.40 560.59 209.12 545.65 C 204.48 540.80 200.92 534.14 197.75 528.07 Q 197.18 527.00 196.94 528.19 Q 196.90 528.39 196.86 529.23 Q 195.70 523.09 195.77 513.74 Q 195.96 489.30 212.71 471.62 Q 219.95 463.98 228.59 460.19 Q 230.19 459.48 232.05 459.37 Q 232.66 459.34 232.62 459.94 Q 232.56 460.81 231.77 461.18 Q 226.05 463.91 221.47 468.60 Q 218.30 471.85 218.97 475.99 Q 219.00 476.17 219.06 476.35 Q 220.48 480.56 223.96 477.79 Q 230.14 472.84 235.59 470.38 Q 246.80 465.32 261.49 463.18 Q 275.72 461.10 289.42 460.81 Q 325.91 460.04 361.41 467.00 Q 369.79 468.64 379.30 471.61 C 400.77 478.31 422.25 492.33 430.44 514.14 C 432.23 518.93 432.95 523.90 434.05 528.85 C 435.22 534.12 440.26 531.37 443.35 530.25 Z M 240.5899 526.0100 A 22.86 21.46 89.9 0 0 262.0100 503.1125 A 22.86 21.46 89.9 0 0 240.5101 480.2900 A 22.86 21.46 89.9 0 0 219.0900 503.1875 A 22.86 21.46 89.9 0 0 240.5899 526.0100 Z M 358.7533 534.4187 A 25.65 24.58 97.7 0 0 386.5484 512.2934 A 25.65 24.58 97.7 0 0 365.6267 483.5813 A 25.65 24.58 97.7 0 0 337.8316 505.7066 A 25.65 24.58 97.7 0 0 358.7533 534.4187 Z M 410.21 544.51 A 6.53 6.53 0.0 0 0 403.68 537.98 A 6.53 6.53 0.0 0 0 397.15 544.51 A 6.53 6.53 0.0 0 0 403.68 551.04 A 6.53 6.53 0.0 0 0 410.21 544.51 Z M 311.83 557.93 C 303.82 554.36 295.59 554.80 287.77 558.66 C 280.50 562.25 282.09 572.07 290.79 570.93 C 294.20 570.48 297.57 568.94 300.97 569.29 C 306.30 569.82 315.58 576.60 319.19 568.84 C 321.40 564.08 315.48 559.55 311.83 557.93 Z"/>
  <path fill="#243e57" d=" M 611.00 463.86 L 609.93 464.53 Q 609.43 464.85 609.34 465.42 Q 607.48 476.59 606.45 480.32 Q 598.80 507.82 586.68 526.93 Q 574.07 546.79 555.77 564.52 Q 547.86 572.17 541.42 576.95 Q 529.49 585.82 515.64 592.48 L 513.43 576.38 C 516.63 574.03 520.33 572.26 523.75 570.27 Q 571.12 542.68 595.39 493.20 Q 598.29 487.31 600.59 480.51 Q 602.86 473.82 604.96 467.47 Q 606.30 463.42 611.00 463.86 Z"/>
  <path fill="#001c34" d=" M 240.5899 526.0100 A 22.86 21.46 89.9 0 1 219.0900 503.1875 A 22.86 21.46 89.9 0 1 240.5101 480.2900 A 22.86 21.46 89.9 0 1 262.0100 503.1125 A 22.86 21.46 89.9 0 1 240.5899 526.0100 Z M 248.3011 500.9210 A 7.67 7.32 49.6 0 0 248.9045 490.3358 A 7.67 7.32 49.6 0 0 238.3589 489.2390 A 7.67 7.32 49.6 0 0 237.7555 499.8242 A 7.67 7.32 49.6 0 0 248.3011 500.9210 Z"/>
  <path fill="#001c34" d=" M 358.7533 534.4187 A 25.65 24.58 97.7 0 1 337.8316 505.7066 A 25.65 24.58 97.7 0 1 365.6267 483.5813 A 25.65 24.58 97.7 0 1 386.5484 512.2934 A 25.65 24.58 97.7 0 1 358.7533 534.4187 Z M 376.17 499.95 A 7.93 7.93 0.0 0 0 368.24 492.02 A 7.93 7.93 0.0 0 0 360.31 499.95 A 7.93 7.93 0.0 0 0 368.24 507.88 A 7.93 7.93 0.0 0 0 376.17 499.95 Z"/>
  <path fill="#d8a3a1" d=" M 433.95 486.21 Q 442.87 494.91 450.29 507.19 Q 461.82 526.25 461.39 548.60 Q 461.13 562.53 455.12 572.87 Q 448.69 583.94 438.41 591.04 C 417.56 605.44 391.21 606.99 366.73 605.29 Q 328.02 602.61 289.20 598.78 C 273.41 597.22 257.60 594.51 243.01 588.01 Q 218.70 577.19 204.68 554.91 Q 205.21 554.82 205.18 554.07 Q 205.17 553.68 204.90 553.23 Q 202.17 548.54 201.42 546.51 Q 198.33 538.05 196.86 529.23 Q 196.90 528.39 196.94 528.19 Q 197.18 527.00 197.75 528.07 C 200.92 534.14 204.48 540.80 209.12 545.65 C 223.40 560.59 240.99 567.77 261.37 571.12 Q 277.08 573.71 290.25 574.63 Q 303.86 575.59 311.76 576.52 Q 329.34 578.60 348.20 578.93 Q 369.59 579.30 387.04 576.24 Q 406.03 572.90 420.75 563.27 C 431.55 556.21 442.20 543.49 443.35 530.25 C 443.82 528.32 444.52 526.48 444.62 524.53 Q 445.11 515.65 441.99 507.28 Q 438.79 498.66 434.38 490.23 Q 433.83 489.18 434.38 488.18 Q 434.61 487.76 434.34 487.36 Q 433.92 486.73 433.95 486.21 Z"/>
  <ellipse fill="#ffffff" cx="0.00" cy="0.00" transform="translate(243.33,495.08) rotate(49.6)" rx="7.67" ry="7.32"/>
  <circle fill="#ffffff" cx="368.24" cy="499.95" r="7.93"/>
  <path fill="#d1d2d4" d=" M 874.27 522.71 Q 873.61 526.52 869.65 531.64 Q 865.93 536.45 862.55 545.12 C 860.28 550.92 857.45 565.11 861.83 570.88 Q 862.12 571.26 862.17 571.73 L 862.69 576.34 L 862.89 578.59 A 0.31 0.31 0.0 0 1 862.36 578.84 Q 859.55 576.10 857.92 572.59 C 849.56 554.57 860.30 533.68 872.22 520.18 A 0.45 0.45 0.0 0 1 872.96 520.26 L 874.27 522.71 Z"/>
  <path fill="#405974" d=" M 874.27 522.71 L 882.23 535.40 Q 882.08 538.76 882.89 543.80 Q 885.03 557.00 880.82 570.91 C 877.24 566.74 871.83 560.76 866.56 565.27 Q 862.96 568.34 862.85 570.60 Q 862.70 573.42 862.69 576.34 L 862.17 571.73 Q 862.12 571.26 861.83 570.88 C 857.45 565.11 860.28 550.92 862.55 545.12 Q 865.93 536.45 869.65 531.64 Q 873.61 526.52 874.27 522.71 Z"/>
  <path fill="#243e57" d=" M 882.23 535.40 Q 892.09 548.86 894.92 564.80 Q 897.13 577.23 887.32 583.80 A 1.76 1.76 0.0 0 1 884.62 582.67 Q 883.24 575.62 880.82 570.91 Q 885.03 557.00 882.89 543.80 Q 882.08 538.76 882.23 535.40 Z"/>
  <circle fill="#ffffff" cx="403.68" cy="544.51" r="6.53"/>
  <path fill="#001c34" d=" M 311.83 557.93 C 315.48 559.55 321.40 564.08 319.19 568.84 C 315.58 576.60 306.30 569.82 300.97 569.29 C 297.57 568.94 294.20 570.48 290.79 570.93 C 282.09 572.07 280.50 562.25 287.77 558.66 C 295.59 554.80 303.82 554.36 311.83 557.93 Z"/>
  <path fill="#ffffff" d=" M 868.04 593.89 C 869.98 596.00 874.20 599.42 877.27 599.68 Q 878.16 599.76 877.89 600.61 C 872.02 619.28 855.04 628.90 835.84 627.66 Q 811.64 626.09 797.11 605.38 Q 795.95 603.73 795.88 601.00 Q 795.50 587.25 794.39 573.27 Q 794.16 570.44 795.17 573.09 C 799.58 584.72 805.46 595.38 814.48 603.85 C 828.26 616.79 849.56 618.19 862.10 603.37 C 864.35 600.70 865.98 597.30 867.29 594.03 Q 867.55 593.37 868.04 593.89 Z"/>
  <path fill="#d1d2d4" d=" M 513.43 576.38 L 515.64 592.48 L 519.33 612.21 Q 507.13 622.96 493.08 630.85 Q 436.41 662.70 371.87 650.64 Q 369.92 650.28 371.19 651.80 Q 385.92 669.45 404.34 683.91 Q 424.74 699.93 451.47 709.54 Q 447.61 712.98 447.31 718.24 Q 446.94 724.97 447.93 731.36 A 0.38 0.38 0.0 0 1 447.44 731.78 C 423.97 724.38 400.39 711.80 382.84 694.59 C 363.66 675.77 348.89 652.66 337.65 627.72 A 0.29 0.29 0.0 0 1 337.94 627.31 Q 365.81 629.86 388.29 629.72 C 419.41 629.53 452.68 618.19 471.97 592.59 Q 472.32 592.12 472.88 591.97 Q 493.87 586.26 513.43 576.38 Z"/>
  <path fill="#405974" d=" M 770.90 600.44 Q 771.70 629.48 770.85 658.53 L 765.37 655.64 Q 759.96 650.89 756.28 644.01 Q 754.20 640.10 753.62 634.99 C 751.86 619.54 758.37 608.75 770.90 600.44 Z"/>
  <path fill="#d1d2d4" d=" M 765.37 655.64 L 770.85 658.53 Q 770.01 707.17 767.72 732.25 Q 765.88 752.42 762.84 775.03 A 1.31 1.30 1.4 0 1 761.66 776.15 L 752.28 776.95 Q 754.29 765.72 756.21 748.50 Q 756.85 742.78 758.59 730.50 Q 759.98 720.76 760.79 712.47 Q 761.80 702.12 762.74 691.76 Q 763.25 686.09 763.97 673.70 Q 764.48 664.82 765.37 655.64 Z"/>
  <path fill="#ffffff" d=" M 351.56 697.04 C 351.71 697.88 352.26 698.44 352.41 699.18 Q 352.48 699.55 352.27 699.84 Q 351.97 700.24 352.02 700.73 C 352.37 703.87 353.56 706.88 353.87 709.87 C 354.46 715.52 355.78 721.97 356.44 726.41 Q 360.15 751.34 363.92 776.50 L 355.44 775.46 A 1.26 1.26 0.0 0 1 354.35 774.39 Q 352.44 761.56 351.19 749.27 Q 348.13 719.37 345.72 689.84 Q 345.67 689.18 346.07 689.71 L 351.56 697.04 Z"/>
  <path fill="#d1d2d4" d=" M 684.54 704.79 Q 682.26 700.56 677.12 699.38 C 669.44 697.63 663.25 703.52 663.44 711.28 Q 663.54 715.71 663.93 720.25 Q 663.98 720.83 663.45 721.08 Q 642.55 730.90 620.39 735.59 Q 598.25 740.28 575.69 741.03 Q 575.18 741.05 575.20 740.54 L 576.04 719.03 Q 616.62 717.57 651.52 704.01 Q 656.89 701.92 667.72 696.20 Q 670.67 694.63 675.00 694.17 Q 684.23 693.18 689.53 701.08 A 0.92 0.92 0.0 0 1 688.78 702.51 Q 685.52 702.56 684.54 704.79 Z"/>
  <path fill="#d1d2d4" d=" M 351.56 697.04 Q 362.28 709.05 366.77 713.23 Q 378.97 724.57 391.84 732.67 Q 402.38 739.31 417.17 746.45 Q 417.72 746.72 417.67 747.33 Q 416.60 760.28 414.39 775.52 Q 414.30 776.14 413.69 776.21 Q 388.31 779.32 363.92 776.50 Q 360.15 751.34 356.44 726.41 C 355.78 721.97 354.46 715.52 353.87 709.87 C 353.56 706.88 352.37 703.87 352.02 700.73 Q 351.97 700.24 352.27 699.84 Q 352.48 699.55 352.41 699.18 C 352.26 698.44 351.71 697.88 351.56 697.04 Z"/>
  <path fill="#d1d2d4" d=" M 557.32 709.47 Q 552.94 714.18 552.63 719.25 Q 550.54 754.05 545.36 788.45 A 0.74 0.74 0.0 0 1 544.68 789.08 L 536.02 789.74 Q 536.26 787.39 536.72 785.19 Q 538.09 778.63 538.93 773.23 Q 540.71 761.85 542.43 749.56 Q 543.39 742.76 544.08 735.91 Q 544.75 729.25 545.79 722.25 Q 547.52 710.70 557.32 709.47 Z"/>
  <path fill="#d8a3a1" d=" M 653.58 766.31 L 656.76 766.37 Q 657.25 766.37 657.68 766.62 Q 658.49 767.08 659.11 766.94 A 1.11 1.11 0.0 0 0 659.57 765.00 Q 657.04 762.95 654.10 762.32 Q 645.88 760.56 636.13 761.62 A 0.78 0.77 -3.2 0 0 635.43 762.40 Q 635.45 764.69 636.08 764.87 Q 635.82 772.60 630.45 775.85 C 626.89 778.00 623.26 777.46 620.20 774.79 Q 617.77 772.67 617.43 769.83 Q 616.89 765.33 617.24 760.49 Q 617.28 759.90 617.86 759.81 Q 642.52 755.98 665.02 746.75 Q 665.78 746.43 665.88 747.25 Q 667.56 761.59 669.17 775.28 C 669.34 776.78 669.18 778.62 667.92 779.69 Q 662.50 784.29 656.71 779.57 Q 655.54 778.62 655.14 777.20 Q 653.63 771.93 653.58 766.31 Z"/>
  <path fill="#f8ccc3" d=" M 653.58 766.31 L 636.08 764.87 Q 635.45 764.69 635.43 762.40 A 0.78 0.77 -3.2 0 1 636.13 761.62 Q 645.88 760.56 654.10 762.32 Q 657.04 762.95 659.57 765.00 A 1.11 1.11 0.0 0 1 659.11 766.94 Q 658.49 767.08 657.68 766.62 Q 657.25 766.37 656.76 766.37 L 653.58 766.31 Z"/>
  <path fill="#d8a3a1" d=" M 595.31 763.58 A 0.20 0.20 0.0 0 1 595.52 763.76 L 595.68 766.51 A 8.47 8.31 86.7 0 1 587.87 775.44 L 587.65 775.46 A 8.47 8.31 86.7 0 1 578.87 767.48 L 578.71 764.73 A 0.20 0.20 0.0 0 1 578.89 764.52 L 595.31 763.58 Z"/>
  <path fill="#d1d2d4" d=" M 607.82 783.77 Q 609.26 796.07 614.84 807.02 Q 614.92 807.17 614.47 807.21 Q 608.55 805.13 606.90 803.08 Q 601.97 796.96 600.89 788.79 A 0.95 0.94 -21.9 0 1 601.27 787.91 Q 604.04 785.88 606.66 783.33 Q 607.12 782.88 607.58 783.31 Q 607.61 783.33 607.82 783.77 Z"/>
  <path fill="#405974" d=" M 607.82 783.77 Q 610.02 786.70 613.49 788.95 Q 623.16 795.23 635.34 791.52 Q 633.29 800.04 628.42 808.07 Q 622.45 808.81 615.50 807.72 Q 614.70 807.60 614.47 807.21 Q 614.92 807.17 614.84 807.02 Q 609.26 796.07 607.82 783.77 Z"/>
  <path fill="#243e57" d=" M 628.42 808.07 Q 633.29 800.04 635.34 791.52 L 640.20 787.88 Q 641.30 787.05 642.01 788.24 Q 643.76 791.18 645.79 793.55 C 647.24 795.25 646.03 796.09 645.32 797.54 Q 640.52 807.40 628.42 808.07 Z"/>
  <path fill="#d1d2d4" d=" M 364.84 790.93 Q 365.85 797.77 367.52 804.24 Q 369.64 812.44 371.32 814.39 Q 372.87 816.20 374.01 818.26 Q 362.30 815.06 359.08 802.72 Q 357.06 794.98 356.56 790.32 Q 356.51 789.83 357.00 789.90 L 364.84 790.93 Z"/>
  <path fill="#d1d2d4" d=" M 747.73 791.88 Q 747.65 792.48 747.05 792.93 Q 741.93 793.92 735.75 793.89 Q 735.50 793.89 735.41 794.10 Q 735.27 794.42 734.93 794.43 Q 720.37 795.03 705.30 793.97 Q 704.15 793.89 704.29 795.04 Q 705.73 807.52 714.01 819.10 C 707.60 816.20 703.53 813.75 700.69 807.89 Q 697.18 800.67 696.15 791.15 Q 696.09 790.62 696.63 790.68 Q 722.07 793.31 747.73 791.88 Z"/>
  <path fill="#243e57" d=" M 735.64 820.26 Q 739.64 815.49 740.92 812.88 Q 743.54 807.53 746.01 797.39 Q 746.32 796.10 745.99 794.74 Q 745.86 794.21 746.23 793.82 L 747.05 792.93 Q 747.65 792.48 747.73 791.88 L 760.11 790.83 A 0.27 0.27 0.0 0 1 760.40 791.12 C 759.57 799.08 756.75 811.35 749.64 815.75 Q 743.15 819.76 735.64 820.26 Z"/>
  <path fill="#405974" d=" M 364.84 790.93 Q 381.24 792.93 397.94 792.35 Q 397.13 794.91 396.97 796.25 Q 395.91 805.11 392.27 813.20 C 391.24 815.48 389.47 817.40 388.03 819.58 Q 380.77 820.41 374.01 818.26 Q 372.87 816.20 371.32 814.39 Q 369.64 812.44 367.52 804.24 Q 365.85 797.77 364.84 790.93 Z"/>
  <path fill="#243e57" d=" M 388.03 819.58 C 389.47 817.40 391.24 815.48 392.27 813.20 Q 395.91 805.11 396.97 796.25 Q 397.13 794.91 397.94 792.35 L 411.01 791.08 A 0.95 0.94 88.1 0 1 412.04 792.05 C 411.55 807.63 404.74 819.02 388.03 819.58 Z"/>
  <path fill="#405974" d=" M 747.05 792.93 L 746.23 793.82 Q 745.86 794.21 745.99 794.74 Q 746.32 796.10 746.01 797.39 Q 743.54 807.53 740.92 812.88 Q 739.64 815.49 735.64 820.26 Q 723.21 822.04 714.01 819.10 Q 705.73 807.52 704.29 795.04 Q 704.15 793.89 705.30 793.97 Q 720.37 795.03 734.93 794.43 Q 735.27 794.42 735.41 794.10 Q 735.50 793.89 735.75 793.89 Q 741.93 793.92 747.05 792.93 Z"/>
  <path fill="#d1d2d4" d=" M 531.19 804.24 Q 531.61 804.78 532.62 804.62 Q 532.76 804.59 532.90 804.63 Q 533.08 804.69 533.10 804.90 Q 533.12 805.19 532.86 805.32 L 531.55 805.98 Q 510.20 809.27 488.16 806.33 A 0.64 0.64 0.0 0 0 487.43 807.02 Q 488.57 819.62 496.64 831.26 C 484.14 825.54 481.60 815.46 479.48 803.22 A 0.36 0.36 0.0 0 1 479.87 802.80 Q 505.45 805.45 531.19 804.24 Z"/>
  <path fill="#243e57" d=" M 519.27 832.48 Q 526.70 822.36 529.60 810.30 Q 529.61 810.26 529.80 808.66 Q 530.01 807.02 531.55 805.98 L 532.86 805.32 Q 533.12 805.19 533.10 804.90 Q 533.08 804.69 532.90 804.63 Q 532.76 804.59 532.62 804.62 Q 531.61 804.78 531.19 804.24 L 541.77 803.85 A 0.84 0.84 0.0 0 1 542.62 804.82 C 540.38 818.70 535.42 831.03 519.27 832.48 Z"/>
  <path fill="#405974" d=" M 531.55 805.98 Q 530.01 807.02 529.80 808.66 Q 529.61 810.26 529.60 810.30 Q 526.70 822.36 519.27 832.48 Q 515.49 833.57 510.25 833.47 Q 501.62 833.32 496.64 831.26 Q 488.57 819.62 487.43 807.02 A 0.64 0.64 0.0 0 1 488.16 806.33 Q 510.20 809.27 531.55 805.98 Z"/>
</svg>