<?xml version="1.0" encoding="utf-8"?>
<svg version="1.1" viewBox="0.00 0.00 1024.00 1024.00" xmlns="http://www.w3.org/2000/svg">
  <path fill="#000000" d=" M 552.83 115.19 Q 564.21 120.80 574.76 127.50 Q 577.40 129.17 580.13 131.69 C 583.13 134.45 586.42 136.98 589.04 140.05 Q 590.81 142.13 592.49 144.15 A 2.17 2.16 77.6 0 0 593.56 144.84 L 606.18 148.29 Q 619.57 153.08 623.00 154.47 Q 640.34 161.51 658.93 173.31 Q 695.15 197.57 718.70 231.78 Q 725.37 241.47 733.54 256.65 C 741.61 271.65 747.41 286.96 751.95 303.16 Q 755.90 317.11 758.31 330.98 Q 760.94 346.66 761.22 356.25 Q 761.36 361.11 761.51 364.26 Q 761.75 369.09 761.63 372.26 Q 761.15 385.21 760.55 391.75 Q 759.61 401.91 756.03 415.91 Q 752.36 429.62 745.15 444.09 L 737.65 457.54 L 727.88 471.45 L 711.74 489.07 L 696.72 501.73 L 685.18 510.10 Q 672.62 517.94 660.16 523.08 Q 652.90 526.20 645.89 528.96 C 641.87 530.54 637.36 531.64 633.07 533.07 Q 630.34 533.11 628.08 534.14 A 0.53 0.52 -29.4 0 0 627.86 534.91 Q 630.09 538.24 633.12 540.59 Q 638.55 544.80 643.73 548.75 Q 651.68 554.83 660.28 558.95 L 662.52 559.80 Q 673.54 564.59 684.97 567.48 Q 697.34 570.52 710.97 571.95 Q 715.29 572.71 720.55 572.85 Q 722.58 572.91 724.35 571.86 Q 737.18 564.29 747.90 553.90 Q 755.20 546.82 762.14 539.38 Q 762.96 538.50 765.88 536.67 C 777.08 530.57 786.64 538.78 789.88 549.33 Q 794.03 562.81 793.46 576.96 A 1.22 1.22 0.0 0 0 793.86 577.93 C 797.63 581.40 801.16 585.07 802.76 589.88 C 804.19 594.16 804.96 598.74 804.64 603.34 Q 804.11 610.79 801.60 617.69 L 794.50 631.94 L 786.14 644.72 A 1.16 1.16 0.0 0 0 786.33 646.22 Q 791.18 650.60 791.72 658.09 C 792.26 665.52 788.76 670.23 784.19 675.51 Q 776.09 683.69 766.22 690.25 C 758.47 694.92 750.69 698.88 743.09 703.29 Q 740.92 704.55 739.57 706.46 Q 733.53 715.03 724.01 724.67 Q 706.64 742.24 684.52 756.71 C 676.37 762.04 667.74 766.92 659.22 771.62 Q 648.11 777.70 636.53 782.04 Q 634.84 782.67 636.52 783.33 Q 637.45 783.70 639.26 783.93 Q 649.41 785.20 659.77 786.34 Q 667.07 786.86 671.72 788.35 Q 678.66 790.57 681.42 792.57 C 690.12 798.89 694.97 811.39 698.45 820.97 L 702.45 836.18 Q 703.08 843.62 703.90 850.74 Q 704.62 857.01 702.87 867.00 C 700.71 879.27 689.43 882.95 678.80 879.29 Q 671.75 876.85 664.49 873.27 Q 660.97 871.54 659.13 874.93 Q 655.39 881.84 651.19 887.78 Q 646.28 894.72 637.47 897.22 C 617.13 903.00 609.47 880.50 606.89 865.72 Q 604.92 854.47 604.91 848.75 Q 604.90 838.27 604.79 827.71 L 605.88 820.39 L 606.66 815.96 Q 606.75 815.46 606.28 815.27 Q 593.83 810.39 584.30 799.70 Q 582.33 797.49 579.62 798.95 L 553.42 801.57 L 526.79 801.61 L 497.88 798.40 Q 497.38 798.34 497.29 798.84 Q 495.06 811.12 499.98 821.95 L 502.45 826.28 C 502.90 827.52 503.24 828.70 504.12 829.77 Q 508.95 835.64 510.68 842.75 C 512.09 848.54 511.11 855.66 506.67 860.04 Q 503.62 863.04 499.99 865.03 Q 490.82 870.04 481.43 873.73 C 466.15 879.74 451.41 884.44 435.43 886.54 C 426.54 887.70 412.25 886.33 409.43 875.66 Q 408.44 871.89 408.16 867.84 A 1.07 1.07 0.0 0 0 407.20 866.85 C 397.67 865.88 384.53 866.63 379.79 856.25 Q 377.33 850.88 379.77 845.18 Q 382.42 839.00 384.42 837.18 Q 388.27 833.69 391.71 829.83 Q 392.36 829.57 392.39 829.33 L 407.52 821.57 L 419.55 816.89 L 447.39 808.58 Q 449.41 807.98 449.87 805.93 L 454.45 785.49 Q 454.59 784.89 454.03 784.65 L 446.06 781.18 Q 424.66 771.26 406.03 756.75 C 402.80 754.24 399.51 751.16 396.25 748.33 C 383.88 737.59 373.17 724.11 364.18 710.30 L 360.68 704.38 Q 356.42 696.30 352.81 688.49 C 350.20 682.82 348.53 676.99 346.17 671.26 A 0.81 0.80 -14.3 0 0 345.33 670.77 Q 343.26 671.00 341.32 671.21 Q 339.60 671.40 337.22 671.23 Q 334.73 671.05 331.01 671.12 Q 324.21 671.26 313.40 669.12 Q 299.04 666.61 284.95 660.51 Q 273.37 655.36 263.88 646.87 Q 262.44 645.58 258.33 640.18 C 256.84 638.23 256.16 636.13 255.05 634.06 Q 254.78 633.57 254.24 633.47 C 246.47 632.07 238.08 628.53 231.31 624.80 L 219.76 617.71 Q 203.07 605.47 191.73 591.75 Q 182.70 580.81 173.25 564.72 L 171.45 561.87 Q 162.24 546.36 155.67 529.81 Q 152.33 520.93 150.76 512.50 Q 149.71 506.82 149.97 500.02 Q 150.55 494.85 153.23 490.36 C 153.77 489.46 153.86 488.41 153.62 487.43 Q 149.79 472.00 148.75 458.55 Q 148.16 450.87 149.17 439.51 Q 149.31 437.93 149.66 436.41 C 150.30 433.69 150.64 430.76 151.39 428.38 Q 153.51 421.61 156.59 415.37 C 160.46 409.05 167.39 402.20 174.76 400.23 Q 187.33 398.10 195.05 407.49 C 202.00 415.93 208.82 426.12 215.76 434.98 Q 230.70 454.09 250.20 470.05 C 260.22 478.25 271.36 486.88 283.05 493.37 Q 291.11 497.84 299.52 502.70 Q 302.68 504.53 313.86 509.05 Q 326.88 514.27 341.29 516.49 Q 344.43 517.21 349.26 517.74 C 351.43 517.98 353.40 518.98 355.64 518.98 Q 359.69 518.99 364.25 518.96 Q 365.93 520.12 366.90 518.67 Q 369.78 514.35 371.76 509.52 A 0.93 0.93 0.0 0 0 371.32 508.34 L 364.83 505.04 L 358.63 501.66 L 338.70 489.16 C 323.49 479.20 311.54 468.36 298.88 454.88 Q 289.65 445.05 278.99 428.75 Q 275.80 423.89 272.87 416.22 Q 266.70 402.88 266.36 388.88 Q 264.88 372.47 273.41 358.47 Q 278.57 350.09 286.00 343.26 C 292.72 337.96 297.78 334.27 301.65 328.70 Q 304.47 326.07 305.63 322.56 Q 309.62 310.41 312.99 298.06 Q 316.18 286.37 319.66 274.80 Q 325.12 258.64 332.47 243.24 C 336.40 235.00 341.67 226.73 346.57 218.58 Q 352.81 208.19 366.27 193.88 L 374.87 185.80 C 378.20 183.23 381.39 180.02 384.35 177.72 Q 388.96 174.13 393.34 170.92 Q 418.09 154.49 445.80 145.70 L 469.41 139.83 A 0.58 0.58 0.0 0 0 469.78 138.98 Q 467.24 134.31 470.11 129.45 Q 471.39 127.60 473.50 126.36 Q 478.17 123.83 479.77 123.52 Q 484.96 122.54 490.30 121.71 Q 490.85 121.63 490.45 121.24 C 490.01 120.81 489.23 120.67 488.78 120.28 C 483.28 115.59 488.37 109.47 493.50 108.02 Q 497.79 106.80 499.05 106.34 C 502.52 105.95 505.80 105.06 509.23 105.10 Q 519.82 105.22 529.28 107.36 C 536.98 109.09 545.09 112.32 552.83 115.19 Z M 530.50 150.47 Q 526.06 145.35 519.06 144.14 L 510.90 140.95 L 502.98 138.42 L 500.28 137.83 C 497.64 137.52 492.72 136.97 490.62 138.98 A 0.63 0.62 -41.0 0 0 490.56 139.81 Q 492.05 141.72 493.86 143.15 C 501.19 148.92 509.11 152.41 517.47 156.00 Q 518.29 156.35 518.81 157.04 Q 519.62 158.11 518.80 158.80 Q 509.99 158.79 501.33 158.53 Q 499.64 158.48 495.68 158.72 Q 493.46 158.84 490.01 158.89 Q 486.07 158.93 475.80 160.72 Q 454.04 164.68 437.24 171.71 Q 400.62 187.05 374.14 219.01 Q 365.49 229.44 360.61 237.05 Q 345.75 260.23 337.45 287.78 Q 336.92 289.55 336.62 291.17 Q 336.45 292.12 336.99 291.31 C 337.95 289.88 338.23 288.31 339.34 286.86 C 341.92 283.50 344.29 279.80 347.35 277.14 Q 350.78 274.16 354.19 272.23 Q 362.27 268.76 369.30 270.34 C 376.45 271.94 380.63 277.56 383.10 283.97 C 389.07 299.53 386.74 315.65 382.83 332.59 Q 380.03 344.75 373.36 351.34 Q 365.45 359.15 352.97 358.88 Q 345.29 356.61 339.32 352.00 C 335.47 348.03 331.92 342.81 331.07 337.41 Q 330.67 334.86 330.02 332.49 C 329.10 329.13 329.62 325.10 329.65 321.47 Q 329.65 321.37 329.58 321.34 Q 329.53 321.33 329.48 321.32 Q 329.31 321.29 329.26 321.47 Q 327.95 326.12 327.05 330.28 C 326.09 334.75 323.68 338.15 320.26 340.72 Q 309.64 348.68 301.90 356.84 Q 292.33 366.93 287.30 380.56 Q 286.54 382.61 287.87 380.87 C 289.75 378.41 291.84 375.56 294.33 373.63 Q 298.89 370.11 304.33 367.87 Q 310.56 365.64 317.15 365.10 C 318.96 364.95 321.00 364.35 322.50 364.29 Q 338.34 363.74 354.34 363.90 Q 359.69 364.03 361.25 363.57 C 364.97 362.48 368.77 361.96 372.28 360.62 Q 381.87 356.97 386.46 353.45 C 392.83 348.57 399.26 343.03 406.06 339.81 Q 411.90 337.04 418.66 335.99 Q 442.56 332.26 463.74 345.30 Q 473.58 351.36 480.31 358.70 Q 486.64 365.59 494.51 375.55 C 500.86 383.59 506.93 389.91 515.34 395.48 C 520.69 399.03 525.41 405.13 525.75 411.73 C 526.45 425.40 515.88 439.09 504.98 446.10 Q 489.90 452.59 474.24 454.72 Q 469.80 455.32 466.65 455.81 Q 462.44 456.47 458.67 456.53 Q 440.06 456.83 420.83 456.28 C 416.14 456.14 411.62 455.60 406.99 455.32 Q 401.36 454.99 396.52 454.40 Q 374.98 451.79 353.80 447.05 Q 340.34 442.94 335.97 441.34 Q 321.58 436.07 305.46 425.87 Q 304.98 425.57 305.28 426.05 Q 305.40 426.24 305.55 426.38 C 307.13 427.87 308.61 430.61 310.00 432.56 Q 313.92 438.08 326.84 450.10 C 335.42 458.07 346.44 467.03 356.74 473.77 Q 388.35 494.46 421.32 505.25 Q 445.81 513.27 478.13 516.49 Q 480.79 516.76 483.17 517.57 Q 485.68 518.42 488.11 519.03 Q 488.66 521.67 486.00 523.09 Q 484.92 523.66 482.34 525.87 Q 477.48 527.50 472.49 528.50 Q 460.66 530.86 448.62 531.02 C 429.17 531.28 409.99 525.32 392.20 518.11 A 1.19 1.18 25.0 0 0 390.71 518.65 L 383.51 532.21 L 381.35 536.31 Q 363.64 576.39 361.38 617.62 Q 360.53 633.17 364.46 651.82 L 367.96 663.76 Q 368.60 666.53 369.52 669.09 Q 376.76 689.07 389.08 706.16 C 398.28 718.93 408.80 730.49 421.36 739.90 Q 464.20 772.01 517.76 777.96 Q 521.14 778.33 531.77 779.08 C 541.53 779.76 550.63 779.48 559.79 778.67 Q 571.84 777.61 584.83 775.14 C 597.96 772.63 611.69 768.71 623.96 764.09 Q 637.47 759.02 655.67 748.34 Q 662.18 744.51 669.80 739.85 C 682.37 732.15 694.01 722.79 704.07 712.66 Q 706.17 710.55 703.37 711.55 Q 700.72 712.50 697.52 712.91 Q 695.15 713.21 692.62 713.90 C 689.53 714.74 685.37 714.85 683.30 715.13 Q 673.80 716.44 663.95 717.32 Q 661.57 717.53 659.41 718.58 Q 653.39 721.53 648.50 722.04 Q 643.38 722.57 637.52 722.45 Q 636.58 722.43 635.56 721.84 C 633.62 720.72 634.24 718.51 636.34 718.05 Q 640.14 717.23 643.50 716.66 A 0.57 0.57 0.0 0 0 643.89 715.81 L 643.68 715.48 A 0.19 0.17 -13.5 0 0 643.52 715.39 Q 640.97 715.44 638.33 715.09 Q 589.61 708.66 554.40 675.02 Q 535.25 656.73 525.52 634.26 Q 518.77 618.66 521.04 601.94 Q 522.64 598.09 527.00 598.05 Q 529.31 598.02 530.39 599.87 Q 530.95 600.83 532.38 603.71 Q 538.07 620.59 547.54 634.25 C 562.52 655.89 584.18 674.25 608.90 683.47 Q 634.27 692.94 659.47 692.19 C 665.13 692.02 670.76 692.75 676.54 692.04 Q 681.95 691.37 687.50 690.99 Q 716.22 689.04 742.00 677.58 C 750.19 673.94 759.12 668.96 764.58 661.58 A 0.84 0.83 -71.6 0 0 763.92 660.25 L 759.21 660.19 Q 757.45 659.00 754.88 659.38 Q 751.19 659.94 751.07 659.94 Q 744.14 660.27 737.49 660.00 Q 729.95 659.71 723.99 659.68 Q 717.29 659.66 710.51 659.04 Q 709.71 658.96 708.94 658.50 A 1.71 1.68 58.5 0 0 707.97 658.26 Q 704.43 658.45 701.11 657.86 Q 698.12 657.33 694.32 656.99 Q 689.02 656.50 684.07 654.38 Q 683.32 653.26 683.85 652.10 Q 684.06 651.64 684.56 651.56 Q 686.41 651.25 688.04 650.37 Q 697.80 650.31 707.75 650.02 Q 714.34 649.82 736.53 645.20 C 756.84 640.97 777.46 628.73 785.28 609.00 C 786.93 604.84 787.67 598.97 785.26 595.08 A 1.59 1.54 81.2 0 0 784.33 594.38 L 780.67 593.36 Q 776.71 591.93 772.75 592.84 Q 772.34 592.93 771.44 592.57 Q 770.71 592.12 770.25 592.14 Q 757.91 592.54 744.08 593.56 Q 722.54 595.14 700.27 592.00 C 673.38 588.21 648.27 580.29 627.80 563.20 Q 614.04 551.71 603.44 537.91 Q 591.74 538.17 587.75 537.91 Q 581.63 537.51 571.84 536.25 Q 563.36 535.17 556.80 533.49 Q 549.53 531.64 541.98 529.42 Q 537.35 528.06 533.49 525.24 A 0.57 0.56 49.3 0 1 533.56 524.28 C 535.58 523.20 537.54 522.17 539.96 522.19 Q 552.77 522.29 561.91 521.76 Q 578.91 520.75 597.95 517.72 Q 618.45 514.45 638.34 507.32 Q 657.50 500.46 676.50 487.76 Q 680.93 484.80 685.95 480.40 Q 688.17 478.86 690.03 477.29 C 716.57 454.90 733.89 423.04 736.49 388.57 Q 738.03 368.18 737.06 357.11 Q 733.86 320.70 720.06 285.78 C 714.33 271.29 705.96 256.00 697.45 243.66 Q 674.71 210.70 640.49 188.25 Q 638.39 186.87 634.00 184.73 Q 624.64 178.52 613.76 173.57 Q 603.24 168.27 592.46 163.34 C 590.54 162.47 588.52 160.96 587.10 159.36 C 582.35 154.02 577.63 148.44 572.29 143.83 Q 568.74 140.75 565.06 137.83 Q 564.95 137.74 564.85 137.85 L 564.84 137.85 Q 564.74 137.96 564.84 138.07 Q 573.69 147.92 579.08 160.21 A 0.86 0.86 0.0 0 1 578.26 161.42 C 574.51 161.27 569.66 157.13 567.43 154.32 Q 563.76 149.68 554.29 141.73 Q 544.25 132.01 531.56 126.18 Q 528.99 125.00 526.48 124.60 Q 521.22 122.62 516.49 123.05 Q 515.43 123.15 514.48 123.79 Q 513.10 124.72 514.44 125.72 Q 525.28 133.75 533.40 143.80 Q 534.75 145.47 535.18 147.49 A 1.34 1.31 -36.7 0 1 535.03 148.44 Q 533.52 151.13 530.50 150.47 Z M 352.4795 313.0306 A 16.70 10.94 115.2 0 0 369.4888 302.5780 A 16.70 10.94 115.2 0 0 366.7005 282.8094 A 16.70 10.94 115.2 0 0 349.6912 293.2620 A 16.70 10.94 115.2 0 0 352.4795 313.0306 Z M 368.5202 339.9065 A 6.69 5.13 94.8 0 0 374.1920 333.6693 A 6.69 5.13 94.8 0 0 369.6398 326.5735 A 6.69 5.13 94.8 0 0 363.9680 332.8107 A 6.69 5.13 94.8 0 0 368.5202 339.9065 Z M 341.5445 342.4931 A 7.18 4.30 80.1 0 0 344.5460 334.6807 A 7.18 4.30 80.1 0 0 339.0755 328.3469 A 7.18 4.30 80.1 0 0 336.0740 336.1593 A 7.18 4.30 80.1 0 0 341.5445 342.4931 Z M 425.54 349.74 Q 423.78 349.66 421.77 350.02 Q 412.76 351.67 406.45 356.28 C 400.15 360.88 393.83 366.17 387.23 369.80 Q 375.02 376.53 360.73 378.41 Q 356.89 378.92 353.04 379.34 L 325.56 379.84 C 314.87 381.50 298.68 382.65 297.26 396.88 Q 297.45 399.16 298.86 401.59 Q 301.87 407.51 308.00 408.50 C 312.63 409.25 317.03 408.26 321.29 408.41 C 324.55 408.52 327.51 407.34 330.89 407.57 Q 341.56 408.31 344.70 408.90 Q 365.01 412.67 387.97 418.94 Q 393.18 420.36 409.55 423.68 Q 424.22 426.64 432.97 426.96 Q 440.88 427.24 450.43 427.30 C 464.13 427.40 477.85 424.91 490.85 420.68 Q 493.49 419.82 496.36 418.39 C 501.42 415.87 506.62 413.79 508.46 408.06 A 2.34 2.34 0.0 0 0 507.29 405.26 Q 493.96 398.51 484.22 387.04 Q 477.31 378.89 469.44 369.31 Q 464.43 363.19 457.28 358.68 Q 442.76 348.82 425.54 349.74 Z M 488.96 434.23 Q 475.65 436.73 461.71 438.63 C 456.14 439.39 450.39 439.48 444.73 439.62 Q 432.47 439.93 419.01 437.56 Q 411.55 436.25 405.43 435.29 Q 394.36 433.56 390.21 432.41 Q 375.38 428.28 363.17 425.62 C 355.11 423.86 346.85 421.77 338.70 421.06 Q 335.72 420.81 332.83 421.14 Q 331.48 421.29 332.55 422.13 Q 336.12 424.92 341.00 426.81 C 362.26 435.06 383.33 438.84 406.03 441.91 Q 414.58 443.06 422.71 443.28 Q 440.34 443.75 458.98 443.12 C 470.40 442.73 481.42 440.61 491.77 436.10 Q 494.54 434.89 496.81 433.22 Q 498.01 432.34 496.53 432.51 C 493.98 432.81 491.23 433.81 488.96 434.23 Z M 179.78 492.40 Q 180.78 494.98 181.79 496.72 Q 198.66 525.84 223.99 547.85 C 227.61 551.00 230.99 554.59 234.65 557.85 Q 235.12 558.27 235.35 558.70 Q 236.06 560.06 234.86 559.88 Q 232.08 561.46 229.58 560.37 Q 224.07 557.96 218.84 555.14 Q 198.83 543.21 183.63 526.97 Q 182.15 525.38 182.25 527.55 Q 182.41 530.78 183.89 533.52 Q 188.96 547.39 197.92 559.83 Q 205.89 570.89 212.65 578.74 C 225.61 593.85 242.45 605.99 261.75 611.77 Q 282.32 617.93 303.47 617.55 Q 306.29 617.50 303.56 616.78 C 294.55 614.41 284.79 607.60 283.09 597.71 Q 282.44 593.90 285.93 591.37 C 291.74 587.17 294.03 594.33 296.37 598.04 C 302.13 607.19 316.60 609.69 326.36 610.84 Q 328.30 611.07 329.82 612.28 A 1.95 1.94 -45.5 0 1 329.84 615.32 C 319.98 623.29 308.37 626.76 295.86 629.17 Q 289.16 630.47 282.44 631.08 A 0.82 0.82 0.0 0 0 281.80 632.29 C 283.89 636.07 289.19 639.11 292.93 640.89 C 308.46 648.30 325.05 650.71 341.91 650.23 A 0.54 0.54 0.0 0 0 342.43 649.60 Q 337.88 621.06 342.92 592.43 Q 344.45 583.71 348.66 566.83 L 358.40 542.20 Q 358.77 541.42 358.66 540.63 Q 358.59 540.15 358.11 540.14 Q 351.53 540.03 349.39 539.63 Q 347.42 539.26 344.98 538.96 Q 341.56 538.53 341.52 538.52 Q 315.98 533.89 294.31 524.11 Q 274.11 515.00 261.61 506.80 Q 246.66 497.00 235.11 487.91 Q 214.31 471.54 196.78 449.67 C 191.65 443.28 186.80 436.02 181.96 429.29 Q 180.94 427.88 179.24 426.84 Q 178.80 426.57 178.32 426.76 C 170.02 430.01 168.92 443.81 168.64 451.19 C 168.43 456.93 169.83 463.45 170.93 469.25 Q 173.24 481.41 179.78 492.40 Z M 757.13 574.15 A 0.33 0.33 0.0 0 0 757.31 574.76 L 767.77 574.58 A 0.33 0.33 0.0 0 0 768.10 574.30 L 768.50 571.14 A 0.33 0.33 0.0 0 0 768.46 570.94 L 767.13 568.47 A 0.33 0.33 0.0 0 0 766.66 568.35 L 757.13 574.15 Z M 607.60 798.53 Q 621.41 806.45 636.08 810.99 Q 638.86 811.85 644.98 813.09 Q 649.46 813.99 653.88 815.26 Q 651.71 816.75 649.93 818.10 Q 647.70 819.80 645.76 820.50 Q 639.15 822.85 632.82 821.72 Q 628.86 821.01 624.76 821.04 Q 623.83 821.04 623.72 821.96 C 622.32 832.78 623.45 843.98 624.82 854.69 Q 625.01 867.60 628.65 879.22 Q 629.60 880.93 630.82 881.46 Q 631.96 881.96 633.49 880.94 Q 636.61 878.86 638.44 875.48 Q 641.88 869.10 645.09 862.37 Q 647.41 857.53 652.25 854.50 C 655.99 852.17 660.83 852.54 665.13 853.30 L 682.98 861.80 Q 683.03 862.08 684.05 862.42 A 1.74 1.74 0.0 0 0 686.30 861.15 Q 687.33 856.48 686.63 852.08 C 684.63 839.42 682.26 825.50 676.27 813.58 Q 673.77 808.63 670.01 807.24 C 665.90 805.72 660.24 804.94 655.35 803.84 Q 652.65 803.23 649.10 802.76 Q 639.13 801.43 631.88 798.61 Q 625.63 796.17 618.32 791.63 C 616.33 790.39 614.23 790.82 612.14 791.42 Q 607.00 792.89 601.76 794.13 Q 601.06 794.30 601.66 794.69 L 607.60 798.53 Z M 473.95 829.46 C 473.50 832.16 467.83 831.21 466.45 830.57 C 462.59 828.78 458.65 826.40 454.23 826.06 Q 451.73 825.87 448.44 826.82 Q 444.20 828.05 440.09 829.47 Q 424.52 834.04 416.91 837.15 Q 407.27 841.08 399.32 846.20 Q 397.40 847.44 399.65 847.81 Q 403.73 848.49 408.50 847.93 Q 413.86 847.30 419.23 846.37 Q 424.04 845.62 425.63 846.12 Q 427.44 846.69 428.79 847.98 A 1.45 1.43 -50.9 0 1 428.97 849.83 C 425.51 854.86 421.32 860.40 423.90 866.76 Q 424.19 867.49 424.24 867.12 Q 424.31 869.01 425.78 869.46 C 429.17 870.51 433.05 870.03 436.61 868.90 Q 451.37 864.19 465.50 859.61 Q 470.00 858.14 474.36 856.47 C 479.87 854.36 485.95 852.54 490.86 849.19 Q 492.84 847.84 493.88 845.52 Q 494.10 845.04 493.96 844.53 Q 493.58 843.16 492.82 841.94 C 488.94 835.73 484.16 828.70 481.97 822.18 C 479.06 813.52 478.76 805.30 479.13 796.23 C 479.20 794.61 478.60 793.94 477.20 793.37 Q 474.25 792.16 473.24 791.90 Q 472.06 791.69 471.82 793.00 Q 470.28 801.50 468.91 810.03 C 468.39 813.23 468.57 816.27 467.30 819.32 A 1.42 1.40 47.7 0 0 467.26 820.32 Q 467.66 821.57 468.34 822.40 Q 471.20 825.89 473.95 829.46 Z"/>
  <path fill="#ffd855" d=" M 526.48 124.60 L 522.11 124.38 A 1.82 1.78 61.9 0 1 521.22 124.10 Q 520.04 123.37 518.68 123.87 A 0.97 0.96 -33.4 0 0 518.35 125.47 Q 520.62 127.63 522.53 129.95 Q 523.69 131.36 525.53 132.01 Q 527.30 132.63 528.85 133.57 C 535.78 137.79 542.66 142.12 549.02 147.28 Q 553.78 151.15 558.35 154.40 A 1.10 1.09 15.3 0 0 560.08 153.42 C 559.83 150.55 557.82 148.15 555.47 146.69 Q 553.31 145.34 552.14 143.03 Q 551.98 142.70 552.09 142.35 Q 552.13 142.22 552.22 142.12 Q 552.51 141.80 552.91 141.98 L 553.52 142.27 Q 553.94 142.46 554.14 142.05 L 554.29 141.73 Q 563.76 149.68 567.43 154.32 C 569.66 157.13 574.51 161.27 578.26 161.42 A 0.86 0.86 0.0 0 0 579.08 160.21 Q 573.69 147.92 564.84 138.07 Q 564.74 137.96 564.84 137.85 L 564.85 137.85 Q 564.95 137.74 565.06 137.83 Q 568.74 140.75 572.29 143.83 C 577.63 148.44 582.35 154.02 587.10 159.36 C 588.52 160.96 590.54 162.47 592.46 163.34 Q 603.24 168.27 613.76 173.57 Q 614.11 174.85 615.25 175.39 Q 616.57 176.01 617.13 176.80 A 2.33 2.27 -0.8 0 0 617.84 177.47 Q 627.04 183.07 633.68 191.56 Q 635.17 193.45 640.57 198.99 C 658.43 217.32 671.28 239.87 678.79 264.70 C 688.17 295.69 691.17 328.11 688.70 360.55 Q 687.28 379.18 683.94 400.00 Q 680.86 419.21 667.39 436.71 Q 661.64 444.17 657.59 447.63 Q 644.18 459.07 637.44 462.94 C 625.61 469.72 614.09 476.32 600.31 480.80 Q 563.40 492.79 523.87 493.39 C 516.29 493.51 508.64 492.90 501.22 492.69 C 487.05 492.27 472.90 490.02 458.53 487.71 Q 434.46 483.84 409.58 476.32 C 403.55 474.50 397.64 472.06 391.71 469.77 Q 384.68 467.06 378.70 463.96 Q 370.42 459.67 362.52 455.41 Q 357.60 452.75 352.41 448.81 Q 352.12 448.59 352.12 448.22 L 352.12 447.73 Q 352.12 447.41 352.45 447.38 L 353.79 447.27 Q 354.74 447.56 355.04 448.46 Q 355.19 448.92 355.58 449.20 Q 356.44 449.82 357.28 450.46 Q 358.23 451.19 359.24 451.52 Q 362.25 452.49 365.39 453.45 Q 368.39 454.38 371.72 454.93 Q 374.66 455.43 377.66 456.14 Q 380.46 456.81 383.62 457.32 C 388.05 458.03 392.39 459.03 396.85 459.48 Q 408.25 460.63 420.62 461.92 Q 427.76 462.67 436.41 462.65 Q 445.57 462.63 452.76 462.49 Q 463.27 462.28 474.21 459.88 C 483.80 457.76 492.34 455.12 500.54 450.47 Q 503.51 448.79 504.98 446.10 C 515.88 439.09 526.45 425.40 525.75 411.73 C 525.41 405.13 520.69 399.03 515.34 395.48 C 506.93 389.91 500.86 383.59 494.51 375.55 Q 486.64 365.59 480.31 358.70 Q 473.58 351.36 463.74 345.30 Q 442.56 332.26 418.66 335.99 Q 411.90 337.04 406.06 339.81 C 399.26 343.03 392.83 348.57 386.46 353.45 Q 381.87 356.97 372.28 360.62 C 368.77 361.96 364.97 362.48 361.25 363.57 Q 359.69 364.03 354.34 363.90 Q 353.18 362.80 352.36 361.87 Q 351.05 360.40 352.97 358.88 Q 365.45 359.15 373.36 351.34 Q 380.03 344.75 382.83 332.59 C 386.74 315.65 389.07 299.53 383.10 283.97 C 380.63 277.56 376.45 271.94 369.30 270.34 Q 362.27 268.76 354.19 272.23 Q 357.81 263.01 365.37 254.89 Q 368.68 251.69 374.49 247.96 Q 379.47 244.77 384.67 243.65 C 387.24 243.10 389.25 244.05 391.71 243.57 A 1.31 1.28 -73.9 0 0 392.45 243.15 L 394.76 240.59 A 1.68 1.67 49.9 0 0 394.93 238.55 C 392.49 234.74 387.33 233.36 383.00 232.74 Q 382.64 232.69 382.19 233.21 Q 382.86 231.08 383.77 229.97 C 396.33 214.64 411.03 202.71 427.85 192.12 Q 429.34 191.18 428.52 192.74 C 425.46 198.62 432.43 205.19 438.05 200.50 Q 441.12 197.94 442.81 195.61 A 2.21 2.20 -49.6 0 0 442.58 192.75 L 437.87 188.02 Q 436.45 186.60 438.08 185.43 Q 446.63 179.31 455.25 174.99 Q 467.52 168.84 479.73 162.74 Q 480.05 163.30 478.69 164.26 Q 478.26 164.57 478.56 165.01 Q 478.97 165.63 479.77 165.72 C 482.81 166.07 485.84 166.05 488.96 165.52 Q 501.17 163.45 512.64 161.53 Q 513.93 161.31 514.37 160.07 Q 514.44 159.85 514.68 159.86 Q 514.81 159.86 514.92 159.80 Q 515.01 159.74 515.02 159.65 Q 515.02 159.51 514.95 159.41 A 0.09 0.09 0.0 0 1 515.01 159.28 L 518.80 158.80 Q 519.62 158.11 518.81 157.04 Q 518.29 156.35 517.47 156.00 C 509.11 152.41 501.19 148.92 493.86 143.15 Q 492.05 141.72 490.56 139.81 A 0.63 0.62 -41.0 0 1 490.62 138.98 C 492.72 136.97 497.64 137.52 500.28 137.83 Q 500.39 137.99 500.47 138.27 L 493.73 138.62 A 0.58 0.58 0.0 0 0 493.17 139.20 Q 493.17 139.68 493.58 139.95 C 494.48 140.53 495.21 140.68 495.94 141.55 Q 497.22 143.08 498.76 143.85 Q 502.32 145.63 507.79 147.75 Q 509.22 148.30 510.47 149.06 Q 512.77 150.45 516.24 150.37 Q 517.46 150.34 517.83 149.25 Q 518.28 147.88 517.43 146.86 Q 515.96 145.11 514.03 143.53 Q 513.66 143.23 512.27 142.60 Q 511.15 142.10 510.90 140.95 L 519.06 144.14 Q 518.48 144.82 520.31 145.71 Q 525.33 148.17 530.50 150.47 Q 533.52 151.13 535.03 148.44 A 1.34 1.31 -36.7 0 0 535.18 147.49 Q 534.75 145.47 533.40 143.80 Q 525.28 133.75 514.44 125.72 Q 513.10 124.72 514.48 123.79 Q 515.43 123.15 516.49 123.05 Q 521.22 122.62 526.48 124.60 Z M 483.9695 169.4976 A 6.37 3.03 -25.5 0 0 476.9156 169.5052 A 6.37 3.03 -25.5 0 0 472.4705 174.9824 A 6.37 3.03 -25.5 0 0 479.5244 174.9748 A 6.37 3.03 -25.5 0 0 483.9695 169.4976 Z M 422.27 219.41 C 426.96 218.87 430.31 214.68 430.84 210.03 Q 430.91 209.35 430.28 209.07 C 424.80 206.63 421.10 208.43 418.10 212.78 C 415.81 216.08 418.75 219.82 422.27 219.41 Z M 401.5951 223.4249 A 3.50 2.36 135.0 0 0 405.7388 222.6188 A 3.50 2.36 135.0 0 0 406.5449 218.4751 A 3.50 2.36 135.0 0 0 402.4012 219.2812 A 3.50 2.36 135.0 0 0 401.5951 223.4249 Z M 592.98 245.19 C 585.87 241.82 576.14 240.37 569.02 244.11 C 564.72 246.38 565.26 251.87 570.63 252.03 C 584.14 252.45 594.76 259.59 601.79 270.67 Q 603.42 273.25 604.97 274.21 C 608.15 276.17 613.21 273.00 612.73 269.03 C 611.48 258.52 602.43 249.67 592.98 245.19 Z M 596.04 391.54 Q 605.10 387.66 611.70 380.84 C 623.06 369.10 629.20 355.05 629.28 338.96 Q 629.33 328.66 626.88 319.67 C 621.31 299.19 605.70 284.41 584.38 281.91 C 569.88 280.21 555.89 282.95 544.10 291.74 C 532.77 300.20 524.22 312.46 520.99 326.15 C 517.71 340.00 517.68 354.66 523.74 367.15 C 530.87 381.85 543.87 391.90 560.06 395.34 Q 578.19 399.19 596.04 391.54 Z M 618.09 443.41 C 628.35 442.37 649.77 437.19 650.54 423.83 C 650.91 417.52 645.01 412.03 639.84 409.23 Q 633.13 405.59 623.85 403.73 C 605.55 400.06 585.47 400.79 568.17 407.57 Q 561.79 410.07 557.25 414.90 C 551.04 421.49 555.33 431.02 562.30 435.18 Q 571.75 440.83 582.51 442.46 Q 600.48 445.18 618.09 443.41 Z"/>
  <path fill="#fefefe" d=" M 526.48 124.60 Q 528.99 125.00 531.56 126.18 Q 544.25 132.01 554.29 141.73 L 554.14 142.05 Q 553.94 142.46 553.52 142.27 L 552.91 141.98 Q 552.51 141.80 552.22 142.12 Q 552.13 142.22 552.09 142.35 Q 551.98 142.70 552.14 143.03 Q 553.31 145.34 555.47 146.69 C 557.82 148.15 559.83 150.55 560.08 153.42 A 1.10 1.09 15.3 0 1 558.35 154.40 Q 553.78 151.15 549.02 147.28 C 542.66 142.12 535.78 137.79 528.85 133.57 Q 527.30 132.63 525.53 132.01 Q 523.69 131.36 522.53 129.95 Q 520.62 127.63 518.35 125.47 A 0.97 0.96 -33.4 0 1 518.68 123.87 Q 520.04 123.37 521.22 124.10 A 1.82 1.78 61.9 0 0 522.11 124.38 L 526.48 124.60 Z"/>
  <path fill="#fefefe" d=" M 500.47 138.27 Q 501.68 138.62 502.98 138.42 L 510.90 140.95 Q 511.15 142.10 512.27 142.60 Q 513.66 143.23 514.03 143.53 Q 515.96 145.11 517.43 146.86 Q 518.28 147.88 517.83 149.25 Q 517.46 150.34 516.24 150.37 Q 512.77 150.45 510.47 149.06 Q 509.22 148.30 507.79 147.75 Q 502.32 145.63 498.76 143.85 Q 497.22 143.08 495.94 141.55 C 495.21 140.68 494.48 140.53 493.58 139.95 Q 493.17 139.68 493.17 139.20 A 0.58 0.58 0.0 0 1 493.73 138.62 L 500.47 138.27 Z"/>
  <path fill="#ed9739" d=" M 519.06 144.14 Q 526.06 145.35 530.50 150.47 Q 525.33 148.17 520.31 145.71 Q 518.48 144.82 519.06 144.14 Z"/>
  <path fill="#ed9739" d=" M 518.80 158.80 L 515.01 159.28 A 0.09 0.09 0.0 0 0 514.95 159.41 Q 515.02 159.51 515.02 159.65 Q 515.01 159.74 514.92 159.80 Q 514.81 159.86 514.68 159.86 Q 514.44 159.85 514.37 160.07 Q 513.93 161.31 512.64 161.53 Q 501.17 163.45 488.96 165.52 C 485.84 166.05 482.81 166.07 479.77 165.72 Q 478.97 165.63 478.56 165.01 Q 478.26 164.57 478.69 164.26 Q 480.05 163.30 479.73 162.74 L 480.22 161.66 A 0.79 0.79 0.0 0 0 479.47 160.54 L 475.80 160.72 Q 486.07 158.93 490.01 158.89 Q 493.46 158.84 495.68 158.72 Q 499.64 158.48 501.33 158.53 Q 509.99 158.79 518.80 158.80 Z"/>
  <path fill="#fefefe" d=" M 475.80 160.72 L 479.47 160.54 A 0.79 0.79 0.0 0 1 480.22 161.66 L 479.73 162.74 Q 467.52 168.84 455.25 174.99 Q 446.63 179.31 438.08 185.43 Q 436.45 186.60 437.87 188.02 L 442.58 192.75 A 2.21 2.20 -49.6 0 1 442.81 195.61 Q 441.12 197.94 438.05 200.50 C 432.43 205.19 425.46 198.62 428.52 192.74 Q 429.34 191.18 427.85 192.12 C 411.03 202.71 396.33 214.64 383.77 229.97 Q 382.86 231.08 382.19 233.21 Q 382.10 233.59 381.62 233.78 Q 381.26 233.93 380.88 233.88 Q 378.12 233.53 375.91 234.67 C 371.88 236.76 367.72 239.00 364.81 242.52 C 361.69 246.32 356.81 253.18 365.37 254.89 Q 357.81 263.01 354.19 272.23 Q 350.78 274.16 347.35 277.14 C 344.29 279.80 341.92 283.50 339.34 286.86 C 338.23 288.31 337.95 289.88 336.99 291.31 Q 336.45 292.12 336.62 291.17 Q 336.92 289.55 337.45 287.78 Q 345.75 260.23 360.61 237.05 Q 365.49 229.44 374.14 219.01 Q 400.62 187.05 437.24 171.71 Q 454.04 164.68 475.80 160.72 Z"/>
  <ellipse fill="#000000" cx="0.00" cy="0.00" transform="translate(478.22,172.24) rotate(-25.5)" rx="6.37" ry="3.03"/>
  <path fill="#ed9739" d=" M 613.76 173.57 Q 624.64 178.52 634.00 184.73 Q 635.51 186.65 637.65 188.16 Q 641.10 190.60 641.14 190.63 C 660.42 206.00 677.71 224.12 690.36 244.80 Q 699.98 260.53 707.67 277.87 Q 716.40 297.53 721.69 321.16 Q 723.77 330.44 724.75 340.14 Q 726.96 361.98 724.88 383.51 Q 723.96 393.10 722.42 399.25 Q 719.83 409.60 715.55 421.51 Q 712.13 431.04 709.57 435.94 Q 707.02 432.99 704.89 435.37 Q 699.38 441.52 694.76 447.74 C 693.89 448.91 692.71 451.11 694.07 452.31 Q 694.77 452.92 695.71 452.80 Q 696.39 452.72 697.52 451.67 Q 699.29 450.04 700.61 451.37 L 697.02 459.61 Q 695.37 459.90 694.15 460.77 Q 693.76 461.05 693.29 461.11 Q 690.82 461.46 688.50 463.41 C 685.87 465.63 682.43 468.57 681.12 471.55 A 1.05 1.03 42.0 0 0 681.18 472.49 Q 682.66 474.91 685.41 473.18 Q 685.43 474.18 685.06 475.11 Q 684.86 475.60 685.12 476.07 L 685.56 476.86 Q 685.93 477.51 685.47 478.10 Q 683.95 480.06 685.95 480.40 Q 680.93 484.80 676.50 487.76 Q 657.50 500.46 638.34 507.32 Q 618.45 514.45 597.95 517.72 Q 578.91 520.75 561.91 521.76 Q 552.77 522.29 539.96 522.19 C 537.54 522.17 535.58 523.20 533.56 524.28 A 0.57 0.56 49.3 0 0 533.49 525.24 Q 537.35 528.06 541.98 529.42 Q 549.53 531.64 556.80 533.49 Q 563.36 535.17 571.84 536.25 Q 581.63 537.51 587.75 537.91 Q 591.74 538.17 603.44 537.91 Q 601.02 539.51 600.30 540.24 C 594.70 545.88 620.31 566.71 624.44 569.89 Q 625.29 570.54 624.32 571.00 Q 623.95 571.18 623.78 570.84 Q 623.54 570.35 623.02 570.24 L 621.22 569.86 Q 620.66 569.74 620.47 570.28 L 620.08 571.39 Q 619.91 571.88 619.39 571.88 Q 618.61 571.87 618.00 571.25 Q 617.87 571.12 617.69 571.11 Q 617.53 571.10 617.38 571.12 A 1.06 1.01 -32.2 0 1 616.70 570.98 L 612.92 568.79 Q 611.48 567.51 610.50 567.02 Q 594.36 558.87 587.46 556.08 Q 557.14 543.80 524.73 545.09 C 506.52 545.82 489.55 547.23 471.10 549.07 Q 460.09 550.17 451.12 550.10 Q 439.57 550.01 427.33 547.77 Q 420.08 546.45 414.08 542.69 Q 412.32 541.59 413.78 543.06 Q 415.49 544.78 418.29 546.69 Q 420.13 547.93 421.19 549.89 L 419.12 553.07 Q 417.03 552.34 414.76 551.51 Q 410.29 549.87 405.78 548.35 Q 404.87 548.04 403.22 546.94 Q 401.75 545.96 400.32 546.08 Q 399.71 545.34 398.14 542.86 C 396.68 540.57 392.97 538.93 391.79 542.81 Q 391.03 545.32 392.34 547.37 L 384.69 543.60 Q 382.86 540.93 382.45 538.17 Q 382.48 535.53 384.10 533.19 A 0.76 0.75 37.2 0 0 383.96 532.19 Q 383.90 532.14 383.51 532.21 L 390.71 518.65 A 1.19 1.18 25.0 0 1 392.20 518.11 C 409.99 525.32 429.17 531.28 448.62 531.02 Q 460.66 530.86 472.49 528.50 Q 477.48 527.50 482.34 525.87 Q 488.13 523.16 493.94 521.13 Q 495.28 520.66 495.80 519.57 A 0.45 0.44 -77.1 0 0 495.40 518.93 L 488.11 519.03 Q 485.68 518.42 483.17 517.57 Q 480.79 516.76 478.13 516.49 Q 445.81 513.27 421.32 505.25 Q 388.35 494.46 356.74 473.77 C 346.44 467.03 335.42 458.07 326.84 450.10 Q 313.92 438.08 310.00 432.56 C 308.61 430.61 307.13 427.87 305.55 426.38 Q 305.40 426.24 305.28 426.05 Q 304.98 425.57 305.46 425.87 Q 321.58 436.07 335.97 441.34 Q 340.34 442.94 353.80 447.05 Q 353.79 447.16 353.79 447.27 L 352.45 447.38 Q 352.12 447.41 352.12 447.73 L 352.12 448.22 Q 352.12 448.59 352.41 448.81 Q 357.60 452.75 362.52 455.41 Q 370.42 459.67 378.70 463.96 Q 384.68 467.06 391.71 469.77 C 397.64 472.06 403.55 474.50 409.58 476.32 Q 434.46 483.84 458.53 487.71 C 472.90 490.02 487.05 492.27 501.22 492.69 C 508.64 492.90 516.29 493.51 523.87 493.39 Q 563.40 492.79 600.31 480.80 C 614.09 476.32 625.61 469.72 637.44 462.94 Q 644.18 459.07 657.59 447.63 Q 661.64 444.17 667.39 436.71 Q 680.86 419.21 683.94 400.00 Q 687.28 379.18 688.70 360.55 C 691.17 328.11 688.17 295.69 678.79 264.70 C 671.28 239.87 658.43 217.32 640.57 198.99 Q 635.17 193.45 633.68 191.56 Q 627.04 183.07 617.84 177.47 A 2.33 2.27 -0.8 0 1 617.13 176.80 Q 616.57 176.01 615.25 175.39 Q 614.11 174.85 613.76 173.57 Z M 702.33 395.92 C 704.55 389.39 706.92 383.32 707.64 376.46 A 0.99 0.98 -11.8 0 0 706.17 375.50 Q 702.84 377.40 701.58 381.02 Q 698.78 389.06 695.81 396.73 Q 695.16 398.41 695.54 400.18 Q 695.67 400.76 696.19 401.06 C 699.50 403.00 701.54 398.24 702.33 395.92 Z M 708.0303 410.1172 A 5.19 1.94 109.0 0 0 711.5543 405.8416 A 5.19 1.94 109.0 0 0 711.4097 400.3028 A 5.19 1.94 109.0 0 0 707.8857 404.5784 A 5.19 1.94 109.0 0 0 708.0303 410.1172 Z M 702.9864 428.9474 A 10.06 3.40 128.0 0 0 711.8592 423.1132 A 10.06 3.40 128.0 0 0 715.3736 413.0926 A 10.06 3.40 128.0 0 0 706.5008 418.9268 A 10.06 3.40 128.0 0 0 702.9864 428.9474 Z M 674.78 461.25 C 680.36 458.00 684.81 453.05 689.06 448.29 C 691.68 445.36 687.60 442.39 684.53 444.54 Q 681.29 446.82 674.66 453.70 Q 672.75 455.67 671.61 457.61 C 670.71 459.13 671.36 461.27 673.22 461.55 A 2.37 2.34 -55.5 0 0 674.78 461.25 Z M 657.9606 461.1647 A 8.87 3.05 -38.2 0 0 649.1039 464.2531 A 8.87 3.05 -38.2 0 0 644.0194 472.1353 A 8.87 3.05 -38.2 0 0 652.8761 469.0469 A 8.87 3.05 -38.2 0 0 657.9606 461.1647 Z M 656.80 486.55 Q 667.02 481.53 675.17 473.89 Q 676.87 472.31 677.06 470.28 Q 677.11 469.74 676.72 469.37 Q 674.38 467.19 671.72 468.78 Q 664.58 473.05 655.62 479.66 C 654.22 480.69 652.44 482.48 650.57 483.44 Q 649.33 484.07 649.49 485.46 C 650.02 490.18 654.45 487.70 656.80 486.55 Z M 628.8392 491.6676 A 7.51 2.52 -24.4 0 0 620.9590 492.4751 A 7.51 2.52 -24.4 0 0 615.1608 497.8724 A 7.51 2.52 -24.4 0 0 623.0410 497.0649 A 7.51 2.52 -24.4 0 0 628.8392 491.6676 Z"/>
  <path fill="#fefefe" d=" M 634.00 184.73 Q 638.39 186.87 640.49 188.25 Q 674.71 210.70 697.45 243.66 C 705.96 256.00 714.33 271.29 720.06 285.78 Q 733.86 320.70 737.06 357.11 Q 738.03 368.18 736.49 388.57 C 733.89 423.04 716.57 454.90 690.03 477.29 Q 688.17 478.86 685.95 480.40 Q 683.95 480.06 685.47 478.10 Q 685.93 477.51 685.56 476.86 L 685.12 476.07 Q 684.86 475.60 685.06 475.11 Q 685.43 474.18 685.41 473.18 C 690.76 469.43 693.52 463.83 697.02 459.61 L 700.61 451.37 Q 706.57 444.02 709.57 435.94 Q 712.13 431.04 715.55 421.51 Q 719.83 409.60 722.42 399.25 Q 723.96 393.10 724.88 383.51 Q 726.96 361.98 724.75 340.14 Q 723.77 330.44 721.69 321.16 Q 716.40 297.53 707.67 277.87 Q 699.98 260.53 690.36 244.80 C 677.71 224.12 660.42 206.00 641.14 190.63 Q 641.10 190.60 637.65 188.16 Q 635.51 186.65 634.00 184.73 Z"/>
  <path fill="#fefefe" d=" M 430.84 210.03 C 430.31 214.68 426.96 218.87 422.27 219.41 C 418.75 219.82 415.81 216.08 418.10 212.78 C 421.10 208.43 424.80 206.63 430.28 209.07 Q 430.91 209.35 430.84 210.03 Z"/>
  <ellipse fill="#fefefe" cx="0.00" cy="0.00" transform="translate(404.07,220.95) rotate(135.0)" rx="3.50" ry="2.36"/>
  <path fill="#000000" d=" M 365.37 254.89 C 356.81 253.18 361.69 246.32 364.81 242.52 C 367.72 239.00 371.88 236.76 375.91 234.67 Q 378.12 233.53 380.88 233.88 Q 381.26 233.93 381.62 233.78 Q 382.10 233.59 382.19 233.21 Q 382.64 232.69 383.00 232.74 C 387.33 233.36 392.49 234.74 394.93 238.55 A 1.68 1.67 49.9 0 1 394.76 240.59 L 392.45 243.15 A 1.31 1.28 -73.9 0 1 391.71 243.57 C 389.25 244.05 387.24 243.10 384.67 243.65 Q 379.47 244.77 374.49 247.96 Q 368.68 251.69 365.37 254.89 Z"/>
  <path fill="#000000" d=" M 592.98 245.19 C 602.43 249.67 611.48 258.52 612.73 269.03 C 613.21 273.00 608.15 276.17 604.97 274.21 Q 603.42 273.25 601.79 270.67 C 594.76 259.59 584.14 252.45 570.63 252.03 C 565.26 251.87 564.72 246.38 569.02 244.11 C 576.14 240.37 585.87 241.82 592.98 245.19 Z"/>
  <path fill="#000000" d=" M 596.04 391.54 Q 578.19 399.19 560.06 395.34 C 543.87 391.90 530.87 381.85 523.74 367.15 C 517.68 354.66 517.71 340.00 520.99 326.15 C 524.22 312.46 532.77 300.20 544.10 291.74 C 555.89 282.95 569.88 280.21 584.38 281.91 C 605.70 284.41 621.31 299.19 626.88 319.67 Q 629.33 328.66 629.28 338.96 C 629.20 355.05 623.06 369.10 611.70 380.84 Q 605.10 387.66 596.04 391.54 Z M 590.8408 337.9101 A 20.03 18.54 91.8 0 0 610.0009 318.4724 A 20.03 18.54 91.8 0 0 592.0992 297.8699 A 20.03 18.54 91.8 0 0 572.9391 317.3076 A 20.03 18.54 91.8 0 0 590.8408 337.9101 Z M 538.8617 366.9586 A 11.57 9.94 89.1 0 0 548.6188 355.2339 A 11.57 9.94 89.1 0 0 538.4983 343.8214 A 11.57 9.94 89.1 0 0 528.7412 355.5461 A 11.57 9.94 89.1 0 0 538.8617 366.9586 Z"/>
  <ellipse fill="#fefefe" cx="0.00" cy="0.00" transform="translate(359.59,297.92) rotate(115.2)" rx="16.70" ry="10.94"/>
  <ellipse fill="#fefefe" cx="0.00" cy="0.00" transform="translate(591.47,317.89) rotate(91.8)" rx="20.03" ry="18.54"/>
  <path fill="#fefefe" d=" M 339.32 352.00 Q 334.78 351.33 332.24 351.29 Q 318.48 351.07 309.07 360.44 C 306.98 362.53 305.70 365.20 304.33 367.87 Q 298.89 370.11 294.33 373.63 C 291.84 375.56 289.75 378.41 287.87 380.87 Q 286.54 382.61 287.30 380.56 Q 292.33 366.93 301.90 356.84 Q 309.64 348.68 320.26 340.72 C 323.68 338.15 326.09 334.75 327.05 330.28 Q 327.95 326.12 329.26 321.47 Q 329.31 321.29 329.48 321.32 Q 329.53 321.33 329.58 321.34 Q 329.65 321.37 329.65 321.47 C 329.62 325.10 329.10 329.13 330.02 332.49 Q 330.67 334.86 331.07 337.41 C 331.92 342.81 335.47 348.03 339.32 352.00 Z"/>
  <ellipse fill="#fefefe" cx="0.00" cy="0.00" transform="translate(369.08,333.24) rotate(94.8)" rx="6.69" ry="5.13"/>
  <ellipse fill="#fefefe" cx="0.00" cy="0.00" transform="translate(340.31,335.42) rotate(80.1)" rx="7.18" ry="4.30"/>
  <ellipse fill="#fefefe" cx="0.00" cy="0.00" transform="translate(538.68,355.39) rotate(89.1)" rx="11.57" ry="9.94"/>
  <path fill="#ff9145" d=" M 457.28 358.68 Q 460.03 363.27 463.16 367.40 Q 468.19 374.02 469.44 375.83 Q 479.14 389.93 489.02 403.40 C 491.19 406.35 487.56 410.32 485.32 411.91 C 478.85 416.51 470.88 418.05 462.87 418.96 Q 435.12 422.12 406.99 416.79 Q 390.43 413.66 384.01 411.94 C 363.80 406.52 343.02 400.47 322.24 398.73 C 315.03 398.13 309.94 400.41 303.73 402.38 Q 301.82 402.99 298.86 401.59 Q 297.45 399.16 297.26 396.88 Q 301.64 392.37 305.93 390.42 Q 314.58 386.49 324.54 386.59 L 338.54 386.63 Q 345.11 387.03 354.49 389.28 Q 371.42 393.35 383.20 397.92 Q 386.17 399.08 389.96 399.04 A 1.23 1.22 9.6 0 0 391.10 398.24 C 392.06 395.63 385.95 392.65 384.14 391.90 Q 369.98 386.03 355.00 382.69 Q 343.51 380.13 325.56 379.84 L 353.04 379.34 Q 353.61 379.32 353.80 379.59 Q 353.89 379.71 353.80 379.84 Q 353.71 379.96 353.66 380.10 Q 353.57 380.40 353.88 380.42 Q 357.85 380.74 361.84 381.03 C 374.29 381.93 387.29 377.36 397.46 370.40 Q 403.82 366.06 411.62 359.13 Q 417.65 353.78 425.54 349.74 Q 442.76 348.82 457.28 358.68 Z M 449.94 395.94 Q 452.88 393.87 454.57 391.07 Q 456.56 387.75 457.44 385.80 Q 459.19 381.88 457.52 376.94 C 456.00 369.63 447.45 370.69 443.63 375.10 Q 438.92 380.53 438.68 388.14 Q 438.58 391.20 439.83 393.92 C 441.04 396.55 444.37 400.21 447.46 398.21 Q 448.51 397.53 449.94 395.94 Z M 470.69 408.55 A 1.84 1.83 5.3 0 0 471.10 408.21 Q 472.11 407.15 471.98 406.17 A 0.97 0.97 0.0 0 0 470.67 405.39 Q 466.64 406.94 462.90 407.51 C 461.45 407.73 460.24 408.21 458.95 408.88 A 1.71 1.71 0.0 0 0 458.72 411.77 Q 460.54 413.13 462.87 412.30 Q 466.97 410.85 470.69 408.55 Z"/>
  <path fill="#fefefe" d=" M 425.54 349.74 Q 417.65 353.78 411.62 359.13 Q 403.82 366.06 397.46 370.40 C 387.29 377.36 374.29 381.93 361.84 381.03 Q 357.85 380.74 353.88 380.42 Q 353.57 380.40 353.66 380.10 Q 353.71 379.96 353.80 379.84 Q 353.89 379.71 353.80 379.59 Q 353.61 379.32 353.04 379.34 Q 356.89 378.92 360.73 378.41 Q 375.02 376.53 387.23 369.80 C 393.83 366.17 400.15 360.88 406.45 356.28 Q 412.76 351.67 421.77 350.02 Q 423.78 349.66 425.54 349.74 Z"/>
  <path fill="#ed9739" d=" M 339.32 352.00 Q 345.29 356.61 352.97 358.88 Q 351.05 360.40 352.36 361.87 Q 353.18 362.80 354.34 363.90 Q 338.34 363.74 322.50 364.29 C 321.00 364.35 318.96 364.95 317.15 365.10 Q 310.56 365.64 304.33 367.87 C 305.70 365.20 306.98 362.53 309.07 360.44 Q 318.48 351.07 332.24 351.29 Q 334.78 351.33 339.32 352.00 Z"/>
  <path fill="#c1491c" d=" M 457.28 358.68 Q 464.43 363.19 469.44 369.31 Q 477.31 378.89 484.22 387.04 Q 493.96 398.51 507.29 405.26 A 2.34 2.34 0.0 0 1 508.46 408.06 C 506.62 413.79 501.42 415.87 496.36 418.39 Q 493.49 419.82 490.85 420.68 C 477.85 424.91 464.13 427.40 450.43 427.30 Q 440.88 427.24 432.97 426.96 Q 424.22 426.64 409.55 423.68 Q 393.18 420.36 387.97 418.94 Q 365.01 412.67 344.70 408.90 Q 341.56 408.31 330.89 407.57 C 327.51 407.34 324.55 408.52 321.29 408.41 C 317.03 408.26 312.63 409.25 308.00 408.50 Q 301.87 407.51 298.86 401.59 Q 301.82 402.99 303.73 402.38 C 309.94 400.41 315.03 398.13 322.24 398.73 C 343.02 400.47 363.80 406.52 384.01 411.94 Q 390.43 413.66 406.99 416.79 Q 435.12 422.12 462.87 418.96 C 470.88 418.05 478.85 416.51 485.32 411.91 C 487.56 410.32 491.19 406.35 489.02 403.40 Q 479.14 389.93 469.44 375.83 Q 468.19 374.02 463.16 367.40 Q 460.03 363.27 457.28 358.68 Z"/>
  <path fill="#000000" d=" M 457.52 376.94 Q 455.56 378.28 455.05 380.73 C 454.65 382.63 453.41 384.04 452.90 385.89 Q 451.57 390.73 449.94 395.94 Q 448.51 397.53 447.46 398.21 C 444.37 400.21 441.04 396.55 439.83 393.92 Q 438.58 391.20 438.68 388.14 Q 438.92 380.53 443.63 375.10 C 447.45 370.69 456.00 369.63 457.52 376.94 Z"/>
  <path fill="#c1491c" d=" M 707.64 376.46 C 706.92 383.32 704.55 389.39 702.33 395.92 C 701.54 398.24 699.50 403.00 696.19 401.06 Q 695.67 400.76 695.54 400.18 Q 695.16 398.41 695.81 396.73 Q 698.78 389.06 701.58 381.02 Q 702.84 377.40 706.17 375.50 A 0.99 0.98 -11.8 0 1 707.64 376.46 Z"/>
  <path fill="#c1491c" d=" M 457.52 376.94 Q 459.19 381.88 457.44 385.80 Q 456.56 387.75 454.57 391.07 Q 452.88 393.87 449.94 395.94 Q 451.57 390.73 452.90 385.89 C 453.41 384.04 454.65 382.63 455.05 380.73 Q 455.56 378.28 457.52 376.94 Z"/>
  <path fill="#fefefe" d=" M 325.56 379.84 Q 343.51 380.13 355.00 382.69 Q 369.98 386.03 384.14 391.90 C 385.95 392.65 392.06 395.63 391.10 398.24 A 1.23 1.22 9.6 0 1 389.96 399.04 Q 386.17 399.08 383.20 397.92 Q 371.42 393.35 354.49 389.28 Q 345.11 387.03 338.54 386.63 L 324.54 386.59 Q 314.58 386.49 305.93 390.42 Q 301.64 392.37 297.26 396.88 C 298.68 382.65 314.87 381.50 325.56 379.84 Z"/>
  <path fill="#ed9739" d=" M 338.54 386.63 L 324.54 386.59 L 338.54 386.63 Z"/>
  <ellipse fill="#c1491c" cx="0.00" cy="0.00" transform="translate(709.72,405.21) rotate(109.0)" rx="5.19" ry="1.94"/>
  <path fill="#ff9145" d=" M 618.09 443.41 Q 600.48 445.18 582.51 442.46 Q 571.75 440.83 562.30 435.18 C 555.33 431.02 551.04 421.49 557.25 414.90 Q 561.79 410.07 568.17 407.57 C 585.47 400.79 605.55 400.06 623.85 403.73 Q 633.13 405.59 639.84 409.23 C 645.01 412.03 650.91 417.52 650.54 423.83 C 649.77 437.19 628.35 442.37 618.09 443.41 Z"/>
  <path fill="#c1491c" d=" M 470.69 408.55 Q 466.97 410.85 462.87 412.30 Q 460.54 413.13 458.72 411.77 A 1.71 1.71 0.0 0 1 458.95 408.88 C 460.24 408.21 461.45 407.73 462.90 407.51 Q 466.64 406.94 470.67 405.39 A 0.97 0.97 0.0 0 1 471.98 406.17 Q 472.11 407.15 471.10 408.21 A 1.84 1.83 5.3 0 1 470.69 408.55 Z"/>
  <ellipse fill="#000000" cx="0.00" cy="0.00" transform="translate(709.18,421.02) rotate(128.0)" rx="10.06" ry="3.40"/>
  <path fill="#c1491c" d=" M 488.96 434.23 C 491.23 433.81 493.98 432.81 496.53 432.51 Q 498.01 432.34 496.81 433.22 Q 494.54 434.89 491.77 436.10 C 481.42 440.61 470.40 442.73 458.98 443.12 Q 440.34 443.75 422.71 443.28 Q 414.58 443.06 406.03 441.91 C 383.33 438.84 362.26 435.06 341.00 426.81 Q 336.12 424.92 332.55 422.13 Q 331.48 421.29 332.83 421.14 Q 335.72 420.81 338.70 421.06 C 346.85 421.77 355.11 423.86 363.17 425.62 Q 375.38 428.28 390.21 432.41 Q 394.36 433.56 405.43 435.29 Q 411.55 436.25 419.01 437.56 Q 432.47 439.93 444.73 439.62 C 450.39 439.48 456.14 439.39 461.71 438.63 Q 475.65 436.73 488.96 434.23 Z"/>
  <path fill="#fefefe" d=" M 358.40 542.20 Q 355.62 542.43 353.21 542.13 Q 352.74 542.07 352.31 542.25 Q 351.85 542.45 351.58 542.86 A 4.83 4.44 -72.4 0 1 347.85 545.00 Q 344.49 545.06 340.87 545.34 C 336.18 545.70 331.60 544.37 327.01 543.49 Q 323.89 542.90 320.85 542.05 Q 301.11 536.55 282.65 528.09 Q 259.25 517.38 237.35 500.30 C 223.83 489.76 210.91 477.63 201.86 463.79 Q 199.42 460.06 198.98 455.65 Q 198.92 455.11 198.52 454.75 C 197.64 453.96 196.98 453.29 196.47 452.14 C 195.51 449.95 193.92 448.94 192.74 446.89 C 191.54 444.81 189.59 443.41 188.45 441.32 Q 186.39 437.57 182.73 434.96 A 2.39 2.38 -44.5 0 0 179.99 434.94 C 174.44 438.75 173.76 444.09 173.63 450.41 Q 173.43 460.31 175.08 469.02 Q 175.84 472.99 176.45 478.04 Q 177.00 482.59 178.18 487.02 Q 180.58 490.45 179.78 492.40 Q 173.24 481.41 170.93 469.25 C 169.83 463.45 168.43 456.93 168.64 451.19 C 168.92 443.81 170.02 430.01 178.32 426.76 Q 178.80 426.57 179.24 426.84 Q 180.94 427.88 181.96 429.29 C 186.80 436.02 191.65 443.28 196.78 449.67 Q 214.31 471.54 235.11 487.91 Q 246.66 497.00 261.61 506.80 Q 274.11 515.00 294.31 524.11 Q 315.98 533.89 341.52 538.52 Q 341.56 538.53 344.98 538.96 Q 347.42 539.26 349.39 539.63 Q 351.53 540.03 358.11 540.14 Q 358.59 540.15 358.66 540.63 Q 358.77 541.42 358.40 542.20 Z"/>
  <path fill="#000000" d=" M 709.57 435.94 Q 706.57 444.02 700.61 451.37 Q 699.29 450.04 697.52 451.67 Q 696.39 452.72 695.71 452.80 Q 694.77 452.92 694.07 452.31 C 692.71 451.11 693.89 448.91 694.76 447.74 Q 699.38 441.52 704.89 435.37 Q 707.02 432.99 709.57 435.94 Z"/>
  <path fill="#ffd855" d=" M 358.40 542.20 L 348.66 566.83 L 338.81 565.54 Q 338.19 565.46 337.94 566.04 Q 337.82 566.34 337.50 566.33 C 332.38 566.14 326.88 566.42 322.18 566.02 Q 299.47 564.07 278.39 555.74 Q 272.68 553.49 261.40 547.61 Q 253.22 543.35 244.56 539.10 Q 243.35 536.56 241.86 533.26 Q 240.82 530.96 239.15 530.05 Q 234.39 527.46 232.11 533.05 Q 227.91 536.66 223.20 533.31 C 214.89 527.40 208.94 520.00 202.47 511.36 Q 197.78 505.10 187.47 488.69 C 185.63 485.76 184.31 482.58 182.63 479.47 A 1.27 1.26 2.1 0 0 182.18 478.99 Q 180.99 478.27 179.92 478.37 Q 179.43 478.41 179.31 478.89 Q 179.12 479.61 178.41 479.89 Q 177.95 480.07 177.83 480.55 Q 177.30 482.49 178.27 484.37 Q 178.87 485.53 178.18 487.02 Q 177.00 482.59 176.45 478.04 Q 175.84 472.99 175.08 469.02 Q 173.43 460.31 173.63 450.41 C 173.76 444.09 174.44 438.75 179.99 434.94 A 2.39 2.38 -44.5 0 1 182.73 434.96 Q 186.39 437.57 188.45 441.32 C 189.59 443.41 191.54 444.81 192.74 446.89 C 193.92 448.94 195.51 449.95 196.47 452.14 C 196.98 453.29 197.64 453.96 198.52 454.75 Q 198.92 455.11 198.98 455.65 Q 199.42 460.06 201.86 463.79 C 210.91 477.63 223.83 489.76 237.35 500.30 Q 259.25 517.38 282.65 528.09 Q 301.11 536.55 320.85 542.05 Q 323.89 542.90 327.01 543.49 C 331.60 544.37 336.18 545.70 340.87 545.34 Q 344.49 545.06 347.85 545.00 A 4.83 4.44 -72.4 0 0 351.58 542.86 Q 351.85 542.45 352.31 542.25 Q 352.74 542.07 353.21 542.13 Q 355.62 542.43 358.40 542.20 Z M 186.43 450.82 Q 189.91 455.49 193.36 459.49 C 194.14 460.40 195.29 461.23 196.37 461.78 Q 197.51 462.35 198.29 461.42 A 0.70 0.69 43.4 0 0 198.26 460.50 C 196.82 458.93 196.39 457.00 195.13 455.30 Q 189.57 447.82 182.45 443.14 A 0.74 0.73 -49.8 0 0 181.53 443.22 L 181.30 443.44 Q 181.08 443.65 181.31 443.86 Q 183.67 445.98 185.29 449.03 Q 185.77 449.94 186.43 450.82 Z M 204.06 483.53 C 200.95 487.12 204.81 491.20 208.01 492.93 A 1.33 1.32 -85.5 0 0 209.89 491.32 Q 208.42 487.22 206.07 483.66 A 1.26 1.26 0.0 0 0 204.06 483.53 Z"/>
  <path fill="#fefefe" d=" M 186.43 450.82 Q 185.77 449.94 185.29 449.03 Q 183.67 445.98 181.31 443.86 Q 181.08 443.65 181.30 443.44 L 181.53 443.22 A 0.74 0.73 -49.8 0 1 182.45 443.14 Q 189.57 447.82 195.13 455.30 C 196.39 457.00 196.82 458.93 198.26 460.50 A 0.70 0.69 43.4 0 1 198.29 461.42 Q 197.51 462.35 196.37 461.78 C 195.29 461.23 194.14 460.40 193.36 459.49 Q 189.91 455.49 186.43 450.82 Z"/>
  <path fill="#000000" d=" M 674.78 461.25 A 2.37 2.34 -55.5 0 1 673.22 461.55 C 671.36 461.27 670.71 459.13 671.61 457.61 Q 672.75 455.67 674.66 453.70 Q 681.29 446.82 684.53 444.54 C 687.60 442.39 691.68 445.36 689.06 448.29 C 684.81 453.05 680.36 458.00 674.78 461.25 Z"/>
  <path fill="#c1491c" d=" M 504.98 446.10 Q 503.51 448.79 500.54 450.47 C 492.34 455.12 483.80 457.76 474.21 459.88 Q 463.27 462.28 452.76 462.49 Q 445.57 462.63 436.41 462.65 Q 427.76 462.67 420.62 461.92 Q 408.25 460.63 396.85 459.48 C 392.39 459.03 388.05 458.03 383.62 457.32 Q 380.46 456.81 377.66 456.14 Q 374.66 455.43 371.72 454.93 Q 368.39 454.38 365.39 453.45 Q 362.25 452.49 359.24 451.52 Q 358.23 451.19 357.28 450.46 Q 356.44 449.82 355.58 449.20 Q 355.19 448.92 355.04 448.46 Q 354.74 447.56 353.79 447.27 Q 353.79 447.16 353.80 447.05 Q 374.98 451.79 396.52 454.40 Q 401.36 454.99 406.99 455.32 C 411.62 455.60 416.14 456.14 420.83 456.28 Q 440.06 456.83 458.67 456.53 Q 462.44 456.47 466.65 455.81 Q 469.80 455.32 474.24 454.72 Q 489.90 452.59 504.98 446.10 Z"/>
  <path fill="#000000" d=" M 697.02 459.61 C 693.52 463.83 690.76 469.43 685.41 473.18 Q 682.66 474.91 681.18 472.49 A 1.05 1.03 42.0 0 1 681.12 471.55 C 682.43 468.57 685.87 465.63 688.50 463.41 Q 690.82 461.46 693.29 461.11 Q 693.76 461.05 694.15 460.77 Q 695.37 459.90 697.02 459.61 Z"/>
  <ellipse fill="#c1491c" cx="0.00" cy="0.00" transform="translate(650.99,466.65) rotate(-38.2)" rx="8.87" ry="3.05"/>
  <path fill="#000000" d=" M 656.80 486.55 C 654.45 487.70 650.02 490.18 649.49 485.46 Q 649.33 484.07 650.57 483.44 C 652.44 482.48 654.22 480.69 655.62 479.66 Q 664.58 473.05 671.72 468.78 Q 674.38 467.19 676.72 469.37 Q 677.11 469.74 677.06 470.28 Q 676.87 472.31 675.17 473.89 Q 667.02 481.53 656.80 486.55 Z"/>
  <path fill="#ed9739" d=" M 232.11 533.05 L 232.42 534.13 Q 232.57 534.62 232.27 535.05 C 231.81 535.69 231.51 536.11 231.65 536.97 Q 233.49 548.32 239.08 556.91 C 248.28 571.05 261.65 579.76 277.77 584.30 Q 285.48 586.48 294.06 584.45 A 0.63 0.63 0.0 0 0 294.25 583.31 C 289.25 580.14 283.68 577.68 278.10 574.79 C 263.30 567.12 251.20 555.55 244.56 539.10 Q 253.22 543.35 261.40 547.61 Q 272.68 553.49 278.39 555.74 Q 299.47 564.07 322.18 566.02 C 326.88 566.42 332.38 566.14 337.50 566.33 Q 337.82 566.34 337.94 566.04 Q 338.19 565.46 338.81 565.54 L 348.66 566.83 Q 344.45 583.71 342.92 592.43 Q 337.88 621.06 342.43 649.60 A 0.54 0.54 0.0 0 1 341.91 650.23 C 325.05 650.71 308.46 648.30 292.93 640.89 C 289.19 639.11 283.89 636.07 281.80 632.29 A 0.82 0.82 0.0 0 1 282.44 631.08 Q 289.16 630.47 295.86 629.17 C 308.37 626.76 319.98 623.29 329.84 615.32 A 1.95 1.94 -45.5 0 0 329.82 612.28 Q 328.30 611.07 326.36 610.84 C 316.60 609.69 302.13 607.19 296.37 598.04 C 294.03 594.33 291.74 587.17 285.93 591.37 Q 282.44 593.90 283.09 597.71 C 284.79 607.60 294.55 614.41 303.56 616.78 Q 306.29 617.50 303.47 617.55 Q 282.32 617.93 261.75 611.77 C 242.45 605.99 225.61 593.85 212.65 578.74 Q 212.21 575.75 210.03 573.32 Q 208.99 572.17 207.97 571.01 Q 207.01 569.93 206.29 568.41 Q 205.29 566.33 204.04 564.35 A 1.02 0.97 -63.2 0 1 203.87 563.79 L 203.90 558.91 A 0.71 0.71 0.0 0 1 204.89 558.26 Q 206.20 558.82 207.14 559.61 C 211.45 563.25 215.36 566.14 220.31 568.81 Q 239.83 579.33 260.97 583.79 Q 263.01 584.22 261.17 583.23 Q 258.13 581.60 254.48 579.76 Q 248.66 576.81 243.94 572.31 Q 239.04 567.64 234.86 559.88 Q 236.06 560.06 235.35 558.70 Q 235.12 558.27 234.65 557.85 C 230.99 554.59 227.61 551.00 223.99 547.85 Q 198.66 525.84 181.79 496.72 Q 180.78 494.98 179.78 492.40 Q 180.58 490.45 178.18 487.02 Q 178.87 485.53 178.27 484.37 Q 177.30 482.49 177.83 480.55 Q 177.95 480.07 178.41 479.89 Q 179.12 479.61 179.31 478.89 Q 179.43 478.41 179.92 478.37 Q 180.99 478.27 182.18 478.99 A 1.27 1.26 2.1 0 1 182.63 479.47 C 184.31 482.58 185.63 485.76 187.47 488.69 Q 197.78 505.10 202.47 511.36 C 208.94 520.00 214.89 527.40 223.20 533.31 Q 227.91 536.66 232.11 533.05 Z M 333.5106 630.4039 A 3.30 2.02 14.1 0 0 330.8021 627.6409 A 3.30 2.02 14.1 0 0 327.1094 628.7961 A 3.30 2.02 14.1 0 0 329.8179 631.5591 A 3.30 2.02 14.1 0 0 333.5106 630.4039 Z M 326.3462 641.2344 A 7.63 2.34 12.6 0 0 319.4105 637.2864 A 7.63 2.34 12.6 0 0 311.4538 637.9056 A 7.63 2.34 12.6 0 0 318.3895 641.8536 A 7.63 2.34 12.6 0 0 326.3462 641.2344 Z"/>
  <path fill="#ed9739" d=" M 208.01 492.93 C 204.81 491.20 200.95 487.12 204.06 483.53 A 1.26 1.26 0.0 0 1 206.07 483.66 Q 208.42 487.22 209.89 491.32 A 1.33 1.32 -85.5 0 1 208.01 492.93 Z"/>
  <ellipse fill="#c1491c" cx="0.00" cy="0.00" transform="translate(622.00,494.77) rotate(-24.4)" rx="7.51" ry="2.52"/>
  <path fill="#c1491c" d=" M 488.11 519.03 L 495.40 518.93 A 0.45 0.44 -77.1 0 1 495.80 519.57 Q 495.28 520.66 493.94 521.13 Q 488.13 523.16 482.34 525.87 Q 484.92 523.66 486.00 523.09 Q 488.66 521.67 488.11 519.03 Z"/>
  <path fill="#ed9739" d=" M 218.84 555.14 Q 218.66 555.13 218.52 555.15 Q 218.11 555.23 218.32 555.58 Q 218.45 555.78 218.27 555.94 Q 218.00 556.17 217.65 556.12 Q 215.40 555.78 213.35 554.75 C 212.23 554.19 210.95 554.26 209.92 553.65 Q 195.94 545.44 183.89 533.52 Q 182.41 530.78 182.25 527.55 Q 182.15 525.38 183.63 526.97 Q 198.83 543.21 218.84 555.14 Z"/>
  <path fill="#000000" d=" M 244.56 539.10 C 251.20 555.55 263.30 567.12 278.10 574.79 C 283.68 577.68 289.25 580.14 294.25 583.31 A 0.63 0.63 0.0 0 1 294.06 584.45 Q 285.48 586.48 277.77 584.30 C 261.65 579.76 248.28 571.05 239.08 556.91 Q 233.49 548.32 231.65 536.97 C 231.51 536.11 231.81 535.69 232.27 535.05 Q 232.57 534.62 232.42 534.13 L 232.11 533.05 Q 234.39 527.46 239.15 530.05 Q 240.82 530.96 241.86 533.26 Q 243.35 536.56 244.56 539.10 Z"/>
  <path fill="#ffd855" d=" M 383.51 532.21 Q 383.90 532.14 383.96 532.19 A 0.76 0.75 37.2 0 1 384.10 533.19 Q 382.48 535.53 382.45 538.17 Q 382.53 536.32 381.35 536.31 L 383.51 532.21 Z"/>
  <path fill="#ffd855" d=" M 183.89 533.52 Q 195.94 545.44 209.92 553.65 C 210.95 554.26 212.23 554.19 213.35 554.75 Q 215.40 555.78 217.65 556.12 Q 218.00 556.17 218.27 555.94 Q 218.45 555.78 218.32 555.58 Q 218.11 555.23 218.52 555.15 Q 218.66 555.13 218.84 555.14 Q 224.07 557.96 229.58 560.37 Q 232.08 561.46 234.86 559.88 Q 239.04 567.64 243.94 572.31 Q 248.66 576.81 254.48 579.76 Q 258.13 581.60 261.17 583.23 Q 263.01 584.22 260.97 583.79 Q 239.83 579.33 220.31 568.81 C 215.36 566.14 211.45 563.25 207.14 559.61 Q 206.20 558.82 204.89 558.26 A 0.71 0.71 0.0 0 0 203.90 558.91 L 203.87 563.79 A 1.02 0.97 -63.2 0 0 204.04 564.35 Q 205.29 566.33 206.29 568.41 Q 207.01 569.93 207.97 571.01 Q 208.99 572.17 210.03 573.32 Q 212.21 575.75 212.65 578.74 Q 205.89 570.89 197.92 559.83 Q 188.96 547.39 183.89 533.52 Z"/>
  <path fill="#fefefe" d=" M 381.35 536.31 Q 382.53 536.32 382.45 538.17 Q 382.86 540.93 384.69 543.60 Q 382.27 553.76 378.95 564.01 C 375.84 573.61 372.61 583.60 370.51 592.63 Q 368.01 603.33 366.75 613.83 C 365.36 625.44 365.86 638.37 366.13 650.74 Q 366.16 652.13 364.46 651.82 Q 360.53 633.17 361.38 617.62 Q 363.64 576.39 381.35 536.31 Z"/>
  <path fill="#fefefe" d=" M 771.44 592.57 Q 771.69 593.19 771.58 593.69 Q 771.47 594.20 770.95 594.20 Q 766.73 594.25 762.73 595.21 C 760.37 595.78 758.02 595.89 755.63 596.39 Q 752.13 597.13 750.32 597.31 Q 748.27 597.51 746.43 597.70 Q 744.67 597.87 742.56 597.85 C 737.84 597.81 733.11 598.27 728.46 598.23 Q 711.32 598.08 695.94 596.72 C 679.84 595.29 663.15 592.13 647.37 587.10 Q 640.35 584.86 634.76 582.53 Q 628.99 580.13 623.49 577.81 Q 621.34 576.91 618.87 576.02 Q 616.32 575.11 613.51 573.35 C 612.11 572.47 611.70 570.93 611.15 569.49 Q 610.86 568.73 611.66 568.58 Q 612.12 568.49 612.92 568.79 L 616.70 570.98 A 1.06 1.01 -32.2 0 0 617.38 571.12 Q 617.53 571.10 617.69 571.11 Q 617.87 571.12 618.00 571.25 Q 618.61 571.87 619.39 571.88 Q 619.91 571.88 620.08 571.39 L 620.47 570.28 Q 620.66 569.74 621.22 569.86 L 623.02 570.24 Q 623.54 570.35 623.78 570.84 Q 623.95 571.18 624.32 571.00 Q 625.29 570.54 624.44 569.89 C 620.31 566.71 594.70 545.88 600.30 540.24 Q 601.02 539.51 603.44 537.91 Q 614.04 551.71 627.80 563.20 C 648.27 580.29 673.38 588.21 700.27 592.00 Q 722.54 595.14 744.08 593.56 Q 757.91 592.54 770.25 592.14 Q 770.71 592.12 771.44 592.57 Z"/>
  <path fill="#000000" d=" M 400.32 546.08 C 403.66 551.67 407.66 555.03 412.48 559.08 Q 413.63 560.04 414.02 561.19 C 414.79 563.46 413.40 565.14 411.06 565.01 Q 408.22 564.86 407.03 564.22 Q 396.59 558.62 392.34 547.37 Q 391.03 545.32 391.79 542.81 C 392.97 538.93 396.68 540.57 398.14 542.86 Q 399.71 545.34 400.32 546.08 Z"/>
  <path fill="#ffd855" d=" M 612.92 568.79 Q 612.12 568.49 611.66 568.58 Q 610.86 568.73 611.15 569.49 C 611.70 570.93 612.11 572.47 613.51 573.35 Q 616.32 575.11 618.87 576.02 Q 621.34 576.91 623.49 577.81 Q 628.99 580.13 634.76 582.53 Q 640.35 584.86 647.37 587.10 C 663.15 592.13 679.84 595.29 695.94 596.72 Q 711.32 598.08 728.46 598.23 C 733.11 598.27 737.84 597.81 742.56 597.85 Q 744.67 597.87 746.43 597.70 Q 748.27 597.51 750.32 597.31 Q 752.13 597.13 755.63 596.39 C 758.02 595.89 760.37 595.78 762.73 595.21 Q 766.73 594.25 770.95 594.20 Q 771.47 594.20 771.58 593.69 Q 771.69 593.19 771.44 592.57 Q 772.34 592.93 772.75 592.84 Q 776.71 591.93 780.67 593.36 Q 781.83 598.14 780.01 602.48 Q 778.01 607.25 773.50 613.28 Q 771.56 615.88 764.98 622.07 C 756.43 630.12 746.18 635.16 734.79 639.34 Q 721.78 644.11 709.58 646.55 C 705.08 647.44 700.51 647.47 695.91 647.80 Q 695.56 647.82 695.34 648.09 Q 695.11 648.35 694.79 648.37 Q 691.70 648.58 688.39 648.90 Q 688.26 648.92 688.27 649.05 Q 688.28 649.20 688.18 649.30 Q 688.02 649.47 687.81 649.49 Q 684.89 649.82 682.35 651.02 C 680.63 652.41 682.39 654.41 684.07 654.38 Q 689.02 656.50 694.32 656.99 Q 698.12 657.33 701.11 657.86 Q 704.43 658.45 707.97 658.26 A 1.71 1.68 58.5 0 1 708.94 658.50 Q 709.71 658.96 710.51 659.04 Q 717.29 659.66 723.99 659.68 Q 729.95 659.71 737.49 660.00 Q 744.14 660.27 751.07 659.94 Q 751.19 659.94 754.88 659.38 Q 757.45 659.00 759.21 660.19 Q 750.16 662.66 741.69 664.52 Q 738.07 665.32 734.73 666.04 Q 731.30 666.79 727.63 667.35 Q 703.98 670.92 679.65 672.53 Q 665.37 673.48 652.08 673.34 C 642.15 673.24 633.92 670.31 625.01 665.72 Q 622.28 664.31 620.15 661.78 C 617.82 659.01 611.18 657.72 607.28 656.45 A 0.84 0.84 0.0 0 0 606.19 657.34 C 606.44 659.73 610.46 662.93 611.99 663.95 Q 614.76 665.79 611.56 665.41 Q 611.01 665.34 610.34 664.58 Q 609.83 664.00 609.08 663.69 Q 604.55 661.80 599.96 660.02 Q 599.42 659.82 598.87 659.95 Q 596.37 660.57 594.71 660.04 Q 583.89 656.62 579.86 653.58 C 574.61 649.61 569.27 645.68 564.87 640.92 Q 556.38 631.72 547.30 619.24 Q 541.50 611.27 532.38 603.71 Q 530.95 600.83 530.39 599.87 Q 529.31 598.02 527.00 598.05 Q 522.64 598.09 521.04 601.94 Q 517.91 603.05 516.66 604.92 Q 514.30 608.45 514.13 614.75 Q 513.76 627.94 517.12 641.00 Q 524.12 668.19 541.72 688.91 Q 548.74 697.18 556.18 703.07 C 571.87 715.48 591.37 727.20 612.00 727.01 Q 616.08 726.97 618.76 729.40 Q 617.20 729.83 617.01 731.20 A 2.08 2.08 0.0 0 0 618.29 733.41 Q 621.16 734.59 623.78 734.75 Q 627.71 738.12 626.97 740.96 Q 613.25 742.69 600.96 746.21 A 1.95 1.94 51.2 0 0 600.57 749.79 L 601.92 750.52 Q 601.82 752.32 600.51 753.81 Q 600.18 754.18 599.68 754.14 Q 598.22 753.99 596.80 754.23 Q 596.11 754.35 594.49 754.38 Q 593.32 754.40 592.16 754.95 L 569.89 757.06 C 569.02 755.70 567.63 754.64 565.96 754.79 Q 563.26 755.04 560.49 755.21 Q 559.88 755.25 559.69 755.83 Q 559.07 757.68 560.75 758.59 Q 563.00 759.80 568.92 761.04 L 572.38 762.54 Q 572.43 764.07 570.92 764.38 A 1.08 1.07 60.8 0 1 569.99 764.11 Q 567.67 761.91 565.26 761.86 Q 546.13 761.40 532.31 759.66 Q 498.90 755.44 467.25 742.22 C 459.73 739.07 452.24 734.83 444.89 730.82 Q 426.18 720.61 410.61 708.69 C 405.69 704.92 399.95 701.70 395.24 697.46 Q 383.77 687.15 375.45 672.69 C 373.45 669.22 370.80 666.49 367.96 663.76 L 364.46 651.82 Q 366.16 652.13 366.13 650.74 C 365.86 638.37 365.36 625.44 366.75 613.83 Q 368.01 603.33 370.51 592.63 C 372.61 583.60 375.84 573.61 378.95 564.01 Q 382.27 553.76 384.69 543.60 L 392.34 547.37 Q 396.59 558.62 407.03 564.22 Q 408.22 564.86 411.06 565.01 C 413.40 565.14 414.79 563.46 414.02 561.19 Q 413.63 560.04 412.48 559.08 C 407.66 555.03 403.66 551.67 400.32 546.08 Q 401.75 545.96 403.22 546.94 Q 404.87 548.04 405.78 548.35 Q 410.29 549.87 414.76 551.51 Q 417.03 552.34 419.12 553.07 C 418.29 558.28 427.88 564.06 431.98 565.83 C 435.46 567.33 440.49 568.56 441.72 563.68 Q 441.87 563.08 441.48 562.60 Q 439.94 560.76 437.77 559.64 Q 429.52 555.35 421.19 549.89 Q 420.13 547.93 418.29 546.69 Q 415.49 544.78 413.78 543.06 Q 412.32 541.59 414.08 542.69 Q 420.08 546.45 427.33 547.77 Q 439.57 550.01 451.12 550.10 Q 460.09 550.17 471.10 549.07 C 489.55 547.23 506.52 545.82 524.73 545.09 Q 557.14 543.80 587.46 556.08 Q 594.36 558.87 610.50 567.02 Q 611.48 567.51 612.92 568.79 Z M 406.6264 582.1746 A 3.22 2.18 97.2 0 0 409.1928 579.2532 A 3.22 2.18 97.2 0 0 407.4336 575.7854 A 3.22 2.18 97.2 0 0 404.8672 578.7068 A 3.22 2.18 97.2 0 0 406.6264 582.1746 Z M 390.2137 594.2260 A 3.91 1.97 101.9 0 0 392.9477 590.8062 A 3.91 1.97 101.9 0 0 391.8263 586.5740 A 3.91 1.97 101.9 0 0 389.0923 589.9938 A 3.91 1.97 101.9 0 0 390.2137 594.2260 Z M 408.76 620.75 L 409.44 617.52 A 0.26 0.26 0.0 0 0 409.24 617.21 L 409.10 617.18 A 1.74 1.54 -78.0 0 0 407.24 618.56 L 407.17 618.89 A 1.74 1.54 -78.0 0 0 408.31 620.92 L 408.45 620.95 A 0.26 0.26 0.0 0 0 408.76 620.75 Z M 392.8083 638.7548 A 7.31 2.85 93.7 0 0 396.1241 631.6439 A 7.31 2.85 93.7 0 0 393.7517 624.1652 A 7.31 2.85 93.7 0 0 390.4359 631.2761 A 7.31 2.85 93.7 0 0 392.8083 638.7548 Z M 610.7814 633.2583 A 6.60 3.74 31.6 0 0 607.1197 626.6145 A 6.60 3.74 31.6 0 0 599.5386 626.3417 A 6.60 3.74 31.6 0 0 603.2003 632.9855 A 6.60 3.74 31.6 0 0 610.7814 633.2583 Z M 599.85 639.94 A 1.65 1.65 0.0 0 0 602.17 637.68 L 599.96 634.31 A 1.65 1.65 0.0 0 0 599.59 633.90 L 592.76 628.65 A 1.65 1.65 0.0 0 0 590.12 630.23 L 590.58 632.97 A 1.65 1.65 0.0 0 0 591.28 634.06 L 599.85 639.94 Z M 577.6682 639.0049 A 6.46 2.96 43.6 0 0 575.0313 632.4065 A 6.46 2.96 43.6 0 0 568.3118 630.0951 A 6.46 2.96 43.6 0 0 570.9487 636.6935 A 6.46 2.96 43.6 0 0 577.6682 639.0049 Z M 617.1810 648.6016 A 3.68 1.87 28.6 0 0 614.8452 645.1982 A 3.68 1.87 28.6 0 0 610.7190 645.0784 A 3.68 1.87 28.6 0 0 613.0548 648.4818 A 3.68 1.87 28.6 0 0 617.1810 648.6016 Z M 595.76 658.61 A 0.96 0.96 0.0 0 0 596.89 657.32 Q 595.99 655.10 594.19 653.41 Q 588.35 647.95 582.85 644.98 A 1.26 1.25 25.8 0 0 581.11 645.58 C 580.78 646.32 580.91 647.66 581.35 648.35 Q 586.28 656.20 595.76 658.61 Z M 372.61 655.54 Q 374.29 659.37 375.96 661.96 Q 376.92 663.45 379.12 663.16 A 1.32 1.32 0.0 0 0 380.09 662.50 C 381.86 659.31 378.96 653.06 377.31 649.47 Q 376.02 646.63 374.08 649.08 L 373.32 650.03 Q 371.31 652.58 372.61 655.54 Z M 663.1505 655.2344 A 1.16 1.16 0.0 0 0 662.1655 653.9225 L 658.9380 653.4632 A 1.16 1.16 0.0 0 0 657.6262 654.4482 L 657.5895 654.7056 A 1.16 1.16 0.0 0 0 658.5745 656.0175 L 661.8020 656.4768 A 1.16 1.16 0.0 0 0 663.1138 655.4918 L 663.1505 655.2344 Z M 630.65 660.21 Q 630.33 662.20 631.81 663.30 Q 638.09 667.96 645.28 668.16 A 2.38 2.37 16.7 0 0 647.37 667.04 C 648.44 665.32 647.42 664.13 645.93 663.47 Q 639.54 660.63 632.59 658.93 Q 630.93 658.52 630.65 660.21 Z M 673.25 668.25 Q 674.67 668.30 675.27 666.88 Q 675.34 666.71 675.31 666.51 A 2.39 2.04 -89.7 0 0 673.72 664.63 Q 665.55 662.67 656.27 661.94 A 1.12 1.12 0.0 0 0 655.34 663.79 C 658.39 667.25 667.24 668.07 673.25 668.25 Z M 392.7846 689.6161 A 4.40 0.90 52.4 0 0 390.8131 685.5809 A 4.40 0.90 52.4 0 0 387.4154 682.6439 A 4.40 0.90 52.4 0 0 389.3869 686.6791 A 4.40 0.90 52.4 0 0 392.7846 689.6161 Z M 574.80 744.92 C 580.49 745.49 586.60 745.70 592.47 745.22 Q 594.50 745.05 596.00 743.41 A 1.61 1.60 36.6 0 0 595.63 740.95 Q 593.91 739.92 591.99 739.83 Q 581.80 739.34 573.33 740.17 A 1.97 1.97 0.0 0 0 571.87 743.21 Q 572.85 744.72 574.80 744.92 Z"/>
  <path fill="#000000" d=" M 421.19 549.89 Q 429.52 555.35 437.77 559.64 Q 439.94 560.76 441.48 562.60 Q 441.87 563.08 441.72 563.68 C 440.49 568.56 435.46 567.33 431.98 565.83 C 427.88 564.06 418.29 558.28 419.12 553.07 L 421.19 549.89 Z"/>
  <path fill="#ed9739" d=" M 757.13 574.15 L 766.66 568.35 A 0.33 0.33 0.0 0 1 767.13 568.47 L 768.46 570.94 A 0.33 0.33 0.0 0 1 768.50 571.14 L 768.10 574.30 A 0.33 0.33 0.0 0 1 767.77 574.58 L 757.31 574.76 A 0.33 0.33 0.0 0 1 757.13 574.15 Z"/>
  <ellipse fill="#fefefe" cx="0.00" cy="0.00" transform="translate(407.03,578.98) rotate(97.2)" rx="3.22" ry="2.18"/>
  <ellipse fill="#fefefe" cx="0.00" cy="0.00" transform="translate(391.02,590.40) rotate(101.9)" rx="3.91" ry="1.97"/>
  <path fill="#ed9739" d=" M 780.67 593.36 L 784.33 594.38 A 1.59 1.54 81.2 0 1 785.26 595.08 C 787.67 598.97 786.93 604.84 785.28 609.00 C 777.46 628.73 756.84 640.97 736.53 645.20 Q 714.34 649.82 707.75 650.02 Q 697.80 650.31 688.04 650.37 L 682.35 651.02 Q 684.89 649.82 687.81 649.49 Q 688.02 649.47 688.18 649.30 Q 688.28 649.20 688.27 649.05 Q 688.26 648.92 688.39 648.90 Q 691.70 648.58 694.79 648.37 Q 695.11 648.35 695.34 648.09 Q 695.56 647.82 695.91 647.80 C 700.51 647.47 705.08 647.44 709.58 646.55 Q 721.78 644.11 734.79 639.34 C 746.18 635.16 756.43 630.12 764.98 622.07 Q 771.56 615.88 773.50 613.28 Q 778.01 607.25 780.01 602.48 Q 781.83 598.14 780.67 593.36 Z"/>
  <path fill="#ed9739" d=" M 521.04 601.94 Q 518.77 618.66 525.52 634.26 Q 535.25 656.73 554.40 675.02 Q 589.61 708.66 638.33 715.09 Q 640.97 715.44 643.52 715.39 A 0.19 0.17 -13.5 0 1 643.68 715.48 L 643.89 715.81 A 0.57 0.57 0.0 0 1 643.50 716.66 Q 640.14 717.23 636.34 718.05 C 634.24 718.51 633.62 720.72 635.56 721.84 Q 636.58 722.43 637.52 722.45 Q 643.38 722.57 648.50 722.04 Q 653.39 721.53 659.41 718.58 Q 661.57 717.53 663.95 717.32 Q 673.80 716.44 683.30 715.13 C 685.37 714.85 689.53 714.74 692.62 713.90 Q 695.15 713.21 697.52 712.91 Q 700.72 712.50 703.37 711.55 Q 706.17 710.55 704.07 712.66 C 694.01 722.79 682.37 732.15 669.80 739.85 Q 662.18 744.51 655.67 748.34 Q 637.47 759.02 623.96 764.09 C 611.69 768.71 597.96 772.63 584.83 775.14 Q 571.84 777.61 559.79 778.67 C 550.63 779.48 541.53 779.76 531.77 779.08 Q 521.14 778.33 517.76 777.96 Q 464.20 772.01 421.36 739.90 C 408.80 730.49 398.28 718.93 389.08 706.16 Q 376.76 689.07 369.52 669.09 Q 368.60 666.53 367.96 663.76 C 370.80 666.49 373.45 669.22 375.45 672.69 Q 383.77 687.15 395.24 697.46 C 399.95 701.70 405.69 704.92 410.61 708.69 Q 426.18 720.61 444.89 730.82 C 452.24 734.83 459.73 739.07 467.25 742.22 Q 498.90 755.44 532.31 759.66 Q 546.13 761.40 565.26 761.86 Q 567.67 761.91 569.99 764.11 A 1.08 1.07 60.8 0 0 570.92 764.38 Q 572.43 764.07 572.38 762.54 Q 583.86 764.12 595.25 761.55 Q 598.76 760.76 600.95 758.37 Q 602.63 756.54 600.41 755.44 C 598.69 754.58 594.25 755.01 592.16 754.95 Q 593.32 754.40 594.49 754.38 Q 596.11 754.35 596.80 754.23 Q 598.22 753.99 599.68 754.14 Q 600.18 754.18 600.51 753.81 Q 601.82 752.32 601.92 750.52 Q 618.72 753.47 633.33 745.74 Q 634.76 744.98 635.48 743.83 Q 636.75 741.81 634.50 741.04 Q 630.42 739.64 626.97 740.96 Q 627.71 738.12 623.78 734.75 Q 630.91 735.54 637.20 733.58 C 640.33 732.60 642.28 731.94 642.79 728.56 A 1.64 1.64 0.0 0 0 641.14 726.67 Q 629.48 726.83 618.76 729.40 Q 616.08 726.97 612.00 727.01 C 591.37 727.20 571.87 715.48 556.18 703.07 Q 548.74 697.18 541.72 688.91 Q 524.12 668.19 517.12 641.00 Q 513.76 627.94 514.13 614.75 Q 514.30 608.45 516.66 604.92 Q 517.91 603.05 521.04 601.94 Z M 670.29 728.06 C 673.85 726.76 680.57 722.92 679.95 718.64 A 0.93 0.93 0.0 0 0 678.75 717.88 Q 667.98 721.22 657.89 726.30 Q 656.85 726.82 656.54 727.53 Q 655.93 728.94 657.38 729.60 C 661.24 731.33 666.48 729.46 670.29 728.06 Z M 656.60 742.66 C 658.61 742.18 660.41 742.09 662.32 741.35 Q 670.84 738.04 676.98 732.95 Q 678.18 731.95 678.02 730.37 Q 677.76 727.87 675.41 728.76 Q 665.11 732.68 654.81 737.31 C 653.52 737.89 652.66 738.08 652.61 739.74 C 652.53 742.09 654.33 743.19 656.60 742.66 Z M 614.72 763.06 C 621.34 762.69 628.62 760.45 633.99 757.11 Q 635.87 755.94 635.17 753.83 A 1.98 1.97 -10.5 0 0 633.20 752.48 Q 628.59 752.69 623.13 754.20 C 618.85 755.39 613.81 756.35 609.78 758.41 A 1.48 1.47 54.0 0 0 609.41 760.77 Q 611.87 763.22 614.72 763.06 Z M 573.76 772.18 Q 581.48 772.76 588.97 769.85 A 1.56 1.56 0.0 0 0 589.95 768.25 C 589.67 765.27 582.77 765.92 580.88 766.30 Q 576.47 767.18 572.19 767.64 Q 569.74 767.90 570.02 770.18 Q 570.08 770.66 570.46 770.97 Q 571.81 772.04 573.76 772.18 Z"/>
  <path fill="#ed9739" d=" M 532.38 603.71 Q 541.50 611.27 547.30 619.24 Q 556.38 631.72 564.87 640.92 C 569.27 645.68 574.61 649.61 579.86 653.58 Q 583.89 656.62 594.71 660.04 Q 596.37 660.57 598.87 659.95 Q 599.42 659.82 599.96 660.02 Q 604.55 661.80 609.08 663.69 Q 609.83 664.00 610.34 664.58 Q 611.01 665.34 611.56 665.41 Q 614.76 665.79 611.99 663.95 C 610.46 662.93 606.44 659.73 606.19 657.34 A 0.84 0.84 0.0 0 1 607.28 656.45 C 611.18 657.72 617.82 659.01 620.15 661.78 Q 622.28 664.31 625.01 665.72 C 633.92 670.31 642.15 673.24 652.08 673.34 Q 665.37 673.48 679.65 672.53 Q 703.98 670.92 727.63 667.35 Q 731.30 666.79 734.73 666.04 Q 738.07 665.32 741.69 664.52 Q 750.16 662.66 759.21 660.19 L 763.92 660.25 A 0.84 0.83 -71.6 0 1 764.58 661.58 C 759.12 668.96 750.19 673.94 742.00 677.58 Q 716.22 689.04 687.50 690.99 Q 681.95 691.37 676.54 692.04 C 670.76 692.75 665.13 692.02 659.47 692.19 Q 634.27 692.94 608.90 683.47 C 584.18 674.25 562.52 655.89 547.54 634.25 Q 538.07 620.59 532.38 603.71 Z M 611.7147 674.5671 A 7.44 2.41 24.6 0 0 605.9532 669.2787 A 7.44 2.41 24.6 0 0 598.1853 668.3729 A 7.44 2.41 24.6 0 0 603.9468 673.6613 A 7.44 2.41 24.6 0 0 611.7147 674.5671 Z M 644.24 681.71 C 641.24 680.94 636.82 679.33 632.83 679.03 A 1.05 1.04 -12.7 0 0 631.84 680.59 C 634.51 685.24 644.58 686.94 649.46 687.13 A 1.44 1.44 0.0 0 0 650.93 685.96 Q 651.37 683.60 649.50 683.10 Q 646.88 682.39 644.24 681.71 Z"/>
  <path fill="#fefefe" d=" M 408.76 620.75 A 0.26 0.26 0.0 0 1 408.45 620.95 L 408.31 620.92 A 1.74 1.54 -78.0 0 1 407.17 618.89 L 407.24 618.56 A 1.74 1.54 -78.0 0 1 409.10 617.18 L 409.24 617.21 A 0.26 0.26 0.0 0 1 409.44 617.52 L 408.76 620.75 Z"/>
  <ellipse fill="#fefefe" cx="0.00" cy="0.00" transform="translate(393.28,631.46) rotate(93.7)" rx="7.31" ry="2.85"/>
  <ellipse fill="#fefefe" cx="0.00" cy="0.00" transform="translate(605.16,629.80) rotate(31.6)" rx="6.60" ry="3.74"/>
  <ellipse fill="#c1491c" cx="0.00" cy="0.00" transform="translate(330.31,629.60) rotate(14.1)" rx="3.30" ry="2.02"/>
  <path fill="#ed9739" d=" M 599.85 639.94 L 591.28 634.06 A 1.65 1.65 0.0 0 1 590.58 632.97 L 590.12 630.23 A 1.65 1.65 0.0 0 1 592.76 628.65 L 599.59 633.90 A 1.65 1.65 0.0 0 1 599.96 634.31 L 602.17 637.68 A 1.65 1.65 0.0 0 1 599.85 639.94 Z"/>
  <ellipse fill="#ed9739" cx="0.00" cy="0.00" transform="translate(572.99,634.55) rotate(43.6)" rx="6.46" ry="2.96"/>
  <ellipse fill="#c1491c" cx="0.00" cy="0.00" transform="translate(318.90,639.57) rotate(12.6)" rx="7.63" ry="2.34"/>
  <ellipse fill="#ed9739" cx="0.00" cy="0.00" transform="translate(613.95,646.84) rotate(28.6)" rx="3.68" ry="1.87"/>
  <path fill="#ed9739" d=" M 595.76 658.61 Q 586.28 656.20 581.35 648.35 C 580.91 647.66 580.78 646.32 581.11 645.58 A 1.26 1.25 25.8 0 1 582.85 644.98 Q 588.35 647.95 594.19 653.41 Q 595.99 655.10 596.89 657.32 A 0.96 0.96 0.0 0 1 595.76 658.61 Z"/>
  <path fill="#fefefe" d=" M 372.61 655.54 Q 371.31 652.58 373.32 650.03 L 374.08 649.08 Q 376.02 646.63 377.31 649.47 C 378.96 653.06 381.86 659.31 380.09 662.50 A 1.32 1.32 0.0 0 1 379.12 663.16 Q 376.92 663.45 375.96 661.96 Q 374.29 659.37 372.61 655.54 Z"/>
  <path fill="#c1491c" d=" M 688.04 650.37 Q 686.41 651.25 684.56 651.56 Q 684.06 651.64 683.85 652.10 Q 683.32 653.26 684.07 654.38 C 682.39 654.41 680.63 652.41 682.35 651.02 L 688.04 650.37 Z"/>
  <rect fill="#ed9739" x="-2.79" y="-1.29" transform="translate(660.37,654.97) rotate(8.1)" width="5.58" height="2.58" rx="1.16"/>
  <path fill="#ed9739" d=" M 630.65 660.21 Q 630.93 658.52 632.59 658.93 Q 639.54 660.63 645.93 663.47 C 647.42 664.13 648.44 665.32 647.37 667.04 A 2.38 2.37 16.7 0 1 645.28 668.16 Q 638.09 667.96 631.81 663.30 Q 630.33 662.20 630.65 660.21 Z"/>
  <path fill="#ed9739" d=" M 673.25 668.25 C 667.24 668.07 658.39 667.25 655.34 663.79 A 1.12 1.12 0.0 0 1 656.27 661.94 Q 665.55 662.67 673.72 664.63 A 2.39 2.04 -89.7 0 1 675.31 666.51 Q 675.34 666.71 675.27 666.88 Q 674.67 668.30 673.25 668.25 Z"/>
  <ellipse fill="#c1491c" cx="0.00" cy="0.00" transform="translate(604.95,671.47) rotate(24.6)" rx="7.44" ry="2.41"/>
  <path fill="#c1491c" d=" M 644.24 681.71 Q 646.88 682.39 649.50 683.10 Q 651.37 683.60 650.93 685.96 A 1.44 1.44 0.0 0 1 649.46 687.13 C 644.58 686.94 634.51 685.24 631.84 680.59 A 1.05 1.04 -12.7 0 1 632.83 679.03 C 636.82 679.33 641.24 680.94 644.24 681.71 Z"/>
  <ellipse fill="#ff9145" cx="0.00" cy="0.00" transform="translate(390.10,686.13) rotate(52.4)" rx="4.40" ry="0.90"/>
  <path fill="#000000" d=" M 670.29 728.06 C 666.48 729.46 661.24 731.33 657.38 729.60 Q 655.93 728.94 656.54 727.53 Q 656.85 726.82 657.89 726.30 Q 667.98 721.22 678.75 717.88 A 0.93 0.93 0.0 0 1 679.95 718.64 C 680.57 722.92 673.85 726.76 670.29 728.06 Z"/>
  <path fill="#000000" d=" M 623.78 734.75 Q 621.16 734.59 618.29 733.41 A 2.08 2.08 0.0 0 1 617.01 731.20 Q 617.20 729.83 618.76 729.40 Q 629.48 726.83 641.14 726.67 A 1.64 1.64 0.0 0 1 642.79 728.56 C 642.28 731.94 640.33 732.60 637.20 733.58 Q 630.91 735.54 623.78 734.75 Z"/>
  <path fill="#000000" d=" M 656.60 742.66 C 654.33 743.19 652.53 742.09 652.61 739.74 C 652.66 738.08 653.52 737.89 654.81 737.31 Q 665.11 732.68 675.41 728.76 Q 677.76 727.87 678.02 730.37 Q 678.18 731.95 676.98 732.95 Q 670.84 738.04 662.32 741.35 C 660.41 742.09 658.61 742.18 656.60 742.66 Z"/>
  <path fill="#ed9739" d=" M 592.47 745.22 C 586.60 745.70 580.49 745.49 574.80 744.92 Q 572.85 744.72 571.87 743.21 A 1.97 1.97 0.0 0 1 573.33 740.17 Q 581.80 739.34 591.99 739.83 Q 593.91 739.92 595.63 740.95 A 1.61 1.60 36.6 0 1 596.00 743.41 Q 594.50 745.05 592.47 745.22 Z"/>
  <path fill="#000000" d=" M 601.92 750.52 L 600.57 749.79 A 1.95 1.94 51.2 0 1 600.96 746.21 Q 613.25 742.69 626.97 740.96 Q 630.42 739.64 634.50 741.04 Q 636.75 741.81 635.48 743.83 Q 634.76 744.98 633.33 745.74 Q 618.72 753.47 601.92 750.52 Z"/>
  <path fill="#000000" d=" M 614.72 763.06 Q 611.87 763.22 609.41 760.77 A 1.48 1.47 54.0 0 1 609.78 758.41 C 613.81 756.35 618.85 755.39 623.13 754.20 Q 628.59 752.69 633.20 752.48 A 1.98 1.97 -10.5 0 1 635.17 753.83 Q 635.87 755.94 633.99 757.11 C 628.62 760.45 621.34 762.69 614.72 763.06 Z"/>
  <path fill="#ed9739" d=" M 569.89 757.06 Q 568.01 758.38 568.92 761.04 Q 563.00 759.80 560.75 758.59 Q 559.07 757.68 559.69 755.83 Q 559.88 755.25 560.49 755.21 Q 563.26 755.04 565.96 754.79 C 567.63 754.64 569.02 755.70 569.89 757.06 Z"/>
  <path fill="#000000" d=" M 592.16 754.95 C 594.25 755.01 598.69 754.58 600.41 755.44 Q 602.63 756.54 600.95 758.37 Q 598.76 760.76 595.25 761.55 Q 583.86 764.12 572.38 762.54 L 568.92 761.04 Q 568.01 758.38 569.89 757.06 L 592.16 754.95 Z"/>
  <path fill="#000000" d=" M 573.76 772.18 Q 571.81 772.04 570.46 770.97 Q 570.08 770.66 570.02 770.18 Q 569.74 767.90 572.19 767.64 Q 576.47 767.18 580.88 766.30 C 582.77 765.92 589.67 765.27 589.95 768.25 A 1.56 1.56 0.0 0 1 588.97 769.85 Q 581.48 772.76 573.76 772.18 Z"/>
  <path fill="#c1491c" d=" M 682.98 861.80 Q 683.87 857.18 682.50 851.50 Q 679.29 838.10 676.12 827.39 Q 674.50 821.89 671.48 817.02 C 665.84 807.94 653.71 808.88 644.99 806.53 Q 629.89 802.46 613.00 798.38 Q 608.68 797.34 607.60 798.53 L 601.66 794.69 Q 601.06 794.30 601.76 794.13 Q 607.00 792.89 612.14 791.42 C 614.23 790.82 616.33 790.39 618.32 791.63 Q 625.63 796.17 631.88 798.61 Q 639.13 801.43 649.10 802.76 Q 652.65 803.23 655.35 803.84 C 660.24 804.94 665.90 805.72 670.01 807.24 Q 673.77 808.63 676.27 813.58 C 682.26 825.50 684.63 839.42 686.63 852.08 Q 687.33 856.48 686.30 861.15 A 1.74 1.74 0.0 0 1 684.05 862.42 Q 683.03 862.08 682.98 861.80 Z"/>
  <path fill="#ff9145" d=" M 473.24 791.90 Q 473.23 794.00 473.04 796.29 Q 472.83 798.76 472.98 800.68 Q 473.28 804.71 473.61 808.55 C 474.12 814.50 475.67 820.07 476.06 826.12 C 476.12 827.09 476.07 828.66 475.21 829.31 Q 474.53 829.83 473.95 829.46 Q 471.20 825.89 468.34 822.40 Q 467.66 821.57 467.26 820.32 A 1.42 1.40 47.7 0 1 467.30 819.32 C 468.57 816.27 468.39 813.23 468.91 810.03 Q 470.28 801.50 471.82 793.00 Q 472.06 791.69 473.24 791.90 Z"/>
  <path fill="#c1491c" d=" M 473.24 791.90 Q 474.25 792.16 477.20 793.37 C 478.60 793.94 479.20 794.61 479.13 796.23 C 478.76 805.30 479.06 813.52 481.97 822.18 C 484.16 828.70 488.94 835.73 492.82 841.94 Q 493.58 843.16 493.96 844.53 Q 494.10 845.04 493.88 845.52 Q 492.84 847.84 490.86 849.19 C 485.95 852.54 479.87 854.36 474.36 856.47 Q 470.00 858.14 465.50 859.61 Q 451.37 864.19 436.61 868.90 C 433.05 870.03 429.17 870.51 425.78 869.46 Q 424.31 869.01 424.24 867.12 C 427.15 868.45 429.68 867.20 432.53 866.74 Q 435.40 866.27 437.79 865.02 C 442.60 862.50 447.50 859.92 452.74 858.25 Q 468.34 853.27 480.38 848.34 Q 482.07 847.64 483.73 846.59 A 2.07 2.06 70.3 0 0 484.67 844.59 Q 484.26 841.38 481.27 840.63 C 476.49 839.43 472.06 837.90 467.39 835.68 Q 464.02 834.08 459.49 833.03 Q 454.28 831.82 449.00 830.91 Q 444.50 830.14 440.09 829.47 Q 444.20 828.05 448.44 826.82 Q 451.73 825.87 454.23 826.06 C 458.65 826.40 462.59 828.78 466.45 830.57 C 467.83 831.21 473.50 832.16 473.95 829.46 Q 474.53 829.83 475.21 829.31 C 476.07 828.66 476.12 827.09 476.06 826.12 C 475.67 820.07 474.12 814.50 473.61 808.55 Q 473.28 804.71 472.98 800.68 Q 472.83 798.76 473.04 796.29 Q 473.23 794.00 473.24 791.90 Z"/>
  <path fill="#ff9145" d=" M 682.98 861.80 L 665.13 853.30 L 663.78 852.00 Q 663.44 851.67 662.97 851.57 C 662.08 851.40 661.37 850.55 660.78 850.31 Q 651.68 846.61 645.83 853.43 Q 639.32 861.02 634.76 873.13 C 634.06 874.98 632.83 876.62 631.75 878.23 Q 630.87 879.54 628.65 879.22 Q 625.01 867.60 624.82 854.69 Q 625.38 849.90 626.10 845.11 Q 626.48 842.49 627.32 839.99 C 628.79 835.56 629.55 831.11 634.56 829.40 Q 642.83 826.58 649.66 822.93 Q 653.51 820.87 653.88 815.26 Q 649.46 813.99 644.98 813.09 Q 638.86 811.85 636.08 810.99 Q 621.41 806.45 607.60 798.53 Q 608.68 797.34 613.00 798.38 Q 629.89 802.46 644.99 806.53 C 653.71 808.88 665.84 807.94 671.48 817.02 Q 674.50 821.89 676.12 827.39 Q 679.29 838.10 682.50 851.50 Q 683.87 857.18 682.98 861.80 Z"/>
  <path fill="#c1491c" d=" M 653.88 815.26 Q 653.51 820.87 649.66 822.93 Q 642.83 826.58 634.56 829.40 C 629.55 831.11 628.79 835.56 627.32 839.99 Q 626.48 842.49 626.10 845.11 Q 625.38 849.90 624.82 854.69 C 623.45 843.98 622.32 832.78 623.72 821.96 Q 623.83 821.04 624.76 821.04 Q 628.86 821.01 632.82 821.72 Q 639.15 822.85 645.76 820.50 Q 647.70 819.80 649.93 818.10 Q 651.71 816.75 653.88 815.26 Z"/>
  <path fill="#fefefe" d=" M 522.54 825.76 L 506.29 825.92 Q 506.27 825.65 505.85 825.62 Q 505.45 825.60 505.72 825.30 Q 505.84 825.16 506.12 825.15 Q 513.44 825.10 522.54 825.76 Z"/>
  <path fill="#364c4d" d=" M 506.29 825.92 L 522.54 825.76 Q 525.09 826.64 528.54 826.18 L 552.58 826.59 L 580.49 826.99 Q 589.78 827.31 599.00 827.97 Q 600.59 828.09 604.79 827.71 Q 604.90 838.27 604.91 848.75 Q 604.92 854.47 606.89 865.72 C 609.47 880.50 617.13 903.00 637.47 897.22 Q 646.28 894.72 651.19 887.78 Q 655.39 881.84 659.13 874.93 Q 660.97 871.54 664.49 873.27 Q 671.75 876.85 678.80 879.29 C 689.43 882.95 700.71 879.27 702.87 867.00 Q 704.62 857.01 703.90 850.74 Q 703.08 843.62 702.45 836.18 L 713.28 837.10 L 740.36 840.60 L 765.91 845.05 Q 778.88 847.40 790.78 850.60 Q 799.47 852.93 807.73 856.47 Q 815.55 859.82 819.65 863.09 Q 822.09 865.03 823.14 869.92 Q 822.90 873.44 820.13 876.13 Q 816.91 879.26 812.90 881.32 Q 803.83 886.00 794.49 888.83 Q 779.85 892.93 770.93 894.64 C 760.48 896.65 749.61 899.18 739.22 900.69 Q 714.70 904.24 688.83 907.04 C 685.87 907.36 682.98 908.14 680.00 908.31 Q 670.15 908.85 660.27 909.80 L 633.89 911.72 L 579.99 913.88 L 554.20 914.46 L 525.65 914.66 L 500.13 914.76 L 473.38 914.33 L 445.93 913.94 L 392.94 910.93 Q 384.25 910.28 375.50 909.78 Q 369.48 909.43 356.79 907.79 Q 352.73 907.26 348.17 906.99 Q 344.10 906.75 339.51 906.39 L 285.57 899.34 L 258.34 894.28 Q 244.71 891.27 231.09 886.52 Q 227.67 885.04 223.30 882.95 C 219.32 881.04 215.10 878.38 212.58 874.61 C 206.26 865.13 226.26 858.26 231.77 855.85 Q 238.88 853.19 246.25 851.29 Q 265.62 846.31 285.27 843.15 L 312.09 839.26 L 338.97 835.74 L 366.08 833.30 Q 374.24 832.31 382.50 831.55 Q 387.19 831.12 391.71 829.83 Q 388.27 833.69 384.42 837.18 Q 382.42 839.00 379.77 845.18 Q 377.33 850.88 379.79 856.25 C 384.53 866.63 397.67 865.88 407.20 866.85 A 1.07 1.07 0.0 0 1 408.16 867.84 Q 408.44 871.89 409.43 875.66 C 412.25 886.33 426.54 887.70 435.43 886.54 C 451.41 884.44 466.15 879.74 481.43 873.73 Q 490.82 870.04 499.99 865.03 Q 503.62 863.04 506.67 860.04 C 511.11 855.66 512.09 848.54 510.68 842.75 Q 508.95 835.64 504.12 829.77 C 503.24 828.70 502.90 827.52 502.45 826.28 L 506.29 825.92 Z"/>
  <path fill="#ff9145" d=" M 440.09 829.47 Q 444.50 830.14 449.00 830.91 Q 454.28 831.82 459.49 833.03 Q 464.02 834.08 467.39 835.68 C 472.06 837.90 476.49 839.43 481.27 840.63 Q 484.26 841.38 484.67 844.59 A 2.07 2.06 70.3 0 1 483.73 846.59 Q 482.07 847.64 480.38 848.34 Q 468.34 853.27 452.74 858.25 C 447.50 859.92 442.60 862.50 437.79 865.02 Q 435.40 866.27 432.53 866.74 C 429.68 867.20 427.15 868.45 424.24 867.12 Q 424.19 867.49 423.90 866.76 C 424.17 863.14 427.50 858.51 429.79 856.09 Q 435.05 850.56 439.77 845.27 Q 440.48 844.47 440.23 843.55 A 1.70 1.69 75.5 0 0 438.19 842.34 Q 431.74 843.92 425.50 845.26 Q 423.68 845.65 421.51 845.66 Q 419.50 845.67 417.47 846.01 Q 416.87 846.12 417.45 846.29 Q 418.19 846.51 419.23 846.37 Q 413.86 847.30 408.50 847.93 Q 403.73 848.49 399.65 847.81 Q 397.40 847.44 399.32 846.20 Q 407.27 841.08 416.91 837.15 Q 424.52 834.04 440.09 829.47 Z"/>
  <path fill="#c1491c" d=" M 423.90 866.76 C 421.32 860.40 425.51 854.86 428.97 849.83 A 1.45 1.43 -50.9 0 0 428.79 847.98 Q 427.44 846.69 425.63 846.12 Q 424.04 845.62 419.23 846.37 Q 418.19 846.51 417.45 846.29 Q 416.87 846.12 417.47 846.01 Q 419.50 845.67 421.51 845.66 Q 423.68 845.65 425.50 845.26 Q 431.74 843.92 438.19 842.34 A 1.70 1.69 75.5 0 1 440.23 843.55 Q 440.48 844.47 439.77 845.27 Q 435.05 850.56 429.79 856.09 C 427.50 858.51 424.17 863.14 423.90 866.76 Z"/>
  <path fill="#c1491c" d=" M 665.13 853.30 C 660.83 852.54 655.99 852.17 652.25 854.50 Q 647.41 857.53 645.09 862.37 Q 641.88 869.10 638.44 875.48 Q 636.61 878.86 633.49 880.94 Q 631.96 881.96 630.82 881.46 Q 629.60 880.93 628.65 879.22 Q 630.87 879.54 631.75 878.23 C 632.83 876.62 634.06 874.98 634.76 873.13 Q 639.32 861.02 645.83 853.43 Q 651.68 846.61 660.78 850.31 C 661.37 850.55 662.08 851.40 662.97 851.57 Q 663.44 851.67 663.78 852.00 L 665.13 853.30 Z"/>
  <path fill="#fefefe" d=" M 293.98 1024.00 L 288.43 1024.00 Q 291.18 1023.52 293.98 1024.00 Z"/>
  <path fill="#fefefe" d=" M 415.01 1024.00 L 396.12 1024.00 L 415.01 1024.00 Z"/>
  <path fill="#fefefe" d=" M 535.51 1024.00 L 527.73 1024.00 L 535.51 1024.00 Z"/>
  <path fill="#fefefe" d=" M 722.03 1024.00 L 716.88 1024.00 Q 719.44 1023.55 722.03 1024.00 Z"/>
  <path fill="#fefefe" d=" M 730.02 1024.00 L 722.86 1024.00 L 730.02 1024.00 Z"/>
</svg>