<?xml version="1.0" encoding="utf-8"?>
<svg version="1.1" viewBox="0.00 0.00 1024.00 1024.00" xmlns="http://www.w3.org/2000/svg">
  <g stroke-width="2.00" fill="none" stroke-linecap="butt">
    <path stroke="#90d5e0" vector-effect="non-scaling-stroke" d=" M 148.49 591.82 Q 152.68 616.00 160.56 639.63"/>
    <path stroke="#9bdfe6" vector-effect="non-scaling-stroke" d=" M 160.56 639.63 L 167.82 659.48"/>
    <path stroke="#90d5e0" vector-effect="non-scaling-stroke" d=" M 167.82 659.48 Q 175.86 680.38 187.89 702.61 Q 191.05 708.44 193.57 712.15"/>
    <path stroke="#a5ebec" vector-effect="non-scaling-stroke" d=" M 193.57 712.15 Q 202.58 728.53 213.89 743.43"/>
    <path stroke="#90d5e0" vector-effect="non-scaling-stroke" d=" M 213.89 743.43 C 243.25 783.52 280.57 818.19 323.36 843.28 Q 351.16 859.58 377.72 870.35 Q 417.15 886.33 460.23 893.49 Q 517.98 903.09 577.69 893.46 C 614.45 887.54 651.09 876.02 684.81 858.87 Q 709.92 846.10 730.22 832.07 Q 781.71 796.48 819.67 746.18 Q 824.74 739.46 829.66 731.91"/>
    <path stroke="#a5ebec" vector-effect="non-scaling-stroke" d=" M 829.66 731.91 L 841.82 712.57"/>
    <path stroke="#90d5e0" vector-effect="non-scaling-stroke" d=" M 841.82 712.57 C 851.93 696.44 859.81 678.99 867.01 661.01"/>
    <path stroke="#9bdfe6" vector-effect="non-scaling-stroke" d=" M 867.01 661.01 L 873.98 641.05"/>
    <path stroke="#90d5e0" vector-effect="non-scaling-stroke" d=" M 873.98 641.05 Q 881.69 616.92 886.36 592.22"/>
    <path stroke="#a5ebec" vector-effect="non-scaling-stroke" d=" M 886.36 592.22 Q 887.30 588.31 887.95 584.25 Q 896.31 531.70 890.88 478.92 Q 889.85 468.89 888.16 458.88 Q 875.83 386.10 836.55 322.67 Q 820.55 296.83 799.53 273.16 Q 728.24 192.87 626.28 159.07 Q 616.84 155.93 607.16 153.50 Q 573.29 144.97 540.31 142.89 Q 509.13 140.92 481.56 144.30 Q 453.26 147.78 435.64 152.39 Q 416.48 157.40 402.56 162.12 C 373.16 172.08 344.88 186.36 317.53 203.20 Q 296.85 215.95 277.93 232.19 Q 256.36 250.70 238.96 269.86 Q 197.74 315.26 172.47 373.35 Q 141.45 444.66 141.87 523.08 Q 142.03 551.52 146.22 579.50 Q 147.14 585.67 148.49 591.82"/>
    <path stroke="#38c1ce" vector-effect="non-scaling-stroke" d=" M 886.36 592.22 L 872.75 592.44"/>
    <path stroke="#a5ebec" vector-effect="non-scaling-stroke" d=" M 872.75 592.44 L 872.74 591.95 Q 872.73 591.74 872.55 591.64 L 806.42 555.46 A 3.27 3.26 46.1 0 0 803.43 555.40 L 777.26 568.23"/>
    <path stroke="#86dde3" vector-effect="non-scaling-stroke" d=" M 777.26 568.23 Q 772.96 571.31 767.72 572.37"/>
    <path stroke="#358790" vector-effect="non-scaling-stroke" d=" M 767.72 572.37 Q 765.84 556.99 764.72 551.99 Q 761.23 536.37 754.84 521.70 A 1.47 1.46 52.1 0 1 755.02 520.23 Q 769.53 501.39 785.27 481.83 Q 796.05 468.44 794.62 451.74 C 793.46 438.05 783.90 424.81 770.87 419.67 Q 752.53 412.44 735.79 422.08 C 732.71 423.86 730.12 426.46 727.54 428.93 Q 726.88 429.56 726.84 428.65 C 726.76 427.08 726.68 425.56 726.45 424.03 Q 717.88 366.36 679.27 321.83 Q 662.88 302.92 644.83 290.36 Q 612.89 268.13 577.68 257.79 C 569.94 255.52 560.73 253.66 553.75 252.48 C 506.09 244.43 455.79 252.92 413.66 275.23 Q 406.00 279.28 396.84 285.24 Q 375.14 299.35 359.43 316.51 Q 299.58 381.90 301.89 471.93 Q 301.94 473.86 300.75 475.27 C 277.55 503.02 265.15 539.04 263.15 575.14"/>
    <path stroke="#a5ebec" vector-effect="non-scaling-stroke" d=" M 263.15 575.14 L 235.37 560.47 A 1.67 1.66 48.0 0 0 233.98 560.39 C 229.60 562.09 225.76 564.60 221.64 566.84 C 211.16 572.55 201.28 577.71 190.57 583.80 Q 181.76 588.81 178.48 589.91 Q 175.20 591.01 173.79 592.10"/>
    <path stroke="#38c1ce" vector-effect="non-scaling-stroke" d=" M 173.79 592.10 Q 161.66 592.71 148.49 591.82"/>
    <path stroke="#2eb5c8" vector-effect="non-scaling-stroke" d=" M 873.98 641.05 Q 873.31 641.36 872.66 639.46 Q 872.49 638.99 871.99 639.01 Q 852.37 639.90 832.75 639.18 Q 831.11 639.12 828.96 640.49"/>
    <path stroke="#90d5e0" vector-effect="non-scaling-stroke" d=" M 828.96 640.49 Q 824.21 636.96 819.80 632.98 C 818.53 631.84 817.36 631.29 815.81 632.05 Q 801.68 639.04 789.44 643.73"/>
    <path stroke="#38c1ce" vector-effect="non-scaling-stroke" d=" M 764.18 620.75 Q 786.72 620.59 809.00 620.31 Q 813.40 620.26 816.95 619.92 C 820.99 619.54 824.17 615.00 821.26 611.40 Q 818.78 608.34 815.20 608.30 Q 793.36 608.03 769.64 608.01 Q 769.12 608.01 768.70 607.69 L 766.91 606.36"/>
    <path stroke="#6e8d98" vector-effect="non-scaling-stroke" d=" M 767.72 572.37 L 768.13 591.53"/>
    <path stroke="#207084" vector-effect="non-scaling-stroke" d=" M 768.13 591.53 L 766.91 606.36"/>
    <path stroke="#358790" vector-effect="non-scaling-stroke" d=" M 766.91 606.36 L 764.18 620.75"/>
    <path stroke="#207084" vector-effect="non-scaling-stroke" d=" M 764.18 620.75 Q 763.30 622.33 763.40 624.54 A 2.01 2.01 0.0 0 0 764.25 626.10 L 789.44 643.73"/>
    <path stroke="#8d9ba2" vector-effect="non-scaling-stroke" d=" M 789.44 643.73 Q 799.97 652.05 797.26 666.15"/>
    <path stroke="#207084" vector-effect="non-scaling-stroke" d=" M 797.26 666.15 Q 795.00 670.62 794.11 671.86 Q 791.39 675.64 787.95 678.09"/>
    <path stroke="#358790" vector-effect="non-scaling-stroke" d=" M 787.95 678.09 Q 777.77 683.33 767.04 682.95"/>
    <path stroke="#207084" vector-effect="non-scaling-stroke" d=" M 767.04 682.95 Q 749.62 682.77 732.80 682.95 C 728.94 682.99 725.84 686.33 722.99 688.39 Q 713.98 694.90 703.26 697.49 Q 697.82 698.81 686.64 698.78 Q 672.42 698.74 658.19 698.75"/>
    <path stroke="#1f6276" vector-effect="non-scaling-stroke" d=" M 658.19 698.75 Q 639.49 698.48 620.75 698.80 Q 617.30 698.86 616.42 699.41 Q 609.98 703.37 587.38 719.39"/>
    <path stroke="#207084" vector-effect="non-scaling-stroke" d=" M 587.38 719.39 Q 570.90 729.72 553.41 740.66 Q 548.48 743.75 543.67 745.88 C 536.12 749.23 528.89 742.91 530.23 734.99 Q 531.28 728.75 532.49 722.09"/>
    <path stroke="#1f6276" vector-effect="non-scaling-stroke" d=" M 532.49 722.09 L 536.79 699.38 A 0.55 0.54 5.2 0 0 536.25 698.74 L 376.07 698.79"/>
    <path stroke="#207084" vector-effect="non-scaling-stroke" d=" M 376.07 698.79 Q 362.48 698.74 349.25 698.73 Q 335.04 698.72 329.79 697.35 Q 317.82 694.23 309.19 686.78 Q 306.61 684.55 304.31 683.04 Q 303.82 682.71 303.22 682.72 Q 287.30 682.83 268.68 682.78 Q 257.73 682.75 255.71 682.46 C 244.98 680.92 237.08 676.38 233.24 665.82"/>
    <path stroke="#8d9ba2" vector-effect="non-scaling-stroke" d=" M 233.24 665.82 C 230.35 654.74 235.72 647.89 243.96 641.37"/>
    <path stroke="#207084" vector-effect="non-scaling-stroke" d=" M 243.96 641.37 L 267.97 624.91 Q 268.38 624.63 268.41 624.12 Q 268.53 621.37 267.67 620.14"/>
    <path stroke="#358790" vector-effect="non-scaling-stroke" d=" M 267.67 620.14 L 265.20 608.08"/>
    <path stroke="#207084" vector-effect="non-scaling-stroke" d=" M 265.20 608.08 L 263.31 592.48"/>
    <path stroke="#8d9ba2" vector-effect="non-scaling-stroke" d=" M 263.31 592.48 L 263.15 575.14"/>
    <path stroke="#38c1ce" vector-effect="non-scaling-stroke" d=" M 265.20 608.08 Q 242.82 607.27 220.39 608.33 Q 214.08 608.63 215.28 614.56 Q 215.91 617.70 218.13 619.24 Q 219.54 620.22 222.79 620.23 Q 245.11 620.26 267.67 620.14"/>
    <path stroke="#90d5e0" vector-effect="non-scaling-stroke" d=" M 243.96 641.37 L 230.85 632.86 Q 229.20 631.78 227.73 633.10 L 218.77 641.17"/>
    <path stroke="#2eb5c8" vector-effect="non-scaling-stroke" d=" M 218.77 641.17 L 218.15 639.76 Q 217.93 639.28 217.40 639.28 L 160.56 639.63"/>
    <path stroke="#71c7d7" vector-effect="non-scaling-stroke" d=" M 805.75 591.28 L 768.13 591.53"/>
    <path stroke="#90d5e0" vector-effect="non-scaling-stroke" d=" M 872.75 592.44 Q 842.13 592.50 811.50 592.59 Q 809.76 592.60 805.75 591.28"/>
    <path stroke="#def1f5" vector-effect="non-scaling-stroke" d=" M 805.75 591.28 Q 803.44 588.78 801.66 587.34 Q 794.03 581.17 784.22 573.95 C 781.90 572.24 779.64 570.14 777.26 568.23"/>
    <path stroke="#90d5e0" vector-effect="non-scaling-stroke" d=" M 263.31 592.48 L 173.79 592.10"/>
    <path stroke="#9bdfe6" vector-effect="non-scaling-stroke" d=" M 828.96 640.49 L 853.61 662.08"/>
    <path stroke="#90d5e0" vector-effect="non-scaling-stroke" d=" M 853.61 662.08 L 857.32 665.36 A 0.46 0.46 0.0 0 1 857.01 666.16 L 797.26 666.15"/>
    <path stroke="#2eb5c8" vector-effect="non-scaling-stroke" d=" M 867.01 661.01 Q 862.69 659.60 856.25 659.87 Q 853.79 659.97 853.61 662.08"/>
    <path stroke="#229cb4" vector-effect="non-scaling-stroke" d=" M 376.07 698.79 Q 376.43 705.82 380.83 709.41 Q 385.24 712.99 391.51 714.90 Q 399.02 717.19 413.67 719.54 Q 418.79 720.36 438.48 722.64 C 441.82 723.03 444.81 723.33 447.18 724.30 Q 448.17 724.70 449.26 724.62 Q 455.67 724.15 461.93 725.02"/>
    <path stroke="#2eb5c8" vector-effect="non-scaling-stroke" d=" M 461.93 725.02 Q 459.84 725.18 457.87 726.10"/>
    <path stroke="#38c1ce" vector-effect="non-scaling-stroke" d=" M 457.87 726.10 Q 446.72 724.33 437.54 726.58 Q 435.17 727.16 433.40 729.63 Q 432.16 731.36 432.62 734.42 Q 433.75 741.79 442.50 742.11 Q 452.62 742.48 459.32 741.32"/>
    <path stroke="#2eb5c8" vector-effect="non-scaling-stroke" d=" M 459.32 741.32 Q 467.71 743.98 476.75 741.77 Q 481.63 740.57 482.00 736.53 Q 482.61 729.89 476.03 726.61 Q 473.02 725.11 466.26 724.83"/>
    <path stroke="#229cb4" vector-effect="non-scaling-stroke" d=" M 466.26 724.83 Q 471.97 724.00 477.75 723.95 Q 492.76 723.82 506.61 723.72 C 513.39 723.68 520.95 723.12 528.14 722.98 Q 529.18 722.96 530.31 722.63 Q 531.40 722.32 532.49 722.09"/>
    <path stroke="#229cb4" vector-effect="non-scaling-stroke" d=" M 587.38 719.39 Q 598.67 718.85 609.00 717.97 C 623.82 716.69 638.18 714.91 651.89 710.35 Q 653.55 709.80 654.60 708.35 Q 657.58 704.27 658.19 698.75"/>
    <path stroke="#38c1ce" vector-effect="non-scaling-stroke" d=" M 767.04 682.95 Q 768.16 692.52 775.73 692.57 Q 784.33 692.63 790.08 692.42 C 795.57 692.22 799.29 686.30 794.11 682.40 Q 792.32 681.05 787.95 678.09"/>
    <path stroke="#38c1ce" vector-effect="non-scaling-stroke" d=" M 841.82 712.57 Q 840.91 712.52 841.04 711.54 A 1.06 1.06 0.0 0 0 839.70 710.38 Q 835.75 711.48 831.80 712.79 C 827.52 714.20 822.62 714.80 818.25 714.80 Q 804.77 714.79 792.24 714.92 Q 788.86 714.95 786.88 715.96 C 782.30 718.31 780.39 723.35 783.65 727.86 C 786.02 731.12 789.26 732.32 793.26 732.28 Q 808.05 732.13 822.44 732.36 Q 824.20 732.39 826.19 732.07 Q 827.96 731.78 829.66 731.91"/>
    <path stroke="#38c1ce" vector-effect="non-scaling-stroke" d=" M 213.89 743.43 Q 214.56 742.93 215.99 743.13 Q 217.37 743.32 218.03 743.30 Q 240.52 742.59 263.99 743.59"/>
    <path stroke="#90d5e0" vector-effect="non-scaling-stroke" d=" M 263.99 743.59 Q 260.02 749.19 259.05 752.49 C 257.12 759.04 261.06 766.59 267.94 768.28 C 279.13 771.02 282.53 763.92 287.27 755.28 Q 290.80 748.86 294.84 742.48 Q 295.13 742.02 295.69 742.48 A 1.19 1.17 16.6 0 1 296.13 743.28 Q 298.53 764.59 301.07 785.45 C 302.22 794.95 310.12 802.27 320.05 799.30 Q 325.15 797.77 327.72 793.34 Q 340.46 771.45 357.49 742.33 C 360.84 736.61 362.62 731.32 358.51 725.41 C 353.10 717.65 340.90 717.80 336.33 726.32 Q 329.58 738.89 322.39 750.97 Q 321.80 751.97 321.68 750.81 Q 319.63 730.63 316.70 709.96 Q 315.92 704.44 313.87 700.54 C 311.59 696.18 306.24 693.04 301.19 693.67 C 295.22 694.42 291.58 698.42 288.60 703.35 Q 282.69 713.12 276.71 723.48"/>
    <path stroke="#38c1ce" vector-effect="non-scaling-stroke" d=" M 276.71 723.48 Q 275.86 722.16 275.49 720.31 Q 275.39 719.80 275.02 719.44 Q 271.21 715.69 265.01 715.84 Q 243.53 716.35 217.75 715.73 Q 212.68 715.61 210.98 714.81 Q 205.40 712.19 203.88 711.80 Q 200.06 710.83 193.57 712.15"/>
    <path stroke="#90d5e0" vector-effect="non-scaling-stroke" d=" M 233.24 665.82 L 192.11 665.98 Q 191.05 665.98 191.84 665.27 L 196.98 660.67"/>
    <path stroke="#9bdfe6" vector-effect="non-scaling-stroke" d=" M 196.98 660.67 L 218.77 641.17"/>
    <path stroke="#2ca6ba" vector-effect="non-scaling-stroke" d=" M 466.26 724.83 L 461.93 725.02"/>
    <path stroke="#2eb5c8" vector-effect="non-scaling-stroke" d=" M 196.98 660.67 Q 196.86 659.66 194.98 659.92 Q 193.52 660.12 192.99 660.13 Q 180.17 660.31 167.82 659.48"/>
    <path stroke="#a5ebec" vector-effect="non-scaling-stroke" d=" M 263.99 743.59 L 276.71 723.48"/>
    <path stroke="#43cbd4" vector-effect="non-scaling-stroke" d=" M 459.32 741.32 C 462.49 738.89 464.45 736.32 462.97 732.77 Q 461.23 728.60 457.87 726.10"/>
    <path stroke="#a5ebec" vector-effect="non-scaling-stroke" d=" M 518.36 188.81 A 0.57 0.57 0.0 0 1 518.70 189.72 Q 516.61 192.33 514.23 194.79 C 511.56 197.54 511.25 201.77 515.37 203.42 Q 517.24 204.17 519.31 204.39 C 522.97 204.77 523.91 208.18 523.18 211.34 Q 522.82 212.93 521.23 213.66 C 517.54 215.36 513.70 215.71 510.59 213.16 C 506.73 209.99 501.39 206.28 497.50 211.98 C 495.07 215.55 498.03 220.69 501.05 222.85 Q 511.53 230.37 524.74 226.80 C 531.69 224.92 536.67 219.38 537.49 212.17 Q 538.49 203.28 530.58 196.54 A 1.19 1.19 0.0 0 1 530.33 195.02 Q 532.66 191.13 536.00 187.01 C 539.71 182.43 538.68 174.66 531.26 175.14 Q 518.30 175.98 505.20 175.42 C 501.74 175.27 498.36 176.10 497.42 179.94 C 495.93 186.02 500.43 189.11 505.95 188.89 C 509.88 188.73 514.64 188.11 518.36 188.81"/>
    <path stroke="#a5ebec" vector-effect="non-scaling-stroke" d=" M 639.69 219.63 Q 626.76 229.84 614.44 240.26 Q 608.10 245.63 612.77 251.65 C 615.85 255.62 620.57 254.02 623.68 251.30 Q 640.34 236.75 656.26 222.83 C 659.30 220.18 659.00 215.60 656.46 212.83 Q 655.07 211.31 652.13 210.03 Q 641.32 205.35 630.29 199.99 Q 628.17 198.96 625.55 198.58 C 619.16 197.63 616.32 205.75 621.14 209.55 Q 623.18 211.15 625.41 212.16 Q 631.93 215.08 639.48 218.16 A 0.86 0.86 0.0 0 1 639.69 219.63"/>
    <path stroke="#a5ebec" vector-effect="non-scaling-stroke" d=" M 411.00 234.76 A 0.49 0.49 0.0 0 1 410.92 234.12 C 417.14 224.77 422.99 212.64 412.63 203.39 C 402.93 194.73 385.28 199.22 381.17 211.69 Q 379.24 217.56 382.44 221.28 C 385.74 225.13 392.33 224.46 393.72 218.98 C 394.53 215.77 395.93 211.79 399.96 211.98 C 404.84 212.20 405.45 217.22 403.49 220.73 Q 399.48 227.92 393.30 236.63 C 391.52 239.15 389.47 242.48 389.54 245.57 Q 389.65 249.93 393.89 251.43 Q 396.30 252.29 400.34 251.13 Q 412.24 247.72 423.51 245.03 Q 426.36 244.35 429.29 242.80 C 431.20 241.79 431.68 239.51 431.36 237.55 C 430.34 231.36 425.34 230.77 420.30 232.56 Q 415.71 234.18 411.59 234.93 Q 411.25 234.99 411.00 234.76"/>
    <path stroke="#a5ebec" vector-effect="non-scaling-stroke" d=" M 323.82 286.78 Q 318.59 277.04 312.82 268.79 Q 308.74 262.97 302.80 264.48 C 296.43 266.09 294.74 271.06 294.40 276.95 Q 293.75 288.51 292.54 301.16 Q 292.14 305.39 293.11 308.42 C 294.74 313.47 299.80 314.35 304.22 312.26 Q 310.94 309.07 317.50 306.22 Q 318.85 305.64 319.73 306.81 C 322.75 310.87 325.11 313.80 330.74 311.40 C 335.52 309.37 334.18 302.87 331.90 299.75 A 1.18 1.18 0.0 0 1 332.37 297.98 C 333.31 297.55 334.27 297.10 334.67 296.07 C 336.29 291.97 334.96 287.06 330.13 286.31 C 328.26 286.02 326.49 286.89 324.66 287.19 A 0.80 0.79 -18.9 0 1 323.82 286.78"/>
    <path stroke="#a5ebec" vector-effect="non-scaling-stroke" d=" M 727.27 287.92 A 0.80 0.79 -38.8 0 1 727.43 286.48 Q 730.98 285.32 734.42 286.05 C 737.06 286.61 739.18 289.54 741.06 291.35 C 745.18 295.34 752.22 292.91 751.65 286.57 C 751.19 281.41 746.81 277.14 742.13 275.00 Q 727.35 268.23 714.56 278.09 Q 709.24 282.19 704.03 290.43 C 696.97 301.61 701.44 317.02 715.04 320.26 Q 720.56 321.57 724.52 320.87 Q 739.08 318.31 738.69 302.92 Q 738.55 297.31 734.43 292.77 C 732.55 290.71 729.69 289.35 727.27 287.92"/>
    <path stroke="#7bd585" vector-effect="non-scaling-stroke" d=" M 774.31 339.15 A 8.88 8.88 0.0 0 0 765.43 330.27 A 8.88 8.88 0.0 0 0 756.55 339.15 A 8.88 8.88 0.0 0 0 765.43 348.03 A 8.88 8.88 0.0 0 0 774.31 339.15"/>
    <path stroke="#7bd585" vector-effect="non-scaling-stroke" d=" M 278.71 339.36 A 8.90 8.90 0.0 0 0 269.81 330.46 A 8.90 8.90 0.0 0 0 260.91 339.36 A 8.90 8.90 0.0 0 0 269.81 348.26 A 8.90 8.90 0.0 0 0 278.71 339.36"/>
    <path stroke="#a5ebec" vector-effect="non-scaling-stroke" d=" M 800.36 386.75 A 0.56 0.56 0.0 0 1 799.79 386.08 Q 801.70 376.45 795.98 370.80 C 791.55 366.42 784.33 365.25 778.41 367.01 C 768.60 369.93 762.21 379.46 765.34 389.41 Q 768.02 397.93 776.92 399.45 A 0.92 0.91 13.6 0 1 777.64 400.62 Q 775.37 407.79 779.79 414.11 Q 784.11 420.30 792.83 421.47 C 799.98 422.43 808.78 419.52 812.65 413.32 C 817.37 405.77 816.49 395.67 809.66 389.92 Q 805.70 386.60 800.36 386.75"/>
    <path stroke="#a5ebec" vector-effect="non-scaling-stroke" d=" M 241.52 413.34 Q 241.40 414.98 241.27 416.56 C 240.83 421.58 243.95 425.68 249.21 425.01 C 254.59 424.32 255.53 418.52 255.07 414.01 A 0.83 0.83 0.0 0 1 256.12 413.12 C 261.27 414.55 264.27 411.58 263.75 406.42 C 263.34 402.30 260.40 401.30 256.84 400.98 A 0.78 0.77 3.2 0 1 256.14 400.20 Q 256.25 392.21 256.52 383.27 C 256.61 380.28 256.38 376.44 253.26 375.28 C 251.57 374.65 250.29 373.94 249.52 372.16 C 248.44 369.67 246.33 366.73 243.28 367.06 Q 239.37 367.49 237.01 370.56 Q 229.01 380.97 217.14 396.48 C 212.69 402.28 215.22 409.61 222.83 410.57 Q 231.38 411.64 240.55 412.24 Q 241.59 412.30 241.52 413.34"/>
    <path stroke="#a1896e" vector-effect="non-scaling-stroke" d=" M 824.9503 464.8622 A 11.27 10.97 51.6 0 0 826.5471 449.2160 A 11.27 10.97 51.6 0 0 810.9497 447.1978 A 11.27 10.97 51.6 0 0 809.3529 462.8440 A 11.27 10.97 51.6 0 0 824.9503 464.8622"/>
    <path stroke="#a1896e" vector-effect="non-scaling-stroke" d=" M 225.3470 466.8651 A 11.44 11.12 54.6 0 0 227.7842 451.0984 A 11.44 11.12 54.6 0 0 212.0930 448.2149 A 11.44 11.12 54.6 0 0 209.6558 463.9816 A 11.44 11.12 54.6 0 0 225.3470 466.8651"/>
    <path stroke="#a5ebec" vector-effect="non-scaling-stroke" d=" M 208.86 508.80 Q 205.48 506.51 209.53 505.93 Q 215.79 505.03 220.71 503.64 C 229.04 501.30 224.93 491.18 217.57 491.34 Q 205.53 491.62 195.30 497.55 C 182.56 504.93 172.21 518.71 180.83 533.16 C 189.41 547.51 214.53 545.45 217.77 527.38 C 219.22 519.28 215.27 513.14 208.86 508.80"/>
    <path stroke="#a5ebec" vector-effect="non-scaling-stroke" d=" M 826.73 519.22 Q 825.49 530.12 824.98 541.47 C 824.54 551.23 838.79 552.78 839.43 542.22 Q 840.42 525.68 842.30 499.62 Q 842.67 494.56 838.31 492.48 C 835.12 490.96 831.82 493.65 829.81 496.02 Q 823.65 503.26 814.98 510.19 C 810.99 513.38 808.23 517.76 813.18 522.04 C 817.28 525.59 822.16 521.09 824.92 518.34 Q 827.07 516.19 826.73 519.22"/>
    <path stroke="#6e8d98" vector-effect="non-scaling-stroke" d=" M 365.02 616.84 L 364.84 638.19 Q 364.84 638.73 365.38 638.66 Q 397.71 633.99 431.98 638.04 Q 453.25 640.55 474.38 648.36 Q 497.10 656.76 513.48 671.58 Q 514.63 672.62 515.64 673.81 A 0.72 0.72 0.0 0 0 516.72 673.83 Q 530.21 659.15 547.40 649.51 C 548.01 649.17 548.87 648.42 549.13 647.78 Q 551.36 642.35 554.26 639.66 C 560.56 633.80 567.35 627.64 572.82 620.77 C 583.66 607.14 594.89 593.41 605.60 579.82 Q 633.66 544.21 662.10 508.92 Q 669.01 500.34 674.52 493.20 Q 688.23 475.43 702.00 457.66 Q 703.98 455.10 705.42 452.74 Q 705.91 451.96 705.86 451.04 Q 705.49 443.65 704.77 435.76 Q 700.40 387.75 671.99 348.74"/>
    <path stroke="#358790" vector-effect="non-scaling-stroke" d=" M 671.99 348.74 Q 642.52 309.41 597.96 289.72"/>
    <path stroke="#8d9ba2" vector-effect="non-scaling-stroke" d=" M 597.96 289.72 Q 527.31 258.28 453.95 282.57 Q 426.38 291.70 401.91 308.85 C 376.63 326.57 356.22 352.11 342.97 379.92 Q 322.65 422.54 324.61 469.99 Q 324.90 476.93 325.16 484.19 C 325.22 485.91 325.93 487.49 326.64 489.05 C 334.66 506.53 343.01 525.15 349.35 542.72 Q 362.49 579.16 365.02 616.84"/>
    <path stroke="#a5ebec" vector-effect="non-scaling-stroke" d=" M 597.96 289.72 Q 597.88 290.91 597.47 290.77 Q 583.80 286.11 569.25 283.92 C 557.41 282.14 543.99 282.06 532.20 282.43 C 513.16 283.03 494.79 286.69 476.23 291.96 C 458.27 297.05 441.50 304.40 425.17 312.57 Q 419.58 315.37 413.11 319.12 C 407.10 322.60 400.99 325.81 395.35 329.75 Q 392.55 331.71 389.55 333.50 Q 389.41 333.58 389.52 333.70 L 389.76 333.93 A 0.72 0.70 -38.0 0 0 390.63 334.03 Q 401.86 327.13 413.24 323.81 Q 449.10 313.36 481.98 329.29 C 495.42 335.81 507.43 345.05 514.99 358.08 Q 515.51 358.96 516.34 359.53 A 0.82 0.81 32.6 0 0 517.48 359.28 Q 528.01 342.51 543.81 333.17 C 566.88 319.54 596.90 315.70 622.10 325.14 Q 646.33 334.22 663.33 354.94"/>
    <path stroke="#def1f5" vector-effect="non-scaling-stroke" d=" M 663.33 354.94 Q 692.56 394.29 684.66 442.72 C 682.28 457.34 675.57 469.45 666.41 481.22 C 662.04 486.84 657.65 492.30 652.91 497.69 Q 638.72 513.81 625.52 529.38 C 603.84 554.94 581.79 580.11 560.48 605.15 Q 554.62 612.03 547.54 619.88 Q 537.91 630.54 530.31 641.52 Q 529.31 642.97 528.04 644.17 Q 521.66 650.21 516.21 655.80 A 1.39 1.39 0.0 0 1 514.24 655.81 Q 497.01 638.61 475.97 629.37 Q 453.06 619.30 427.64 616.26 Q 407.60 613.86 390.25 614.60 Q 381.97 614.96 365.02 616.84"/>
    <path stroke="#86dde3" vector-effect="non-scaling-stroke" d=" M 671.99 348.74 Q 668.79 350.02 667.31 353.42 Q 667.05 354.02 666.40 354.12 Q 665.96 354.20 665.70 354.57 Q 665.33 355.11 664.71 354.90 Q 664.08 354.68 663.33 354.94"/>
    <path stroke="#893823" vector-effect="non-scaling-stroke" d=" M 740.28 453.88 L 757.64 466.69"/>
    <path stroke="#732e24" vector-effect="non-scaling-stroke" d=" M 757.64 466.69 L 764.12 471.50 A 1.58 1.57 -47.2 0 0 766.10 471.42 C 772.20 466.05 776.26 458.19 773.11 450.01"/>
    <path stroke="#893823" vector-effect="non-scaling-stroke" d=" M 773.11 450.01 Q 769.54 441.03 760.85 438.70"/>
    <path stroke="#8d9ba2" vector-effect="non-scaling-stroke" d=" M 760.85 438.70 C 750.04 435.82 741.62 440.47 735.91 449.43 A 0.70 0.70 0.0 0 0 736.05 450.35 L 740.28 453.88"/>
    <path stroke="#f99d80" vector-effect="non-scaling-stroke" d=" M 760.85 438.70 Q 746.57 442.52 740.28 453.88"/>
    <path stroke="#df3002" vector-effect="non-scaling-stroke" d=" M 773.11 450.01 L 772.98 450.53 Q 772.88 450.91 772.49 450.92 Q 772.30 450.93 772.18 450.80 A 1.49 1.45 48.5 0 0 770.19 450.65 Q 766.99 453.30 764.10 457.37 Q 762.64 459.44 760.70 461.89 Q 758.87 464.20 757.64 466.69"/>
    <path stroke="#893823" vector-effect="non-scaling-stroke" d=" M 590.06 643.20 L 607.13 656.25"/>
    <path stroke="#732e24" vector-effect="non-scaling-stroke" d=" M 607.13 656.25 L 616.23 663.27 A 1.43 1.42 36.8 0 0 618.25 662.98 Q 628.74 648.55 639.26 635.57 C 651.46 620.53 662.92 605.59 675.18 590.19 C 681.61 582.10 687.26 573.85 693.56 565.83 Q 708.02 547.40 722.67 528.65 C 728.18 521.60 733.70 514.92 738.87 507.57 Q 745.04 498.78 751.48 490.10 Q 753.12 487.89 750.92 486.24 L 745.49 482.15"/>
    <path stroke="#893823" vector-effect="non-scaling-stroke" d=" M 745.49 482.15 L 727.70 468.94"/>
    <path stroke="#8d9ba2" vector-effect="non-scaling-stroke" d=" M 727.70 468.94 L 723.82 466.27 Q 723.43 466.00 723.13 466.38 L 586.08 639.45 Q 585.75 639.86 586.17 640.18 L 590.06 643.20"/>
    <path stroke="#f99d80" vector-effect="non-scaling-stroke" d=" M 727.70 468.94 L 590.06 643.20"/>
    <path stroke="#df3002" vector-effect="non-scaling-stroke" d=" M 745.49 482.15 Q 743.63 484.08 741.76 485.98 C 739.10 488.68 736.75 491.89 734.28 495.01 Q 716.82 517.07 699.54 539.26 Q 693.41 547.14 687.36 555.12 Q 664.41 585.37 639.47 615.99 Q 632.63 624.38 625.48 633.27 Q 616.27 644.72 607.13 656.25"/>
    <path stroke="#358790" vector-effect="non-scaling-stroke" d=" M 335.65 668.28 Q 340.55 654.33 341.51 639.00 Q 343.29 610.66 337.39 584.01 Q 334.19 569.58 327.75 551.51 Q 320.13 530.16 311.96 512.85"/>
    <path stroke="#8d9ba2" vector-effect="non-scaling-stroke" d=" M 311.96 512.85 L 307.54 504.29 A 0.18 0.18 0.0 0 0 307.23 504.28 C 283.45 545.79 277.94 597.53 300.05 640.99 Q 311.16 662.81 331.78 675.48 Q 332.21 675.75 332.43 675.29 L 335.65 668.28"/>
    <path stroke="#a5ebec" vector-effect="non-scaling-stroke" d=" M 311.96 512.85 Q 302.49 531.72 300.57 551.00 C 298.85 568.43 299.84 587.77 304.48 605.05 Q 310.33 626.85 319.94 644.83 Q 325.99 656.14 335.65 668.28"/>
    <path stroke="#2b7b8a" vector-effect="non-scaling-stroke" d=" M 698.67 666.21 L 702.45 676.11 A 0.40 0.40 0.0 0 0 703.03 676.31 C 711.39 671.18 718.44 665.19 724.38 657.06 Q 737.01 639.81 741.73 618.24 Q 749.69 581.85 739.38 546.31"/>
    <path stroke="#358790" vector-effect="non-scaling-stroke" d=" M 739.38 546.31 L 738.11 542.20 A 0.32 0.32 0.0 0 0 737.51 542.16 Q 736.91 543.44 736.05 544.57 Q 716.81 569.86 697.19 595.28 Q 696.40 596.30 696.26 597.58 Q 693.57 621.96 694.98 647.00 Q 695.38 654.13 698.67 666.21"/>
    <path stroke="#43cbd4" vector-effect="non-scaling-stroke" d=" M 739.38 546.31 Q 737.77 547.38 737.70 549.50 Q 737.38 559.00 737.08 568.50 Q 736.89 574.73 732.79 595.60 Q 729.83 610.65 721.82 629.47 Q 717.71 639.12 711.39 648.99 Q 709.35 652.18 705.06 657.62 Q 701.73 661.85 698.67 666.21"/>
    <path stroke="#6e8d98" vector-effect="non-scaling-stroke" d=" M 669.3299 630.9308 A 1.50 0.77 133.9 0 0 670.9248 630.3839 A 1.50 0.77 133.9 0 0 671.4101 628.7692 A 1.50 0.77 133.9 0 0 669.8152 629.3161 A 1.50 0.77 133.9 0 0 669.3299 630.9308"/>
    <path stroke="#6e8d98" vector-effect="non-scaling-stroke" d=" M 262.31 661.17 L 285.15 661.42 Q 285.65 661.42 285.40 660.99 L 279.40 650.72"/>
    <path stroke="#8d9ba2" vector-effect="non-scaling-stroke" d=" M 279.40 650.72 L 274.80 641.92 Q 274.55 641.45 274.17 641.82 Q 265.18 650.38 255.62 658.49 Q 254.74 659.23 254.75 660.33 A 0.74 0.73 90.0 0 0 255.47 661.06 L 262.31 661.17"/>
    <path stroke="#def1f5" vector-effect="non-scaling-stroke" d=" M 279.40 650.72 Q 276.04 652.83 272.85 655.14 C 271.01 656.48 269.03 657.37 267.04 658.45 Q 266.98 658.48 264.51 659.39 Q 263.18 659.88 262.31 661.17"/>
    <path stroke="#6e8d98" vector-effect="non-scaling-stroke" d=" M 756.24 646.03 C 753.69 651.10 751.14 656.30 747.66 660.84 A 0.38 0.38 0.0 0 0 747.97 661.45 Q 758.56 661.42 770.00 661.42 Q 772.97 661.43 774.60 661.16 Q 777.19 660.73 775.07 659.18 L 756.89 645.87 A 0.44 0.44 0.0 0 0 756.24 646.03"/>
    <path stroke="#6e8d98" vector-effect="non-scaling-stroke" d=" M 678.79 676.74 Q 674.39 664.37 672.63 652.10 A 1.17 1.16 -3.5 0 0 671.50 651.10 Q 664.18 650.95 656.09 651.29 C 654.65 651.34 653.34 651.16 652.34 652.44 Q 642.86 664.54 633.19 676.75 A 0.12 0.12 0.0 0 0 633.29 676.94 L 678.51 677.13 A 0.30 0.29 -9.7 0 0 678.79 676.74"/>
    <path stroke="#6e8d98" vector-effect="non-scaling-stroke" d=" M 560.59 712.35 C 577.41 701.47 590.70 691.55 605.73 680.95 A 0.53 0.52 -44.4 0 0 605.74 680.10 L 594.23 671.46"/>
    <path stroke="#8d9ba2" vector-effect="non-scaling-stroke" d=" M 594.23 671.46 L 568.11 652.53 Q 567.61 652.16 567.47 652.77 L 553.11 717.46 Q 552.94 718.18 553.53 717.73 L 560.59 712.35"/>
    <path stroke="#def1f5" vector-effect="non-scaling-stroke" d=" M 594.23 671.46 Q 581.63 686.05 569.25 700.68 C 566.96 703.39 564.18 705.80 561.62 708.35 Q 559.79 710.17 560.59 712.35"/>
    <path stroke="#6e8d98" vector-effect="non-scaling-stroke" d=" M 481.78 674.61 Q 456.88 661.10 426.10 657.86 Q 395.51 654.64 362.68 658.62 A 0.77 0.77 0.0 0 0 362.02 659.23 Q 360.29 667.75 356.62 676.28 Q 356.35 676.90 357.03 676.90 L 484.82 677.01 Q 485.52 677.01 484.95 676.60 Q 483.50 675.55 481.78 674.61"/>
    <path stroke="#a5ebec" vector-effect="non-scaling-stroke" d=" M 307.01 296.73 L 311.16 295.24 A 1.58 1.58 0.0 0 0 312.01 292.98 Q 309.95 289.24 307.68 285.31 Q 307.48 284.98 307.11 285.05 A 0.66 0.65 81.9 0 0 306.58 285.76 Q 307.15 291.15 306.13 295.96 Q 305.89 297.13 307.01 296.73"/>
    <path stroke="#8d9ba2" vector-effect="non-scaling-stroke" d=" M 459.50 423.44 A 38.97 38.97 0.0 0 0 420.53 384.47 A 38.97 38.97 0.0 0 0 381.56 423.44 A 38.97 38.97 0.0 0 0 420.53 462.41 A 38.97 38.97 0.0 0 0 459.50 423.44"/>
    <path stroke="#8d9ba2" vector-effect="non-scaling-stroke" d=" M 617.5095 462.4263 A 39.11 38.62 83.6 0 0 651.5293 419.2551 A 39.11 38.62 83.6 0 0 608.7905 384.6937 A 39.11 38.62 83.6 0 0 574.7707 427.8649 A 39.11 38.62 83.6 0 0 617.5095 462.4263"/>
    <path stroke="#8d9ba2" vector-effect="non-scaling-stroke" d=" M 497.19 412.97 Q 482.81 420.90 477.79 437.14 C 474.53 447.69 476.36 461.81 480.71 472.49 Q 488.41 491.38 503.18 506.58 Q 507.38 510.91 512.12 513.89 Q 516.72 516.80 521.40 514.16 Q 525.97 511.58 529.90 507.75 C 545.39 492.68 558.40 471.14 558.77 449.51 C 559.03 434.59 551.62 421.03 538.67 413.63 C 525.98 406.38 509.52 406.18 497.19 412.97"/>
    <path stroke="#f99d80" vector-effect="non-scaling-stroke" d=" M 423.6797 479.0130 A 18.53 10.81 -0.3 0 0 405.0934 468.3001 A 18.53 10.81 -0.3 0 0 386.6203 479.2070 A 18.53 10.81 -0.3 0 0 405.2066 489.9199 A 18.53 10.81 -0.3 0 0 423.6797 479.0130"/>
    <path stroke="#f99d80" vector-effect="non-scaling-stroke" d=" M 648.0597 479.2583 A 18.77 10.91 0.3 0 0 629.3471 468.2501 A 18.77 10.91 0.3 0 0 610.5203 479.0617 A 18.77 10.91 0.3 0 0 629.2329 490.0699 A 18.77 10.91 0.3 0 0 648.0597 479.2583"/>
    <path stroke="#a5ebec" vector-effect="non-scaling-stroke" d=" M 723.4040 307.1623 A 5.93 5.11 50.6 0 0 723.5887 299.3365 A 5.93 5.11 50.6 0 0 715.8760 297.9977 A 5.93 5.11 50.6 0 0 715.6913 305.8235 A 5.93 5.11 50.6 0 0 723.4040 307.1623"/>
    <path stroke="#a5ebec" vector-effect="non-scaling-stroke" d=" M 787.5219 382.9105 A 4.81 4.42 -6.2 0 0 782.2626 379.0359 A 4.81 4.42 -6.2 0 0 777.9581 383.9495 A 4.81 4.42 -6.2 0 0 783.2174 387.8241 A 4.81 4.42 -6.2 0 0 787.5219 382.9105"/>
    <path stroke="#a5ebec" vector-effect="non-scaling-stroke" d=" M 801.2602 400.5630 A 5.89 5.47 -27.8 0 0 793.4989 398.4713 A 5.89 5.47 -27.8 0 0 790.8398 406.0570 A 5.89 5.47 -27.8 0 0 798.6011 408.1487 A 5.89 5.47 -27.8 0 0 801.2602 400.5630"/>
    <path stroke="#a5ebec" vector-effect="non-scaling-stroke" d=" M 232.31 398.84 A 0.31 0.31 0.0 0 0 232.54 399.34 L 242.08 399.99 A 0.31 0.31 0.0 0 0 242.41 399.69 L 243.00 385.54 A 0.31 0.31 0.0 0 0 242.44 385.34 L 232.31 398.84"/>
    <path stroke="#8d9ba2" vector-effect="non-scaling-stroke" d=" M 425.9675 417.0301 A 11.77 11.47 37.9 0 0 423.7259 400.7492 A 11.77 11.47 37.9 0 0 407.3925 402.5699 A 11.77 11.47 37.9 0 0 409.6341 418.8508 A 11.77 11.47 37.9 0 0 425.9675 417.0301"/>
    <path stroke="#8d9ba2" vector-effect="non-scaling-stroke" d=" M 403.4259 442.3172 A 7.22 6.69 74.2 0 0 407.8972 433.5484 A 7.22 6.69 74.2 0 0 399.4941 428.4228 A 7.22 6.69 74.2 0 0 395.0228 437.1916 A 7.22 6.69 74.2 0 0 403.4259 442.3172"/>
    <path stroke="#8d9ba2" vector-effect="non-scaling-stroke" d=" M 628.52 409.81 A 11.64 11.64 0.0 0 0 616.88 398.17 A 11.64 11.64 0.0 0 0 605.24 409.81 A 11.64 11.64 0.0 0 0 616.88 421.45 A 11.64 11.64 0.0 0 0 628.52 409.81"/>
    <path stroke="#8d9ba2" vector-effect="non-scaling-stroke" d=" M 595.5168 442.2286 A 7.08 6.52 76.3 0 0 600.1745 433.8058 A 7.08 6.52 76.3 0 0 592.1632 428.4714 A 7.08 6.52 76.3 0 0 587.5055 436.8942 A 7.08 6.52 76.3 0 0 595.5168 442.2286"/>
    <path stroke="#358790" vector-effect="non-scaling-stroke" d=" M 496.59 455.82 Q 501.34 475.42 515.94 491.45"/>
    <path stroke="#207084" vector-effect="non-scaling-stroke" d=" M 515.94 491.45 Q 515.86 491.93 516.83 492.43 Q 517.31 492.68 517.70 492.32 Q 523.33 487.26 527.32 480.92 C 535.00 468.71 546.36 447.91 533.63 435.14 C 529.09 430.58 523.15 427.30 516.55 428.08"/>
    <path stroke="#8d9ba2" vector-effect="non-scaling-stroke" d=" M 516.55 428.08 Q 509.74 428.15 504.18 431.93 C 496.26 437.31 494.31 446.88 496.59 455.82"/>
    <path stroke="#90d5e0" vector-effect="non-scaling-stroke" d=" M 516.55 428.08 L 515.79 430.95"/>
    <path stroke="#a5ebec" vector-effect="non-scaling-stroke" d=" M 515.79 430.95 Q 507.29 431.90 502.59 438.07 Q 497.29 445.01 497.79 454.50 Q 497.87 456.11 496.59 455.82"/>
    <path stroke="#38c1ce" vector-effect="non-scaling-stroke" d=" M 515.94 491.45 Q 516.55 486.88 516.49 482.47 Q 516.37 473.60 516.37 473.52 Q 516.85 452.24 515.79 430.95"/>
    <path stroke="#a5ebec" vector-effect="non-scaling-stroke" d=" M 202.8441 527.1897 A 6.46 5.87 40.2 0 0 201.6988 518.5365 A 6.46 5.87 40.2 0 0 192.9759 518.8503 A 6.46 5.87 40.2 0 0 194.1212 527.5035 A 6.46 5.87 40.2 0 0 202.8441 527.1897"/>
    <path stroke="#2eb5c8" vector-effect="non-scaling-stroke" d=" M 238.81 682.11 C 236.85 683.46 232.94 685.92 233.54 688.65 C 234.29 692.02 236.43 694.11 239.95 694.44 Q 247.65 695.17 252.83 694.41 Q 256.86 693.81 253.45 691.57 Q 246.80 687.21 241.47 682.30 A 2.15 2.14 -40.8 0 0 238.81 682.11"/>
    <path stroke="#2eb5c8" vector-effect="non-scaling-stroke" d=" M 696.40 793.96 Q 695.19 794.76 693.02 794.07 Q 691.08 793.46 689.87 793.48 C 685.54 793.54 679.26 793.40 675.88 795.94 C 670.97 799.62 668.56 804.81 670.09 810.94 C 671.36 816.04 675.25 820.91 680.88 820.75 Q 696.03 820.31 711.92 820.35 C 716.80 820.36 720.13 817.18 721.06 812.46 Q 722.78 803.73 714.75 797.54"/>
    <path stroke="#90d5e0" vector-effect="non-scaling-stroke" d=" M 714.75 797.54 Q 721.57 793.44 728.29 789.73 C 737.18 784.82 746.15 779.70 755.01 774.55 Q 759.74 771.79 759.69 766.17 C 759.62 758.87 754.07 753.63 746.94 754.38 Q 744.17 754.67 740.61 756.73 Q 727.00 764.61 714.40 771.57 A 0.95 0.95 0.0 0 1 713.14 771.25 L 708.94 764.59 A 1.35 1.33 -32.2 0 1 709.37 762.73 Q 719.50 756.41 729.85 750.61 C 735.82 747.27 738.31 741.49 734.41 735.39"/>
    <path stroke="#2eb5c8" vector-effect="non-scaling-stroke" d=" M 734.41 735.39 Q 735.48 734.47 737.21 735.00 Q 738.88 735.51 739.31 735.56 Q 740.53 735.71 741.70 735.54 Q 744.00 735.19 746.40 735.07 Q 749.03 734.93 751.40 733.98 C 754.75 732.64 756.52 727.37 756.87 724.15 Q 757.11 721.89 755.85 720.05 Q 754.23 717.69 752.40 715.94 Q 750.86 714.47 748.48 714.22 Q 746.24 713.98 744.00 713.89 Q 735.10 713.56 726.38 714.65"/>
    <path stroke="#90d5e0" vector-effect="non-scaling-stroke" d=" M 726.38 714.65 C 727.42 705.05 717.48 698.81 709.17 703.63 Q 690.55 714.45 673.29 723.79 C 668.10 726.60 664.01 730.85 665.02 737.17 Q 665.52 740.37 669.99 748.10 Q 683.13 770.86 696.40 793.96"/>
    <path stroke="#9bdfe6" vector-effect="non-scaling-stroke" d=" M 726.38 714.65 Q 725.54 719.70 720.71 722.45 Q 707.99 729.68 695.34 737.06 Q 693.64 738.05 694.53 739.80 L 697.27 745.17 Q 698.10 746.81 699.67 745.84 Q 709.05 740.04 718.20 734.58 C 724.41 730.88 729.52 729.72 734.41 735.39"/>
    <path stroke="#9bdfe6" vector-effect="non-scaling-stroke" d=" M 714.75 797.54 Q 703.51 803.16 696.40 793.96"/>
    <path stroke="#90d5e0" vector-effect="non-scaling-stroke" d=" M 446.8432 786.1838 A 43.95 42.79 2.0 0 0 404.4133 741.8861 A 43.95 42.79 2.0 0 0 358.9968 783.1162 A 43.95 42.79 2.0 0 0 401.4267 827.4139 A 43.95 42.79 2.0 0 0 446.8432 786.1838"/>
    <path stroke="#90d5e0" vector-effect="non-scaling-stroke" d=" M 582.80 768.69 Q 574.31 787.16 583.56 805.55 C 590.02 818.38 602.08 826.57 616.74 828.66 Q 639.58 831.92 658.10 814.55 C 668.19 805.08 661.49 792.06 648.39 792.12 C 644.29 792.14 642.26 794.54 640.21 797.58 C 637.64 801.39 632.32 804.01 628.01 804.98 C 618.02 807.24 607.67 801.94 605.13 791.65 C 601.98 778.84 611.49 768.16 624.09 767.46 C 627.43 767.27 630.68 768.42 633.95 768.75 C 643.00 769.68 649.46 761.96 646.30 753.44 C 643.65 746.30 633.00 744.01 626.16 743.77 Q 603.14 742.96 588.40 759.92 Q 585.07 763.74 582.80 768.69"/>
    <path stroke="#90d5e0" vector-effect="non-scaling-stroke" d=" M 488.85 821.76 A 0.74 0.72 -83.1 0 1 488.25 820.98 Q 489.89 799.00 491.80 778.10 C 492.37 771.79 492.61 766.50 486.83 762.31 Q 483.77 760.09 479.84 760.02 C 471.07 759.86 467.01 764.80 466.40 773.15 Q 464.39 800.45 461.59 830.36 C 461.11 835.56 462.46 840.07 467.31 842.80 Q 470.10 844.38 475.45 844.38 Q 492.10 844.41 509.37 845.27 Q 513.56 845.48 517.58 843.91 C 522.96 841.80 523.95 834.42 522.25 829.68 Q 520.16 823.86 513.45 823.16 Q 505.49 822.32 493.16 822.16 Q 490.98 822.14 488.85 821.76"/>
    <path stroke="#90d5e0" vector-effect="non-scaling-stroke" d=" M 557.2221 771.2797 A 11.87 11.87 0.0 0 0 544.4005 760.4446 L 542.6068 760.5952 A 11.87 11.87 0.0 0 0 531.7717 773.4168 L 536.9379 834.9403 A 11.87 11.87 0.0 0 0 549.7595 845.7754 L 551.5532 845.6248 A 11.87 11.87 0.0 0 0 562.3883 832.8032 L 557.2221 771.2797"/>
    <path stroke="#38c1ce" vector-effect="non-scaling-stroke" d=" M 396.8409 843.7913 A 5.56 5.56 0.0 0 0 391.3198 838.1926 L 364.8405 838.0077 A 5.56 5.56 0.0 0 0 359.2418 843.5288 L 359.2391 843.9087 A 5.56 5.56 0.0 0 0 364.7602 849.5074 L 391.2395 849.6923 A 5.56 5.56 0.0 0 0 396.8382 844.1712 L 396.8409 843.7913"/>
    <path stroke="#38c1ce" vector-effect="non-scaling-stroke" d=" M 613.8696 859.9285 A 5.56 5.56 0.0 0 0 608.2999 854.3782 L 583.3599 854.4218 A 5.56 5.56 0.0 0 0 577.8097 859.9915 L 577.8104 860.4115 A 5.56 5.56 0.0 0 0 583.3801 865.9618 L 608.3201 865.9182 A 5.56 5.56 0.0 0 0 613.8703 860.3485 L 613.8696 859.9285"/>
    <path stroke="#90d5e0" vector-effect="non-scaling-stroke" d=" M 421.74 784.86 A 18.59 18.59 0.0 0 0 403.15 766.27 A 18.59 18.59 0.0 0 0 384.56 784.86 A 18.59 18.59 0.0 0 0 403.15 803.45 A 18.59 18.59 0.0 0 0 421.74 784.86"/>
  </g>
  <path fill="#4dd7da" d=" M 886.36 592.22 L 872.75 592.44 L 872.74 591.95 Q 872.73 591.74 872.55 591.64 L 806.42 555.46 A 3.27 3.26 46.1 0 0 803.43 555.40 L 777.26 568.23 Q 772.96 571.31 767.72 572.37 Q 765.84 556.99 764.72 551.99 Q 761.23 536.37 754.84 521.70 A 1.47 1.46 52.1 0 1 755.02 520.23 Q 769.53 501.39 785.27 481.83 Q 796.05 468.44 794.62 451.74 C 793.46 438.05 783.90 424.81 770.87 419.67 Q 752.53 412.44 735.79 422.08 C 732.71 423.86 730.12 426.46 727.54 428.93 Q 726.88 429.56 726.84 428.65 C 726.76 427.08 726.68 425.56 726.45 424.03 Q 717.88 366.36 679.27 321.83 Q 662.88 302.92 644.83 290.36 Q 612.89 268.13 577.68 257.79 C 569.94 255.52 560.73 253.66 553.75 252.48 C 506.09 244.43 455.79 252.92 413.66 275.23 Q 406.00 279.28 396.84 285.24 Q 375.14 299.35 359.43 316.51 Q 299.58 381.90 301.89 471.93 Q 301.94 473.86 300.75 475.27 C 277.55 503.02 265.15 539.04 263.15 575.14 L 235.37 560.47 A 1.67 1.66 48.0 0 0 233.98 560.39 C 229.60 562.09 225.76 564.60 221.64 566.84 C 211.16 572.55 201.28 577.71 190.57 583.80 Q 181.76 588.81 178.48 589.91 Q 175.20 591.01 173.79 592.10 Q 161.66 592.71 148.49 591.82 Q 147.14 585.67 146.22 579.50 Q 142.03 551.52 141.87 523.08 Q 141.45 444.66 172.47 373.35 Q 197.74 315.26 238.96 269.86 Q 256.36 250.70 277.93 232.19 Q 296.85 215.95 317.53 203.20 C 344.88 186.36 373.16 172.08 402.56 162.12 Q 416.48 157.40 435.64 152.39 Q 453.26 147.78 481.56 144.30 Q 509.13 140.92 540.31 142.89 Q 573.29 144.97 607.16 153.50 Q 616.84 155.93 626.28 159.07 Q 728.24 192.87 799.53 273.16 Q 820.55 296.83 836.55 322.67 Q 875.83 386.10 888.16 458.88 Q 889.85 468.89 890.88 478.92 Q 896.31 531.70 887.95 584.25 Q 887.30 588.31 886.36 592.22 Z M 518.36 188.81 A 0.57 0.57 0.0 0 1 518.70 189.72 Q 516.61 192.33 514.23 194.79 C 511.56 197.54 511.25 201.77 515.37 203.42 Q 517.24 204.17 519.31 204.39 C 522.97 204.77 523.91 208.18 523.18 211.34 Q 522.82 212.93 521.23 213.66 C 517.54 215.36 513.70 215.71 510.59 213.16 C 506.73 209.99 501.39 206.28 497.50 211.98 C 495.07 215.55 498.03 220.69 501.05 222.85 Q 511.53 230.37 524.74 226.80 C 531.69 224.92 536.67 219.38 537.49 212.17 Q 538.49 203.28 530.58 196.54 A 1.19 1.19 0.0 0 1 530.33 195.02 Q 532.66 191.13 536.00 187.01 C 539.71 182.43 538.68 174.66 531.26 175.14 Q 518.30 175.98 505.20 175.42 C 501.74 175.27 498.36 176.10 497.42 179.94 C 495.93 186.02 500.43 189.11 505.95 188.89 C 509.88 188.73 514.64 188.11 518.36 188.81 Z M 639.69 219.63 Q 626.76 229.84 614.44 240.26 Q 608.10 245.63 612.77 251.65 C 615.85 255.62 620.57 254.02 623.68 251.30 Q 640.34 236.75 656.26 222.83 C 659.30 220.18 659.00 215.60 656.46 212.83 Q 655.07 211.31 652.13 210.03 Q 641.32 205.35 630.29 199.99 Q 628.17 198.96 625.55 198.58 C 619.16 197.63 616.32 205.75 621.14 209.55 Q 623.18 211.15 625.41 212.16 Q 631.93 215.08 639.48 218.16 A 0.86 0.86 0.0 0 1 639.69 219.63 Z M 411.00 234.76 A 0.49 0.49 0.0 0 1 410.92 234.12 C 417.14 224.77 422.99 212.64 412.63 203.39 C 402.93 194.73 385.28 199.22 381.17 211.69 Q 379.24 217.56 382.44 221.28 C 385.74 225.13 392.33 224.46 393.72 218.98 C 394.53 215.77 395.93 211.79 399.96 211.98 C 404.84 212.20 405.45 217.22 403.49 220.73 Q 399.48 227.92 393.30 236.63 C 391.52 239.15 389.47 242.48 389.54 245.57 Q 389.65 249.93 393.89 251.43 Q 396.30 252.29 400.34 251.13 Q 412.24 247.72 423.51 245.03 Q 426.36 244.35 429.29 242.80 C 431.20 241.79 431.68 239.51 431.36 237.55 C 430.34 231.36 425.34 230.77 420.30 232.56 Q 415.71 234.18 411.59 234.93 Q 411.25 234.99 411.00 234.76 Z M 323.82 286.78 Q 318.59 277.04 312.82 268.79 Q 308.74 262.97 302.80 264.48 C 296.43 266.09 294.74 271.06 294.40 276.95 Q 293.75 288.51 292.54 301.16 Q 292.14 305.39 293.11 308.42 C 294.74 313.47 299.80 314.35 304.22 312.26 Q 310.94 309.07 317.50 306.22 Q 318.85 305.64 319.73 306.81 C 322.75 310.87 325.11 313.80 330.74 311.40 C 335.52 309.37 334.18 302.87 331.90 299.75 A 1.18 1.18 0.0 0 1 332.37 297.98 C 333.31 297.55 334.27 297.10 334.67 296.07 C 336.29 291.97 334.96 287.06 330.13 286.31 C 328.26 286.02 326.49 286.89 324.66 287.19 A 0.80 0.79 -18.9 0 1 323.82 286.78 Z M 727.27 287.92 A 0.80 0.79 -38.8 0 1 727.43 286.48 Q 730.98 285.32 734.42 286.05 C 737.06 286.61 739.18 289.54 741.06 291.35 C 745.18 295.34 752.22 292.91 751.65 286.57 C 751.19 281.41 746.81 277.14 742.13 275.00 Q 727.35 268.23 714.56 278.09 Q 709.24 282.19 704.03 290.43 C 696.97 301.61 701.44 317.02 715.04 320.26 Q 720.56 321.57 724.52 320.87 Q 739.08 318.31 738.69 302.92 Q 738.55 297.31 734.43 292.77 C 732.55 290.71 729.69 289.35 727.27 287.92 Z M 774.31 339.15 A 8.88 8.88 0.0 0 0 765.43 330.27 A 8.88 8.88 0.0 0 0 756.55 339.15 A 8.88 8.88 0.0 0 0 765.43 348.03 A 8.88 8.88 0.0 0 0 774.31 339.15 Z M 278.71 339.36 A 8.90 8.90 0.0 0 0 269.81 330.46 A 8.90 8.90 0.0 0 0 260.91 339.36 A 8.90 8.90 0.0 0 0 269.81 348.26 A 8.90 8.90 0.0 0 0 278.71 339.36 Z M 800.36 386.75 A 0.56 0.56 0.0 0 1 799.79 386.08 Q 801.70 376.45 795.98 370.80 C 791.55 366.42 784.33 365.25 778.41 367.01 C 768.60 369.93 762.21 379.46 765.34 389.41 Q 768.02 397.93 776.92 399.45 A 0.92 0.91 13.6 0 1 777.64 400.62 Q 775.37 407.79 779.79 414.11 Q 784.11 420.30 792.83 421.47 C 799.98 422.43 808.78 419.52 812.65 413.32 C 817.37 405.77 816.49 395.67 809.66 389.92 Q 805.70 386.60 800.36 386.75 Z M 241.52 413.34 Q 241.40 414.98 241.27 416.56 C 240.83 421.58 243.95 425.68 249.21 425.01 C 254.59 424.32 255.53 418.52 255.07 414.01 A 0.83 0.83 0.0 0 1 256.12 413.12 C 261.27 414.55 264.27 411.58 263.75 406.42 C 263.34 402.30 260.40 401.30 256.84 400.98 A 0.78 0.77 3.2 0 1 256.14 400.20 Q 256.25 392.21 256.52 383.27 C 256.61 380.28 256.38 376.44 253.26 375.28 C 251.57 374.65 250.29 373.94 249.52 372.16 C 248.44 369.67 246.33 366.73 243.28 367.06 Q 239.37 367.49 237.01 370.56 Q 229.01 380.97 217.14 396.48 C 212.69 402.28 215.22 409.61 222.83 410.57 Q 231.38 411.64 240.55 412.24 Q 241.59 412.30 241.52 413.34 Z M 824.9503 464.8622 A 11.27 10.97 51.6 0 0 826.5471 449.2160 A 11.27 10.97 51.6 0 0 810.9497 447.1978 A 11.27 10.97 51.6 0 0 809.3529 462.8440 A 11.27 10.97 51.6 0 0 824.9503 464.8622 Z M 225.3470 466.8651 A 11.44 11.12 54.6 0 0 227.7842 451.0984 A 11.44 11.12 54.6 0 0 212.0930 448.2149 A 11.44 11.12 54.6 0 0 209.6558 463.9816 A 11.44 11.12 54.6 0 0 225.3470 466.8651 Z M 208.86 508.80 Q 205.48 506.51 209.53 505.93 Q 215.79 505.03 220.71 503.64 C 229.04 501.30 224.93 491.18 217.57 491.34 Q 205.53 491.62 195.30 497.55 C 182.56 504.93 172.21 518.71 180.83 533.16 C 189.41 547.51 214.53 545.45 217.77 527.38 C 219.22 519.28 215.27 513.14 208.86 508.80 Z M 826.73 519.22 Q 825.49 530.12 824.98 541.47 C 824.54 551.23 838.79 552.78 839.43 542.22 Q 840.42 525.68 842.30 499.62 Q 842.67 494.56 838.31 492.48 C 835.12 490.96 831.82 493.65 829.81 496.02 Q 823.65 503.26 814.98 510.19 C 810.99 513.38 808.23 517.76 813.18 522.04 C 817.28 525.59 822.16 521.09 824.92 518.34 Q 827.07 516.19 826.73 519.22 Z"/>
  <path fill="#fdfffe" d=" M 518.36 188.81 C 514.64 188.11 509.88 188.73 505.95 188.89 C 500.43 189.11 495.93 186.02 497.42 179.94 C 498.36 176.10 501.74 175.27 505.20 175.42 Q 518.30 175.98 531.26 175.14 C 538.68 174.66 539.71 182.43 536.00 187.01 Q 532.66 191.13 530.33 195.02 A 1.19 1.19 0.0 0 0 530.58 196.54 Q 538.49 203.28 537.49 212.17 C 536.67 219.38 531.69 224.92 524.74 226.80 Q 511.53 230.37 501.05 222.85 C 498.03 220.69 495.07 215.55 497.50 211.98 C 501.39 206.28 506.73 209.99 510.59 213.16 C 513.70 215.71 517.54 215.36 521.23 213.66 Q 522.82 212.93 523.18 211.34 C 523.91 208.18 522.97 204.77 519.31 204.39 Q 517.24 204.17 515.37 203.42 C 511.25 201.77 511.56 197.54 514.23 194.79 Q 516.61 192.33 518.70 189.72 A 0.57 0.57 0.0 0 0 518.36 188.81 Z"/>
  <path fill="#fdfffe" d=" M 639.69 219.63 A 0.86 0.86 0.0 0 0 639.48 218.16 Q 631.93 215.08 625.41 212.16 Q 623.18 211.15 621.14 209.55 C 616.32 205.75 619.16 197.63 625.55 198.58 Q 628.17 198.96 630.29 199.99 Q 641.32 205.35 652.13 210.03 Q 655.07 211.31 656.46 212.83 C 659.00 215.60 659.30 220.18 656.26 222.83 Q 640.34 236.75 623.68 251.30 C 620.57 254.02 615.85 255.62 612.77 251.65 Q 608.10 245.63 614.44 240.26 Q 626.76 229.84 639.69 219.63 Z"/>
  <path fill="#fdfffe" d=" M 411.00 234.76 Q 411.25 234.99 411.59 234.93 Q 415.71 234.18 420.30 232.56 C 425.34 230.77 430.34 231.36 431.36 237.55 C 431.68 239.51 431.20 241.79 429.29 242.80 Q 426.36 244.35 423.51 245.03 Q 412.24 247.72 400.34 251.13 Q 396.30 252.29 393.89 251.43 Q 389.65 249.93 389.54 245.57 C 389.47 242.48 391.52 239.15 393.30 236.63 Q 399.48 227.92 403.49 220.73 C 405.45 217.22 404.84 212.20 399.96 211.98 C 395.93 211.79 394.53 215.77 393.72 218.98 C 392.33 224.46 385.74 225.13 382.44 221.28 Q 379.24 217.56 381.17 211.69 C 385.28 199.22 402.93 194.73 412.63 203.39 C 422.99 212.64 417.14 224.77 410.92 234.12 A 0.49 0.49 0.0 0 0 411.00 234.76 Z"/>
  <path fill="#1d3645" d=" M 767.72 572.37 L 768.13 591.53 L 766.91 606.36 L 764.18 620.75 Q 763.30 622.33 763.40 624.54 A 2.01 2.01 0.0 0 0 764.25 626.10 L 789.44 643.73 Q 799.97 652.05 797.26 666.15 Q 795.00 670.62 794.11 671.86 Q 791.39 675.64 787.95 678.09 Q 777.77 683.33 767.04 682.95 Q 749.62 682.77 732.80 682.95 C 728.94 682.99 725.84 686.33 722.99 688.39 Q 713.98 694.90 703.26 697.49 Q 697.82 698.81 686.64 698.78 Q 672.42 698.74 658.19 698.75 Q 639.49 698.48 620.75 698.80 Q 617.30 698.86 616.42 699.41 Q 609.98 703.37 587.38 719.39 Q 570.90 729.72 553.41 740.66 Q 548.48 743.75 543.67 745.88 C 536.12 749.23 528.89 742.91 530.23 734.99 Q 531.28 728.75 532.49 722.09 L 536.79 699.38 A 0.55 0.54 5.2 0 0 536.25 698.74 L 376.07 698.79 Q 362.48 698.74 349.25 698.73 Q 335.04 698.72 329.79 697.35 Q 317.82 694.23 309.19 686.78 Q 306.61 684.55 304.31 683.04 Q 303.82 682.71 303.22 682.72 Q 287.30 682.83 268.68 682.78 Q 257.73 682.75 255.71 682.46 C 244.98 680.92 237.08 676.38 233.24 665.82 C 230.35 654.74 235.72 647.89 243.96 641.37 L 267.97 624.91 Q 268.38 624.63 268.41 624.12 Q 268.53 621.37 267.67 620.14 L 265.20 608.08 L 263.31 592.48 L 263.15 575.14 C 265.15 539.04 277.55 503.02 300.75 475.27 Q 301.94 473.86 301.89 471.93 Q 299.58 381.90 359.43 316.51 Q 375.14 299.35 396.84 285.24 Q 406.00 279.28 413.66 275.23 C 455.79 252.92 506.09 244.43 553.75 252.48 C 560.73 253.66 569.94 255.52 577.68 257.79 Q 612.89 268.13 644.83 290.36 Q 662.88 302.92 679.27 321.83 Q 717.88 366.36 726.45 424.03 C 726.68 425.56 726.76 427.08 726.84 428.65 Q 726.88 429.56 727.54 428.93 C 730.12 426.46 732.71 423.86 735.79 422.08 Q 752.53 412.44 770.87 419.67 C 783.90 424.81 793.46 438.05 794.62 451.74 Q 796.05 468.44 785.27 481.83 Q 769.53 501.39 755.02 520.23 A 1.47 1.46 52.1 0 0 754.84 521.70 Q 761.23 536.37 764.72 551.99 Q 765.84 556.99 767.72 572.37 Z M 365.02 616.84 L 364.84 638.19 Q 364.84 638.73 365.38 638.66 Q 397.71 633.99 431.98 638.04 Q 453.25 640.55 474.38 648.36 Q 497.10 656.76 513.48 671.58 Q 514.63 672.62 515.64 673.81 A 0.72 0.72 0.0 0 0 516.72 673.83 Q 530.21 659.15 547.40 649.51 C 548.01 649.17 548.87 648.42 549.13 647.78 Q 551.36 642.35 554.26 639.66 C 560.56 633.80 567.35 627.64 572.82 620.77 C 583.66 607.14 594.89 593.41 605.60 579.82 Q 633.66 544.21 662.10 508.92 Q 669.01 500.34 674.52 493.20 Q 688.23 475.43 702.00 457.66 Q 703.98 455.10 705.42 452.74 Q 705.91 451.96 705.86 451.04 Q 705.49 443.65 704.77 435.76 Q 700.40 387.75 671.99 348.74 Q 642.52 309.41 597.96 289.72 Q 527.31 258.28 453.95 282.57 Q 426.38 291.70 401.91 308.85 C 376.63 326.57 356.22 352.11 342.97 379.92 Q 322.65 422.54 324.61 469.99 Q 324.90 476.93 325.16 484.19 C 325.22 485.91 325.93 487.49 326.64 489.05 C 334.66 506.53 343.01 525.15 349.35 542.72 Q 362.49 579.16 365.02 616.84 Z M 740.28 453.88 L 757.64 466.69 L 764.12 471.50 A 1.58 1.57 -47.2 0 0 766.10 471.42 C 772.20 466.05 776.26 458.19 773.11 450.01 Q 769.54 441.03 760.85 438.70 C 750.04 435.82 741.62 440.47 735.91 449.43 A 0.70 0.70 0.0 0 0 736.05 450.35 L 740.28 453.88 Z M 590.06 643.20 L 607.13 656.25 L 616.23 663.27 A 1.43 1.42 36.8 0 0 618.25 662.98 Q 628.74 648.55 639.26 635.57 C 651.46 620.53 662.92 605.59 675.18 590.19 C 681.61 582.10 687.26 573.85 693.56 565.83 Q 708.02 547.40 722.67 528.65 C 728.18 521.60 733.70 514.92 738.87 507.57 Q 745.04 498.78 751.48 490.10 Q 753.12 487.89 750.92 486.24 L 745.49 482.15 L 727.70 468.94 L 723.82 466.27 Q 723.43 466.00 723.13 466.38 L 586.08 639.45 Q 585.75 639.86 586.17 640.18 L 590.06 643.20 Z M 335.65 668.28 Q 340.55 654.33 341.51 639.00 Q 343.29 610.66 337.39 584.01 Q 334.19 569.58 327.75 551.51 Q 320.13 530.16 311.96 512.85 L 307.54 504.29 A 0.18 0.18 0.0 0 0 307.23 504.28 C 283.45 545.79 277.94 597.53 300.05 640.99 Q 311.16 662.81 331.78 675.48 Q 332.21 675.75 332.43 675.29 L 335.65 668.28 Z M 698.67 666.21 L 702.45 676.11 A 0.40 0.40 0.0 0 0 703.03 676.31 C 711.39 671.18 718.44 665.19 724.38 657.06 Q 737.01 639.81 741.73 618.24 Q 749.69 581.85 739.38 546.31 L 738.11 542.20 A 0.32 0.32 0.0 0 0 737.51 542.16 Q 736.91 543.44 736.05 544.57 Q 716.81 569.86 697.19 595.28 Q 696.40 596.30 696.26 597.58 Q 693.57 621.96 694.98 647.00 Q 695.38 654.13 698.67 666.21 Z M 669.3299 630.9308 A 1.50 0.77 133.9 0 0 670.9248 630.3839 A 1.50 0.77 133.9 0 0 671.4101 628.7692 A 1.50 0.77 133.9 0 0 669.8152 629.3161 A 1.50 0.77 133.9 0 0 669.3299 630.9308 Z M 262.31 661.17 L 285.15 661.42 Q 285.65 661.42 285.40 660.99 L 279.40 650.72 L 274.80 641.92 Q 274.55 641.45 274.17 641.82 Q 265.18 650.38 255.62 658.49 Q 254.74 659.23 254.75 660.33 A 0.74 0.73 90.0 0 0 255.47 661.06 L 262.31 661.17 Z M 756.24 646.03 C 753.69 651.10 751.14 656.30 747.66 660.84 A 0.38 0.38 0.0 0 0 747.97 661.45 Q 758.56 661.42 770.00 661.42 Q 772.97 661.43 774.60 661.16 Q 777.19 660.73 775.07 659.18 L 756.89 645.87 A 0.44 0.44 0.0 0 0 756.24 646.03 Z M 678.79 676.74 Q 674.39 664.37 672.63 652.10 A 1.17 1.16 -3.5 0 0 671.50 651.10 Q 664.18 650.95 656.09 651.29 C 654.65 651.34 653.34 651.16 652.34 652.44 Q 642.86 664.54 633.19 676.75 A 0.12 0.12 0.0 0 0 633.29 676.94 L 678.51 677.13 A 0.30 0.29 -9.7 0 0 678.79 676.74 Z M 560.59 712.35 C 577.41 701.47 590.70 691.55 605.73 680.95 A 0.53 0.52 -44.4 0 0 605.74 680.10 L 594.23 671.46 L 568.11 652.53 Q 567.61 652.16 567.47 652.77 L 553.11 717.46 Q 552.94 718.18 553.53 717.73 L 560.59 712.35 Z M 481.78 674.61 Q 456.88 661.10 426.10 657.86 Q 395.51 654.64 362.68 658.62 A 0.77 0.77 0.0 0 0 362.02 659.23 Q 360.29 667.75 356.62 676.28 Q 356.35 676.90 357.03 676.90 L 484.82 677.01 Q 485.52 677.01 484.95 676.60 Q 483.50 675.55 481.78 674.61 Z"/>
  <path fill="#fdfffe" d=" M 323.82 286.78 A 0.80 0.79 -18.9 0 0 324.66 287.19 C 326.49 286.89 328.26 286.02 330.13 286.31 C 334.96 287.06 336.29 291.97 334.67 296.07 C 334.27 297.10 333.31 297.55 332.37 297.98 A 1.18 1.18 0.0 0 0 331.90 299.75 C 334.18 302.87 335.52 309.37 330.74 311.40 C 325.11 313.80 322.75 310.87 319.73 306.81 Q 318.85 305.64 317.50 306.22 Q 310.94 309.07 304.22 312.26 C 299.80 314.35 294.74 313.47 293.11 308.42 Q 292.14 305.39 292.54 301.16 Q 293.75 288.51 294.40 276.95 C 294.74 271.06 296.43 266.09 302.80 264.48 Q 308.74 262.97 312.82 268.79 Q 318.59 277.04 323.82 286.78 Z M 307.01 296.73 L 311.16 295.24 A 1.58 1.58 0.0 0 0 312.01 292.98 Q 309.95 289.24 307.68 285.31 Q 307.48 284.98 307.11 285.05 A 0.66 0.65 81.9 0 0 306.58 285.76 Q 307.15 291.15 306.13 295.96 Q 305.89 297.13 307.01 296.73 Z"/>
  <path fill="#fdfffe" d=" M 597.96 289.72 Q 597.88 290.91 597.47 290.77 Q 583.80 286.11 569.25 283.92 C 557.41 282.14 543.99 282.06 532.20 282.43 C 513.16 283.03 494.79 286.69 476.23 291.96 C 458.27 297.05 441.50 304.40 425.17 312.57 Q 419.58 315.37 413.11 319.12 C 407.10 322.60 400.99 325.81 395.35 329.75 Q 392.55 331.71 389.55 333.50 Q 389.41 333.58 389.52 333.70 L 389.76 333.93 A 0.72 0.70 -38.0 0 0 390.63 334.03 Q 401.86 327.13 413.24 323.81 Q 449.10 313.36 481.98 329.29 C 495.42 335.81 507.43 345.05 514.99 358.08 Q 515.51 358.96 516.34 359.53 A 0.82 0.81 32.6 0 0 517.48 359.28 Q 528.01 342.51 543.81 333.17 C 566.88 319.54 596.90 315.70 622.10 325.14 Q 646.33 334.22 663.33 354.94 Q 692.56 394.29 684.66 442.72 C 682.28 457.34 675.57 469.45 666.41 481.22 C 662.04 486.84 657.65 492.30 652.91 497.69 Q 638.72 513.81 625.52 529.38 C 603.84 554.94 581.79 580.11 560.48 605.15 Q 554.62 612.03 547.54 619.88 Q 537.91 630.54 530.31 641.52 Q 529.31 642.97 528.04 644.17 Q 521.66 650.21 516.21 655.80 A 1.39 1.39 0.0 0 1 514.24 655.81 Q 497.01 638.61 475.97 629.37 Q 453.06 619.30 427.64 616.26 Q 407.60 613.86 390.25 614.60 Q 381.97 614.96 365.02 616.84 Q 362.49 579.16 349.35 542.72 C 343.01 525.15 334.66 506.53 326.64 489.05 C 325.93 487.49 325.22 485.91 325.16 484.19 Q 324.90 476.93 324.61 469.99 Q 322.65 422.54 342.97 379.92 C 356.22 352.11 376.63 326.57 401.91 308.85 Q 426.38 291.70 453.95 282.57 Q 527.31 258.28 597.96 289.72 Z M 459.50 423.44 A 38.97 38.97 0.0 0 0 420.53 384.47 A 38.97 38.97 0.0 0 0 381.56 423.44 A 38.97 38.97 0.0 0 0 420.53 462.41 A 38.97 38.97 0.0 0 0 459.50 423.44 Z M 617.5095 462.4263 A 39.11 38.62 83.6 0 0 651.5293 419.2551 A 39.11 38.62 83.6 0 0 608.7905 384.6937 A 39.11 38.62 83.6 0 0 574.7707 427.8649 A 39.11 38.62 83.6 0 0 617.5095 462.4263 Z M 497.19 412.97 Q 482.81 420.90 477.79 437.14 C 474.53 447.69 476.36 461.81 480.71 472.49 Q 488.41 491.38 503.18 506.58 Q 507.38 510.91 512.12 513.89 Q 516.72 516.80 521.40 514.16 Q 525.97 511.58 529.90 507.75 C 545.39 492.68 558.40 471.14 558.77 449.51 C 559.03 434.59 551.62 421.03 538.67 413.63 C 525.98 406.38 509.52 406.18 497.19 412.97 Z M 423.6797 479.0130 A 18.53 10.81 -0.3 0 0 405.0934 468.3001 A 18.53 10.81 -0.3 0 0 386.6203 479.2070 A 18.53 10.81 -0.3 0 0 405.2066 489.9199 A 18.53 10.81 -0.3 0 0 423.6797 479.0130 Z M 648.0597 479.2583 A 18.77 10.91 0.3 0 0 629.3471 468.2501 A 18.77 10.91 0.3 0 0 610.5203 479.0617 A 18.77 10.91 0.3 0 0 629.2329 490.0699 A 18.77 10.91 0.3 0 0 648.0597 479.2583 Z"/>
  <path fill="#fdfffe" d=" M 727.27 287.92 C 729.69 289.35 732.55 290.71 734.43 292.77 Q 738.55 297.31 738.69 302.92 Q 739.08 318.31 724.52 320.87 Q 720.56 321.57 715.04 320.26 C 701.44 317.02 696.97 301.61 704.03 290.43 Q 709.24 282.19 714.56 278.09 Q 727.35 268.23 742.13 275.00 C 746.81 277.14 751.19 281.41 751.65 286.57 C 752.22 292.91 745.18 295.34 741.06 291.35 C 739.18 289.54 737.06 286.61 734.42 286.05 Q 730.98 285.32 727.43 286.48 A 0.80 0.79 -38.8 0 0 727.27 287.92 Z M 723.4040 307.1623 A 5.93 5.11 50.6 0 0 723.5887 299.3365 A 5.93 5.11 50.6 0 0 715.8760 297.9977 A 5.93 5.11 50.6 0 0 715.6913 305.8235 A 5.93 5.11 50.6 0 0 723.4040 307.1623 Z"/>
  <path fill="#4dd7da" d=" M 597.96 289.72 Q 642.52 309.41 671.99 348.74 Q 668.79 350.02 667.31 353.42 Q 667.05 354.02 666.40 354.12 Q 665.96 354.20 665.70 354.57 Q 665.33 355.11 664.71 354.90 Q 664.08 354.68 663.33 354.94 Q 646.33 334.22 622.10 325.14 C 596.90 315.70 566.88 319.54 543.81 333.17 Q 528.01 342.51 517.48 359.28 A 0.82 0.81 32.6 0 1 516.34 359.53 Q 515.51 358.96 514.99 358.08 C 507.43 345.05 495.42 335.81 481.98 329.29 Q 449.10 313.36 413.24 323.81 Q 401.86 327.13 390.63 334.03 A 0.72 0.70 -38.0 0 1 389.76 333.93 L 389.52 333.70 Q 389.41 333.58 389.55 333.50 Q 392.55 331.71 395.35 329.75 C 400.99 325.81 407.10 322.60 413.11 319.12 Q 419.58 315.37 425.17 312.57 C 441.50 304.40 458.27 297.05 476.23 291.96 C 494.79 286.69 513.16 283.03 532.20 282.43 C 543.99 282.06 557.41 282.14 569.25 283.92 Q 583.80 286.11 597.47 290.77 Q 597.88 290.91 597.96 289.72 Z"/>
  <path fill="#4dd7da" d=" M 307.01 296.73 Q 305.89 297.13 306.13 295.96 Q 307.15 291.15 306.58 285.76 A 0.66 0.65 81.9 0 1 307.11 285.05 Q 307.48 284.98 307.68 285.31 Q 309.95 289.24 312.01 292.98 A 1.58 1.58 0.0 0 1 311.16 295.24 L 307.01 296.73 Z"/>
  <ellipse fill="#4dd7da" cx="0.00" cy="0.00" transform="translate(719.64,302.58) rotate(50.6)" rx="5.93" ry="5.11"/>
  <circle fill="#a9d32f" cx="765.43" cy="339.15" r="8.88"/>
  <circle fill="#a9d32f" cx="269.81" cy="339.36" r="8.90"/>
  <path fill="#bee3eb" d=" M 671.99 348.74 Q 700.40 387.75 704.77 435.76 Q 705.49 443.65 705.86 451.04 Q 705.91 451.96 705.42 452.74 Q 703.98 455.10 702.00 457.66 Q 688.23 475.43 674.52 493.20 Q 669.01 500.34 662.10 508.92 Q 633.66 544.21 605.60 579.82 C 594.89 593.41 583.66 607.14 572.82 620.77 C 567.35 627.64 560.56 633.80 554.26 639.66 Q 551.36 642.35 549.13 647.78 C 548.87 648.42 548.01 649.17 547.40 649.51 Q 530.21 659.15 516.72 673.83 A 0.72 0.72 0.0 0 1 515.64 673.81 Q 514.63 672.62 513.48 671.58 Q 497.10 656.76 474.38 648.36 Q 453.25 640.55 431.98 638.04 Q 397.71 633.99 365.38 638.66 Q 364.84 638.73 364.84 638.19 L 365.02 616.84 Q 381.97 614.96 390.25 614.60 Q 407.60 613.86 427.64 616.26 Q 453.06 619.30 475.97 629.37 Q 497.01 638.61 514.24 655.81 A 1.39 1.39 0.0 0 0 516.21 655.80 Q 521.66 650.21 528.04 644.17 Q 529.31 642.97 530.31 641.52 Q 537.91 630.54 547.54 619.88 Q 554.62 612.03 560.48 605.15 C 581.79 580.11 603.84 554.94 625.52 529.38 Q 638.72 513.81 652.91 497.69 C 657.65 492.30 662.04 486.84 666.41 481.22 C 675.57 469.45 682.28 457.34 684.66 442.72 Q 692.56 394.29 663.33 354.94 Q 664.08 354.68 664.71 354.90 Q 665.33 355.11 665.70 354.57 Q 665.96 354.20 666.40 354.12 Q 667.05 354.02 667.31 353.42 Q 668.79 350.02 671.99 348.74 Z"/>
  <path fill="#fdfffe" d=" M 800.36 386.75 Q 805.70 386.60 809.66 389.92 C 816.49 395.67 817.37 405.77 812.65 413.32 C 808.78 419.52 799.98 422.43 792.83 421.47 Q 784.11 420.30 779.79 414.11 Q 775.37 407.79 777.64 400.62 A 0.92 0.91 13.6 0 0 776.92 399.45 Q 768.02 397.93 765.34 389.41 C 762.21 379.46 768.60 369.93 778.41 367.01 C 784.33 365.25 791.55 366.42 795.98 370.80 Q 801.70 376.45 799.79 386.08 A 0.56 0.56 0.0 0 0 800.36 386.75 Z M 787.5219 382.9105 A 4.81 4.42 -6.2 0 0 782.2626 379.0359 A 4.81 4.42 -6.2 0 0 777.9581 383.9495 A 4.81 4.42 -6.2 0 0 783.2174 387.8241 A 4.81 4.42 -6.2 0 0 787.5219 382.9105 Z M 801.2602 400.5630 A 5.89 5.47 -27.8 0 0 793.4989 398.4713 A 5.89 5.47 -27.8 0 0 790.8398 406.0570 A 5.89 5.47 -27.8 0 0 798.6011 408.1487 A 5.89 5.47 -27.8 0 0 801.2602 400.5630 Z"/>
  <path fill="#fdfffe" d=" M 241.52 413.34 Q 241.59 412.30 240.55 412.24 Q 231.38 411.64 222.83 410.57 C 215.22 409.61 212.69 402.28 217.14 396.48 Q 229.01 380.97 237.01 370.56 Q 239.37 367.49 243.28 367.06 C 246.33 366.73 248.44 369.67 249.52 372.16 C 250.29 373.94 251.57 374.65 253.26 375.28 C 256.38 376.44 256.61 380.28 256.52 383.27 Q 256.25 392.21 256.14 400.20 A 0.78 0.77 3.2 0 0 256.84 400.98 C 260.40 401.30 263.34 402.30 263.75 406.42 C 264.27 411.58 261.27 414.55 256.12 413.12 A 0.83 0.83 0.0 0 0 255.07 414.01 C 255.53 418.52 254.59 424.32 249.21 425.01 C 243.95 425.68 240.83 421.58 241.27 416.56 Q 241.40 414.98 241.52 413.34 Z M 232.31 398.84 A 0.31 0.31 0.0 0 0 232.54 399.34 L 242.08 399.99 A 0.31 0.31 0.0 0 0 242.41 399.69 L 243.00 385.54 A 0.31 0.31 0.0 0 0 242.44 385.34 L 232.31 398.84 Z"/>
  <ellipse fill="#4dd7da" cx="0.00" cy="0.00" transform="translate(782.74,383.43) rotate(-6.2)" rx="4.81" ry="4.42"/>
  <path fill="#1d3645" d=" M 459.50 423.44 A 38.97 38.97 0.0 0 1 420.53 462.41 A 38.97 38.97 0.0 0 1 381.56 423.44 A 38.97 38.97 0.0 0 1 420.53 384.47 A 38.97 38.97 0.0 0 1 459.50 423.44 Z M 425.9675 417.0301 A 11.77 11.47 37.9 0 0 423.7259 400.7492 A 11.77 11.47 37.9 0 0 407.3925 402.5699 A 11.77 11.47 37.9 0 0 409.6341 418.8508 A 11.77 11.47 37.9 0 0 425.9675 417.0301 Z M 403.4259 442.3172 A 7.22 6.69 74.2 0 0 407.8972 433.5484 A 7.22 6.69 74.2 0 0 399.4941 428.4228 A 7.22 6.69 74.2 0 0 395.0228 437.1916 A 7.22 6.69 74.2 0 0 403.4259 442.3172 Z"/>
  <path fill="#1d3645" d=" M 617.5095 462.4263 A 39.11 38.62 83.6 0 1 574.7707 427.8649 A 39.11 38.62 83.6 0 1 608.7905 384.6937 A 39.11 38.62 83.6 0 1 651.5293 419.2551 A 39.11 38.62 83.6 0 1 617.5095 462.4263 Z M 628.52 409.81 A 11.64 11.64 0.0 0 0 616.88 398.17 A 11.64 11.64 0.0 0 0 605.24 409.81 A 11.64 11.64 0.0 0 0 616.88 421.45 A 11.64 11.64 0.0 0 0 628.52 409.81 Z M 595.5168 442.2286 A 7.08 6.52 76.3 0 0 600.1745 433.8058 A 7.08 6.52 76.3 0 0 592.1632 428.4714 A 7.08 6.52 76.3 0 0 587.5055 436.8942 A 7.08 6.52 76.3 0 0 595.5168 442.2286 Z"/>
  <path fill="#4dd7da" d=" M 232.31 398.84 L 242.44 385.34 A 0.31 0.31 0.0 0 1 243.00 385.54 L 242.41 399.69 A 0.31 0.31 0.0 0 1 242.08 399.99 L 232.54 399.34 A 0.31 0.31 0.0 0 1 232.31 398.84 Z"/>
  <ellipse fill="#4dd7da" cx="0.00" cy="0.00" transform="translate(796.05,403.31) rotate(-27.8)" rx="5.89" ry="5.47"/>
  <ellipse fill="#fdfffe" cx="0.00" cy="0.00" transform="translate(416.68,409.80) rotate(37.9)" rx="11.77" ry="11.47"/>
  <circle fill="#fdfffe" cx="616.88" cy="409.81" r="11.64"/>
  <path fill="#1d3645" d=" M 497.19 412.97 C 509.52 406.18 525.98 406.38 538.67 413.63 C 551.62 421.03 559.03 434.59 558.77 449.51 C 558.40 471.14 545.39 492.68 529.90 507.75 Q 525.97 511.58 521.40 514.16 Q 516.72 516.80 512.12 513.89 Q 507.38 510.91 503.18 506.58 Q 488.41 491.38 480.71 472.49 C 476.36 461.81 474.53 447.69 477.79 437.14 Q 482.81 420.90 497.19 412.97 Z M 496.59 455.82 Q 501.34 475.42 515.94 491.45 Q 515.86 491.93 516.83 492.43 Q 517.31 492.68 517.70 492.32 Q 523.33 487.26 527.32 480.92 C 535.00 468.71 546.36 447.91 533.63 435.14 C 529.09 430.58 523.15 427.30 516.55 428.08 Q 509.74 428.15 504.18 431.93 C 496.26 437.31 494.31 446.88 496.59 455.82 Z"/>
  <path fill="#fdfffe" d=" M 516.55 428.08 L 515.79 430.95 Q 507.29 431.90 502.59 438.07 Q 497.29 445.01 497.79 454.50 Q 497.87 456.11 496.59 455.82 C 494.31 446.88 496.26 437.31 504.18 431.93 Q 509.74 428.15 516.55 428.08 Z"/>
  <path fill="#23aac2" d=" M 516.55 428.08 C 523.15 427.30 529.09 430.58 533.63 435.14 C 546.36 447.91 535.00 468.71 527.32 480.92 Q 523.33 487.26 517.70 492.32 Q 517.31 492.68 516.83 492.43 Q 515.86 491.93 515.94 491.45 Q 516.55 486.88 516.49 482.47 Q 516.37 473.60 516.37 473.52 Q 516.85 452.24 515.79 430.95 L 516.55 428.08 Z"/>
  <ellipse fill="#fdfffe" cx="0.00" cy="0.00" transform="translate(401.46,435.37) rotate(74.2)" rx="7.22" ry="6.69"/>
  <ellipse fill="#fdfffe" cx="0.00" cy="0.00" transform="translate(593.84,435.35) rotate(76.3)" rx="7.08" ry="6.52"/>
  <path fill="#4dd7da" d=" M 515.79 430.95 Q 516.85 452.24 516.37 473.52 Q 516.37 473.60 516.49 482.47 Q 516.55 486.88 515.94 491.45 Q 501.34 475.42 496.59 455.82 Q 497.87 456.11 497.79 454.50 Q 497.29 445.01 502.59 438.07 Q 507.29 431.90 515.79 430.95 Z"/>
  <path fill="#fdfffe" d=" M 760.85 438.70 Q 746.57 442.52 740.28 453.88 L 736.05 450.35 A 0.70 0.70 0.0 0 1 735.91 449.43 C 741.62 440.47 750.04 435.82 760.85 438.70 Z"/>
  <path fill="#f43a01" d=" M 760.85 438.70 Q 769.54 441.03 773.11 450.01 L 772.98 450.53 Q 772.88 450.91 772.49 450.92 Q 772.30 450.93 772.18 450.80 A 1.49 1.45 48.5 0 0 770.19 450.65 Q 766.99 453.30 764.10 457.37 Q 762.64 459.44 760.70 461.89 Q 758.87 464.20 757.64 466.69 L 740.28 453.88 Q 746.57 442.52 760.85 438.70 Z"/>
  <ellipse fill="#f43a01" cx="0.00" cy="0.00" transform="translate(817.95,456.03) rotate(51.6)" rx="11.27" ry="10.97"/>
  <ellipse fill="#f43a01" cx="0.00" cy="0.00" transform="translate(218.72,457.54) rotate(54.6)" rx="11.44" ry="11.12"/>
  <path fill="#c92603" d=" M 773.11 450.01 C 776.26 458.19 772.20 466.05 766.10 471.42 A 1.58 1.57 -47.2 0 1 764.12 471.50 L 757.64 466.69 Q 758.87 464.20 760.70 461.89 Q 762.64 459.44 764.10 457.37 Q 766.99 453.30 770.19 450.65 A 1.49 1.45 48.5 0 1 772.18 450.80 Q 772.30 450.93 772.49 450.92 Q 772.88 450.91 772.98 450.53 L 773.11 450.01 Z"/>
  <path fill="#fdfffe" d=" M 727.70 468.94 L 590.06 643.20 L 586.17 640.18 Q 585.75 639.86 586.08 639.45 L 723.13 466.38 Q 723.43 466.00 723.82 466.27 L 727.70 468.94 Z"/>
  <ellipse fill="#f43a01" cx="0.00" cy="0.00" transform="translate(405.15,479.11) rotate(-0.3)" rx="18.53" ry="10.81"/>
  <ellipse fill="#f43a01" cx="0.00" cy="0.00" transform="translate(629.29,479.16) rotate(0.3)" rx="18.77" ry="10.91"/>
  <path fill="#f43a01" d=" M 727.70 468.94 L 745.49 482.15 Q 743.63 484.08 741.76 485.98 C 739.10 488.68 736.75 491.89 734.28 495.01 Q 716.82 517.07 699.54 539.26 Q 693.41 547.14 687.36 555.12 Q 664.41 585.37 639.47 615.99 Q 632.63 624.38 625.48 633.27 Q 616.27 644.72 607.13 656.25 L 590.06 643.20 L 727.70 468.94 Z"/>
  <path fill="#c92603" d=" M 745.49 482.15 L 750.92 486.24 Q 753.12 487.89 751.48 490.10 Q 745.04 498.78 738.87 507.57 C 733.70 514.92 728.18 521.60 722.67 528.65 Q 708.02 547.40 693.56 565.83 C 687.26 573.85 681.61 582.10 675.18 590.19 C 662.92 605.59 651.46 620.53 639.26 635.57 Q 628.74 648.55 618.25 662.98 A 1.43 1.42 36.8 0 1 616.23 663.27 L 607.13 656.25 Q 616.27 644.72 625.48 633.27 Q 632.63 624.38 639.47 615.99 Q 664.41 585.37 687.36 555.12 Q 693.41 547.14 699.54 539.26 Q 716.82 517.07 734.28 495.01 C 736.75 491.89 739.10 488.68 741.76 485.98 Q 743.63 484.08 745.49 482.15 Z"/>
  <path fill="#fdfffe" d=" M 208.86 508.80 C 215.27 513.14 219.22 519.28 217.77 527.38 C 214.53 545.45 189.41 547.51 180.83 533.16 C 172.21 518.71 182.56 504.93 195.30 497.55 Q 205.53 491.62 217.57 491.34 C 224.93 491.18 229.04 501.30 220.71 503.64 Q 215.79 505.03 209.53 505.93 Q 205.48 506.51 208.86 508.80 Z M 202.8441 527.1897 A 6.46 5.87 40.2 0 0 201.6988 518.5365 A 6.46 5.87 40.2 0 0 192.9759 518.8503 A 6.46 5.87 40.2 0 0 194.1212 527.5035 A 6.46 5.87 40.2 0 0 202.8441 527.1897 Z"/>
  <path fill="#fdfffe" d=" M 826.73 519.22 Q 827.07 516.19 824.92 518.34 C 822.16 521.09 817.28 525.59 813.18 522.04 C 808.23 517.76 810.99 513.38 814.98 510.19 Q 823.65 503.26 829.81 496.02 C 831.82 493.65 835.12 490.96 838.31 492.48 Q 842.67 494.56 842.30 499.62 Q 840.42 525.68 839.43 542.22 C 838.79 552.78 824.54 551.23 824.98 541.47 Q 825.49 530.12 826.73 519.22 Z"/>
  <path fill="#fdfffe" d=" M 311.96 512.85 Q 302.49 531.72 300.57 551.00 C 298.85 568.43 299.84 587.77 304.48 605.05 Q 310.33 626.85 319.94 644.83 Q 325.99 656.14 335.65 668.28 L 332.43 675.29 Q 332.21 675.75 331.78 675.48 Q 311.16 662.81 300.05 640.99 C 277.94 597.53 283.45 545.79 307.23 504.28 A 0.18 0.18 0.0 0 1 307.54 504.29 L 311.96 512.85 Z"/>
  <path fill="#4dd7da" d=" M 311.96 512.85 Q 320.13 530.16 327.75 551.51 Q 334.19 569.58 337.39 584.01 Q 343.29 610.66 341.51 639.00 Q 340.55 654.33 335.65 668.28 Q 325.99 656.14 319.94 644.83 Q 310.33 626.85 304.48 605.05 C 299.84 587.77 298.85 568.43 300.57 551.00 Q 302.49 531.72 311.96 512.85 Z"/>
  <ellipse fill="#4dd7da" cx="0.00" cy="0.00" transform="translate(197.91,523.02) rotate(40.2)" rx="6.46" ry="5.87"/>
  <path fill="#4dd7da" d=" M 739.38 546.31 Q 737.77 547.38 737.70 549.50 Q 737.38 559.00 737.08 568.50 Q 736.89 574.73 732.79 595.60 Q 729.83 610.65 721.82 629.47 Q 717.71 639.12 711.39 648.99 Q 709.35 652.18 705.06 657.62 Q 701.73 661.85 698.67 666.21 Q 695.38 654.13 694.98 647.00 Q 693.57 621.96 696.26 597.58 Q 696.40 596.30 697.19 595.28 Q 716.81 569.86 736.05 544.57 Q 736.91 543.44 737.51 542.16 A 0.32 0.32 0.0 0 1 738.11 542.20 L 739.38 546.31 Z"/>
  <path fill="#38bfce" d=" M 739.38 546.31 Q 749.69 581.85 741.73 618.24 Q 737.01 639.81 724.38 657.06 C 718.44 665.19 711.39 671.18 703.03 676.31 A 0.40 0.40 0.0 0 1 702.45 676.11 L 698.67 666.21 Q 701.73 661.85 705.06 657.62 Q 709.35 652.18 711.39 648.99 Q 717.71 639.12 721.82 629.47 Q 729.83 610.65 732.79 595.60 Q 736.89 574.73 737.08 568.50 Q 737.38 559.00 737.70 549.50 Q 737.77 547.38 739.38 546.31 Z"/>
  <path fill="#fdfffe" d=" M 872.75 592.44 Q 842.13 592.50 811.50 592.59 Q 809.76 592.60 805.75 591.28 Q 803.44 588.78 801.66 587.34 Q 794.03 581.17 784.22 573.95 C 781.90 572.24 779.64 570.14 777.26 568.23 L 803.43 555.40 A 3.27 3.26 46.1 0 1 806.42 555.46 L 872.55 591.64 Q 872.73 591.74 872.74 591.95 L 872.75 592.44 Z"/>
  <path fill="#fdfffe" d=" M 263.15 575.14 L 263.31 592.48 L 173.79 592.10 Q 175.20 591.01 178.48 589.91 Q 181.76 588.81 190.57 583.80 C 201.28 577.71 211.16 572.55 221.64 566.84 C 225.76 564.60 229.60 562.09 233.98 560.39 A 1.67 1.66 48.0 0 1 235.37 560.47 L 263.15 575.14 Z"/>
  <path fill="#bee3eb" d=" M 777.26 568.23 C 779.64 570.14 781.90 572.24 784.22 573.95 Q 794.03 581.17 801.66 587.34 Q 803.44 588.78 805.75 591.28 L 768.13 591.53 L 767.72 572.37 Q 772.96 571.31 777.26 568.23 Z"/>
  <path fill="#23aac2" d=" M 768.13 591.53 L 805.75 591.28 Q 809.76 592.60 811.50 592.59 Q 842.13 592.50 872.75 592.44 L 886.36 592.22 Q 881.69 616.92 873.98 641.05 Q 873.31 641.36 872.66 639.46 Q 872.49 638.99 871.99 639.01 Q 852.37 639.90 832.75 639.18 Q 831.11 639.12 828.96 640.49 Q 824.21 636.96 819.80 632.98 C 818.53 631.84 817.36 631.29 815.81 632.05 Q 801.68 639.04 789.44 643.73 L 764.25 626.10 A 2.01 2.01 0.0 0 1 763.40 624.54 Q 763.30 622.33 764.18 620.75 Q 786.72 620.59 809.00 620.31 Q 813.40 620.26 816.95 619.92 C 820.99 619.54 824.17 615.00 821.26 611.40 Q 818.78 608.34 815.20 608.30 Q 793.36 608.03 769.64 608.01 Q 769.12 608.01 768.70 607.69 L 766.91 606.36 L 768.13 591.53 Z"/>
  <path fill="#23aac2" d=" M 173.79 592.10 L 263.31 592.48 L 265.20 608.08 Q 242.82 607.27 220.39 608.33 Q 214.08 608.63 215.28 614.56 Q 215.91 617.70 218.13 619.24 Q 219.54 620.22 222.79 620.23 Q 245.11 620.26 267.67 620.14 Q 268.53 621.37 268.41 624.12 Q 268.38 624.63 267.97 624.91 L 243.96 641.37 L 230.85 632.86 Q 229.20 631.78 227.73 633.10 L 218.77 641.17 L 218.15 639.76 Q 217.93 639.28 217.40 639.28 L 160.56 639.63 Q 152.68 616.00 148.49 591.82 Q 161.66 592.71 173.79 592.10 Z"/>
  <path fill="#4dd7da" d=" M 766.91 606.36 L 768.70 607.69 Q 769.12 608.01 769.64 608.01 Q 793.36 608.03 815.20 608.30 Q 818.78 608.34 821.26 611.40 C 824.17 615.00 820.99 619.54 816.95 619.92 Q 813.40 620.26 809.00 620.31 Q 786.72 620.59 764.18 620.75 L 766.91 606.36 Z"/>
  <path fill="#4dd7da" d=" M 265.20 608.08 L 267.67 620.14 Q 245.11 620.26 222.79 620.23 Q 219.54 620.22 218.13 619.24 Q 215.91 617.70 215.28 614.56 Q 214.08 608.63 220.39 608.33 Q 242.82 607.27 265.20 608.08 Z"/>
  <ellipse fill="#bee3eb" cx="0.00" cy="0.00" transform="translate(670.37,629.85) rotate(133.9)" rx="1.50" ry="0.77"/>
  <path fill="#fdfffe" d=" M 828.96 640.49 L 853.61 662.08 L 857.32 665.36 A 0.46 0.46 0.0 0 1 857.01 666.16 L 797.26 666.15 Q 799.97 652.05 789.44 643.73 Q 801.68 639.04 815.81 632.05 C 817.36 631.29 818.53 631.84 819.80 632.98 Q 824.21 636.96 828.96 640.49 Z"/>
  <path fill="#fdfffe" d=" M 243.96 641.37 C 235.72 647.89 230.35 654.74 233.24 665.82 L 192.11 665.98 Q 191.05 665.98 191.84 665.27 L 196.98 660.67 L 218.77 641.17 L 227.73 633.10 Q 229.20 631.78 230.85 632.86 L 243.96 641.37 Z"/>
  <path fill="#38bfce" d=" M 873.98 641.05 L 867.01 661.01 Q 862.69 659.60 856.25 659.87 Q 853.79 659.97 853.61 662.08 L 828.96 640.49 Q 831.11 639.12 832.75 639.18 Q 852.37 639.90 871.99 639.01 Q 872.49 638.99 872.66 639.46 Q 873.31 641.36 873.98 641.05 Z"/>
  <path fill="#38bfce" d=" M 218.77 641.17 L 196.98 660.67 Q 196.86 659.66 194.98 659.92 Q 193.52 660.12 192.99 660.13 Q 180.17 660.31 167.82 659.48 L 160.56 639.63 L 217.40 639.28 Q 217.93 639.28 218.15 639.76 L 218.77 641.17 Z"/>
  <path fill="#fdfffe" d=" M 279.40 650.72 Q 276.04 652.83 272.85 655.14 C 271.01 656.48 269.03 657.37 267.04 658.45 Q 266.98 658.48 264.51 659.39 Q 263.18 659.88 262.31 661.17 L 255.47 661.06 A 0.74 0.73 90.0 0 1 254.75 660.33 Q 254.74 659.23 255.62 658.49 Q 265.18 650.38 274.17 641.82 Q 274.55 641.45 274.80 641.92 L 279.40 650.72 Z"/>
  <path fill="#bee3eb" d=" M 747.66 660.84 C 751.14 656.30 753.69 651.10 756.24 646.03 A 0.44 0.44 0.0 0 1 756.89 645.87 L 775.07 659.18 Q 777.19 660.73 774.60 661.16 Q 772.97 661.43 770.00 661.42 Q 758.56 661.42 747.97 661.45 A 0.38 0.38 0.0 0 1 747.66 660.84 Z"/>
  <path fill="#bee3eb" d=" M 279.40 650.72 L 285.40 660.99 Q 285.65 661.42 285.15 661.42 L 262.31 661.17 Q 263.18 659.88 264.51 659.39 Q 266.98 658.48 267.04 658.45 C 269.03 657.37 271.01 656.48 272.85 655.14 Q 276.04 652.83 279.40 650.72 Z"/>
  <path fill="#bee3eb" d=" M 678.79 676.74 A 0.30 0.29 -9.7 0 1 678.51 677.13 L 633.29 676.94 A 0.12 0.12 0.0 0 1 633.19 676.75 Q 642.86 664.54 652.34 652.44 C 653.34 651.16 654.65 651.34 656.09 651.29 Q 664.18 650.95 671.50 651.10 A 1.17 1.16 -3.5 0 1 672.63 652.10 Q 674.39 664.37 678.79 676.74 Z"/>
  <path fill="#fdfffe" d=" M 594.23 671.46 Q 581.63 686.05 569.25 700.68 C 566.96 703.39 564.18 705.80 561.62 708.35 Q 559.79 710.17 560.59 712.35 L 553.53 717.73 Q 552.94 718.18 553.11 717.46 L 567.47 652.77 Q 567.61 652.16 568.11 652.53 L 594.23 671.46 Z"/>
  <path fill="#bee3eb" d=" M 481.78 674.61 Q 483.50 675.55 484.95 676.60 Q 485.52 677.01 484.82 677.01 L 357.03 676.90 Q 356.35 676.90 356.62 676.28 Q 360.29 667.75 362.02 659.23 A 0.77 0.77 0.0 0 1 362.68 658.62 Q 395.51 654.64 426.10 657.86 Q 456.88 661.10 481.78 674.61 Z"/>
  <path fill="#23aac2" d=" M 167.82 659.48 Q 180.17 660.31 192.99 660.13 Q 193.52 660.12 194.98 659.92 Q 196.86 659.66 196.98 660.67 L 191.84 665.27 Q 191.05 665.98 192.11 665.98 L 233.24 665.82 C 237.08 676.38 244.98 680.92 255.71 682.46 Q 257.73 682.75 268.68 682.78 Q 287.30 682.83 303.22 682.72 Q 303.82 682.71 304.31 683.04 Q 306.61 684.55 309.19 686.78 Q 317.82 694.23 329.79 697.35 Q 335.04 698.72 349.25 698.73 Q 362.48 698.74 376.07 698.79 Q 376.43 705.82 380.83 709.41 Q 385.24 712.99 391.51 714.90 Q 399.02 717.19 413.67 719.54 Q 418.79 720.36 438.48 722.64 C 441.82 723.03 444.81 723.33 447.18 724.30 Q 448.17 724.70 449.26 724.62 Q 455.67 724.15 461.93 725.02 Q 459.84 725.18 457.87 726.10 Q 446.72 724.33 437.54 726.58 Q 435.17 727.16 433.40 729.63 Q 432.16 731.36 432.62 734.42 Q 433.75 741.79 442.50 742.11 Q 452.62 742.48 459.32 741.32 Q 467.71 743.98 476.75 741.77 Q 481.63 740.57 482.00 736.53 Q 482.61 729.89 476.03 726.61 Q 473.02 725.11 466.26 724.83 Q 471.97 724.00 477.75 723.95 Q 492.76 723.82 506.61 723.72 C 513.39 723.68 520.95 723.12 528.14 722.98 Q 529.18 722.96 530.31 722.63 Q 531.40 722.32 532.49 722.09 Q 531.28 728.75 530.23 734.99 C 528.89 742.91 536.12 749.23 543.67 745.88 Q 548.48 743.75 553.41 740.66 Q 570.90 729.72 587.38 719.39 Q 598.67 718.85 609.00 717.97 C 623.82 716.69 638.18 714.91 651.89 710.35 Q 653.55 709.80 654.60 708.35 Q 657.58 704.27 658.19 698.75 Q 672.42 698.74 686.64 698.78 Q 697.82 698.81 703.26 697.49 Q 713.98 694.90 722.99 688.39 C 725.84 686.33 728.94 682.99 732.80 682.95 Q 749.62 682.77 767.04 682.95 Q 768.16 692.52 775.73 692.57 Q 784.33 692.63 790.08 692.42 C 795.57 692.22 799.29 686.30 794.11 682.40 Q 792.32 681.05 787.95 678.09 Q 791.39 675.64 794.11 671.86 Q 795.00 670.62 797.26 666.15 L 857.01 666.16 A 0.46 0.46 0.0 0 0 857.32 665.36 L 853.61 662.08 Q 853.79 659.97 856.25 659.87 Q 862.69 659.60 867.01 661.01 C 859.81 678.99 851.93 696.44 841.82 712.57 Q 840.91 712.52 841.04 711.54 A 1.06 1.06 0.0 0 0 839.70 710.38 Q 835.75 711.48 831.80 712.79 C 827.52 714.20 822.62 714.80 818.25 714.80 Q 804.77 714.79 792.24 714.92 Q 788.86 714.95 786.88 715.96 C 782.30 718.31 780.39 723.35 783.65 727.86 C 786.02 731.12 789.26 732.32 793.26 732.28 Q 808.05 732.13 822.44 732.36 Q 824.20 732.39 826.19 732.07 Q 827.96 731.78 829.66 731.91 Q 824.74 739.46 819.67 746.18 Q 781.71 796.48 730.22 832.07 Q 709.92 846.10 684.81 858.87 C 651.09 876.02 614.45 887.54 577.69 893.46 Q 517.98 903.09 460.23 893.49 Q 417.15 886.33 377.72 870.35 Q 351.16 859.58 323.36 843.28 C 280.57 818.19 243.25 783.52 213.89 743.43 Q 214.56 742.93 215.99 743.13 Q 217.37 743.32 218.03 743.30 Q 240.52 742.59 263.99 743.59 Q 260.02 749.19 259.05 752.49 C 257.12 759.04 261.06 766.59 267.94 768.28 C 279.13 771.02 282.53 763.92 287.27 755.28 Q 290.80 748.86 294.84 742.48 Q 295.13 742.02 295.69 742.48 A 1.19 1.17 16.6 0 1 296.13 743.28 Q 298.53 764.59 301.07 785.45 C 302.22 794.95 310.12 802.27 320.05 799.30 Q 325.15 797.77 327.72 793.34 Q 340.46 771.45 357.49 742.33 C 360.84 736.61 362.62 731.32 358.51 725.41 C 353.10 717.65 340.90 717.80 336.33 726.32 Q 329.58 738.89 322.39 750.97 Q 321.80 751.97 321.68 750.81 Q 319.63 730.63 316.70 709.96 Q 315.92 704.44 313.87 700.54 C 311.59 696.18 306.24 693.04 301.19 693.67 C 295.22 694.42 291.58 698.42 288.60 703.35 Q 282.69 713.12 276.71 723.48 Q 275.86 722.16 275.49 720.31 Q 275.39 719.80 275.02 719.44 Q 271.21 715.69 265.01 715.84 Q 243.53 716.35 217.75 715.73 Q 212.68 715.61 210.98 714.81 Q 205.40 712.19 203.88 711.80 Q 200.06 710.83 193.57 712.15 Q 191.05 708.44 187.89 702.61 Q 175.86 680.38 167.82 659.48 Z M 238.81 682.11 C 236.85 683.46 232.94 685.92 233.54 688.65 C 234.29 692.02 236.43 694.11 239.95 694.44 Q 247.65 695.17 252.83 694.41 Q 256.86 693.81 253.45 691.57 Q 246.80 687.21 241.47 682.30 A 2.15 2.14 -40.8 0 0 238.81 682.11 Z M 696.40 793.96 Q 695.19 794.76 693.02 794.07 Q 691.08 793.46 689.87 793.48 C 685.54 793.54 679.26 793.40 675.88 795.94 C 670.97 799.62 668.56 804.81 670.09 810.94 C 671.36 816.04 675.25 820.91 680.88 820.75 Q 696.03 820.31 711.92 820.35 C 716.80 820.36 720.13 817.18 721.06 812.46 Q 722.78 803.73 714.75 797.54 Q 721.57 793.44 728.29 789.73 C 737.18 784.82 746.15 779.70 755.01 774.55 Q 759.74 771.79 759.69 766.17 C 759.62 758.87 754.07 753.63 746.94 754.38 Q 744.17 754.67 740.61 756.73 Q 727.00 764.61 714.40 771.57 A 0.95 0.95 0.0 0 1 713.14 771.25 L 708.94 764.59 A 1.35 1.33 -32.2 0 1 709.37 762.73 Q 719.50 756.41 729.85 750.61 C 735.82 747.27 738.31 741.49 734.41 735.39 Q 735.48 734.47 737.21 735.00 Q 738.88 735.51 739.31 735.56 Q 740.53 735.71 741.70 735.54 Q 744.00 735.19 746.40 735.07 Q 749.03 734.93 751.40 733.98 C 754.75 732.64 756.52 727.37 756.87 724.15 Q 757.11 721.89 755.85 720.05 Q 754.23 717.69 752.40 715.94 Q 750.86 714.47 748.48 714.22 Q 746.24 713.98 744.00 713.89 Q 735.10 713.56 726.38 714.65 C 727.42 705.05 717.48 698.81 709.17 703.63 Q 690.55 714.45 673.29 723.79 C 668.10 726.60 664.01 730.85 665.02 737.17 Q 665.52 740.37 669.99 748.10 Q 683.13 770.86 696.40 793.96 Z M 446.8432 786.1838 A 43.95 42.79 2.0 0 0 404.4133 741.8861 A 43.95 42.79 2.0 0 0 358.9968 783.1162 A 43.95 42.79 2.0 0 0 401.4267 827.4139 A 43.95 42.79 2.0 0 0 446.8432 786.1838 Z M 582.80 768.69 Q 574.31 787.16 583.56 805.55 C 590.02 818.38 602.08 826.57 616.74 828.66 Q 639.58 831.92 658.10 814.55 C 668.19 805.08 661.49 792.06 648.39 792.12 C 644.29 792.14 642.26 794.54 640.21 797.58 C 637.64 801.39 632.32 804.01 628.01 804.98 C 618.02 807.24 607.67 801.94 605.13 791.65 C 601.98 778.84 611.49 768.16 624.09 767.46 C 627.43 767.27 630.68 768.42 633.95 768.75 C 643.00 769.68 649.46 761.96 646.30 753.44 C 643.65 746.30 633.00 744.01 626.16 743.77 Q 603.14 742.96 588.40 759.92 Q 585.07 763.74 582.80 768.69 Z M 488.85 821.76 A 0.74 0.72 -83.1 0 1 488.25 820.98 Q 489.89 799.00 491.80 778.10 C 492.37 771.79 492.61 766.50 486.83 762.31 Q 483.77 760.09 479.84 760.02 C 471.07 759.86 467.01 764.80 466.40 773.15 Q 464.39 800.45 461.59 830.36 C 461.11 835.56 462.46 840.07 467.31 842.80 Q 470.10 844.38 475.45 844.38 Q 492.10 844.41 509.37 845.27 Q 513.56 845.48 517.58 843.91 C 522.96 841.80 523.95 834.42 522.25 829.68 Q 520.16 823.86 513.45 823.16 Q 505.49 822.32 493.16 822.16 Q 490.98 822.14 488.85 821.76 Z M 557.2221 771.2797 A 11.87 11.87 0.0 0 0 544.4005 760.4446 L 542.6068 760.5952 A 11.87 11.87 0.0 0 0 531.7717 773.4168 L 536.9379 834.9403 A 11.87 11.87 0.0 0 0 549.7595 845.7754 L 551.5532 845.6248 A 11.87 11.87 0.0 0 0 562.3883 832.8032 L 557.2221 771.2797 Z M 396.8409 843.7913 A 5.56 5.56 0.0 0 0 391.3198 838.1926 L 364.8405 838.0077 A 5.56 5.56 0.0 0 0 359.2418 843.5288 L 359.2391 843.9087 A 5.56 5.56 0.0 0 0 364.7602 849.5074 L 391.2395 849.6923 A 5.56 5.56 0.0 0 0 396.8382 844.1712 L 396.8409 843.7913 Z M 613.8696 859.9285 A 5.56 5.56 0.0 0 0 608.2999 854.3782 L 583.3599 854.4218 A 5.56 5.56 0.0 0 0 577.8097 859.9915 L 577.8104 860.4115 A 5.56 5.56 0.0 0 0 583.3801 865.9618 L 608.3201 865.9182 A 5.56 5.56 0.0 0 0 613.8703 860.3485 L 613.8696 859.9285 Z"/>
  <path fill="#bee3eb" d=" M 594.23 671.46 L 605.74 680.10 A 0.53 0.52 -44.4 0 1 605.73 680.95 C 590.70 691.55 577.41 701.47 560.59 712.35 Q 559.79 710.17 561.62 708.35 C 564.18 705.80 566.96 703.39 569.25 700.68 Q 581.63 686.05 594.23 671.46 Z"/>
  <path fill="#4dd7da" d=" M 787.95 678.09 Q 792.32 681.05 794.11 682.40 C 799.29 686.30 795.57 692.22 790.08 692.42 Q 784.33 692.63 775.73 692.57 Q 768.16 692.52 767.04 682.95 Q 777.77 683.33 787.95 678.09 Z"/>
  <path fill="#38bfce" d=" M 233.54 688.65 C 232.94 685.92 236.85 683.46 238.81 682.11 A 2.15 2.14 -40.8 0 1 241.47 682.30 Q 246.80 687.21 253.45 691.57 Q 256.86 693.81 252.83 694.41 Q 247.65 695.17 239.95 694.44 C 236.43 694.11 234.29 692.02 233.54 688.65 Z"/>
  <path fill="#fdfffe" d=" M 263.99 743.59 L 276.71 723.48 Q 282.69 713.12 288.60 703.35 C 291.58 698.42 295.22 694.42 301.19 693.67 C 306.24 693.04 311.59 696.18 313.87 700.54 Q 315.92 704.44 316.70 709.96 Q 319.63 730.63 321.68 750.81 Q 321.80 751.97 322.39 750.97 Q 329.58 738.89 336.33 726.32 C 340.90 717.80 353.10 717.65 358.51 725.41 C 362.62 731.32 360.84 736.61 357.49 742.33 Q 340.46 771.45 327.72 793.34 Q 325.15 797.77 320.05 799.30 C 310.12 802.27 302.22 794.95 301.07 785.45 Q 298.53 764.59 296.13 743.28 A 1.19 1.17 16.6 0 0 295.69 742.48 Q 295.13 742.02 294.84 742.48 Q 290.80 748.86 287.27 755.28 C 282.53 763.92 279.13 771.02 267.94 768.28 C 261.06 766.59 257.12 759.04 259.05 752.49 Q 260.02 749.19 263.99 743.59 Z"/>
  <path fill="#208da6" d=" M 532.49 722.09 Q 531.40 722.32 530.31 722.63 Q 529.18 722.96 528.14 722.98 C 520.95 723.12 513.39 723.68 506.61 723.72 Q 492.76 723.82 477.75 723.95 Q 471.97 724.00 466.26 724.83 L 461.93 725.02 Q 455.67 724.15 449.26 724.62 Q 448.17 724.70 447.18 724.30 C 444.81 723.33 441.82 723.03 438.48 722.64 Q 418.79 720.36 413.67 719.54 Q 399.02 717.19 391.51 714.90 Q 385.24 712.99 380.83 709.41 Q 376.43 705.82 376.07 698.79 L 536.25 698.74 A 0.55 0.54 5.2 0 1 536.79 699.38 L 532.49 722.09 Z"/>
  <path fill="#208da6" d=" M 658.19 698.75 Q 657.58 704.27 654.60 708.35 Q 653.55 709.80 651.89 710.35 C 638.18 714.91 623.82 716.69 609.00 717.97 Q 598.67 718.85 587.38 719.39 Q 609.98 703.37 616.42 699.41 Q 617.30 698.86 620.75 698.80 Q 639.49 698.48 658.19 698.75 Z"/>
  <path fill="#fdfffe" d=" M 726.38 714.65 Q 725.54 719.70 720.71 722.45 Q 707.99 729.68 695.34 737.06 Q 693.64 738.05 694.53 739.80 L 697.27 745.17 Q 698.10 746.81 699.67 745.84 Q 709.05 740.04 718.20 734.58 C 724.41 730.88 729.52 729.72 734.41 735.39 C 738.31 741.49 735.82 747.27 729.85 750.61 Q 719.50 756.41 709.37 762.73 A 1.35 1.33 -32.2 0 0 708.94 764.59 L 713.14 771.25 A 0.95 0.95 0.0 0 0 714.40 771.57 Q 727.00 764.61 740.61 756.73 Q 744.17 754.67 746.94 754.38 C 754.07 753.63 759.62 758.87 759.69 766.17 Q 759.74 771.79 755.01 774.55 C 746.15 779.70 737.18 784.82 728.29 789.73 Q 721.57 793.44 714.75 797.54 Q 703.51 803.16 696.40 793.96 Q 683.13 770.86 669.99 748.10 Q 665.52 740.37 665.02 737.17 C 664.01 730.85 668.10 726.60 673.29 723.79 Q 690.55 714.45 709.17 703.63 C 717.48 698.81 727.42 705.05 726.38 714.65 Z"/>
  <path fill="#4dd7da" d=" M 841.82 712.57 L 829.66 731.91 Q 827.96 731.78 826.19 732.07 Q 824.20 732.39 822.44 732.36 Q 808.05 732.13 793.26 732.28 C 789.26 732.32 786.02 731.12 783.65 727.86 C 780.39 723.35 782.30 718.31 786.88 715.96 Q 788.86 714.95 792.24 714.92 Q 804.77 714.79 818.25 714.80 C 822.62 714.80 827.52 714.20 831.80 712.79 Q 835.75 711.48 839.70 710.38 A 1.06 1.06 0.0 0 1 841.04 711.54 Q 840.91 712.52 841.82 712.57 Z"/>
  <path fill="#4dd7da" d=" M 276.71 723.48 L 263.99 743.59 Q 240.52 742.59 218.03 743.30 Q 217.37 743.32 215.99 743.13 Q 214.56 742.93 213.89 743.43 Q 202.58 728.53 193.57 712.15 Q 200.06 710.83 203.88 711.80 Q 205.40 712.19 210.98 714.81 Q 212.68 715.61 217.75 715.73 Q 243.53 716.35 265.01 715.84 Q 271.21 715.69 275.02 719.44 Q 275.39 719.80 275.49 720.31 Q 275.86 722.16 276.71 723.48 Z"/>
  <path fill="#38bfce" d=" M 734.41 735.39 C 729.52 729.72 724.41 730.88 718.20 734.58 Q 709.05 740.04 699.67 745.84 Q 698.10 746.81 697.27 745.17 L 694.53 739.80 Q 693.64 738.05 695.34 737.06 Q 707.99 729.68 720.71 722.45 Q 725.54 719.70 726.38 714.65 Q 735.10 713.56 744.00 713.89 Q 746.24 713.98 748.48 714.22 Q 750.86 714.47 752.40 715.94 Q 754.23 717.69 755.85 720.05 Q 757.11 721.89 756.87 724.15 C 756.52 727.37 754.75 732.64 751.40 733.98 Q 749.03 734.93 746.40 735.07 Q 744.00 735.19 741.70 735.54 Q 740.53 735.71 739.31 735.56 Q 738.88 735.51 737.21 735.00 Q 735.48 734.47 734.41 735.39 Z"/>
  <path fill="#38bfce" d=" M 466.26 724.83 Q 473.02 725.11 476.03 726.61 Q 482.61 729.89 482.00 736.53 Q 481.63 740.57 476.75 741.77 Q 467.71 743.98 459.32 741.32 C 462.49 738.89 464.45 736.32 462.97 732.77 Q 461.23 728.60 457.87 726.10 Q 459.84 725.18 461.93 725.02 L 466.26 724.83 Z"/>
  <path fill="#4dd7da" d=" M 457.87 726.10 Q 461.23 728.60 462.97 732.77 C 464.45 736.32 462.49 738.89 459.32 741.32 Q 452.62 742.48 442.50 742.11 Q 433.75 741.79 432.62 734.42 Q 432.16 731.36 433.40 729.63 Q 435.17 727.16 437.54 726.58 Q 446.72 724.33 457.87 726.10 Z"/>
  <path fill="#fdfffe" d=" M 446.8432 786.1838 A 43.95 42.79 2.0 0 1 401.4267 827.4139 A 43.95 42.79 2.0 0 1 358.9968 783.1162 A 43.95 42.79 2.0 0 1 404.4133 741.8861 A 43.95 42.79 2.0 0 1 446.8432 786.1838 Z M 421.74 784.86 A 18.59 18.59 0.0 0 0 403.15 766.27 A 18.59 18.59 0.0 0 0 384.56 784.86 A 18.59 18.59 0.0 0 0 403.15 803.45 A 18.59 18.59 0.0 0 0 421.74 784.86 Z"/>
  <path fill="#fdfffe" d=" M 582.80 768.69 Q 585.07 763.74 588.40 759.92 Q 603.14 742.96 626.16 743.77 C 633.00 744.01 643.65 746.30 646.30 753.44 C 649.46 761.96 643.00 769.68 633.95 768.75 C 630.68 768.42 627.43 767.27 624.09 767.46 C 611.49 768.16 601.98 778.84 605.13 791.65 C 607.67 801.94 618.02 807.24 628.01 804.98 C 632.32 804.01 637.64 801.39 640.21 797.58 C 642.26 794.54 644.29 792.14 648.39 792.12 C 661.49 792.06 668.19 805.08 658.10 814.55 Q 639.58 831.92 616.74 828.66 C 602.08 826.57 590.02 818.38 583.56 805.55 Q 574.31 787.16 582.80 768.69 Z"/>
  <path fill="#fdfffe" d=" M 488.85 821.76 Q 490.98 822.14 493.16 822.16 Q 505.49 822.32 513.45 823.16 Q 520.16 823.86 522.25 829.68 C 523.95 834.42 522.96 841.80 517.58 843.91 Q 513.56 845.48 509.37 845.27 Q 492.10 844.41 475.45 844.38 Q 470.10 844.38 467.31 842.80 C 462.46 840.07 461.11 835.56 461.59 830.36 Q 464.39 800.45 466.40 773.15 C 467.01 764.80 471.07 759.86 479.84 760.02 Q 483.77 760.09 486.83 762.31 C 492.61 766.50 492.37 771.79 491.80 778.10 Q 489.89 799.00 488.25 820.98 A 0.74 0.72 -83.1 0 0 488.85 821.76 Z"/>
  <rect fill="#fdfffe" x="-12.77" y="-42.74" transform="translate(547.08,803.11) rotate(-4.8)" width="25.54" height="85.48" rx="11.87"/>
  <circle fill="#23aac2" cx="403.15" cy="784.86" r="18.59"/>
  <path fill="#38bfce" d=" M 696.40 793.96 Q 703.51 803.16 714.75 797.54 Q 722.78 803.73 721.06 812.46 C 720.13 817.18 716.80 820.36 711.92 820.35 Q 696.03 820.31 680.88 820.75 C 675.25 820.91 671.36 816.04 670.09 810.94 C 668.56 804.81 670.97 799.62 675.88 795.94 C 679.26 793.40 685.54 793.54 689.87 793.48 Q 691.08 793.46 693.02 794.07 Q 695.19 794.76 696.40 793.96 Z"/>
  <rect fill="#4dd7da" x="-18.80" y="-5.75" transform="translate(378.04,843.85) rotate(0.4)" width="37.60" height="11.50" rx="5.56"/>
  <rect fill="#4dd7da" x="-18.03" y="-5.77" transform="translate(595.84,860.17) rotate(-0.1)" width="36.06" height="11.54" rx="5.56"/>
</svg>