<?xml version="1.0" encoding="utf-8"?>
<svg version="1.1" viewBox="0.00 0.00 1200.00 1200.00" xmlns="http://www.w3.org/2000/svg">
  <path fill="#fe0000" d="M 718.718 143.088 C 722.745 135.495 725.119 127.182 725.839 118.15 C 725.982 116.384 726.784 112.761 728.243 107.285 C 730.03 95.57 738.568 84.427 750.915 84.829 C 757.348 85.034 762.479 87.916 766.311 93.476 C 770.545 99.609 770.992 105.795 767.652 112.032 C 765.696 115.685 761.596 117.812 759.314 121.033 C 755.739 126.099 752.117 131.123 748.449 136.107 C 748.398 136.179 748.022 136.846 747.324 138.11 C 746.645 139.327 745.675 139.667 744.965 140.653 C 736.612 152.202 727.498 163.1 717.623 173.343 C 705.992 185.407 700.149 191.469 700.098 191.531 C 691.631 200.705 683.191 209.912 674.776 219.149 C 672.598 221.543 670.141 225.325 667.409 230.493 C 657.606 249.066 645.46 265.403 637.476 283.235 C 637.16 283.955 637.225 284.639 637.678 285.286 C 644.645 295.375 650.517 306.643 655.294 319.086 C 655.491 319.578 655.844 319.862 656.358 319.933 L 676.656 323.016 C 686.874 324.51 700.006 328.225 706.664 336.564 C 709.255 339.815 711.751 340.848 715.604 341.403 C 728.601 343.324 741.533 343.865 754.397 343.021 C 774.424 342.2 793.506 340.011 811.64 336.455 C 818.577 335.098 826.333 333.137 834.913 330.568 C 835.416 330.413 835.685 330.08 835.715 329.566 C 835.766 328.95 835.926 328.358 836.193 327.793 C 838.598 322.708 842.795 318.233 848.785 314.369 C 853.204 311.523 858.284 310.244 864.027 310.532 C 875.219 311.087 883.403 317.056 888.581 328.44 C 893.142 338.489 889.551 349.972 881.044 356.477 C 872.028 363.35 859.405 364.476 848.923 359.959 C 846.684 358.984 844.531 358.501 842.465 358.511 C 838.387 358.531 834.261 358.413 830.09 358.157 C 825.548 357.889 818.988 358.286 810.408 359.343 C 803.288 360.217 796.922 361.296 791.312 362.58 C 754.033 371.058 718.246 383.772 683.946 400.726 C 678.26 403.532 673.156 406.923 667.871 410.391 L 659.147 414.506 C 658.675 414.721 658.357 415.076 658.192 415.57 L 655.032 424.539 C 650.542 436.109 644.763 446.677 637.694 456.243 C 637.087 457.055 636.953 457.933 637.292 458.879 C 643.967 477.866 639.928 497.641 625.64 512.006 C 624.934 512.721 624.664 513.756 624.931 514.718 C 632.576 541.794 643.58 567.954 657.945 593.2 C 668.806 612.29 680.042 627.488 691.653 638.791 C 691.889 639.027 692.172 639.136 692.501 639.116 C 703.166 638.559 712.598 639.608 720.798 642.258 C 730.077 645.269 738.599 651.337 746.369 660.461 C 756.417 672.277 758.334 685.321 752.117 699.593 C 750.031 704.361 746.583 708.615 741.774 712.356 C 726.701 724.069 708.021 728.909 688.648 726.303 C 686.059 725.964 683.505 725.503 680.988 724.917 C 668.801 722.091 659.307 717.432 652.505 710.938 C 651.57 710.053 650.177 708.05 648.327 704.927 C 646.94 702.574 645.882 700.369 645.153 698.315 C 640.447 684.958 642.46 672.58 651.194 661.185 C 652.197 659.89 653.028 658.304 654.416 657.533 C 655.526 656.911 656.054 655.599 655.695 654.374 C 655.059 652.195 654.441 650.001 653.846 647.791 C 653.25 645.634 652.515 643.528 651.641 641.473 C 649.956 637.537 648.395 633.484 646.957 629.312 C 646.782 628.829 646.49 628.445 646.078 628.157 C 645.574 627.796 645.208 627.314 644.984 626.707 C 643.987 624.097 642.743 621.478 641.254 618.847 C 630.393 599.561 616.892 581.034 600.748 563.269 C 592.529 554.226 584.667 546.038 577.167 538.701 C 576.417 537.962 575.56 537.381 574.594 536.959 C 574.121 536.754 573.638 536.733 573.145 536.898 C 571.007 537.617 568.737 538.048 566.332 538.192 C 547.982 539.333 530.606 536.667 514.206 530.192 C 511 528.919 507.908 527.419 504.928 525.693 C 504.434 525.405 503.805 525.698 503.711 526.262 C 499.826 550.389 496.728 574.634 494.416 598.995 L 492.105 623.024 C 489.165 653.664 487.774 686.651 487.928 721.989 C 487.948 726.551 488.72 730.64 490.24 734.256 C 496.682 749.562 499.965 765.93 501.013 782.483 C 501.209 785.525 501.188 788.566 500.951 791.608 C 500.366 798.96 495.589 806.172 491.072 812.199 C 487.445 817.039 483.068 820.203 477.941 821.694 C 473.872 822.88 470.234 820.646 467.568 817.855 C 466.437 816.674 465.668 815.41 465.256 814.064 C 464.947 813.036 464.424 812.173 463.685 811.474 C 462.944 810.787 462.352 809.979 461.911 809.055 C 457.524 799.93 455.9 790.416 457.041 780.511 C 457.35 777.797 458.937 775.67 459.506 773.128 C 461.767 763.131 464.084 753.147 466.457 743.181 C 467.279 739.708 468.605 735.608 470.434 730.882 C 471.555 727.974 472.14 724.953 472.192 721.819 C 472.561 699.609 471.683 684.273 471.112 665.47 C 470.886 657.816 470.588 650.787 470.218 644.386 C 468.966 623.24 467.419 602.092 465.579 580.947 C 463.638 558.661 461.171 537.344 458.18 516.999 C 457.728 513.938 456.732 511.081 455.191 508.43 C 454.925 507.978 454.549 507.665 454.066 507.491 C 443.494 503.648 433.546 498.602 424.227 492.356 C 423.806 492.078 423.343 491.991 422.84 492.094 C 415.894 493.491 408.942 493.818 401.987 493.08 C 401.144 492.988 399.746 493.424 397.795 494.39 C 391.629 497.431 385.383 500.422 379.052 503.359 C 378.786 503.482 378.775 503.622 379.021 503.775 C 379.166 503.869 379.166 504.037 379.021 504.285 C 378.993 504.324 378.95 504.356 378.899 504.376 C 370.248 508.209 362.362 513.234 355.24 519.451 C 355.189 519.502 354.654 519.841 353.637 520.468 C 352.636 521.1 352.249 521.947 352.296 523.196 C 352.636 532.706 345.869 538.717 337.239 541.075 C 334.695 541.769 332.815 541.275 330.317 541.645 C 329.813 541.716 329.388 541.938 329.038 542.308 C 324.815 546.798 320.567 551.303 316.293 555.825 C 314.976 557.212 313.409 560.258 311.591 564.965 C 309.834 569.485 308.293 573.924 306.968 578.281 C 306.578 579.565 306.105 580.809 305.55 582.011 C 304.985 583.203 304.398 584.358 303.792 585.478 C 302.457 587.956 300.49 590.154 297.889 592.075 C 295.424 593.893 292.727 594.7 289.798 594.494 C 285.862 594.207 282.883 592.039 280.859 587.99 C 280.755 587.788 280.525 587.676 280.288 587.714 C 280.092 587.754 279.986 587.82 279.964 587.914 C 279.861 586.474 279.697 585.012 279.472 583.522 C 278.557 577.592 280.099 572.932 284.095 569.542 C 287.558 566.604 289.408 565 289.643 564.733 C 293.979 560.047 298.347 555.363 302.745 550.677 L 316.878 536.729 C 317.076 536.529 317.083 536.211 316.894 536.004 C 315.681 534.647 314.725 533.131 314.028 531.458 C 312.702 528.281 312.501 521.162 313.919 517.894 C 315.408 514.483 316.843 512.258 318.218 511.221 C 320.608 509.401 323.46 506.628 326.264 505.749 C 331.001 504.247 335.914 504.423 340.999 506.274 C 343.279 507.104 345.042 508.518 346.285 510.511 C 346.506 510.882 347.007 510.962 347.333 510.68 C 352.728 505.965 357.907 501.034 361.899 494.991 C 364.93 490.407 368.299 486.077 372.01 481.998 C 372.51 481.449 372.482 480.602 371.948 480.087 C 371.037 479.223 369.867 478.407 369.126 477.343 C 359.438 463.359 357.609 448.31 363.64 432.199 C 363.863 431.631 363.537 430.995 362.947 430.842 C 357.006 429.343 352.106 426.074 348.243 421.041 C 347.894 420.578 347.436 420.276 346.87 420.131 C 344.098 419.468 341.646 418.575 338.795 418.312 C 333.046 417.788 327.283 416.632 321.794 416.586 C 312.219 416.504 302.293 416.998 292.017 418.066 C 291.349 418.141 290.895 418.781 291.047 419.437 C 293.194 428.726 292.711 437.532 289.598 445.855 C 286.937 452.955 281.449 459.433 273.137 465.29 C 260.54 474.168 245.703 476.747 228.625 473.027 C 226.868 472.646 225.379 472.112 224.155 471.425 C 223.712 471.168 223.24 471.086 222.737 471.178 C 220.07 471.656 218.376 473.799 216.757 474.754 C 206.523 480.812 193.19 479.964 184.021 471.888 C 181.751 469.893 180.064 467.192 178.965 463.779 C 176.191 455.169 177.763 447.545 183.682 440.907 C 186.117 438.174 189.441 435.76 193.653 433.664 C 194.162 433.409 194.48 432.88 194.472 432.307 C 194.121 418.302 198.637 407.076 208.019 398.63 C 212.6 394.511 217.863 390.679 223.801 387.132 C 224.787 386.547 225.84 386.146 226.959 385.931 C 228.486 385.622 229.734 384.913 231.26 384.497 C 249.664 379.471 270.255 385.592 281.274 401.652 C 281.979 402.679 283.182 403.245 284.419 403.131 C 293.296 402.359 302.256 400.696 311.298 398.137 C 330.852 392.6 348.787 385.993 365.103 378.317 C 365.566 378.091 365.793 377.726 365.782 377.222 C 365.751 368.817 366.004 361.857 366.538 356.338 C 368.326 337.894 373.243 320.39 381.289 303.828 C 381.38 303.641 381.36 303.461 381.226 303.287 C 378.062 299.311 374.331 295.633 370.037 292.253 C 354.799 280.25 339.648 270.912 324.584 264.232 C 321.862 263.019 319.268 261.802 316.8 260.578 C 313.688 259.048 310.39 257.568 306.906 256.14 C 285.359 247.283 262.548 239.958 238.474 234.162 C 236.089 233.585 233.722 233.149 231.369 232.851 C 229.673 232.646 228.019 232.275 226.405 231.741 C 220.718 229.847 213.766 231.202 207.863 230.416 C 194.312 228.65 183.162 222.402 174.419 211.675 C 171.849 208.53 169.224 205.433 166.543 202.381 C 164.551 200.111 162.637 196.791 160.809 192.425 C 159.329 188.879 158.267 185.273 157.619 181.605 C 154.607 164.496 158.096 148.92 168.084 134.873 C 169.954 132.254 172.492 129.561 175.697 126.797 C 183.573 120 189.584 115.191 200.898 111.631 C 205.902 110.685 209.092 110.162 210.468 110.06 C 221.403 109.237 231.523 111.544 240.833 116.98 C 251.482 123.515 259.25 135.12 266.386 144.614 C 272.356 152.546 276.933 160.757 280.119 169.244 C 281.312 172.417 281.942 176.226 282.015 180.665 C 282.046 182.626 282.662 184.573 283.864 186.506 C 288.01 193.164 293.513 199.406 300.141 205.71 C 314.484 219.344 329.88 231.823 346.332 243.147 C 363.624 255.056 381.391 264.726 399.628 272.153 C 400.72 272.597 401.972 272.307 402.757 271.43 C 408.091 265.389 414.056 259.875 420.652 254.893 C 427.711 249.544 433.228 244.426 439.471 239.155 C 440.254 238.504 440.566 237.448 440.257 236.489 C 438.036 229.533 436.552 223.608 435.802 218.719 C 434.898 212.779 433.999 206.748 433.105 200.623 C 432.5 196.442 431.214 191.838 429.252 186.814 C 427.845 183.197 425.722 179.052 422.887 174.377 C 419.659 169.064 416.423 163.638 413.175 158.101 C 410.464 153.461 406.426 148.22 403.051 145.261 C 400.06 142.64 395.483 141.454 391.983 138.957 C 390.607 137.981 389.199 137.057 387.761 136.183 C 377.444 128.086 376.104 118.489 383.738 107.393 C 385.054 106.098 386.467 105.065 387.977 104.294 C 389.98 103.277 391.511 102.481 392.568 101.905 C 394.738 100.714 397.044 100.123 399.491 100.134 C 418.972 100.225 425.307 121.818 421.915 137.416 C 421.792 138.001 421.829 138.577 422.024 139.143 C 423.019 142.091 423.662 145.132 423.951 148.267 C 424.494 154.226 425.702 159.502 427.572 164.097 C 428.938 167.477 431.347 170.935 434.801 174.468 C 447.809 187.815 459.061 206.249 472.592 219.412 C 473.774 220.562 475.104 220.871 476.584 220.337 C 480.422 218.98 484.428 218.888 487.42 215.835 C 490.307 212.887 493.446 210.247 496.837 207.914 C 498.686 206.635 499.488 204.954 500.382 203.043 C 514.407 172.795 524.718 141.208 531.315 108.286 C 533.545 97.128 534.829 85.148 535.167 72.345 C 535.27 68.224 534.669 63.913 533.364 59.414 C 531.238 52.107 529.82 45.372 525.504 39.099 C 514.854 23.594 515.64 5.252 526.954 -8.803 C 528.278 -10.448 530.014 -12.072 532.163 -13.675 C 538.897 -18.73 544.786 -23.122 553.233 -24.37 C 566.434 -26.313 577.614 -23.184 586.769 -14.985 C 590.55 -11.605 593.997 -7.231 597.112 -1.868 C 604.077 10.185 602.397 25.906 593.997 36.956 C 590.484 41.551 584.921 44.616 580.773 48.994 C 574.249 55.909 567.616 62.716 560.876 69.415 C 558.827 71.434 557.639 73.686 557.192 76.705 C 554.263 96.505 553.222 117.066 554.063 138.386 C 555.019 162.533 557.28 185.005 560.846 205.803 C 561.277 208.299 562.14 210.58 563.081 212.923 C 564.005 215.266 566.07 217.208 567.596 219.196 C 568.967 221 570.647 225.299 573.145 226.394 C 584.231 231.191 594.389 237.495 603.614 245.305 C 604.209 245.813 605.062 245.886 605.743 245.49 C 620.066 237.188 633.551 228.532 646.201 219.52 C 655.437 212.934 663.741 205.932 671.107 198.513 C 684.722 184.795 697.439 170.287 709.255 154.987 C 712.305 151.052 715.46 147.084 718.718 143.088 Z" style="stroke-width: 4.74719px;"/>
  <path fill="#19c109" d="M 1053.541 458.235 L 1036.988 478.378 C 1030.685 485.051 1024.333 491.655 1017.93 498.188 C 1013.348 502.862 1008.382 508.204 1003.035 514.215 C 994.29 524.028 986.18 531.356 979.577 543.733 C 973.726 554.695 966.777 565.339 960.294 576.073 C 956.705 582.044 953.855 588.058 950.931 594.271 C 950.709 594.733 950.749 595.17 951.051 595.582 C 958.248 605.844 964.003 616.89 968.314 628.719 C 968.485 629.192 968.811 629.484 969.293 629.594 C 971.601 630.122 974.269 629.85 976.32 630.212 C 988.396 632.398 1000.382 634.103 1011.433 639.785 C 1015.006 641.625 1017.417 644.505 1020.071 647.475 C 1022.363 650.037 1027.895 650.912 1031.258 651.214 C 1035.591 651.606 1039.912 652.053 1044.224 652.555 C 1048.611 653.068 1053.014 652.721 1057.446 652.691 C 1060.391 652.671 1063.688 652.451 1067.337 652.028 C 1073.075 651.364 1079.096 651.094 1085.398 651.214 L 1124.37 645.213 L 1143.2 640.314 C 1143.693 640.183 1144.085 639.907 1144.377 639.485 C 1145.704 637.524 1146.457 635.308 1147.829 633.409 C 1152.563 626.835 1158.096 622.815 1164.428 621.347 C 1175.444 618.784 1184.489 621.564 1191.566 629.684 C 1193.406 631.811 1194.431 634.283 1195.848 636.711 C 1197.125 638.901 1197.907 640.806 1198.199 642.424 C 1199.451 649.269 1197.793 656.642 1193.013 661.708 C 1183.244 672.11 1170.202 674.205 1156.92 668.747 C 1155.301 668.075 1153.428 667.712 1151.296 667.662 C 1146.513 667.542 1141.577 667.38 1136.491 667.18 C 1130.441 666.958 1121.405 667.924 1109.384 670.074 C 1100.972 671.571 1091.137 673.749 1079.88 676.603 C 1077.036 677.316 1074.406 678.11 1071.994 678.985 C 1069.402 679.93 1066.788 680.814 1064.155 681.639 C 1043.038 688.212 1021.046 696.9 998.181 707.705 C 989.556 711.791 980.782 717.988 972.159 722.48 C 971.707 722.712 971.39 723.064 971.209 723.536 C 969.601 727.717 968.022 731.953 966.475 736.244 C 964.525 741.672 959.922 749.889 952.665 760.895 C 951.952 761.97 951.318 763.016 950.765 764.031 C 950.523 764.483 950.499 764.95 950.689 765.432 C 954.077 773.986 954.886 782.691 953.117 791.546 C 951.137 801.485 946.7 810.034 939.805 817.191 C 938.83 818.206 938.528 819.371 938.9 820.688 C 948.207 853.897 962.76 885.567 982.561 915.699 C 988.159 924.223 995.21 932.812 1003.713 941.465 C 1004.038 941.801 1004.49 941.977 1004.95 941.947 C 1016.881 941.184 1027.555 942.828 1036.972 946.878 C 1050.314 952.621 1064.969 966.884 1066.266 982.368 C 1067.471 996.77 1061.889 1007.997 1049.516 1016.049 C 1029.292 1029.195 1007.492 1031.582 984.114 1023.21 L 976.168 1019.576 C 971.937 1017.466 968.224 1014.738 965.028 1011.389 C 960.162 1005.149 957.228 998.243 956.223 990.675 C 955.589 985.84 956.087 980.94 957.716 975.975 C 959.746 969.502 963.163 964.02 967.968 959.526 C 968.745 958.805 969.054 957.704 968.767 956.678 C 963.993 939.802 956.7 924.007 946.89 909.292 C 945.745 907.131 944.442 905.025 942.985 902.976 C 927.568 881.265 910.214 861.278 890.926 843.016 C 890.311 842.428 889.478 842.117 888.62 842.158 L 868.629 843.182 C 856.758 842.74 845.496 840.695 834.842 837.046 L 820.987 830.909 C 820.595 830.736 820.146 830.984 820.083 831.408 L 816.946 851.701 L 810.66 903.97 L 807.583 939.521 C 805.091 969.272 804.182 998.912 804.855 1028.442 C 804.885 1029.427 805.106 1030.4 805.504 1031.306 C 811.404 1044.684 815.223 1059.037 816.962 1074.365 C 817.887 1082.515 817.771 1089.21 816.614 1094.446 C 815.389 1099.974 812.248 1105.844 807.193 1112.055 C 802.035 1118.372 791.619 1125.007 784.94 1116.805 C 778.235 1108.573 774.596 1099.361 774.024 1089.17 C 773.783 1084.989 774.44 1080.069 775.999 1074.409 C 779.722 1060.826 782.09 1047.226 786.492 1034.276 C 788.453 1028.526 789.392 1022.159 789.311 1015.174 C 788.829 975.694 787.236 939.259 784.532 905.87 C 782.975 886.653 781.105 867.053 778.924 847.072 C 777.839 837.192 776.25 827.397 774.16 817.687 C 773.627 815.205 772.747 813.732 771.522 813.27 C 761.239 809.391 751.459 804.481 742.182 798.541 C 741.75 798.269 741.287 798.184 740.795 798.285 C 734.062 799.582 727.533 799.898 721.212 799.234 C 720.273 799.136 719.327 799.287 718.468 799.672 C 702.652 806.817 686.144 814.943 672.861 826.448 C 672.479 826.768 672.233 827.176 672.123 827.669 C 671.881 828.704 671.725 829.754 671.655 830.819 C 671.082 839.64 663.499 845.368 655.297 846.589 C 653.849 846.801 651.95 846.483 650.261 846.771 C 649.758 846.851 649.336 847.077 648.996 847.448 C 644.306 852.544 638.366 857.761 635.035 863.49 C 629.261 873.455 628.114 890.642 617.846 896.507 C 604.791 903.97 596.272 887.386 602.409 877.33 C 603.133 876.154 604.68 874.642 607.052 872.793 C 608.811 871.426 610.385 869.887 611.772 868.179 L 616.159 863.384 L 637.145 842.006 C 637.601 841.546 637.614 840.805 637.175 840.318 C 634.883 837.775 633.678 834.348 633.556 830.035 C 633.256 825.221 634.819 821.02 638.246 817.431 C 639.01 816.627 640.075 815.808 641.442 814.974 C 642.607 814.261 643.764 813.552 644.909 812.848 C 648.699 810.536 653.211 809.999 658.449 811.235 C 661.141 812.049 663.645 813.617 665.956 815.938 C 666.351 816.343 666.986 816.389 667.434 816.044 C 677.219 808.4 683.912 796.852 691.33 788.137 C 691.682 787.724 691.662 787.111 691.284 786.72 C 679.751 774.765 676.298 756.371 682.962 740.195 C 683.332 739.305 682.827 738.293 681.892 738.054 C 676.957 736.788 672.736 734.285 669.227 730.546 C 667.58 728.797 665.986 727.672 664.449 727.169 C 661.343 726.154 658.111 725.632 654.754 725.6 C 651.814 725.24 649.252 724.591 646.266 724.531 C 635.884 724.319 624.797 724.661 613.008 725.556 C 612.464 725.596 612.218 725.888 612.268 726.43 C 612.721 731.224 613.731 736.154 613.445 740.571 C 612.178 760.172 596.951 774.193 578.755 779.529 C 567.356 782.173 556.34 781.654 545.706 777.977 C 544.78 777.659 543.754 777.854 543.008 778.49 C 535.058 785.253 526.021 786.906 515.9 783.449 C 509.006 781.098 504.599 776.951 502.678 771.012 C 497.96 756.371 505.271 747.945 516.744 740.541 C 517.166 740.271 517.368 739.883 517.348 739.38 C 517.146 734.385 518.005 728.918 519.926 722.978 C 522.126 716.807 525.781 711.343 530.887 706.59 C 534.363 703.353 539.203 699.79 545.405 695.9 C 557.557 690.352 570.054 689.855 582.9 694.408 C 590.73 697.182 597.313 702.252 602.651 709.62 C 603.454 710.715 604.75 711.173 606.54 710.991 C 610.591 710.58 614.606 709.956 618.587 709.122 C 641.492 704.338 663.388 696.906 684.274 686.825 C 684.937 686.503 685.259 685.974 685.239 685.242 C 684.696 660.637 689.4 636.393 699.862 614.608 C 700.206 613.883 700.054 613.019 699.486 612.453 C 696.33 609.276 692.983 606.216 689.444 603.27 C 677.705 593.511 664.982 585.184 651.271 578.289 L 648.557 576.782 C 617.672 562.117 585.518 551.297 552.099 544.322 C 547.923 543.447 544.259 542.648 539.706 542.738 C 527.262 543.02 515.925 539.402 505.694 531.884 C 497.291 524.224 490.536 515.818 485.431 506.661 C 482.777 500.338 481.225 493.951 480.773 487.499 C 479.596 470.744 484.471 456.385 495.396 444.426 C 499.607 439.822 504.669 435.671 510.578 431.973 C 533.027 417.966 561.28 423.469 577.246 444.094 C 587.197 456.939 603.207 475.407 603.313 492.519 C 603.333 494.69 603.876 496.766 604.942 498.745 C 606.6 501.851 608.585 504.857 610.897 507.762 C 633.542 531.422 658.829 551.383 686.762 567.645 C 697.406 573.676 708.14 578.731 718.965 582.812 C 719.979 583.194 720.241 583.189 719.749 582.797 C 720.452 582.988 721.01 582.857 721.422 582.404 C 727.995 575.329 734.84 569.118 741.956 563.77 C 744.56 561.831 746.907 559.865 748.997 557.876 C 751.469 555.544 753.756 553.494 755.856 551.725 C 757.636 550.81 758.3 549.629 757.847 548.182 C 756.861 544.986 755.782 540.895 754.605 535.909 C 753.943 533.105 753.294 528.93 752.66 523.381 C 752.067 518.114 751.063 512.42 749.645 506.299 L 748.002 501.776 C 746.383 497.204 744.78 493.629 743.193 491.057 C 738.76 483.84 734.242 476.282 729.639 468.382 C 726.372 462.764 721.674 458.481 715.542 455.537 C 707.552 451.708 698.341 445.541 698.069 435.53 C 697.858 427.449 701.471 421.429 708.909 417.468 C 715.06 414.192 721.202 413.905 727.333 416.609 C 731.956 418.649 735.449 422.459 737.811 428.038 C 740.545 434.48 741.453 440.903 740.539 447.304 C 740.177 449.838 740.218 452.22 740.66 454.452 C 741.745 459.99 742.66 465.12 743.403 469.844 C 743.865 472.85 744.962 475.986 746.691 479.252 C 747.856 481.444 749.615 483.776 751.967 486.248 C 757.696 492.238 762.827 498.505 767.361 505.048 L 773.451 512.782 C 779.562 520.662 785.084 526.964 790.02 531.688 C 790.844 532.482 791.975 532.663 793.412 532.23 C 795.694 531.548 797.83 530.984 799.819 530.541 C 801.307 530.211 802.886 529.216 804.553 527.557 C 806.634 525.487 808.91 523.482 811.384 521.542 C 816.027 517.923 817.807 513.384 819.992 508.364 C 832.796 478.996 842.049 449.366 847.748 419.473 C 848.31 416.499 848.802 413.081 849.225 409.222 C 850.311 399.346 851.426 390.708 850.039 380.004 C 849.627 376.777 848.034 370.933 845.26 362.47 C 843.39 356.696 839.049 352.353 836.787 346.624 C 832.003 334.463 833.164 322.864 840.27 311.828 C 843.838 306.29 849.573 301.27 857.473 296.767 C 871.147 288.987 888.152 291.369 900.229 301.214 C 904.55 304.733 908.335 309.326 911.581 314.994 C 919.105 328.171 916.179 345.253 905.521 356.168 C 902.913 358.836 898.54 361.339 895.932 364.158 C 888.886 371.707 881.865 378.993 874.87 386.02 C 873.964 386.925 873.337 388.07 873.061 389.321 C 871.835 394.869 870.945 401.161 870.393 408.197 C 869.628 418.076 869.222 427.429 869.172 436.254 C 869.031 457.04 870.779 481.031 874.418 508.228 C 875.352 515.239 876.273 522.867 880.63 528.794 C 882.187 530.913 883.735 533.165 885.274 535.547 C 886.077 536.804 887.329 537.809 889.027 538.563 C 899.228 543.086 908.858 549.167 917.914 556.805 C 918.447 557.247 919.013 557.297 919.617 556.955 C 932.734 549.397 946.112 540.859 959.75 531.341 C 967.63 525.843 974.897 519.697 981.55 512.902 C 999.658 494.42 1016.965 476.176 1030.413 455.959 C 1033.399 451.466 1035.439 445.345 1036.535 437.595 C 1037.5 430.822 1038.847 424.143 1040.575 417.56 C 1042.636 409.74 1047.058 404.332 1053.843 401.337 C 1069.763 394.311 1087.508 412.342 1077.452 427.69 C 1075.929 430.027 1072.885 431.776 1071.422 433.766 C 1065.794 441.486 1059.833 449.642 1053.541 458.235 Z" style="stroke-width: 4.74719px;"/>
  <path fill="#003cff" d="M 631.392 510.681 C 630.486 514.646 628.489 517.422 625.402 519.009 C 610.943 538.717 601.007 551.81 595.591 558.29 C 588.752 566.472 578.338 577.423 564.349 591.139 C 559.862 595.537 556.531 600.462 551.679 605.225 C 545.006 611.772 539.37 619.084 534.772 627.16 C 529.676 636.123 527.115 640.624 527.086 640.662 C 522.935 647.384 518.83 654.126 514.767 660.887 C 511.669 666.045 509.171 671.436 506.569 676.872 C 506.245 677.556 506.317 678.366 506.759 678.992 C 513.734 688.762 519.204 699.333 523.17 710.701 C 523.354 711.248 523.734 711.545 524.309 711.593 C 538.883 712.909 551.353 715.592 561.718 719.644 C 565.742 721.223 569.093 723.707 571.772 727.097 C 574.095 730.035 577.413 731.525 581.08 732.037 C 592.411 733.643 603.116 734.19 613.199 733.672 C 619.483 733.342 625.776 732.976 632.079 732.578 C 652.069 731.311 672.289 727.804 692.738 722.056 C 693.215 721.92 693.58 721.642 693.832 721.223 C 695.47 718.564 696.376 715.962 698.422 713.595 C 703.497 707.702 708.968 704.214 714.832 703.131 C 724.262 701.399 732.23 703.882 738.738 710.585 C 740.857 712.777 741.953 715.202 743.458 717.819 C 747.111 724.174 747.798 731.086 744.291 737.692 C 737.423 750.682 721.89 755.607 708.066 749.995 C 705.435 748.924 702.713 748.315 699.897 748.169 C 684.233 747.351 668.865 748.544 653.793 751.749 C 619.235 759.085 586.238 771.535 554.543 786.104 C 549.332 788.501 544.007 791.549 538.571 795.252 C 535.123 797.609 531.562 799.495 527.889 800.907 C 526.764 801.34 525.903 802.267 525.552 803.42 C 521.401 817.011 515.157 829.421 506.818 840.653 C 506.252 841.422 506.103 842.424 506.424 843.328 C 513.014 861.638 508.396 880.124 495.011 893.975 C 494.509 894.489 494.334 895.242 494.557 895.934 L 502.433 920.469 L 508.265 935.258 C 520.203 962.933 535.737 990.917 557.363 1013.758 C 557.724 1014.148 558.172 1014.323 558.708 1014.284 C 577.485 1012.924 594.626 1017.85 607.748 1032.082 C 617.554 1042.72 621.543 1056.267 616.078 1069.564 C 611.826 1079.94 603.833 1085.916 593.736 1090.884 C 574.344 1100.397 550.379 1099.404 531.382 1089.818 C 525.381 1086.778 520.871 1082.959 517.85 1078.361 C 514.372 1073.052 512.253 1067.134 511.493 1060.607 C 510.238 1050.012 515.235 1038.526 523.214 1031.146 C 523.709 1030.689 523.916 1029.995 523.754 1029.335 C 521.747 1020.977 518.839 1012.734 515.03 1004.61 C 499.322 972.74 474.538 943.089 447.811 917.955 C 447.416 917.581 446.867 917.417 446.335 917.517 C 438.824 918.89 431.163 919.241 423.349 918.57 C 408.074 917.625 393.733 913.689 380.328 906.762 C 380.056 906.616 379.895 906.694 379.847 906.996 C 375.765 930.903 372.609 954.927 370.378 979.066 C 370.289 980.11 370.149 981.176 369.953 982.267 C 369.282 986.154 369.559 990.114 369.033 994.015 C 368.624 997.046 368.318 999.88 368.112 1002.52 C 367.742 1007.255 367.367 1012.16 366.987 1017.235 C 365.097 1042.536 364.347 1068.595 364.737 1095.414 C 364.781 1097.577 365 1099.813 365.92 1101.932 C 372.749 1117.743 376.495 1134.636 377.158 1152.609 C 377.343 1157.743 376.613 1162.292 374.966 1166.257 C 370.714 1176.457 355.764 1197.252 344.512 1182.361 C 336.782 1172.131 332.296 1157.49 336.314 1145.055 C 340.567 1131.888 342.365 1118.078 346.821 1104.927 C 347.855 1101.897 348.707 1098.834 349.378 1095.736 L 349.817 1076.637 C 349.486 1062.979 349.11 1049.496 348.691 1036.188 C 348.604 1033.226 348.336 1028.644 347.888 1022.438 C 347.362 1015.044 347.566 1007.649 346.72 1000.256 C 345.915 993.241 345.579 983.889 345.156 979.14 C 342.774 952.442 340.728 926.14 336.475 899.223 C 335.891 895.51 334.809 892.51 333.232 890.221 C 332.958 889.802 332.589 889.504 332.12 889.329 C 322.379 885.657 313.295 881.073 304.867 875.579 C 304.165 875.123 303.332 874.903 302.487 874.95 L 280.845 876.192 C 269.125 881.647 258.233 887.444 248.17 893.581 L 236.743 902.598 C 236.353 902.909 236.138 903.309 236.1 903.796 C 235.909 906.529 235.896 909.51 234.478 911.877 C 230.367 918.803 224.103 922.136 215.685 921.872 C 215.198 921.853 214.779 922.008 214.428 922.34 C 207.298 928.93 199.919 936.047 197.025 945.297 C 195.281 950.869 193.347 956.105 191.224 961.005 C 188.082 968.224 179.373 976.276 171.687 969.816 C 167.692 966.466 166.1 961.94 166.908 956.242 C 167.785 950.104 172.226 948.38 175.852 944.552 C 184.531 935.36 192.729 925.599 202.563 917.255 C 202.913 916.949 202.946 916.417 202.637 916.071 C 197.989 910.927 197.141 901.048 201.76 895.262 C 209.359 885.763 221.517 883.484 230.751 892.398 C 231.023 892.652 231.449 892.652 231.731 892.398 C 235.69 888.745 239.329 885.208 242.69 880.708 C 246.762 875.291 250.805 870.069 254.818 865.043 C 255.15 864.624 255.136 864.214 254.775 863.815 C 242.967 850.634 241.039 834.735 246.577 818.311 C 246.851 817.521 246.587 817.005 245.788 816.761 C 240.09 815.009 235.939 812.231 232.344 807.643 C 232.043 807.263 231.667 806.985 231.219 806.811 C 227.303 805.28 223.284 804.453 219.164 804.326 C 207.444 802.972 195.71 802.894 183.961 804.093 C 182.275 804.258 180.731 804.277 179.328 804.151 C 178.443 804.066 177.726 804.857 177.897 805.728 C 179.592 814.536 179.241 822.875 176.845 830.746 C 171.964 842.378 162.583 849.845 151.476 854.887 L 140.021 857.956 C 130.405 858.598 121.944 858.495 113.893 855.106 C 113.181 854.808 112.36 854.919 111.744 855.399 C 101.379 863.562 90.594 864.404 79.391 857.927 C 75.826 855.866 73.385 852.549 72.13 848.632 C 67.716 835.043 73.853 826.1 85.543 819.29 C 86.041 819.007 86.274 818.579 86.245 818.004 C 85.646 805.13 91.477 792.212 100.828 784.701 C 111.963 775.758 121.316 770.497 135.739 771.331 C 149.806 772.159 160.941 778.144 169.144 789.289 C 169.436 789.689 169.816 789.962 170.284 790.108 C 171.687 790.536 173.206 790.624 174.843 790.371 C 187.672 788.383 199.85 785.461 211.375 781.603 C 211.901 781.428 212.364 781.199 212.763 780.916 C 213.318 780.526 213.844 780.264 214.341 780.127 C 218.16 779.056 221.594 777.96 224.644 776.84 C 232.243 774.072 239.923 770.955 247.687 767.487 C 248.482 767.132 248.984 766.33 248.959 765.456 C 248.296 741.647 253.006 718.763 263.09 696.805 C 263.355 696.221 263.239 695.538 262.797 695.08 C 243.012 674.169 215.817 660.01 188.126 649.225 C 164.453 639.999 141.189 633.068 118.334 628.431 C 115.022 627.76 111.583 627.374 108.017 627.277 C 98.783 627.013 91.374 625.991 82.854 621.826 C 77.925 618.943 74.506 616.537 72.597 614.607 C 64.034 605.943 56.917 597.568 52.957 586.171 C 47.892 567.466 50.955 550.365 62.149 534.865 C 64.409 531.728 68.89 527.675 75.592 522.707 C 88.266 513.306 102.139 510.349 117.209 513.837 C 134.76 517.9 142.811 529.809 153.888 544.275 C 160.332 552.693 169.202 566.517 169.26 577.14 C 169.289 580.764 170.026 583.672 171.467 585.864 C 174.195 590.004 177.254 593.803 180.644 597.262 C 203.246 620.291 228.516 639.473 256.456 654.807 C 264.444 659.191 272.807 663.044 281.545 666.367 C 282.372 666.672 283.3 666.433 283.869 665.767 C 289.431 659.356 295.589 653.662 302.34 648.684 C 308.024 644.49 312.891 639.421 318.56 635.27 C 319.401 634.649 319.754 633.563 319.437 632.567 C 316.924 624.749 315.083 617.544 314.177 608.558 C 313.182 598.753 311.151 587.632 306.051 578.997 C 302.349 572.713 298.433 566.03 294.302 558.947 C 291.629 554.359 288.137 549.391 284.176 546.146 C 282.471 544.753 280.449 543.546 278.111 542.522 C 274.001 540.739 270.192 538.158 266.685 534.777 C 258.471 526.872 260.095 514.363 268.716 508.035 C 276.207 502.522 283.646 501.763 291.03 505.756 C 295.346 508.085 298.574 512.215 300.718 518.148 C 302.735 523.739 303.368 529.361 302.617 535.012 C 302.247 537.72 302.287 540.16 302.735 542.332 C 303.913 548.157 304.922 553.803 305.76 559.269 C 306.002 560.876 306.937 563.165 308.565 566.137 C 309.626 568.065 311.102 570.014 312.992 571.982 C 326.597 586.142 336.461 603.619 350.899 616.96 C 351.468 617.494 352.272 617.688 353.017 617.472 L 361.668 615.045 C 362.428 614.832 363.066 614.427 363.582 613.833 C 366.028 611.018 368.737 608.641 371.707 606.702 C 373.509 605.514 374.941 603.891 376.004 601.836 C 377.748 598.426 379.296 594.904 380.65 591.271 C 380.728 591.056 380.796 591.013 380.855 591.139 C 380.875 591.178 380.885 591.226 380.885 591.285 C 380.885 591.354 380.898 591.354 380.928 591.285 C 390.173 569.493 397.567 547.086 403.111 524.067 C 406.355 510.603 408.438 496.959 409.365 483.135 C 409.686 478.212 409.408 472.058 408.093 466.681 C 405.852 457.563 404.007 451.727 402.554 449.175 C 397.572 440.421 393.13 434.095 393.188 423.062 C 393.217 418.503 394.766 411.591 396.315 407.952 C 399.311 400.865 406.807 394.318 414.654 389.598 C 420.119 386.306 426.024 384.581 432.366 384.426 C 465.2 383.637 488.669 427.68 458.142 450.008 C 455.147 452.201 453.349 453.997 451.055 456.467 C 445.034 462.946 438.985 469.205 432.905 475.244 C 431.877 476.273 431.171 477.59 430.874 479.029 C 429.706 484.748 428.872 490.725 428.375 496.959 C 427.08 513.16 426.841 529.386 427.659 545.635 C 428.742 567.301 430.864 586.916 434.03 604.48 C 434.587 607.594 435.77 610.663 437.844 613.102 C 439.53 615.07 441.055 617.237 442.419 619.604 C 443.441 621.387 444.962 622.732 446.978 623.638 C 456.623 627.944 465.776 633.696 474.436 640.895 C 474.985 641.36 475.768 641.425 476.379 641.056 C 483.579 636.78 490.602 632.464 497.451 628.109 C 513.565 617.881 525.22 609.196 532.419 602.055 C 550.481 584.11 568.309 565.274 583.023 544.114 C 586.482 539.146 588.674 532.752 589.6 524.928 C 590.857 514.359 593.018 505.839 596.087 499.371 C 598.44 494.373 605.265 489.784 611.023 488.922 C 616.536 488.104 621.489 489.745 625.883 493.846 C 630.989 498.61 632.824 504.223 631.392 510.681 Z" style="stroke-width: 4.74719px;"/>
</svg>