<?xml version="1.0" encoding="utf-8"?>
<svg version="1.1" viewBox="0.00 0.00 256.00 256.00" xmlns="http://www.w3.org/2000/svg">
  <path d=" M 143.61 73.26 C 189.73 54.01 232.72 103.86 207.29 146.74 Q 207.00 147.23 207.18 147.76 L 214.83 171.20 A 3.01 3.00 -90.0 0 1 211.04 174.99 L 185.46 166.59 A 1.59 1.58 -47.8 0 0 184.32 166.65 Q 171.90 172.08 158.50 170.69 Q 157.88 170.63 157.99 171.24 Q 161.15 190.33 151.25 206.76 Q 150.98 207.21 151.14 207.72 Q 156.72 225.03 158.66 230.77 C 159.57 233.47 157.70 235.80 154.78 234.85 Q 142.01 230.71 129.23 226.60 Q 128.74 226.44 128.28 226.64 C 108.98 234.95 87.33 231.02 72.37 216.46 C 49.33 194.05 52.29 155.86 79.58 137.63 Q 94.43 127.70 113.01 129.26 Q 113.78 129.32 113.64 128.56 Q 112.80 124.05 112.89 119.30 Q 112.91 118.41 112.09 118.75 C 98.77 124.24 84.68 124.22 71.46 118.62 Q 70.97 118.41 70.46 118.58 Q 57.30 122.88 45.03 126.92 C 42.49 127.76 40.20 125.65 41.05 123.06 Q 44.89 111.39 48.70 99.76 Q 48.87 99.22 48.59 98.74 C 36.22 78.06 39.25 53.05 56.01 35.98 C 75.67 15.98 108.32 16.18 128.03 36.04 Q 142.86 50.98 143.00 72.86 Q 143.01 73.51 143.61 73.26 Z M 48.70 119.00 A 0.24 0.24 0.0 0 0 49.00 119.30 Q 59.67 115.78 70.37 112.30 Q 71.30 112.00 72.20 112.40 Q 92.96 121.73 113.16 111.74 A 1.05 1.05 0.0 0 0 113.73 111.00 Q 117.94 89.60 136.16 77.27 A 1.43 1.42 76.3 0 0 136.79 76.23 C 139.23 51.44 120.56 29.14 95.69 27.20 C 58.20 24.28 33.64 65.91 54.77 97.20 A 2.66 2.65 -53.0 0 1 55.09 99.50 L 48.70 119.00 Z M 201.22 145.07 C 214.32 125.48 209.97 99.69 192.14 85.14 C 174.66 70.86 147.91 71.61 131.89 88.41 Q 115.32 105.78 119.92 129.87 A 0.95 0.94 2.6 0 0 120.59 130.60 Q 146.68 138.07 156.31 163.83 Q 156.51 164.37 157.07 164.44 Q 171.13 166.35 183.29 160.50 A 3.31 3.31 0.0 0 1 185.73 160.35 L 206.93 167.31 A 0.21 0.21 0.0 0 0 207.19 167.05 L 200.86 147.63 A 2.97 2.96 53.1 0 1 201.22 145.07 Z M 145.15 205.22 C 158.45 184.18 154.08 157.99 133.85 143.34 C 108.89 125.28 72.88 137.96 64.65 167.58 C 54.19 205.17 91.76 236.48 127.15 220.58 Q 127.71 220.32 128.30 220.22 Q 128.89 220.11 129.48 220.30 Q 140.64 223.98 150.61 227.20 Q 151.32 227.43 151.09 226.72 Q 147.99 217.22 144.94 207.87 C 144.65 206.99 144.65 206.03 145.15 205.22 Z" style="fill: rgb(243, 241, 241);"/>
  <path d=" M 48.70 119.00 L 55.09 99.50 A 2.66 2.65 -53.0 0 0 54.77 97.20 C 33.64 65.91 58.20 24.28 95.69 27.20 C 120.56 29.14 139.23 51.44 136.79 76.23 A 1.43 1.42 76.3 0 1 136.16 77.27 Q 117.94 89.60 113.73 111.00 A 1.05 1.05 0.0 0 1 113.16 111.74 Q 92.96 121.73 72.20 112.40 Q 71.30 112.00 70.37 112.30 Q 59.67 115.78 49.00 119.30 A 0.24 0.24 0.0 0 1 48.70 119.00 Z M 95.58 55.56 Q 91.35 60.62 87.00 65.82 C 85.84 67.20 84.95 69.02 86.44 70.60 C 87.87 72.12 91.48 71.56 93.44 71.59 C 101.92 71.69 105.33 81.70 99.00 87.03 C 96.27 89.33 92.33 89.14 89.03 88.84 Q 84.02 88.40 81.30 83.49 Q 80.03 81.19 77.51 81.97 Q 76.20 82.38 75.86 84.59 A 3.29 3.26 35.2 0 0 76.23 86.67 C 80.17 93.72 86.64 95.51 94.21 94.93 C 111.79 93.60 113.31 68.87 95.80 65.79 Q 95.00 65.65 95.52 65.02 L 104.81 53.82 A 2.97 2.96 -70.2 0 0 102.53 48.96 L 78.89 48.96 Q 76.38 48.96 75.72 51.37 Q 75.64 51.68 75.67 51.99 Q 75.96 54.96 78.95 54.97 L 95.31 54.97 Q 96.08 54.97 95.58 55.56 Z" style="fill: rgb(83, 175, 213);"/>
  <path d=" M 95.31 54.97 L 78.95 54.97 Q 75.96 54.96 75.67 51.99 Q 75.64 51.68 75.72 51.37 Q 76.38 48.96 78.89 48.96 L 102.53 48.96 A 2.97 2.96 -70.2 0 1 104.81 53.82 L 95.52 65.02 Q 95.00 65.65 95.80 65.79 C 113.31 68.87 111.79 93.60 94.21 94.93 C 86.64 95.51 80.17 93.72 76.23 86.67 A 3.29 3.26 35.2 0 1 75.86 84.59 Q 76.20 82.38 77.51 81.97 Q 80.03 81.19 81.30 83.49 Q 84.02 88.40 89.03 88.84 C 92.33 89.14 96.27 89.33 99.00 87.03 C 105.33 81.70 101.92 71.69 93.44 71.59 C 91.48 71.56 87.87 72.12 86.44 70.60 C 84.95 69.02 85.84 67.20 87.00 65.82 Q 91.35 60.62 95.58 55.56 Q 96.08 54.97 95.31 54.97 Z" style="fill: rgb(255, 255, 255);"/>
  <path d=" M 201.22 145.07 A 2.97 2.96 53.1 0 0 200.86 147.63 L 207.19 167.05 A 0.21 0.21 0.0 0 1 206.93 167.31 L 185.73 160.35 A 3.31 3.31 0.0 0 0 183.29 160.50 Q 171.13 166.35 157.07 164.44 Q 156.51 164.37 156.31 163.83 Q 146.68 138.07 120.59 130.60 A 0.95 0.94 2.6 0 1 119.92 129.87 Q 115.32 105.78 131.89 88.41 C 147.91 71.61 174.66 70.86 192.14 85.14 C 209.97 99.69 214.32 125.48 201.22 145.07 Z M 158.65 136.28 Q 159.33 135.57 160.19 135.06 Q 166.31 131.50 172.59 128.04 Q 176.15 126.08 178.22 123.47 C 186.63 112.89 179.28 97.24 165.96 97.03 Q 155.55 96.86 150.54 106.17 Q 149.09 108.86 151.59 110.61 Q 151.91 110.84 152.31 110.92 Q 154.58 111.35 155.65 109.30 Q 159.32 102.27 166.73 103.12 C 173.99 103.96 177.93 111.79 174.55 118.23 Q 173.07 121.06 168.06 123.73 Q 161.89 127.03 156.64 130.18 Q 152.69 132.56 151.20 138.09 C 150.55 140.48 151.39 142.90 154.24 142.92 Q 166.11 143.01 180.17 142.92 Q 182.78 142.90 183.46 140.38 Q 183.61 139.83 183.42 139.28 Q 182.62 136.96 180.17 136.96 L 158.94 136.94 Q 158.03 136.94 158.65 136.28 Z" style="fill: rgb(93, 210, 50);"/>
  <path d=" M 158.65 136.28 Q 158.03 136.94 158.94 136.94 L 180.17 136.96 Q 182.62 136.96 183.42 139.28 Q 183.61 139.83 183.46 140.38 Q 182.78 142.90 180.17 142.92 Q 166.11 143.01 154.24 142.92 C 151.39 142.90 150.55 140.48 151.20 138.09 Q 152.69 132.56 156.64 130.18 Q 161.89 127.03 168.06 123.73 Q 173.07 121.06 174.55 118.23 C 177.93 111.79 173.99 103.96 166.73 103.12 Q 159.32 102.27 155.65 109.30 Q 154.58 111.35 152.31 110.92 Q 151.91 110.84 151.59 110.61 Q 149.09 108.86 150.54 106.17 Q 155.55 96.86 165.96 97.03 C 179.28 97.24 186.63 112.89 178.22 123.47 Q 176.15 126.08 172.59 128.04 Q 166.31 131.50 160.19 135.06 Q 159.33 135.57 158.65 136.28 Z" style="fill: rgb(255, 255, 255);"/>
  <path d=" M 145.15 205.22 C 144.65 206.03 144.65 206.99 144.94 207.87 Q 147.99 217.22 151.09 226.72 Q 151.32 227.43 150.61 227.20 Q 140.64 223.98 129.48 220.30 Q 128.89 220.11 128.30 220.22 Q 127.71 220.32 127.15 220.58 C 91.76 236.48 54.19 205.17 64.65 167.58 C 72.88 137.96 108.89 125.28 133.85 143.34 C 154.08 157.99 158.45 184.18 145.15 205.22 Z M 105.00 165.73 L 105.00 196.48 Q 105.00 196.96 104.52 196.96 L 100.91 196.95 Q 98.57 196.95 97.35 198.94 Q 96.92 199.63 97.06 200.29 Q 97.61 202.97 100.35 202.97 L 116.19 202.96 A 2.33 2.30 -68.5 0 0 117.89 202.21 Q 119.28 200.71 118.94 199.39 Q 118.32 196.98 115.83 196.96 L 111.73 196.94 Q 111.02 196.94 111.02 196.23 L 111.02 159.93 A 3.01 3.00 76.7 0 0 106.67 157.24 L 98.83 161.17 Q 96.66 162.26 97.12 164.64 Q 97.37 165.99 99.06 166.79 A 2.34 2.33 44.4 0 0 101.09 166.77 L 104.20 165.23 Q 105.00 164.83 105.00 165.73 Z" style="fill: rgb(255, 69, 69);"/>
  <path d=" M 104.20 165.23 L 101.09 166.77 A 2.34 2.33 44.4 0 1 99.06 166.79 Q 97.37 165.99 97.12 164.64 Q 96.66 162.26 98.83 161.17 L 106.67 157.24 A 3.01 3.00 76.7 0 1 111.02 159.93 L 111.02 196.23 Q 111.02 196.94 111.73 196.94 L 115.83 196.96 Q 118.32 196.98 118.94 199.39 Q 119.28 200.71 117.89 202.21 A 2.33 2.30 -68.5 0 1 116.19 202.96 L 100.35 202.97 Q 97.61 202.97 97.06 200.29 Q 96.92 199.63 97.35 198.94 Q 98.57 196.95 100.91 196.95 L 104.52 196.96 Q 105.00 196.96 105.00 196.48 L 105.00 165.73 Q 105.00 164.83 104.20 165.23 Z" style="fill: rgb(255, 255, 255);"/>
</svg>