<?xml version="1.0" encoding="utf-8"?>
<svg version="1.1" viewBox="0.00 0.00 1024.00 1024.00" xmlns="http://www.w3.org/2000/svg">
  <path fill="#351001" d=" M 876.17 325.45 C 889.19 326.11 905.00 320.64 910.52 307.96 C 912.81 302.68 915.09 296.44 921.77 296.16 C 929.16 295.85 934.10 302.43 932.47 309.48 Q 928.69 325.91 916.00 335.75 C 899.37 348.64 877.18 350.38 857.20 344.43 A 2.25 2.22 -53.9 0 0 855.28 344.74 Q 844.24 352.35 830.44 355.59 A 0.69 0.69 0.0 0 0 829.98 356.58 Q 852.13 400.03 858.90 447.81 Q 862.11 470.42 861.35 497.74 Q 860.18 539.99 844.76 583.03 Q 831.18 620.95 805.85 649.80 Q 805.48 650.22 805.00 651.56 Q 804.64 652.54 804.54 653.56 Q 800.84 688.61 787.43 720.28 C 782.64 731.58 775.44 743.13 766.32 750.50 C 752.91 761.33 733.79 762.56 719.55 752.75 C 710.26 746.35 703.96 734.43 699.75 723.44 C 693.97 708.37 689.83 692.93 686.41 677.17 A 0.83 0.82 72.9 0 0 685.30 676.58 Q 680.98 678.28 676.98 679.92 Q 672.11 681.90 650.42 687.81 Q 649.94 687.94 649.80 688.43 Q 644.20 708.51 636.58 724.02 Q 630.45 736.48 621.57 745.69 Q 610.25 757.44 594.06 757.99 C 579.58 758.49 568.52 749.72 562.96 736.72 C 558.41 726.08 558.22 712.83 558.83 701.00 Q 558.87 700.19 558.06 700.19 C 544.43 700.24 531.32 700.63 517.91 700.13 Q 510.45 699.86 503.22 699.46 A 1.01 1.00 2.5 0 0 502.16 700.42 Q 501.58 714.08 499.79 728.08 C 497.67 744.79 492.87 767.67 475.05 774.87 C 459.72 781.07 443.83 776.43 432.04 765.45 Q 422.08 756.19 413.93 742.13 Q 395.28 709.99 385.31 673.38 A 1.98 1.97 83.5 0 0 383.49 671.92 Q 368.22 671.23 351.91 669.51 Q 351.28 669.45 351.24 670.08 C 349.94 691.33 346.76 712.20 339.62 731.44 C 334.49 745.30 325.28 755.89 309.71 757.51 Q 306.75 757.82 303.56 757.80 Q 300.21 757.79 296.93 757.05 Q 284.33 754.21 274.42 743.97 Q 268.94 738.30 264.97 732.17 C 248.33 706.46 237.52 675.84 230.79 644.81 Q 230.31 642.58 228.15 641.66 Q 198.18 628.79 171.77 610.11 Q 158.29 600.57 144.35 590.14 Q 121.81 573.28 107.75 547.48 Q 95.89 525.72 97.24 499.33 C 98.14 481.76 102.97 464.48 113.22 450.25 Q 118.00 443.63 125.87 435.68 C 130.74 430.76 136.04 427.13 141.33 422.92 A 1.29 1.27 -15.8 0 0 141.80 422.10 C 143.20 412.33 145.06 402.72 146.33 392.84 Q 148.98 372.28 155.34 351.98 Q 155.86 350.31 154.28 351.05 Q 135.92 359.61 115.56 357.45 Q 111.01 356.97 106.49 355.36 C 99.87 353.01 95.69 347.24 97.82 340.22 C 98.95 336.49 102.34 332.34 105.09 329.36 C 113.75 320.03 122.02 310.39 124.55 297.85 Q 126.80 286.72 129.34 277.84 C 134.54 259.68 146.52 243.25 161.54 231.55 C 179.65 217.45 202.72 211.51 225.41 214.35 C 237.80 215.90 248.74 220.62 258.73 228.05 Q 259.74 228.80 260.91 228.32 C 269.19 224.91 277.01 221.96 285.78 219.42 Q 328.60 207.03 376.30 210.64 Q 402.95 212.65 426.54 220.69 Q 426.94 220.82 428.02 220.80 Q 428.75 220.78 429.46 220.55 Q 449.19 214.24 469.61 210.96 Q 515.12 203.65 563.78 206.47 Q 602.15 208.69 635.78 216.38 C 685.78 227.81 734.10 248.93 772.33 282.05 C 789.30 296.75 803.89 313.91 815.80 332.95 Q 816.51 334.09 817.86 334.03 Q 824.92 333.75 831.98 331.55 A 0.77 0.77 0.0 0 0 832.25 330.23 C 823.38 322.70 816.06 312.49 813.62 301.48 C 807.45 273.64 827.49 248.00 857.03 252.42 C 873.66 254.90 885.24 267.18 887.85 283.64 C 890.36 299.48 885.34 312.42 875.75 324.54 Q 875.07 325.39 876.17 325.45 Z M 498.60 241.27 Q 521.96 245.95 537.77 262.50 C 565.19 291.19 573.74 330.90 572.72 369.94 C 572.59 374.85 571.77 379.46 567.29 382.32 C 561.50 386.02 554.17 388.30 547.59 390.39 C 495.86 404.32 445.52 384.44 421.66 335.59 Q 418.23 328.59 410.05 309.47 Q 408.20 305.16 403.61 301.59 Q 400.16 298.57 398.89 295.51 C 397.55 292.31 399.05 287.97 401.82 285.87 Q 409.01 280.40 417.26 285.55 Q 423.59 289.50 428.32 296.38 Q 432.56 305.09 438.89 320.78 Q 444.35 334.30 454.91 346.09 Q 472.98 366.26 499.82 371.03 Q 508.85 372.64 519.47 372.05 Q 534.66 371.21 549.02 366.89 Q 550.34 366.49 550.46 364.49 Q 550.61 361.96 550.32 359.50 Q 550.39 329.82 538.93 303.25 Q 536.43 297.45 532.59 291.69 Q 522.71 274.62 505.66 265.82 Q 504.64 265.29 505.23 266.27 Q 509.60 273.54 508.67 282.13 C 506.77 288.22 500.21 290.80 495.34 286.14 Q 492.36 283.28 491.21 282.03 Q 486.58 273.41 482.96 269.31 Q 469.07 253.57 448.57 252.35 Q 425.72 250.99 407.67 263.69 C 402.73 267.17 397.95 271.54 392.85 275.35 Q 390.86 275.42 388.66 275.97 C 387.03 276.38 385.18 276.47 383.84 275.29 C 375.83 268.25 382.45 260.02 388.74 255.18 Q 393.22 251.73 399.79 247.92 Q 406.01 243.73 412.74 241.01 Q 413.32 240.77 412.74 240.56 C 409.31 239.28 406.04 238.07 402.45 237.26 Q 386.84 233.77 374.41 232.78 Q 361.34 231.73 347.68 231.94 Q 319.02 232.37 287.56 241.78 Q 265.98 248.23 247.20 259.42 C 214.26 279.05 189.91 311.07 177.88 347.74 C 172.46 364.26 168.38 382.24 165.90 400.26 Q 164.34 411.55 161.49 421.67 Q 161.02 423.34 159.95 424.91 C 153.93 433.76 148.55 441.71 141.15 449.20 Q 136.00 454.41 131.53 460.24 Q 123.77 470.36 120.54 484.63 Q 113.64 515.10 129.08 541.94 Q 139.26 559.65 158.01 573.29 Q 169.84 581.89 181.69 590.51 Q 218.31 617.16 260.98 630.25 Q 279.45 635.92 291.73 638.33 C 308.72 641.67 327.82 645.08 345.98 646.59 Q 361.66 647.88 379.00 649.12 A 0.68 0.67 87.3 0 0 379.71 648.33 Q 378.82 643.02 377.82 637.43 Q 376.82 631.80 380.78 626.97 Q 385.94 622.91 391.74 625.25 C 395.51 626.77 397.57 630.12 398.22 634.00 Q 403.22 663.86 413.56 691.48 Q 417.72 702.60 421.67 710.73 C 422.48 712.39 423.43 715.04 425.08 715.67 Q 434.03 719.05 443.98 719.22 Q 458.63 719.47 471.49 713.38 L 479.87 708.92 A 3.01 3.00 -12.6 0 0 481.46 706.43 Q 482.51 685.74 482.81 665.75 Q 483.02 650.98 485.88 635.27 C 486.51 630.58 487.62 625.65 491.08 622.30 C 495.77 617.77 502.31 619.14 506.49 623.76 Q 508.14 627.89 507.27 633.00 Q 503.57 654.71 503.51 676.62 A 0.93 0.93 0.0 0 0 504.40 677.55 Q 534.35 678.99 561.51 677.95 Q 592.34 676.77 626.26 670.29 Q 656.60 664.50 682.66 653.32 A 1.45 1.45 0.0 0 0 683.53 651.85 Q 682.88 645.45 683.35 639.30 Q 683.76 634.03 687.59 631.13 C 691.24 628.37 696.97 628.09 700.48 631.31 Q 703.95 634.49 703.77 639.75 Q 703.67 642.53 704.24 649.43 Q 705.81 666.92 710.47 686.01 C 711.40 689.81 711.95 692.96 715.79 694.73 Q 734.98 703.52 756.01 700.53 Q 758.17 700.22 760.32 699.66 Q 766.55 698.55 772.29 695.82 C 773.86 695.07 774.64 694.16 775.15 692.60 Q 777.78 684.60 779.50 676.29 Q 782.48 661.90 784.05 648.65 C 784.42 645.46 785.52 641.66 787.44 639.19 Q 801.15 621.54 809.90 606.58 Q 819.47 590.23 826.46 568.13 Q 839.02 528.38 838.77 484.81 Q 838.72 475.64 837.57 464.76 Q 836.23 452.15 834.37 439.74 Q 833.80 435.94 832.73 432.30 Q 826.95 401.55 812.88 373.73 Q 807.49 363.29 801.56 353.20 C 781.12 318.46 751.23 291.22 715.55 271.85 Q 698.64 262.67 686.63 257.86 Q 617.28 230.08 536.25 229.27 Q 498.89 228.89 471.76 234.72 Q 471.03 234.87 471.73 235.13 Q 478.49 237.63 484.50 239.80 Q 486.67 240.59 490.50 240.61 Q 492.59 240.62 498.60 241.27 Z M 148.25 282.41 Q 146.40 289.12 145.02 295.93 Q 142.96 306.11 141.83 309.42 Q 136.90 323.85 126.18 335.01 Q 125.51 335.71 126.47 335.62 Q 148.15 333.59 165.51 318.38 C 169.41 314.97 171.08 311.09 173.45 306.70 Q 194.02 268.56 231.60 244.38 L 237.87 240.76 A 0.35 0.35 0.0 0 0 237.91 240.18 C 232.03 235.56 222.07 233.52 215.04 233.20 Q 208.64 232.90 201.29 234.26 Q 194.75 235.47 187.87 238.49 Q 158.76 251.29 148.25 282.41 Z M 864.50 283.71 Q 861.41 276.67 854.75 274.71 Q 850.16 273.36 846.63 274.48 C 839.48 276.74 835.01 282.98 835.24 290.45 C 835.34 293.89 835.68 297.47 837.13 300.59 C 840.04 306.82 846.47 314.44 853.42 317.07 Q 853.90 317.25 854.24 316.87 C 862.44 308.00 869.68 295.50 864.50 283.71 Z M 278.86 699.90 Q 299.12 704.17 319.46 697.35 Q 323.25 696.08 326.17 694.37 A 2.63 2.61 -10.8 0 0 327.44 692.51 Q 329.40 680.17 329.81 668.27 Q 329.83 667.72 329.30 667.60 Q 324.04 666.44 321.63 666.12 Q 295.33 662.56 269.72 655.94 L 255.67 651.44 Q 254.91 651.19 255.08 651.98 Q 259.84 673.76 268.15 692.43 Q 269.03 694.39 270.05 696.23 C 271.61 699.01 275.83 699.48 278.86 699.90 Z M 625.99 693.73 A 0.42 0.41 89.7 0 0 625.47 693.21 Q 622.73 694.06 620.08 694.49 Q 605.05 696.92 589.82 698.35 Q 587.81 698.54 585.84 698.53 Q 582.66 698.52 585.76 699.26 Q 603.62 703.56 622.35 702.10 Q 623.45 702.01 623.77 700.96 L 625.99 693.73 Z M 597.53 726.85 C 596.55 730.89 595.05 733.93 593.58 737.56 Q 593.27 738.32 594.09 738.26 C 597.37 738.01 601.63 735.25 603.92 733.20 Q 609.11 728.54 613.19 722.85 Q 613.80 722.00 613.97 720.99 A 0.63 0.63 0.0 0 0 613.26 720.26 Q 607.65 721.02 602.37 720.04 Q 592.96 718.30 584.73 715.37 C 583.35 714.88 582.16 713.92 580.94 713.13 Q 580.32 712.72 580.32 713.46 C 580.35 720.14 580.66 728.77 583.88 734.39 A 0.70 0.69 42.0 0 0 585.12 734.33 Q 587.04 729.90 588.77 726.01 Q 589.59 724.16 591.07 722.67 C 593.80 719.92 598.41 723.24 597.53 726.85 Z M 289.32 719.02 Q 285.25 718.74 281.08 717.46 Q 279.81 717.08 280.49 718.21 C 285.23 726.20 291.80 734.78 300.77 737.74 A 0.41 0.41 0.0 0 0 301.31 737.34 Q 301.22 732.03 301.14 726.57 Q 301.10 723.49 303.51 721.56 Q 304.03 721.14 304.68 721.28 Q 308.34 722.11 309.30 725.24 Q 310.78 730.10 311.82 735.97 A 0.74 0.73 60.8 0 0 313.09 736.33 Q 316.70 732.27 318.78 727.47 Q 321.79 720.54 323.14 714.68 A 0.59 0.59 0.0 0 0 322.32 714.01 Q 318.48 715.78 314.53 716.74 Q 301.71 719.85 289.32 719.02 Z M 733.89 728.86 C 734.13 726.78 734.68 721.44 737.55 721.57 Q 742.04 721.77 742.36 725.69 Q 742.88 731.93 742.71 738.52 A 0.91 0.91 0.0 0 0 743.83 739.43 C 752.68 737.25 760.45 726.54 764.32 718.35 Q 764.68 717.59 763.86 717.77 Q 741.31 722.80 719.32 714.31 Q 718.88 714.14 719.02 714.59 Q 721.90 724.12 727.30 732.19 C 728.59 734.12 730.35 735.78 732.02 737.37 A 0.43 0.42 26.7 0 0 732.73 737.14 Q 733.43 733.01 733.89 728.86 Z M 449.05 737.39 Q 441.77 738.03 434.82 736.21 Q 434.24 736.06 434.54 736.58 C 439.27 744.98 446.35 753.29 455.50 757.12 Q 456.34 757.47 456.12 756.59 L 453.38 745.66 Q 453.18 739.26 457.88 739.86 C 460.00 740.13 461.29 741.68 462.09 743.51 Q 464.42 748.91 466.18 754.57 Q 466.56 755.80 467.33 756.78 A 0.76 0.76 0.0 0 0 468.55 756.74 C 471.30 752.72 473.58 748.55 474.85 743.83 Q 476.69 736.95 477.63 730.36 A 0.40 0.39 80.6 0 0 477.06 729.95 C 468.29 734.56 460.40 736.43 449.05 737.39 Z"/>
  <path fill="#ffffff" d=" M 812.88 373.73 Q 812.51 374.27 812.01 374.38 Q 811.49 374.50 811.21 374.04 C 805.64 364.75 798.35 356.93 791.31 348.97 C 778.88 334.90 764.83 321.94 750.38 310.41 Q 743.62 305.01 735.87 299.81 Q 724.73 292.35 720.62 289.99 Q 706.05 281.64 690.03 274.04 C 683.91 271.13 677.35 268.85 670.98 266.41 Q 656.27 260.77 634.73 255.07 Q 606.07 247.50 574.34 243.97 C 566.49 243.10 557.94 242.63 549.90 242.09 C 536.30 241.17 522.26 241.39 508.58 241.30 Q 507.45 241.30 506.36 241.55 Q 505.16 241.82 504.49 241.65 Q 501.54 240.89 498.60 241.27 Q 492.59 240.62 490.50 240.61 Q 486.67 240.59 484.50 239.80 Q 478.49 237.63 471.73 235.13 Q 471.03 234.87 471.76 234.72 Q 498.89 228.89 536.25 229.27 Q 617.28 230.08 686.63 257.86 Q 698.64 262.67 715.55 271.85 C 751.23 291.22 781.12 318.46 801.56 353.20 Q 807.49 363.29 812.88 373.73 Z"/>
  <path fill="#ffffff" d=" M 399.79 247.92 Q 394.90 247.33 390.29 246.56 Q 368.37 242.89 344.59 243.96 Q 336.02 244.35 326.34 245.95 Q 305.49 249.42 284.09 257.19 Q 237.42 274.14 208.73 314.76 Q 199.26 328.17 191.09 347.77 Q 182.23 369.04 182.44 390.28 Q 176.92 395.64 175.34 403.26 Q 172.58 416.55 181.16 427.56 Q 181.53 428.04 180.96 428.24 Q 163.09 434.77 151.17 448.68 Q 138.01 464.03 132.47 483.37 Q 128.89 495.90 129.55 507.27 Q 130.49 523.59 141.11 538.28 Q 141.77 540.67 142.36 543.23 Q 144.59 552.94 149.72 560.67 Q 152.78 565.27 155.98 569.77 Q 157.16 571.43 158.83 572.83 Q 159.34 573.26 158.69 573.34 Q 158.39 573.38 158.01 573.29 Q 139.26 559.65 129.08 541.94 Q 113.64 515.10 120.54 484.63 Q 123.77 470.36 131.53 460.24 Q 136.00 454.41 141.15 449.20 C 148.55 441.71 153.93 433.76 159.95 424.91 Q 161.02 423.34 161.49 421.67 Q 164.34 411.55 165.90 400.26 C 168.38 382.24 172.46 364.26 177.88 347.74 C 189.91 311.07 214.26 279.05 247.20 259.42 Q 265.98 248.23 287.56 241.78 Q 319.02 232.37 347.68 231.94 Q 361.34 231.73 374.41 232.78 Q 386.84 233.77 402.45 237.26 C 406.04 238.07 409.31 239.28 412.74 240.56 Q 413.32 240.77 412.74 241.01 Q 406.01 243.73 399.79 247.92 Z"/>
  <path fill="#ffffff" d=" M 231.60 244.38 Q 222.95 242.21 215.99 242.42 Q 205.86 242.72 194.08 246.34 Q 184.67 249.23 176.23 255.13 Q 165.32 262.74 155.40 274.06 Q 151.85 278.11 149.79 282.82 Q 149.60 283.25 149.13 283.20 Q 148.59 283.14 148.25 282.41 Q 158.76 251.29 187.87 238.49 Q 194.75 235.47 201.29 234.26 Q 208.64 232.90 215.04 233.20 C 222.07 233.52 232.03 235.56 237.91 240.18 A 0.35 0.35 0.0 0 1 237.87 240.76 L 231.60 244.38 Z"/>
  <path fill="#fdbaaf" d=" M 498.60 241.27 Q 501.54 240.89 504.49 241.65 Q 505.16 241.82 506.36 241.55 Q 507.45 241.30 508.58 241.30 C 522.26 241.39 536.30 241.17 549.90 242.09 C 557.94 242.63 566.49 243.10 574.34 243.97 Q 606.07 247.50 634.73 255.07 Q 656.27 260.77 670.98 266.41 C 677.35 268.85 683.91 271.13 690.03 274.04 Q 706.05 281.64 720.62 289.99 Q 724.73 292.35 735.87 299.81 Q 743.62 305.01 750.38 310.41 C 764.83 321.94 778.88 334.90 791.31 348.97 C 798.35 356.93 805.64 364.75 811.21 374.04 Q 811.49 374.50 812.01 374.38 Q 812.51 374.27 812.88 373.73 Q 826.95 401.55 832.73 432.30 L 832.37 437.03 Q 832.36 437.18 832.24 437.29 L 832.04 437.46 Q 831.77 437.69 831.75 438.06 Q 830.98 460.16 828.76 480.23 C 828.24 484.93 827.59 489.75 826.48 494.20 Q 822.48 510.35 818.85 527.29 Q 818.65 528.22 818.16 531.75 Q 817.86 533.87 817.22 536.20 L 813.74 546.78 C 812.46 549.64 811.63 552.54 810.14 555.29 C 808.58 558.15 807.64 561.23 806.02 564.05 Q 795.37 582.67 782.28 600.29 Q 778.98 604.74 778.94 609.81 Q 778.85 620.65 776.24 631.46 Q 774.84 637.27 773.67 643.08 Q 768.50 668.81 761.98 693.73 Q 761.23 696.58 760.32 699.66 Q 758.17 700.22 756.01 700.53 Q 734.98 703.52 715.79 694.73 C 711.95 692.96 711.40 689.81 710.47 686.01 Q 705.81 666.92 704.24 649.43 Q 713.39 637.15 717.53 622.99 C 718.70 618.99 719.41 613.63 714.39 612.40 Q 712.26 611.87 709.62 612.93 C 700.56 616.56 692.28 620.14 683.22 623.08 Q 669.15 627.65 653.74 631.94 Q 642.77 634.99 615.55 640.51 C 591.31 645.42 567.03 646.82 540.77 645.85 Q 533.30 645.57 527.12 644.22 Q 524.40 643.62 523.86 640.89 Q 523.75 640.34 523.64 639.80 Q 522.94 636.19 526.62 636.62 Q 554.19 639.83 578.11 637.79 Q 595.28 636.32 615.04 632.46 C 625.79 630.36 637.11 627.19 647.93 623.98 Q 662.12 619.76 680.34 610.85 Q 685.49 608.33 692.04 604.00 Q 694.25 602.53 695.67 600.59 A 2.17 2.17 0.0 0 0 695.38 597.71 Q 693.37 595.86 690.80 597.22 C 681.97 601.90 673.14 606.88 663.70 610.75 Q 604.78 634.87 540.41 630.91 Q 531.07 630.34 522.75 628.42 C 517.70 627.25 513.87 624.65 509.64 621.98 A 0.91 0.90 -64.1 0 0 508.30 622.45 Q 507.89 623.60 506.49 623.76 C 502.31 619.14 495.77 617.77 491.08 622.30 C 487.62 625.65 486.51 630.58 485.88 635.27 Q 482.12 637.32 479.45 640.54 C 476.95 643.57 475.77 647.92 475.32 651.75 Q 471.91 680.89 471.49 713.38 Q 458.63 719.47 443.98 719.22 Q 434.03 719.05 425.08 715.67 C 423.43 715.04 422.48 712.39 421.67 710.73 Q 417.72 702.60 413.56 691.48 Q 403.22 663.86 398.22 634.00 C 397.57 630.12 395.51 626.77 391.74 625.25 Q 385.94 622.91 380.78 626.97 Q 366.86 628.19 360.75 627.69 Q 319.20 624.25 279.80 615.25 Q 253.34 609.21 228.62 597.24 Q 220.19 593.16 211.71 587.52 Q 206.79 584.25 198.55 577.34 C 195.65 574.92 192.23 572.82 189.03 570.68 Q 186.31 568.87 184.92 565.98 A 0.71 0.71 0.0 0 1 185.68 564.97 C 187.45 565.26 188.24 566.43 189.71 567.17 C 193.33 569.00 196.64 571.28 200.39 572.83 Q 226.16 583.51 252.82 584.23 Q 257.86 584.36 263.24 583.91 C 277.10 582.74 290.45 579.10 300.91 571.28 Q 312.14 562.88 317.72 555.47 Q 321.32 550.67 322.10 542.54 Q 344.95 534.64 348.82 511.45 Q 349.42 509.03 351.03 507.79 Q 353.61 505.79 354.59 502.79 C 355.72 499.29 356.47 495.73 355.45 492.12 Q 352.56 481.94 344.20 476.21 C 342.22 474.85 338.40 473.48 336.07 474.74 Q 335.58 475.00 335.56 475.56 L 335.38 480.08 Q 326.82 481.66 325.80 489.29 C 325.36 492.51 326.90 495.63 327.53 498.76 C 328.98 506.00 328.05 515.02 321.61 519.33 Q 318.41 521.46 314.42 523.12 A 0.48 0.48 0.0 0 1 313.77 522.59 Q 317.79 502.34 310.11 482.88 Q 302.12 462.65 285.41 444.57 Q 294.82 449.07 302.13 456.94 Q 304.68 459.68 306.93 462.95 Q 309.09 466.09 311.73 469.00 A 1.84 1.84 0.0 0 0 314.31 469.16 Q 319.65 464.53 316.91 457.27 C 312.06 444.40 299.99 432.40 288.43 426.38 C 269.33 416.44 247.65 414.15 226.45 417.61 Q 226.42 417.62 219.14 419.36 Q 213.90 420.61 208.41 420.07 C 214.25 410.91 213.67 398.81 206.01 390.95 Q 200.20 385.00 192.48 385.94 Q 188.40 386.43 182.44 390.28 Q 182.23 369.04 191.09 347.77 Q 199.26 328.17 208.73 314.76 Q 237.42 274.14 284.09 257.19 Q 305.49 249.42 326.34 245.95 Q 336.02 244.35 344.59 243.96 Q 368.37 242.89 390.29 246.56 Q 394.90 247.33 399.79 247.92 Q 393.22 251.73 388.74 255.18 C 382.45 260.02 375.83 268.25 383.84 275.29 C 385.18 276.47 387.03 276.38 388.66 275.97 Q 390.86 275.42 392.85 275.35 Q 395.18 278.39 398.65 276.69 Q 415.02 268.69 426.46 267.14 C 439.61 265.37 453.62 266.30 465.63 272.02 Q 479.84 278.79 490.41 291.07 Q 491.38 292.19 491.35 290.71 L 491.21 282.03 Q 492.36 283.28 495.34 286.14 C 500.21 290.80 506.77 288.22 508.67 282.13 Q 508.98 282.94 508.88 283.89 Q 508.82 284.42 508.99 284.65 Q 509.25 285.03 509.73 284.86 A 0.93 0.92 -35.4 0 1 510.59 285.00 Q 513.32 287.10 517.46 286.43 Q 518.53 286.26 517.68 285.58 Q 517.02 285.07 516.20 284.96 Q 515.91 284.92 515.87 284.63 Q 515.76 283.82 516.07 283.11 Q 517.17 280.64 518.31 283.09 Q 519.63 285.91 521.22 287.13 C 523.74 289.08 526.82 289.47 529.72 291.03 Q 531.22 291.84 532.59 291.69 Q 536.43 297.45 538.93 303.25 Q 550.39 329.82 550.32 359.50 Q 550.45 360.24 550.13 360.79 Q 549.88 361.23 549.38 361.31 Q 541.74 362.51 535.00 363.68 Q 527.15 365.05 511.32 365.43 Q 488.98 365.97 471.34 351.76 Q 463.06 345.09 456.60 336.57 C 452.93 331.72 449.31 326.80 446.21 321.48 Q 441.52 313.43 436.96 305.32 Q 433.86 299.79 428.32 296.38 Q 423.59 289.50 417.26 285.55 Q 409.01 280.40 401.82 285.87 C 399.05 287.97 397.55 292.31 398.89 295.51 Q 400.16 298.57 403.61 301.59 Q 403.12 317.76 407.68 332.28 Q 413.72 351.46 426.59 369.04 C 447.08 397.03 479.89 414.03 514.40 407.64 Q 527.59 405.20 539.94 397.44 Q 544.63 394.48 547.59 390.39 C 554.17 388.30 561.50 386.02 567.29 382.32 C 571.77 379.46 572.59 374.85 572.72 369.94 C 573.74 330.90 565.19 291.19 537.77 262.50 Q 521.96 245.95 498.60 241.27 Z M 216.3699 356.9591 A 11.20 8.79 0.2 0 0 205.2007 348.1301 A 11.20 8.79 0.2 0 0 193.9701 356.8809 A 11.20 8.79 0.2 0 0 205.1393 365.7099 A 11.20 8.79 0.2 0 0 216.3699 356.9591 Z M 375.2416 365.2123 A 12.58 9.35 6.4 0 0 363.7822 354.5183 A 12.58 9.35 6.4 0 0 350.2384 362.4077 A 12.58 9.35 6.4 0 0 361.6978 373.1017 A 12.58 9.35 6.4 0 0 375.2416 365.2123 Z M 361.8859 448.5370 A 25.76 24.54 85.4 0 0 384.2810 420.8919 A 25.76 24.54 85.4 0 0 357.7541 397.1830 A 25.76 24.54 85.4 0 0 335.3590 424.8281 A 25.76 24.54 85.4 0 0 361.8859 448.5370 Z M 421.2517 456.3548 A 11.73 11.15 3.2 0 0 410.1624 444.5674 A 11.73 11.15 3.2 0 0 397.8283 455.0452 A 11.73 11.15 3.2 0 0 408.9176 466.8326 A 11.73 11.15 3.2 0 0 421.2517 456.3548 Z M 406.3564 482.0246 A 11.11 10.43 8.2 0 0 396.8476 470.1166 A 11.11 10.43 8.2 0 0 384.3636 478.8554 A 11.11 10.43 8.2 0 0 393.8724 490.7634 A 11.11 10.43 8.2 0 0 406.3564 482.0246 Z"/>
  <path fill="#fdbaaf" d=" M 231.60 244.38 Q 194.02 268.56 173.45 306.70 C 171.08 311.09 169.41 314.97 165.51 318.38 Q 148.15 333.59 126.47 335.62 Q 125.51 335.71 126.18 335.01 Q 136.90 323.85 141.83 309.42 Q 142.96 306.11 145.02 295.93 Q 146.40 289.12 148.25 282.41 Q 148.59 283.14 149.13 283.20 Q 149.60 283.25 149.79 282.82 Q 151.85 278.11 155.40 274.06 Q 165.32 262.74 176.23 255.13 Q 184.67 249.23 194.08 246.34 Q 205.86 242.72 215.99 242.42 Q 222.95 242.21 231.60 244.38 Z"/>
  <path fill="#ffffff" d=" M 491.21 282.03 L 491.35 290.71 Q 491.38 292.19 490.41 291.07 Q 479.84 278.79 465.63 272.02 C 453.62 266.30 439.61 265.37 426.46 267.14 Q 415.02 268.69 398.65 276.69 Q 395.18 278.39 392.85 275.35 C 397.95 271.54 402.73 267.17 407.67 263.69 Q 425.72 250.99 448.57 252.35 Q 469.07 253.57 482.96 269.31 Q 486.58 273.41 491.21 282.03 Z"/>
  <path fill="#ffffff" d=" M 532.59 291.69 Q 531.22 291.84 529.72 291.03 C 526.82 289.47 523.74 289.08 521.22 287.13 Q 519.63 285.91 518.31 283.09 Q 517.17 280.64 516.07 283.11 Q 515.76 283.82 515.87 284.63 Q 515.91 284.92 516.20 284.96 Q 517.02 285.07 517.68 285.58 Q 518.53 286.26 517.46 286.43 Q 513.32 287.10 510.59 285.00 A 0.93 0.92 -35.4 0 0 509.73 284.86 Q 509.25 285.03 508.99 284.65 Q 508.82 284.42 508.88 283.89 Q 508.98 282.94 508.67 282.13 Q 509.60 273.54 505.23 266.27 Q 504.64 265.29 505.66 265.82 Q 522.71 274.62 532.59 291.69 Z"/>
  <path fill="#e9776c" d=" M 428.32 296.38 Q 433.86 299.79 436.96 305.32 Q 441.52 313.43 446.21 321.48 C 449.31 326.80 452.93 331.72 456.60 336.57 Q 463.06 345.09 471.34 351.76 Q 488.98 365.97 511.32 365.43 Q 527.15 365.05 535.00 363.68 Q 541.74 362.51 549.38 361.31 Q 549.88 361.23 550.13 360.79 Q 550.45 360.24 550.32 359.50 Q 550.61 361.96 550.46 364.49 Q 550.34 366.49 549.02 366.89 Q 534.66 371.21 519.47 372.05 Q 508.85 372.64 499.82 371.03 Q 472.98 366.26 454.91 346.09 Q 444.35 334.30 438.89 320.78 Q 432.56 305.09 428.32 296.38 Z"/>
  <path fill="#e9776c" d=" M 403.61 301.59 Q 408.20 305.16 410.05 309.47 Q 418.23 328.59 421.66 335.59 C 445.52 384.44 495.86 404.32 547.59 390.39 Q 544.63 394.48 539.94 397.44 Q 527.59 405.20 514.40 407.64 C 479.89 414.03 447.08 397.03 426.59 369.04 Q 413.72 351.46 407.68 332.28 Q 403.12 317.76 403.61 301.59 Z"/>
  <ellipse fill="#351001" cx="0.00" cy="0.00" transform="translate(205.17,356.92) rotate(0.2)" rx="11.20" ry="8.79"/>
  <ellipse fill="#351001" cx="0.00" cy="0.00" transform="translate(362.74,363.81) rotate(6.4)" rx="12.58" ry="9.35"/>
  <path fill="#351001" d=" M 208.41 420.07 L 206.39 421.80 Q 205.12 422.90 206.79 422.79 Q 229.68 421.36 251.75 426.83 Q 270.09 431.38 285.41 444.57 Q 302.12 462.65 310.11 482.88 Q 317.79 502.34 313.77 522.59 A 0.48 0.48 0.0 0 0 314.42 523.12 Q 318.41 521.46 321.61 519.33 C 328.05 515.02 328.98 506.00 327.53 498.76 C 326.90 495.63 325.36 492.51 325.80 489.29 Q 326.82 481.66 335.38 480.08 C 349.84 481.95 349.87 500.50 348.82 511.45 Q 344.95 534.64 322.10 542.54 Q 314.91 544.89 306.40 544.42 Q 305.85 544.39 305.53 544.85 Q 289.21 568.25 259.02 571.82 Q 256.92 572.06 254.89 572.10 Q 244.14 572.26 231.26 571.00 Q 206.60 568.59 182.52 562.98 Q 156.86 556.99 141.11 538.28 Q 130.49 523.59 129.55 507.27 Q 128.89 495.90 132.47 483.37 Q 138.01 464.03 151.17 448.68 Q 163.09 434.77 180.96 428.24 Q 181.53 428.04 181.16 427.56 Q 172.58 416.55 175.34 403.26 Q 176.92 395.64 182.44 390.28 Q 188.40 386.43 192.48 385.94 Q 200.20 385.00 206.01 390.95 C 213.67 398.81 214.25 410.91 208.41 420.07 Z M 151.99 493.97 C 148.69 511.42 154.64 527.67 170.59 536.46 Q 179.36 541.31 188.50 542.90 Q 197.23 544.42 212.75 546.63 Q 218.43 547.44 224.73 548.06 C 234.52 549.02 244.17 550.25 254.05 549.90 Q 263.65 549.56 272.55 545.17 Q 286.71 538.18 291.05 522.49 Q 293.08 515.12 292.28 504.56 Q 291.43 493.58 287.27 484.83 Q 281.27 471.40 271.66 461.59 C 261.13 450.83 248.65 445.90 233.74 443.94 Q 217.70 441.83 203.39 443.57 Q 187.17 445.55 176.35 453.46 Q 158.01 466.88 152.66 489.74 Q 152.14 491.94 151.99 493.97 Z"/>
  <ellipse fill="#351001" cx="0.00" cy="0.00" transform="translate(359.82,422.86) rotate(85.4)" rx="25.76" ry="24.54"/>
  <path fill="#ffffff" d=" M 285.41 444.57 Q 270.09 431.38 251.75 426.83 Q 229.68 421.36 206.79 422.79 Q 205.12 422.90 206.39 421.80 L 208.41 420.07 Q 213.90 420.61 219.14 419.36 Q 226.42 417.62 226.45 417.61 C 247.65 414.15 269.33 416.44 288.43 426.38 C 299.99 432.40 312.06 444.40 316.91 457.27 Q 319.65 464.53 314.31 469.16 A 1.84 1.84 0.0 0 1 311.73 469.00 Q 309.09 466.09 306.93 462.95 Q 304.68 459.68 302.13 456.94 Q 294.82 449.07 285.41 444.57 Z"/>
  <path fill="#e9776c" d=" M 832.73 432.30 Q 833.80 435.94 834.37 439.74 Q 836.23 452.15 837.57 464.76 Q 838.72 475.64 838.77 484.81 Q 839.02 528.38 826.46 568.13 Q 819.47 590.23 809.90 606.58 Q 801.15 621.54 787.44 639.19 C 785.52 641.66 784.42 645.46 784.05 648.65 Q 782.48 661.90 779.50 676.29 Q 777.78 684.60 775.15 692.60 C 774.64 694.16 773.86 695.07 772.29 695.82 Q 766.55 698.55 760.32 699.66 Q 761.23 696.58 761.98 693.73 Q 768.50 668.81 773.67 643.08 Q 774.84 637.27 776.24 631.46 Q 778.85 620.65 778.94 609.81 Q 778.98 604.74 782.28 600.29 Q 795.37 582.67 806.02 564.05 C 807.64 561.23 808.58 558.15 810.14 555.29 C 811.63 552.54 812.46 549.64 813.74 546.78 C 814.15 548.80 812.53 550.55 815.11 551.89 A 1.82 1.81 -59.9 0 0 817.49 551.25 C 819.52 548.07 821.71 544.63 822.82 541.02 C 823.68 538.19 825.16 535.50 825.38 532.53 Q 825.55 530.19 825.00 528.09 Q 824.06 524.48 822.16 527.69 Q 821.71 528.46 821.08 530.06 Q 820.62 531.24 819.82 532.29 Q 818.49 534.05 817.22 536.20 Q 817.86 533.87 818.16 531.75 Q 818.65 528.22 818.85 527.29 Q 822.48 510.35 826.48 494.20 C 827.59 489.75 828.24 484.93 828.76 480.23 Q 830.98 460.16 831.75 438.06 Q 831.77 437.69 832.04 437.46 L 832.24 437.29 Q 832.36 437.18 832.37 437.03 L 832.73 432.30 Z M 803.90 598.42 Q 803.78 599.02 803.97 599.63 A 0.38 0.37 -24.8 0 0 804.53 599.83 Q 805.84 599.00 806.53 597.58 Q 806.72 597.19 807.08 596.93 Q 808.88 595.65 809.68 594.10 Q 811.14 591.28 812.35 588.39 C 812.93 587.02 813.76 586.10 814.33 584.66 Q 816.22 579.84 820.34 574.69 Q 820.68 574.27 820.70 573.73 Q 820.78 571.46 821.82 569.57 Q 823.89 565.81 825.52 561.13 Q 826.21 559.13 824.35 558.13 Q 823.98 557.93 823.71 557.62 Q 821.50 555.13 820.02 558.14 Q 811.84 574.73 801.29 589.62 C 799.82 591.69 798.04 593.36 796.54 595.38 Q 794.89 597.59 792.94 599.77 Q 787.47 605.88 783.78 611.93 Q 782.91 613.35 783.12 615.41 A 1.07 1.06 -88.2 0 0 783.99 616.34 Q 786.10 616.74 787.86 617.80 Q 788.67 618.29 789.19 617.50 Q 790.56 615.46 792.95 614.53 Q 793.58 614.29 793.77 613.64 L 793.90 613.19 A 0.35 0.34 3.2 0 0 793.51 612.76 Q 792.78 612.87 792.42 612.34 A 1.00 0.99 -44.7 0 1 792.43 611.24 L 794.70 607.89 A 0.40 0.40 0.0 0 1 795.29 607.81 Q 795.70 608.17 796.22 608.34 A 0.55 0.53 -55.4 0 0 796.75 608.23 Q 798.55 606.66 798.96 604.35 A 1.06 1.05 85.0 0 1 799.62 603.56 C 801.45 602.89 803.11 601.95 802.43 599.64 Q 802.31 599.21 802.53 598.83 Q 802.83 598.32 803.34 598.02 Q 804.07 597.58 803.90 598.42 Z"/>
  <path fill="#ffffff" d=" M 287.27 484.83 Q 284.61 485.83 281.78 484.58 Q 279.81 483.71 277.93 481.70 Q 274.57 478.12 271.50 474.80 C 268.19 471.23 264.21 467.91 260.28 464.90 Q 252.15 458.66 241.47 455.49 Q 216.22 447.97 191.72 456.66 C 178.38 461.40 167.29 472.74 162.29 486.05 C 159.27 494.12 156.49 503.43 157.38 512.14 Q 157.50 513.38 156.41 512.78 Q 155.72 512.40 155.18 511.78 Q 154.36 510.85 154.33 509.60 Q 154.25 506.35 153.63 502.93 Q 153.38 501.54 153.63 499.09 Q 153.94 496.00 151.99 493.97 Q 152.14 491.94 152.66 489.74 Q 158.01 466.88 176.35 453.46 Q 187.17 445.55 203.39 443.57 Q 217.70 441.83 233.74 443.94 C 248.65 445.90 261.13 450.83 271.66 461.59 Q 281.27 471.40 287.27 484.83 Z"/>
  <ellipse fill="#fcfff8" cx="0.00" cy="0.00" transform="translate(409.54,455.70) rotate(3.2)" rx="11.73" ry="11.15"/>
  <path fill="#fdbaaf" d=" M 287.27 484.83 Q 291.43 493.58 292.28 504.56 L 292.16 508.05 Q 292.12 509.22 290.98 508.97 Q 289.13 508.56 287.38 507.48 A 2.22 2.22 0.0 0 1 286.34 505.21 Q 286.76 502.66 284.83 501.03 A 0.28 0.28 0.0 0 0 284.37 501.25 Q 284.57 509.81 282.36 518.29 C 281.23 522.61 278.12 529.99 274.40 533.34 C 266.36 540.58 257.86 543.84 247.13 544.09 Q 239.89 544.25 233.51 543.93 Q 214.02 542.96 194.53 541.39 C 190.52 541.07 186.61 540.19 182.57 539.53 Q 179.91 539.11 175.49 537.02 Q 173.26 535.96 170.59 536.46 C 154.64 527.67 148.69 511.42 151.99 493.97 Q 153.94 496.00 153.63 499.09 Q 153.38 501.54 153.63 502.93 Q 154.25 506.35 154.33 509.60 Q 154.36 510.85 155.18 511.78 Q 155.72 512.40 156.41 512.78 Q 157.50 513.38 157.38 512.14 C 156.49 503.43 159.27 494.12 162.29 486.05 C 167.29 472.74 178.38 461.40 191.72 456.66 Q 216.22 447.97 241.47 455.49 Q 252.15 458.66 260.28 464.90 C 264.21 467.91 268.19 471.23 271.50 474.80 Q 274.57 478.12 277.93 481.70 Q 279.81 483.71 281.78 484.58 Q 284.61 485.83 287.27 484.83 Z M 196.47 514.27 C 204.34 508.15 206.80 496.20 205.64 486.70 C 203.68 470.67 186.10 465.73 175.86 478.34 Q 170.42 485.04 168.86 495.28 C 167.35 505.20 171.70 514.87 181.94 517.47 Q 189.80 519.46 196.47 514.27 Z M 247.71 473.70 C 240.19 472.95 234.23 477.44 230.83 484.00 C 227.55 490.32 228.40 500.60 230.95 507.24 Q 233.55 514.03 238.88 517.77 C 245.99 522.77 257.04 520.62 262.18 513.85 C 267.07 507.39 265.81 497.88 263.79 490.28 C 261.63 482.19 256.20 474.54 247.71 473.70 Z"/>
  <ellipse fill="#ffffff" cx="0.00" cy="0.00" transform="translate(395.36,480.44) rotate(8.2)" rx="11.11" ry="10.43"/>
  <path fill="#351001" d=" M 205.64 486.70 C 206.80 496.20 204.34 508.15 196.47 514.27 Q 189.80 519.46 181.94 517.47 C 171.70 514.87 167.35 505.20 168.86 495.28 Q 170.42 485.04 175.86 478.34 C 186.10 465.73 203.68 470.67 205.64 486.70 Z"/>
  <path fill="#351001" d=" M 247.71 473.70 C 256.20 474.54 261.63 482.19 263.79 490.28 C 265.81 497.88 267.07 507.39 262.18 513.85 C 257.04 520.62 245.99 522.77 238.88 517.77 Q 233.55 514.03 230.95 507.24 C 228.40 500.60 227.55 490.32 230.83 484.00 C 234.23 477.44 240.19 472.95 247.71 473.70 Z"/>
  <path fill="#e9776c" d=" M 348.82 511.45 C 349.87 500.50 349.84 481.95 335.38 480.08 L 335.56 475.56 Q 335.58 475.00 336.07 474.74 C 338.40 473.48 342.22 474.85 344.20 476.21 Q 352.56 481.94 355.45 492.12 C 356.47 495.73 355.72 499.29 354.59 502.79 Q 353.61 505.79 351.03 507.79 Q 349.42 509.03 348.82 511.45 Z"/>
  <path fill="#e9776c" d=" M 292.28 504.56 Q 293.08 515.12 291.05 522.49 Q 286.71 538.18 272.55 545.17 Q 263.65 549.56 254.05 549.90 C 244.17 550.25 234.52 549.02 224.73 548.06 Q 218.43 547.44 212.75 546.63 Q 197.23 544.42 188.50 542.90 Q 179.36 541.31 170.59 536.46 Q 173.26 535.96 175.49 537.02 Q 179.91 539.11 182.57 539.53 C 186.61 540.19 190.52 541.07 194.53 541.39 Q 214.02 542.96 233.51 543.93 Q 239.89 544.25 247.13 544.09 C 257.86 543.84 266.36 540.58 274.40 533.34 C 278.12 529.99 281.23 522.61 282.36 518.29 Q 284.57 509.81 284.37 501.25 A 0.28 0.28 0.0 0 1 284.83 501.03 Q 286.76 502.66 286.34 505.21 A 2.22 2.22 0.0 0 0 287.38 507.48 Q 289.13 508.56 290.98 508.97 Q 292.12 509.22 292.16 508.05 L 292.28 504.56 Z"/>
  <path fill="#d05c4c" d=" M 813.74 546.78 L 817.22 536.20 Q 818.49 534.05 819.82 532.29 Q 820.62 531.24 821.08 530.06 Q 821.71 528.46 822.16 527.69 Q 824.06 524.48 825.00 528.09 Q 825.55 530.19 825.38 532.53 C 825.16 535.50 823.68 538.19 822.82 541.02 C 821.71 544.63 819.52 548.07 817.49 551.25 A 1.82 1.81 -59.9 0 1 815.11 551.89 C 812.53 550.55 814.15 548.80 813.74 546.78 Z"/>
  <path fill="#e9776c" d=" M 141.11 538.28 Q 156.86 556.99 182.52 562.98 Q 206.60 568.59 231.26 571.00 Q 244.14 572.26 254.89 572.10 Q 256.92 572.06 259.02 571.82 Q 289.21 568.25 305.53 544.85 Q 305.85 544.39 306.40 544.42 Q 314.91 544.89 322.10 542.54 Q 321.32 550.67 317.72 555.47 Q 312.14 562.88 300.91 571.28 C 290.45 579.10 277.10 582.74 263.24 583.91 Q 257.86 584.36 252.82 584.23 Q 226.16 583.51 200.39 572.83 C 196.64 571.28 193.33 569.00 189.71 567.17 C 188.24 566.43 187.45 565.26 185.68 564.97 A 0.71 0.71 0.0 0 0 184.92 565.98 Q 186.31 568.87 189.03 570.68 C 192.23 572.82 195.65 574.92 198.55 577.34 Q 206.79 584.25 211.71 587.52 Q 220.19 593.16 228.62 597.24 Q 253.34 609.21 279.80 615.25 Q 319.20 624.25 360.75 627.69 Q 366.86 628.19 380.78 626.97 Q 376.82 631.80 377.82 637.43 Q 378.82 643.02 379.71 648.33 A 0.68 0.67 87.3 0 1 379.00 649.12 Q 361.66 647.88 345.98 646.59 C 327.82 645.08 308.72 641.67 291.73 638.33 Q 279.45 635.92 260.98 630.25 Q 218.31 617.16 181.69 590.51 Q 169.84 581.89 158.01 573.29 Q 158.39 573.38 158.69 573.34 Q 159.34 573.26 158.83 572.83 Q 157.16 571.43 155.98 569.77 Q 152.78 565.27 149.72 560.67 Q 144.59 552.94 142.36 543.23 Q 141.77 540.67 141.11 538.28 Z M 183.01 576.77 Q 186.77 584.17 194.46 586.27 A 1.91 1.90 -65.7 0 0 196.56 585.47 Q 197.51 583.99 196.36 582.91 Q 191.48 578.34 186.49 575.80 C 185.29 575.18 184.59 574.13 183.45 573.46 Q 182.91 573.14 182.75 573.74 Q 182.31 575.38 183.01 576.77 Z"/>
  <path fill="#d05c4c" d=" M 803.34 598.02 Q 802.83 598.32 802.53 598.83 Q 802.31 599.21 802.43 599.64 C 803.11 601.95 801.45 602.89 799.62 603.56 A 1.06 1.05 85.0 0 0 798.96 604.35 Q 798.55 606.66 796.75 608.23 A 0.55 0.53 -55.4 0 1 796.22 608.34 Q 795.70 608.17 795.29 607.81 A 0.40 0.40 0.0 0 0 794.70 607.89 L 792.43 611.24 A 1.00 0.99 -44.7 0 0 792.42 612.34 Q 792.78 612.87 793.51 612.76 A 0.35 0.34 3.2 0 1 793.90 613.19 L 793.77 613.64 Q 793.58 614.29 792.95 614.53 Q 790.56 615.46 789.19 617.50 Q 788.67 618.29 787.86 617.80 Q 786.10 616.74 783.99 616.34 A 1.07 1.06 -88.2 0 1 783.12 615.41 Q 782.91 613.35 783.78 611.93 Q 787.47 605.88 792.94 599.77 Q 794.89 597.59 796.54 595.38 C 798.04 593.36 799.82 591.69 801.29 589.62 Q 811.84 574.73 820.02 558.14 Q 821.50 555.13 823.71 557.62 Q 823.98 557.93 824.35 558.13 Q 826.21 559.13 825.52 561.13 Q 823.89 565.81 821.82 569.57 Q 820.78 571.46 820.70 573.73 Q 820.68 574.27 820.34 574.69 Q 816.22 579.84 814.33 584.66 C 813.76 586.10 812.93 587.02 812.35 588.39 Q 811.14 591.28 809.68 594.10 Q 808.88 595.65 807.08 596.93 Q 806.72 597.19 806.53 597.58 Q 805.84 599.00 804.53 599.83 A 0.38 0.37 -24.8 0 1 803.97 599.63 Q 803.78 599.02 803.90 598.42 Q 804.07 597.58 803.34 598.02 Z"/>
  <path fill="#d05c4c" d=" M 183.01 576.77 Q 182.31 575.38 182.75 573.74 Q 182.91 573.14 183.45 573.46 C 184.59 574.13 185.29 575.18 186.49 575.80 Q 191.48 578.34 196.36 582.91 Q 197.51 583.99 196.56 585.47 A 1.91 1.90 -65.7 0 1 194.46 586.27 Q 186.77 584.17 183.01 576.77 Z"/>
  <path fill="#e9776c" d=" M 704.24 649.43 Q 703.67 642.53 703.77 639.75 Q 703.95 634.49 700.48 631.31 C 696.97 628.09 691.24 628.37 687.59 631.13 Q 683.76 634.03 683.35 639.30 Q 682.88 645.45 683.53 651.85 A 1.45 1.45 0.0 0 1 682.66 653.32 Q 656.60 664.50 626.26 670.29 Q 592.34 676.77 561.51 677.95 Q 534.35 678.99 504.40 677.55 A 0.93 0.93 0.0 0 1 503.51 676.62 Q 503.57 654.71 507.27 633.00 Q 508.14 627.89 506.49 623.76 Q 507.89 623.60 508.30 622.45 A 0.91 0.90 -64.1 0 1 509.64 621.98 C 513.87 624.65 517.70 627.25 522.75 628.42 Q 531.07 630.34 540.41 630.91 Q 604.78 634.87 663.70 610.75 C 673.14 606.88 681.97 601.90 690.80 597.22 Q 693.37 595.86 695.38 597.71 A 2.17 2.17 0.0 0 1 695.67 600.59 Q 694.25 602.53 692.04 604.00 Q 685.49 608.33 680.34 610.85 Q 662.12 619.76 647.93 623.98 C 637.11 627.19 625.79 630.36 615.04 632.46 Q 595.28 636.32 578.11 637.79 Q 554.19 639.83 526.62 636.62 Q 522.94 636.19 523.64 639.80 Q 523.75 640.34 523.86 640.89 Q 524.40 643.62 527.12 644.22 Q 533.30 645.57 540.77 645.85 C 567.03 646.82 591.31 645.42 615.55 640.51 Q 642.77 634.99 653.74 631.94 Q 669.15 627.65 683.22 623.08 C 692.28 620.14 700.56 616.56 709.62 612.93 Q 712.26 611.87 714.39 612.40 C 719.41 613.63 718.70 618.99 717.53 622.99 Q 713.39 637.15 704.24 649.43 Z M 634.32 650.93 Q 626.14 652.93 618.54 654.62 Q 617.03 654.96 616.09 656.16 A 1.52 1.52 0.0 0 0 616.75 658.52 C 620.50 659.93 624.00 658.81 627.68 658.52 Q 630.49 658.31 633.26 657.66 Q 645.27 654.86 658.32 650.55 Q 666.74 647.78 673.45 644.06 C 675.21 643.08 676.22 640.31 674.14 638.94 C 671.56 637.26 669.50 638.96 667.47 640.43 C 664.57 642.53 660.18 642.52 656.86 644.13 C 654.02 645.50 651.04 645.78 648.10 646.84 Q 641.78 649.11 634.32 650.93 Z"/>
  <path fill="#e9776c" d=" M 485.88 635.27 Q 483.02 650.98 482.81 665.75 Q 482.51 685.74 481.46 706.43 A 3.01 3.00 -12.6 0 1 479.87 708.92 L 471.49 713.38 Q 471.91 680.89 475.32 651.75 C 475.77 647.92 476.95 643.57 479.45 640.54 Q 482.12 637.32 485.88 635.27 Z"/>
  <path fill="#d05c4c" d=" M 634.32 650.93 Q 641.78 649.11 648.10 646.84 C 651.04 645.78 654.02 645.50 656.86 644.13 C 660.18 642.52 664.57 642.53 667.47 640.43 C 669.50 638.96 671.56 637.26 674.14 638.94 C 676.22 640.31 675.21 643.08 673.45 644.06 Q 666.74 647.78 658.32 650.55 Q 645.27 654.86 633.26 657.66 Q 630.49 658.31 627.68 658.52 C 624.00 658.81 620.50 659.93 616.75 658.52 A 1.52 1.52 0.0 0 1 616.09 656.16 Q 617.03 654.96 618.54 654.62 Q 626.14 652.93 634.32 650.93 Z"/>
  <path fill="#fdbaaf" d=" M 269.72 655.94 Q 270.19 659.65 270.45 663.30 Q 270.75 667.64 271.38 670.64 Q 273.89 682.55 277.63 693.25 Q 278.94 697.00 278.86 699.90 C 275.83 699.48 271.61 699.01 270.05 696.23 Q 269.03 694.39 268.15 692.43 Q 259.84 673.76 255.08 651.98 Q 254.91 651.19 255.67 651.44 L 269.72 655.94 Z"/>
  <path fill="#d05c4c" d=" M 269.72 655.94 Q 295.33 662.56 321.63 666.12 Q 324.04 666.44 329.30 667.60 Q 329.83 667.72 329.81 668.27 Q 329.40 680.17 327.44 692.51 A 2.63 2.61 -10.8 0 1 326.17 694.37 Q 323.25 696.08 319.46 697.35 Q 299.12 704.17 278.86 699.90 Q 278.94 697.00 277.63 693.25 Q 273.89 682.55 271.38 670.64 Q 270.75 667.64 270.45 663.30 Q 270.19 659.65 269.72 655.94 Z"/>
  <path fill="#e9776c" d=" M 625.99 693.73 L 623.77 700.96 Q 623.45 702.01 622.35 702.10 Q 603.62 703.56 585.76 699.26 Q 582.66 698.52 585.84 698.53 Q 587.81 698.54 589.82 698.35 Q 605.05 696.92 620.08 694.49 Q 622.73 694.06 625.47 693.21 A 0.42 0.41 89.7 0 1 625.99 693.73 Z"/>
  <path fill="#d05c4c" d=" M 593.58 737.56 C 595.05 733.93 596.55 730.89 597.53 726.85 C 598.41 723.24 593.80 719.92 591.07 722.67 Q 589.59 724.16 588.77 726.01 Q 587.04 729.90 585.12 734.33 A 0.70 0.69 42.0 0 1 583.88 734.39 C 580.66 728.77 580.35 720.14 580.32 713.46 Q 580.32 712.72 580.94 713.13 C 582.16 713.92 583.35 714.88 584.73 715.37 Q 592.96 718.30 602.37 720.04 Q 607.65 721.02 613.26 720.26 A 0.63 0.63 0.0 0 1 613.97 720.99 Q 613.80 722.00 613.19 722.85 Q 609.11 728.54 603.92 733.20 C 601.63 735.25 597.37 738.01 594.09 738.26 Q 593.27 738.32 593.58 737.56 Z"/>
  <path fill="#d05c4c" d=" M 289.32 719.02 Q 301.71 719.85 314.53 716.74 Q 318.48 715.78 322.32 714.01 A 0.59 0.59 0.0 0 1 323.14 714.68 Q 321.79 720.54 318.78 727.47 Q 316.70 732.27 313.09 736.33 A 0.74 0.73 60.8 0 1 311.82 735.97 Q 310.78 730.10 309.30 725.24 Q 308.34 722.11 304.68 721.28 Q 304.03 721.14 303.51 721.56 Q 301.10 723.49 301.14 726.57 Q 301.22 732.03 301.31 737.34 A 0.41 0.41 0.0 0 1 300.77 737.74 C 291.80 734.78 285.23 726.20 280.49 718.21 Q 279.81 717.08 281.08 717.46 Q 285.25 718.74 289.32 719.02 Z"/>
  <path fill="#e9776c" d=" M 733.89 728.86 Q 733.43 733.01 732.73 737.14 A 0.43 0.42 26.7 0 1 732.02 737.37 C 730.35 735.78 728.59 734.12 727.30 732.19 Q 721.90 724.12 719.02 714.59 Q 718.88 714.14 719.32 714.31 Q 741.31 722.80 763.86 717.77 Q 764.68 717.59 764.32 718.35 C 760.45 726.54 752.68 737.25 743.83 739.43 A 0.91 0.91 0.0 0 1 742.71 738.52 Q 742.88 731.93 742.36 725.69 Q 742.04 721.77 737.55 721.57 C 734.68 721.44 734.13 726.78 733.89 728.86 Z"/>
  <path fill="#d05c4c" d=" M 453.38 745.66 Q 452.24 742.63 453.29 739.48 A 1.40 1.39 11.8 0 0 452.09 737.65 L 449.05 737.39 C 460.40 736.43 468.29 734.56 477.06 729.95 A 0.40 0.39 80.6 0 1 477.63 730.36 Q 476.69 736.95 474.85 743.83 C 473.58 748.55 471.30 752.72 468.55 756.74 A 0.76 0.76 0.0 0 1 467.33 756.78 Q 466.56 755.80 466.18 754.57 Q 464.42 748.91 462.09 743.51 C 461.29 741.68 460.00 740.13 457.88 739.86 Q 453.18 739.26 453.38 745.66 Z"/>
  <path fill="#fdbaaf" d=" M 449.05 737.39 L 452.09 737.65 A 1.40 1.39 11.8 0 1 453.29 739.48 Q 452.24 742.63 453.38 745.66 L 456.12 756.59 Q 456.34 757.47 455.50 757.12 C 446.35 753.29 439.27 744.98 434.54 736.58 Q 434.24 736.06 434.82 736.21 Q 441.77 738.03 449.05 737.39 Z"/>
</svg>