<?xml version="1.0" encoding="utf-8"?>
<svg version="1.1" viewBox="20.837 21.894 1024 1024" xmlns="http://www.w3.org/2000/svg">
  <path fill="#461103" d="M 662.07 551.51 C 665.27 563.017 667.92 574.707 670.02 586.58 C 671.2 593.54 672.43 600.517 673.71 607.51 C 674.177 610.03 674.937 611.947 675.99 613.26 C 682.677 621.607 687.737 630.833 691.17 640.94 C 693.16 647.48 694.78 655.41 692.57 661.91 C 690.81 667.12 685.7 670.49 680.71 666.76 C 680.277 666.433 680.1 666.537 680.18 667.07 C 680.54 669.37 680.563 671.767 680.25 674.26 C 679.357 681.473 677.163 688.25 673.67 694.59 C 670.51 700.57 660.55 713.76 653.08 704.79 C 652.5 704.1 652.12 702.94 651.55 702.12 C 651.357 701.847 651.147 701.837 650.92 702.09 C 636.86 717.95 616.92 730.61 597.49 738.95 C 597.277 739.043 597.217 739.197 597.31 739.41 C 599.197 743.597 601.59 747.38 604.49 750.76 C 605.85 754.407 621.11 779.56 621.11 779.56 C 621.388 780.008 621.93 780.214 622.43 780.06 C 632.063 777.167 640.063 779.393 646.43 786.74 C 646.643 786.993 646.903 787.057 647.21 786.93 C 655.23 783.603 662.33 784.867 668.51 790.72 C 672.797 794.787 674.967 799.693 675.02 805.44 L 674.01 811.16 C 673.964 811.431 674.11 811.697 674.36 811.8 C 676.69 812.77 678.99 813.82 680.84 815.6 C 686.893 821.427 690.297 828.657 691.05 837.29 C 691.83 846.89 688.81 857.91 680.97 864.12 C 680.475 864.51 680.249 865.149 680.39 865.76 C 681.517 870.753 680.913 875.59 678.58 880.27 C 671.553 888.577 662.597 892.08 651.71 890.78 C 651.377 890.74 651.153 890.877 651.04 891.19 C 644.32 909.48 628.93 923.48 609.5 926.83 C 607.03 927.25 605.97 929.97 604.07 931.43 C 598.51 935.703 593.723 938.543 589.71 939.95 C 585.71 941.35 581.583 942.78 577.33 944.24 C 572.29 945.067 567.077 945.203 561.69 944.65 C 551.277 942.463 543.633 936.67 538.76 927.27 C 538.583 926.937 538.112 926.92 537.912 927.24 C 537.9 927.259 537.889 927.279 537.88 927.3 C 533.69 936.82 527.3 940.57 518.09 943.97 C 510.34 946.84 503.04 947.38 495.55 942.81 C 495.348 942.684 495.086 942.704 494.9 942.86 C 490.53 946.54 483.75 947.03 478.52 944.64 C 475.35 943.19 472.3 942.68 468.93 941.97 C 462.24 940.57 459.22 937.13 455.17 932.27 C 454.857 931.89 454.503 931.85 454.11 932.15 C 447.343 937.363 440.023 938.017 432.15 934.11 C 431.857 933.963 431.593 934.007 431.36 934.24 C 426.33 939.38 416.3 938.34 410.38 935.82 C 408.59 935.06 407.23 935.08 405.4 935.02 C 398.32 934.79 395.62 931.3 391.13 926.59 C 390.897 926.35 390.663 926.347 390.43 926.58 C 388.903 928.06 387.177 928.957 385.25 929.27 C 374.85 930.95 365.243 928.797 356.43 922.81 C 351.883 919.723 348.107 916.503 345.1 913.15 C 339.087 906.43 333.517 898.69 328.39 889.93 L 321.78 875.55 L 315.95 856.14 L 314.5 847.28 C 314.387 846.873 314.41 846.607 314.57 846.48 C 313.603 837.747 315.26 829.577 319.54 821.97 C 323.53 816.77 327.22 813.17 333.87 811.96 C 335.59 811.64 337.53 811.91 339.35 811.94 C 340.457 811.953 341.803 811.76 343.39 811.36 C 350.303 809.627 356.857 810.66 363.05 814.46 C 368.963 818.08 374.21 822.493 378.79 827.7 C 379.143 828.107 379.4 828.053 379.56 827.54 C 381.08 822.687 382.977 817.837 385.25 812.99 C 386.743 809.797 389.093 806.86 392.3 804.18 C 393.687 799.153 394.89 793.87 395.91 788.33 C 396.77 783.61 397.69 779.603 398.67 776.31 C 399.823 772.457 401.023 768.527 402.27 764.52 C 402.37 764.193 402.893 762.673 403.08 762.3 C 405.633 757.1 408.23 751.877 410.87 746.63 C 411.023 746.323 410.957 746.083 410.67 745.91 C 409.403 745.15 407.96 744.713 406.34 744.6 L 404.43 744.17 C 403.63 743.783 402.53 743.1 401.13 742.12 C 400.35 741.58 399.663 741.48 399.07 741.82 C 396.323 740.307 393.547 739.023 390.74 737.97 C 387.147 736.623 384.4 735.447 382.5 734.44 C 377.053 731.553 371.707 728.753 366.46 726.04 C 360.393 722.9 352.723 717.483 343.45 709.79 C 336.357 703.89 330.13 697.113 324.77 689.46 C 324.581 689.187 324.166 689.228 324.022 689.534 C 324.008 689.565 323.997 689.597 323.99 689.63 C 322.81 695.43 316.09 692.55 313.67 689.8 C 305.55 680.6 304.31 667.91 305.52 656.08 C 305.547 655.76 305.403 655.623 305.09 655.67 C 302.797 655.997 301.133 655.387 300.1 653.84 C 297.41 649.83 297.96 643.21 299.02 638.72 C 302.153 629.04 307.18 620.397 314.1 612.79 L 324.64 602.19 C 325.328 601.495 325.828 600.631 326.09 599.68 L 336.96 560.22 C 338.84 554.467 340.793 548.737 342.82 543.03 C 350.98 520.03 363.4 497.74 380.62 480.3 C 381.34 479.58 381.387 478.817 380.76 478.01 C 360.827 452.197 345.22 424.06 333.94 393.6 C 331.673 387.48 329.63 381.133 327.81 374.56 C 323.437 358.827 320.39 343.723 318.67 329.25 C 317.037 315.49 316.717 300.383 317.71 283.93 C 318.683 267.703 321.68 251.28 326.7 234.66 C 331.673 218.187 338.493 204.223 347.16 192.77 C 353.34 184.6 362.91 177.65 372.92 176.53 C 387.1 174.94 401.54 185.18 411.36 194.65 C 421.967 204.883 431.19 216.243 439.03 228.73 C 445.717 239.383 451.657 250.443 456.85 261.91 C 472.483 296.477 482.263 332.55 486.19 370.13 C 487.797 385.517 487.687 401.67 485.86 418.59 C 485.816 418.981 486.003 419.365 486.34 419.58 C 488.75 421.11 490.73 422.24 491.9 424.96 C 492.353 426.007 492.71 425.977 492.97 424.87 C 493.117 424.27 493.297 423.403 493.51 422.27 C 494.5 417.05 500.09 415.6 503.79 418.98 C 507.91 422.747 511.157 427.34 513.53 432.76 C 513.794 433.368 514.378 433.774 515.04 433.81 C 522.4 434.21 529.637 435.42 536.75 437.44 C 537.2 437.57 537.59 437.9 538.04 438.06 C 538.373 438.173 538.5 438.06 538.42 437.72 C 536.34 428.707 535.05 422.383 534.55 418.75 C 529.94 385.08 533.54 350.77 543.82 318.48 C 545.847 312.107 548.027 305.917 550.36 299.91 C 561.52 271.21 577.117 245.85 597.15 223.83 C 617.16 201.84 644.13 183.66 673.29 176.08 C 684.96 173.04 697.23 172.03 707.57 178.99 C 716.08 184.71 721.93 195.73 725.3 205.75 C 731.87 225.35 733.5 246.6 732.37 267.13 C 731.517 282.703 729.357 298.593 725.89 314.8 C 713.043 374.813 686.413 427.35 646 472.41 C 641.92 476.95 637.57 481.12 633.1 485.19 C 632.809 485.454 632.738 485.882 632.93 486.22 C 635.8 491.24 639.38 496.61 641.83 501.07 C 650.603 517.023 657.35 533.837 662.07 551.51 Z M 544.36 438.48 L 544.9 442.68 L 547.57 453.87 C 545.783 450.863 544.497 448.157 543.71 445.75 C 543.257 444.35 541.803 443.527 539.35 443.28 C 530.86 440.27 521.31 438.84 512.45 437.8 C 511.338 437.668 510.357 437.01 509.81 436.03 C 507.457 431.83 504.777 427.647 501.77 423.48 C 501.057 422.493 500.213 421.723 499.24 421.17 C 498.911 420.982 498.489 421.109 498.31 421.45 C 496.04 425.76 495.94 430.59 496.03 435.32 C 496.041 435.651 495.689 435.869 495.397 435.713 C 495.37 435.698 495.344 435.68 495.32 435.66 C 491.587 432.42 488.043 428.937 484.69 425.21 C 484.142 424.605 483.145 424.821 482.895 425.598 C 482.89 425.615 482.885 425.632 482.88 425.65 C 481.74 429.91 482.403 434.06 484.87 438.1 C 485.07 438.44 484.987 438.543 484.62 438.41 C 483 437.837 481.54 437.61 480.24 437.73 C 468.733 438.763 457.52 441.157 446.6 444.91 C 430.25 450.54 415.07 457.1 401.17 467.97 C 379.603 484.823 363.453 506.073 352.72 531.72 C 347.493 544.207 342.93 557.553 339.03 571.76 C 335.43 584.88 332.653 595.313 330.7 603.06 C 330.24 604.5 329.493 605.25 328.46 605.31 C 316.82 616.37 304.99 629.17 303.65 645.31 C 303.477 647.343 303.92 649.107 304.98 650.6 C 305.239 650.953 305.772 650.932 305.99 650.56 C 307.617 647.8 309.157 645.157 310.61 642.63 C 312.13 640.01 318.24 633.15 322.57 632.06 C 323.177 631.907 323.257 632.053 322.81 632.5 C 313.923 641.293 309.737 652.047 310.25 664.76 C 310.51 671.14 312.03 677.183 314.81 682.89 C 316.123 685.59 317.653 687.027 319.4 687.2 C 320.267 682.013 321.57 677.443 323.31 673.49 C 324.17 674.11 324.44 675.71 324.12 678.29 C 325.587 682.23 327.933 686.167 331.16 690.1 C 335.593 695.493 339.693 699.897 343.46 703.31 C 349.747 709.003 358.227 714.827 368.9 720.78 C 376.68 725.12 381.803 727.86 384.27 729 C 397.35 735.07 409.96 740.8 423.24 745.17 C 430.08 747.423 435.083 748.953 438.25 749.76 C 478.29 759.96 518.71 758.06 559.21 747.15 C 587.82 739.45 615.63 726.56 638.06 707.34 C 642.553 703.493 646.877 699.05 651.03 694.01 C 652.69 691.99 654.93 688.94 655.04 686.46 C 655.06 686.053 655.183 685.68 655.41 685.34 C 655.637 685.007 655.777 685.04 655.83 685.44 C 656.323 689.18 656.33 692.91 655.85 696.63 C 655.54 699.04 657.64 704.73 661.46 701.17 C 666.04 696.91 669.453 691.85 671.7 685.99 C 675.673 675.617 676.293 665.033 673.56 654.24 C 672.76 651.1 671.45 647.947 669.63 644.78 C 669.53 644.613 669.517 644.47 669.59 644.35 C 669.723 644.11 669.887 644.09 670.08 644.29 C 672.493 646.843 674.32 649.457 675.56 652.13 C 677.35 656.01 679.71 661.22 683.8 662.75 C 684.668 663.074 685.647 662.76 686.17 661.99 C 687.863 659.47 688.473 656.393 688 652.76 C 686.23 639.2 679.08 625.98 671.01 615.39 C 670.317 614.477 669.93 614.593 669.85 615.74 C 669.777 616.827 669.117 617.723 667.87 618.43 C 667.403 618.69 667.297 618.583 667.55 618.11 C 668.783 615.81 669.067 612.86 668.4 609.26 C 662.68 578.27 658.81 553.84 647.75 526.68 C 643.317 515.267 637.79 504.38 631.17 494.02 C 630.277 492.62 629.163 491.183 627.83 489.71 C 627.573 489.422 627.118 489.437 626.88 489.74 C 625.567 491.4 623.89 492.75 621.85 493.79 C 621.017 494.217 620.38 494.107 619.94 493.46 C 619.733 493.16 619.71 492.85 619.87 492.53 C 621.043 490.183 622.497 488.167 624.23 486.48 C 643.623 467.607 660.647 446.793 675.3 424.04 C 695.027 393.4 709.377 359.307 718.35 321.76 C 718.523 321.047 718.647 320.31 718.72 319.55 C 724.17 295.07 727.53 270.17 726.26 245.04 C 726.013 231.833 723.783 218.977 719.57 206.47 C 718.77 204.09 717.9 201.913 716.96 199.94 C 715.247 196.367 713.07 192.827 710.43 189.32 C 707.657 185.633 704.737 183.14 701.67 181.84 C 694.39 177.83 686.49 178.26 678.75 179.88 C 667.417 182.247 656.657 186.177 646.47 191.67 C 617.14 207.48 594.64 230.18 576.66 258.91 C 546.7 306.79 532.77 364.24 540.74 420.5 C 541.58 426.407 542.787 432.4 544.36 438.48 Z M 345.4 407.32 C 353.113 425.213 362.413 442.207 373.3 458.3 L 384.69 474.87 C 384.89 475.153 385.286 475.212 385.56 475 C 389.48 471.967 393.127 468.677 396.5 465.13 C 396.767 464.85 396.813 464.537 396.64 464.19 C 393.7 458.32 389.96 452.26 387.34 446.84 C 381.56 434.92 376.837 424.223 373.17 414.75 C 367.923 401.217 362.813 385.693 357.84 368.18 C 354.253 355.567 351.493 342.76 349.56 329.76 C 348.293 322.567 347.597 315.303 347.47 307.97 C 347.67 306.85 348 306.36 348.46 306.5 C 354.353 344.547 364.42 381.49 378.66 417.33 C 380.947 423.097 384.21 430.497 388.45 439.53 C 391.937 447.363 395.89 454.963 400.31 462.33 C 400.494 462.632 400.896 462.71 401.18 462.5 C 410.2 455.83 419.91 451.03 429.86 446.18 C 430.454 445.892 430.803 445.263 430.73 444.61 L 429.62 434.14 C 427.733 411.32 425.523 390.773 422.99 372.5 C 420.75 356.327 417.497 339.527 413.23 322.1 C 411.05 313.2 408.02 303.99 405.19 295.01 C 402.863 287.623 399.353 278.977 394.66 269.07 C 392.373 264.257 389.81 259.663 386.97 255.29 C 383.16 249.42 378.48 243.17 372.73 240.55 C 366.577 237.743 361.33 239.52 356.99 245.88 C 357.93 243.56 359.103 241.603 360.51 240.01 C 369.89 229.33 381.64 240.56 387.17 248.36 C 396.06 260.91 402.36 274.79 407.74 289.5 C 413.533 305.333 418.787 325 423.5 348.5 C 427.033 366.133 429.963 388.167 432.29 414.6 L 434.8 443.91 C 434.827 444.243 434.993 444.343 435.3 444.21 C 448.333 438.81 461.62 435.337 475.16 433.79 L 476.79 433.7 C 477.157 433.68 477.347 433.487 477.36 433.12 C 477.493 429.96 477.923 426.957 478.65 424.11 C 479.65 420.23 480.247 417.44 480.44 415.74 C 480.807 412.567 481.05 409.733 481.17 407.24 C 482.93 370.41 476.63 334.02 465.1 298.85 C 458.02 277.277 449.45 257.66 439.39 240 C 432.55 228.007 424.883 217.127 416.39 207.36 C 409.363 199.28 401.407 192.37 392.52 186.63 C 389.547 185.023 386.533 183.717 383.48 182.71 C 357.53 174.14 340.54 209.78 334.09 228.6 C 325.537 253.553 321.697 279.153 322.57 305.4 C 322.94 316.59 323.79 327.7 325.57 338.73 C 329.39 362.423 336 385.287 345.4 407.32 Z M 537.06 768.88 C 535.48 773.647 533.867 778.543 532.22 783.57 C 531.053 787.157 529.487 790.557 527.52 793.77 C 526.66 795.177 525.76 796.333 524.82 797.24 C 523.925 798.103 522.495 798.063 521.65 797.15 L 518.78 794.05 C 518.527 793.777 518.353 793.823 518.26 794.19 C 517.6 796.903 516.57 799.837 515.17 802.99 C 513.65 806.403 510.4 814.02 505.42 825.84 L 479.81 886.75 C 479.677 887.077 479.763 887.33 480.07 887.51 L 480.99 888.04 C 482.757 889.047 482.62 889.453 480.58 889.26 C 479.52 889.16 477.98 889.19 476.82 889.56 C 467.88 892.447 461.503 898.347 457.69 907.26 C 455.883 911.5 455.327 915.653 456.02 919.72 C 455.853 923.113 456.56 926.127 458.14 928.76 C 460.84 933.29 465.4 937.19 470.73 937.39 C 471.597 937.417 471.753 937.097 471.2 936.43 C 469.893 934.843 469.033 932.74 468.62 930.12 C 468.167 927.2 468.23 922.06 468.81 914.7 C 469.61 910.98 471.24 907.92 473.7 905.52 C 475.093 904.167 475.257 904.303 474.19 905.93 C 470.617 911.397 469.467 917.763 470.74 925.03 C 470.767 927.503 471.173 929.853 471.96 932.08 C 472.767 934.373 474.113 936.247 476 937.7 C 480.08 940.847 484.873 941.773 490.38 940.48 C 491.673 940.18 492.67 939.507 493.37 938.46 C 493.557 938.187 493.597 937.89 493.49 937.57 C 491.543 931.69 491.14 925.75 492.28 919.75 C 492.547 919.13 492.843 918.72 493.17 918.52 C 493.503 918.307 493.673 918.4 493.68 918.8 L 493.87 928.7 C 494.377 932.533 494.963 934.907 495.63 935.82 C 501.89 944.35 516.43 940.48 524.03 936.02 C 529.397 932.88 533.027 928.337 534.92 922.39 C 535.493 920.59 535.82 917.96 535.9 914.5 C 535.96 911.7 536.043 909.013 536.15 906.44 C 536.97 886.287 543.31 868.083 555.17 851.83 C 557.52 848.62 560.44 845.73 563.16 842.91 C 563.934 842.11 564.488 841.125 564.77 840.05 L 575.77 798.21 C 576.677 796.743 577.547 794.75 578.38 792.23 C 578.533 791.763 578.767 791.48 579.08 791.38 C 579.447 791.267 579.6 791.397 579.54 791.77 L 578.33 799.7 C 578.27 800.107 578.423 800.217 578.79 800.03 C 582.117 798.363 585.937 797.163 590.25 796.43 C 597.17 795.27 603.12 794.96 609.5 797.01 C 619.09 800.08 627.09 805.45 634.27 812.08 C 634.93 812.687 635.047 812.597 634.62 811.81 C 632.407 807.67 629.813 803.567 626.84 799.5 L 605.12 763.92 L 591.87 742.55 C 591.336 741.69 590.236 741.378 589.33 741.83 C 584.37 744.29 579.257 746.337 573.99 747.97 C 562.21 751.617 550.033 754.46 537.46 756.5 C 537.24 756.535 537.079 756.717 537.08 756.93 L 537.06 768.88 Z M 421.41 756.85 C 419.83 758.09 418.903 759.03 418.63 759.67 C 418.037 761.05 417.327 763.277 416.5 766.35 C 414.81 772.66 414.73 778.62 416.63 784.75 C 417.03 786.057 417.447 786.063 417.88 784.77 C 419 781.43 420.377 778.463 422.01 775.87 C 423.37 773.703 423.673 773.843 422.92 776.29 C 419.04 788.937 420.303 801.443 426.71 813.81 C 428.537 817.343 431.16 820.717 434.58 823.93 C 435.507 824.79 436.14 825.29 436.48 825.43 C 436.493 825.43 436.507 825.423 436.52 825.41 L 436.73 825.19 C 436.837 825.077 436.823 824.977 436.69 824.89 C 434.423 823.437 432.99 821.763 432.39 819.87 C 430.477 813.817 430.293 807.517 431.84 800.97 C 432.033 800.177 432.157 800.187 432.21 801 C 432.37 803.293 432.56 805.79 432.78 808.49 C 433.22 813.757 434.833 818.62 437.62 823.08 C 441.61 829.46 444.83 833.44 450.08 836.88 C 450.813 837.36 451.033 837.187 450.74 836.36 C 449.453 832.7 448.993 828.803 449.36 824.67 C 449.367 824.583 449.41 824.547 449.49 824.56 C 449.577 824.573 449.627 824.637 449.64 824.75 C 449.9 826.743 450.347 828.673 450.98 830.54 C 452.053 834.273 453.57 837.087 455.53 838.98 C 458.857 842.187 461.2 844.093 462.56 844.7 C 465.033 845.8 467.373 847.203 469.58 848.91 C 469.781 849.066 470.075 848.946 470.109 848.694 C 470.113 848.666 470.113 848.638 470.11 848.61 C 469.597 843.917 469.007 839.507 468.34 835.38 C 468.053 833.633 467.337 831.927 466.19 830.26 C 466.117 830.153 466.133 830.063 466.24 829.99 L 466.48 829.84 C 466.509 829.817 466.553 829.833 466.56 829.87 C 467.15 831.77 468.95 832.51 470.17 833.78 C 472.98 836.7 474.42 839.4 478.23 841.24 C 479.43 841.813 479.637 841.563 478.85 840.49 C 478.717 840.303 478.633 840.087 478.6 839.84 C 478.26 837.28 478.39 834.133 478.99 830.4 C 478.997 830.34 479.033 830.303 479.1 830.29 L 479.4 830.23 C 479.467 830.217 479.493 830.243 479.48 830.31 C 479.327 831.443 479.313 832.683 479.44 834.03 C 479.487 834.477 479.66 834.533 479.96 834.2 C 483.63 830.18 489.88 828.92 492.31 823.83 C 493.703 820.897 494.72 818.3 495.36 816.04 C 495.727 814.753 495.99 814.773 496.15 816.1 C 496.383 817.973 496.27 819.7 495.81 821.28 C 494.943 824.3 493.967 827.567 492.88 831.08 C 492.764 831.431 493.071 831.776 493.432 831.701 C 493.466 831.694 493.499 831.684 493.53 831.67 C 495.763 830.683 497.707 829.17 499.36 827.13 C 503.2 822.37 506.383 817.203 508.91 811.63 C 512.29 804.19 514.34 799.483 515.06 797.51 C 516.7 793.01 517.137 788.223 516.37 783.15 L 518.25 787.28 C 518.943 790.113 520.307 792.69 522.34 795.01 C 522.627 795.337 522.913 795.337 523.2 795.01 C 526.667 791.183 529.14 786.673 530.62 781.48 C 532.64 774.38 528.63 769.62 524.54 764.53 C 524.5 764.483 524.52 764.44 524.6 764.4 L 524.75 764.34 C 524.822 764.309 524.888 764.305 524.91 764.33 C 527.663 766.943 530.237 769.843 532.63 773.03 C 532.877 773.357 533.053 773.323 533.16 772.93 C 534.56 767.93 534.893 762.827 534.16 757.62 C 534.119 757.32 533.839 757.112 533.54 757.16 C 523.19 758.8 512.71 760.39 502.66 760.84 C 484.38 761.66 466.66 760.37 449.5 756.97 C 440.493 755.183 430.347 752.51 419.06 748.95 C 418.753 748.85 418.537 748.947 418.41 749.24 L 416.15 754.29 C 415.53 755.67 415.97 756.26 417.47 756.06 C 418.837 755.873 420.127 755.367 421.34 754.54 C 421.707 754.286 422.212 754.525 422.248 754.97 C 422.249 754.986 422.25 755.003 422.25 755.02 C 422.243 755.647 421.963 756.257 421.41 756.85 Z M 412.32 752.2 L 407.19 764.9 C 401.737 779.373 398.807 795.203 398.4 812.39 C 397.84 835.75 400.06 858.85 402.61 882.03 C 402.69 882.78 403.03 883.15 403.3 883.82 C 403.42 884.133 403.337 884.37 403.05 884.53 C 402.17 885.03 401.12 885.33 400.39 886 C 396.683 889.367 393.72 893.79 391.5 899.27 C 389.913 903.17 389.52 907.017 390.32 910.81 C 390.633 919.017 394.363 925.233 401.51 929.46 C 402.403 929.987 403.73 930.097 405.49 929.79 C 405.817 929.737 405.907 929.56 405.76 929.26 C 403.32 924.407 402.04 919.32 401.92 914 C 401.547 907.407 403.367 901.563 407.38 896.47 C 407.44 896.383 407.513 896.37 407.6 896.43 C 407.687 896.49 407.707 896.563 407.66 896.65 C 403.093 904.79 402.507 913.227 405.9 921.96 C 406.9 928.41 411.16 931.52 417.23 932.96 C 421.457 933.967 425.41 933 429.09 930.06 C 429.421 929.793 429.499 929.322 429.27 928.97 C 426.53 924.73 424.97 920.07 424.59 914.99 C 424.397 912.41 424.247 909.537 424.14 906.37 L 426.4 900.04 C 426.4 900.033 426.403 900.03 426.41 900.03 L 426.7 900.12 C 426.827 900.16 426.877 900.247 426.85 900.38 C 425.937 904.587 425.777 908.837 426.37 913.13 C 426.75 916.537 427.77 919.973 429.43 923.44 C 430.697 926.08 432.237 928.043 434.05 929.33 C 439.59 933.26 446.75 931.72 452.13 927.8 C 452.397 927.6 452.503 927.337 452.45 927.01 C 452.237 925.67 452.02 924.33 451.8 922.99 C 449.72 910.42 454.47 901.69 462.45 892.65 C 462.677 892.397 462.72 892.117 462.58 891.81 C 452.21 868.19 445.76 853.7 439.65 833.79 C 439.023 831.75 438.243 829.76 437.31 827.82 C 437.163 827.533 436.93 827.413 436.61 827.46 C 435.643 827.607 434.72 827.33 433.84 826.63 C 422.42 817.48 417.69 804.94 417.24 790.55 C 417.227 790.243 417.1 789.99 416.86 789.79 C 413.84 787.34 412.76 783.97 412.19 780.18 C 412.297 778.487 412.327 776.783 412.28 775.07 C 412.267 774.47 412.357 773.26 412.55 771.44 C 412.683 770.18 412.587 768.95 412.26 767.75 C 414 762.983 414.413 758.853 413.5 755.36 C 413.387 753.92 413.627 752.22 414.22 750.26 C 414.347 749.827 414.343 749.517 414.21 749.33 C 414.003 749.037 413.823 749.05 413.67 749.37 L 412.32 752.2 Z M 627.33 790.75 C 631.623 796.87 635.537 803.173 639.07 809.66 C 641.48 814.09 643.64 819.58 646.01 824.51 C 648.443 829.557 650.07 833.31 650.89 835.77 C 656.25 851.77 656.977 868.173 653.07 884.98 C 652.943 885.54 653.163 885.833 653.73 885.86 C 656.803 886.013 659.707 885.69 662.44 884.89 C 668.987 883.063 673.053 879.24 674.64 873.42 C 674.96 871.38 674.84 869.683 674.28 868.33 C 674.016 867.695 673.355 867.324 672.68 867.43 C 670.8 867.71 669.2 867.43 667.88 866.59 C 666.547 865.743 666.67 865.263 668.25 865.15 C 670.463 864.997 672.727 863.9 675.04 861.86 C 683.353 855.08 686.743 846.197 685.21 835.21 C 684.423 829.55 682.13 824.627 678.33 820.44 C 675.81 817.66 670.69 814.26 666.8 815.8 C 666.253 815.593 666.373 815.127 667.16 814.4 C 669.7 812.07 670.09 805.95 669.62 802.74 C 668.12 794.36 660.39 788.99 651.81 789.79 C 648.957 790.05 647.027 791.217 646.02 793.29 C 645.787 793.77 645.533 793.78 645.26 793.32 C 640.413 785.247 633.27 782.03 623.83 783.67 C 623.49 783.73 623.407 783.91 623.58 784.21 L 627.33 790.75 Z M 585.77 799.38 C 582.67 800.19 578.28 801.89 577.66 805.49 C 577.44 806.81 577.067 808.587 576.54 810.82 C 574.913 819.38 572.707 828.257 569.92 837.45 C 569.827 837.763 569.907 837.813 570.16 837.6 C 577.347 831.487 585.713 828.263 595.26 827.93 C 601.64 827.7 606.38 830.58 611.2 834.32 C 612.347 835.207 613.45 835.84 614.51 836.22 C 615.843 836.693 617.087 837.063 618.24 837.33 C 625.34 841.737 629.65 848.047 631.17 856.26 C 633.28 867.69 631.13 880.87 627.54 891.76 C 624.24 901.76 619.98 911.49 613.67 919.7 C 613.083 920.467 613.26 920.74 614.2 920.52 C 616.613 919.947 618.987 918.903 621.32 917.39 C 637.333 908.337 646.647 894.447 649.26 875.72 C 650.733 865.187 650.157 854.363 647.53 843.25 C 645.73 835.643 642.617 828.837 638.19 822.83 C 632.857 814.93 625.37 808.307 615.73 802.96 C 606.63 796.773 596.643 795.58 585.77 799.38 Z M 391.11 811.9 C 387.737 817.667 385.323 823.617 383.87 829.75 C 383.51 831.26 383.04 832.26 383.99 833.75 C 386.25 837.29 388.58 840.787 390.98 844.24 C 392.23 846.03 393.08 848.14 394.13 850.05 C 394.59 850.877 394.783 850.82 394.71 849.88 C 393.68 835.98 392.79 822.83 393.49 808.23 C 393.517 807.67 393.403 807.64 393.15 808.14 C 392.557 809.347 391.877 810.6 391.11 811.9 Z M 390.33 891.78 L 397.62 883.45 C 397.914 883.124 398.062 882.69 398.03 882.25 C 397.683 876.443 396.963 870.617 395.87 864.77 C 395.357 862.017 394.543 859.357 393.43 856.79 C 390.303 849.57 386.293 842.933 381.4 836.88 C 375.65 829.76 370.24 823.84 362.84 819.31 C 356.69 815.67 349.61 813.41 342.55 815.45 C 341.25 815.83 340.183 816.567 339.35 817.66 C 337.86 819.61 337.11 822.27 336.26 824.61 C 336.179 824.862 335.856 824.923 335.679 824.72 C 335.623 824.656 335.591 824.574 335.59 824.49 C 335.61 821.71 336.12 819.16 337.12 816.84 C 337.273 816.487 337.157 816.303 336.77 816.29 C 331.07 816.12 325.87 820.27 322.98 824.81 C 321.407 827.283 320.317 830.547 319.71 834.6 C 318.217 844.56 319.073 854.437 322.28 864.23 C 329.77 887.1 342.83 910.1 364.07 921.14 C 370.92 924.7 380.5 926.07 387.72 922.61 C 388.02 922.47 388.127 922.24 388.04 921.92 C 386.927 917.68 386.263 914.537 386.05 912.49 C 385.27 905.117 386.697 898.213 390.33 891.78 Z M 448.12 846.23 L 456.86 867.36 L 466.55 889.81 C 466.663 890.083 466.857 890.157 467.13 890.03 L 474.22 886.67 C 474.937 886.331 475.494 885.724 475.77 884.98 L 478.96 876.27 L 493.84 841.79 L 498.22 832.06 C 498.433 831.593 498.303 831.457 497.83 831.65 C 495.45 832.63 493.797 833.937 492.87 835.57 C 491.517 837.957 490.85 837.777 490.87 835.03 C 490.89 832.85 491.11 830.637 491.53 828.39 C 491.703 827.477 491.493 827.377 490.9 828.09 C 488.72 830.677 486.027 832.787 482.82 834.42 C 481.835 834.921 481.222 835.942 481.24 837.05 L 481.36 843.55 C 481.371 844.349 480.608 844.932 479.84 844.71 C 477.04 843.9 473.91 841.42 471.67 839.53 C 471.27 839.19 471.097 839.28 471.15 839.8 C 471.523 843.373 471.72 846.84 471.74 850.2 C 471.747 851.287 471.273 851.567 470.32 851.04 L 445.3 837.14 C 444.813 836.867 444.667 836.99 444.86 837.51 L 448.12 846.23 Z M 541.33 896.48 C 537.85 915.13 541.02 933.8 562.13 938.92 C 565.577 939.76 568.57 939.98 571.11 939.58 C 585.183 937.373 596.743 931.633 605.79 922.36 C 615.84 912.05 622.05 897.4 625.63 883.39 C 627.877 874.59 628.467 866.67 627.4 859.63 C 626.65 854.66 624.52 848.26 620.77 844.18 C 618.37 841.773 615.153 840.197 611.12 839.45 C 610.793 839.39 610.517 839.487 610.29 839.74 L 607.29 843.08 C 607.057 843.02 606.92 842.903 606.88 842.73 C 606.847 842.623 606.883 842.477 606.99 842.29 C 609.57 837.95 607.24 835.23 603.2 833.69 C 595.9 831.117 588.713 831.6 581.64 835.14 C 571.627 840.14 563.303 847.317 556.67 856.67 C 548.657 867.963 543.543 881.233 541.33 896.48 Z"/>
  <path fill="#fdfffe" d=" M 701.67 181.84 Q 693.80 181.20 691.01 181.71 Q 680.00 183.73 669.66 188.61 Q 640.22 202.48 615.69 225.42 Q 596.44 243.42 583.22 264.97 C 580.26 269.78 577.08 274.67 574.54 279.46 Q 567.43 292.92 561.68 307.00 C 557.01 318.44 553.50 330.63 550.36 342.78 Q 543.03 371.17 542.00 400.50 Q 541.50 414.54 543.31 428.45 Q 543.34 428.72 544.49 433.17 Q 545.20 435.91 544.36 438.48 Q 542.00 429.36 540.74 420.50 C 532.77 364.24 546.70 306.79 576.66 258.91 C 594.64 230.18 617.14 207.48 646.47 191.67 Q 661.75 183.43 678.75 179.88 C 686.49 178.26 694.39 177.83 701.67 181.84 Z"/>
  <path fill="#fdfffe" d=" M 392.52 186.63 Q 392.26 187.71 391.96 187.55 Q 386.88 184.81 381.31 184.68 C 363.18 184.23 353.54 207.15 350.02 222.32 C 346.42 237.87 345.04 253.09 344.02 268.71 A 0.80 0.79 -6.5 0 1 343.46 269.41 Q 342.15 269.79 340.90 269.59 C 338.52 269.19 336.05 269.36 333.67 269.35 A 0.90 0.89 -82.7 0 0 332.79 270.04 Q 330.52 279.83 329.42 290.01 Q 328.61 297.48 328.20 303.77 Q 326.92 323.44 329.84 346.85 Q 330.70 353.66 332.60 361.80 Q 334.38 369.36 336.10 376.64 Q 338.14 385.27 340.49 391.65 Q 342.73 397.74 346.11 406.25 Q 346.45 407.10 345.40 407.32 Q 331.30 374.27 325.57 338.73 C 323.79 327.70 322.94 316.59 322.57 305.40 Q 321.26 266.03 334.09 228.60 C 340.54 209.78 357.53 174.14 383.48 182.71 Q 388.06 184.22 392.52 186.63 Z"/>
  <path fill="#c8ccd1" d=" M 701.67 181.84 Q 706.27 183.79 710.43 189.32 Q 714.39 194.58 716.96 199.94 Q 715.01 200.02 713.29 200.25 Q 706.97 201.10 700.84 202.74 Q 695.10 204.28 688.93 207.02 Q 665.41 217.49 647.17 235.91 Q 633.02 250.19 623.33 264.46 Q 611.87 281.35 601.33 304.41 Q 590.13 328.91 582.68 356.53 C 579.46 368.49 576.66 381.94 574.28 394.76 Q 571.10 411.91 570.10 432.12 Q 570.07 432.62 569.58 432.68 Q 562.63 433.54 560.54 434.78 Q 553.18 439.13 544.90 442.68 L 544.36 438.48 Q 545.20 435.91 544.49 433.17 Q 543.34 428.72 543.31 428.45 Q 541.50 414.54 542.00 400.50 Q 543.03 371.17 550.36 342.78 C 553.50 330.63 557.01 318.44 561.68 307.00 Q 567.43 292.92 574.54 279.46 C 577.08 274.67 580.26 269.78 583.22 264.97 Q 596.44 243.42 615.69 225.42 Q 640.22 202.48 669.66 188.61 Q 680.00 183.73 691.01 181.71 Q 693.80 181.20 701.67 181.84 Z"/>
  <path fill="#c8ccd1" d=" M 392.52 186.63 Q 405.85 195.24 416.39 207.36 Q 429.13 222.01 439.39 240.00 Q 454.48 266.49 465.10 298.85 C 476.63 334.02 482.93 370.41 481.17 407.24 Q 480.99 410.98 480.44 415.74 Q 480.15 418.29 478.65 424.11 Q 477.56 428.38 477.36 433.12 Q 477.34 433.67 476.79 433.70 L 475.16 433.79 Q 475.66 429.01 476.38 424.39 Q 477.41 417.69 477.69 415.00 Q 479.31 399.50 478.61 385.00 Q 477.72 366.38 474.86 351.05 Q 471.63 333.73 465.28 312.70 Q 462.43 303.25 459.04 294.38 Q 453.79 280.64 447.78 266.22 Q 444.19 257.59 442.03 252.82 C 439.52 247.30 437.45 241.48 434.71 235.99 Q 434.49 235.54 434.07 235.28 Q 433.27 234.78 432.87 234.19 A 1.48 1.47 -38.2 0 0 430.66 233.93 Q 430.27 234.28 429.47 234.35 Q 428.90 234.41 428.52 234.83 Q 426.52 236.98 424.40 238.31 Q 423.05 239.16 422.25 240.59 Q 422.02 241.00 421.56 241.12 Q 420.58 241.38 419.69 242.17 Q 419.30 242.51 419.50 243.00 Q 434.49 278.61 441.60 316.37 Q 443.40 325.92 444.88 339.26 Q 447.54 363.28 443.02 387.00 C 441.48 395.13 439.28 404.53 434.62 411.48 Q 434.20 412.11 433.78 413.21 Q 433.21 414.73 432.29 414.60 Q 428.80 374.95 423.50 348.50 Q 416.43 313.25 407.74 289.50 C 402.36 274.79 396.06 260.91 387.17 248.36 C 381.64 240.56 369.89 229.33 360.51 240.01 Q 358.40 242.40 356.99 245.88 Q 355.29 248.18 354.37 251.49 Q 353.96 252.98 353.29 254.39 Q 352.59 255.89 352.54 257.28 Q 352.37 262.13 351.66 266.73 Q 351.31 268.99 349.69 273.38 Q 348.87 275.59 348.73 278.20 Q 348.61 280.65 348.57 283.09 Q 348.57 283.59 348.31 284.01 Q 347.64 285.14 347.65 286.50 Q 347.70 289.67 347.82 292.84 Q 347.88 294.40 347.29 297.59 Q 346.83 300.09 347.24 302.73 L 347.47 307.97 Q 347.66 318.97 349.56 329.76 Q 348.12 329.12 347.92 327.70 Q 347.88 327.44 347.63 327.52 L 347.31 327.61 Q 346.76 327.77 346.91 327.23 Q 347.13 326.46 346.63 325.85 Q 345.82 324.84 345.71 326.13 Q 345.57 327.72 344.95 329.27 A 2.27 2.22 54.2 0 0 344.80 330.27 Q 345.46 338.40 346.21 342.51 Q 348.29 353.84 350.43 365.91 Q 352.16 375.67 354.80 385.42 Q 357.49 395.36 360.26 405.71 Q 363.63 418.32 372.25 437.58 C 373.63 440.66 374.79 444.69 374.40 447.75 Q 373.79 452.48 374.72 457.40 A 0.83 0.83 0.0 0 1 373.78 458.38 L 373.30 458.30 Q 356.97 434.16 345.40 407.32 Q 346.45 407.10 346.11 406.25 Q 342.73 397.74 340.49 391.65 Q 338.14 385.27 336.10 376.64 Q 334.38 369.36 332.60 361.80 Q 330.70 353.66 329.84 346.85 Q 326.92 323.44 328.20 303.77 Q 328.61 297.48 329.42 290.01 Q 330.52 279.83 332.79 270.04 A 0.90 0.89 -82.7 0 1 333.67 269.35 C 336.05 269.36 338.52 269.19 340.90 269.59 Q 342.15 269.79 343.46 269.41 A 0.80 0.79 -6.5 0 0 344.02 268.71 C 345.04 253.09 346.42 237.87 350.02 222.32 C 353.54 207.15 363.18 184.23 381.31 184.68 Q 386.88 184.81 391.96 187.55 Q 392.26 187.71 392.52 186.63 Z"/>
  <path fill="#a2a2b0" d=" M 716.96 199.94 Q 718.37 202.90 719.57 206.47 Q 725.89 225.23 726.26 245.04 Q 726.04 245.09 725.89 244.84 A 0.20 0.20 0.0 0 0 725.52 244.92 Q 724.96 254.42 724.83 263.86 Q 724.73 270.79 723.72 280.07 Q 722.78 288.80 721.64 296.21 Q 721.34 298.11 720.98 300.25 Q 719.23 310.46 717.46 319.66 A 0.41 0.41 0.0 0 0 718.05 320.10 Q 718.36 319.93 718.72 319.55 Q 718.61 320.69 718.35 321.76 Q 704.89 378.08 675.30 424.04 Q 653.32 458.17 624.23 486.48 Q 621.63 489.01 619.87 492.53 Q 619.63 493.01 619.94 493.46 Q 620.60 494.43 621.85 493.79 Q 624.91 492.23 626.88 489.74 A 0.62 0.62 0.0 0 1 627.83 489.71 Q 629.83 491.92 631.17 494.02 Q 641.10 509.56 647.75 526.68 Q 647.20 526.57 646.79 526.86 A 0.74 0.73 63.5 0 0 646.52 527.68 Q 652.48 546.16 654.44 555.26 C 656.30 563.89 658.38 572.53 659.87 580.99 Q 662.18 594.13 664.96 607.11 Q 665.40 609.19 666.04 611.34 A 1.51 1.49 -28.4 0 1 665.56 612.93 Q 658.55 618.80 650.56 623.81 Q 641.06 629.79 627.93 631.90 Q 626.89 631.41 626.77 631.43 Q 623.89 631.89 626.05 629.94 C 633.07 623.55 638.34 615.87 639.08 606.03 Q 639.75 597.18 639.05 587.66 Q 636.54 553.24 623.51 520.74 C 616.87 504.17 606.52 489.96 591.84 479.70 Q 577.46 469.65 565.47 463.57 Q 553.52 457.50 547.57 453.87 L 544.90 442.68 Q 553.18 439.13 560.54 434.78 Q 562.63 433.54 569.58 432.68 Q 570.07 432.62 570.10 432.12 Q 571.10 411.91 574.28 394.76 C 576.66 381.94 579.46 368.49 582.68 356.53 Q 590.13 328.91 601.33 304.41 Q 611.87 281.35 623.33 264.46 Q 633.02 250.19 647.17 235.91 Q 665.41 217.49 688.93 207.02 Q 695.10 204.28 700.84 202.74 Q 706.97 201.10 713.29 200.25 Q 715.01 200.02 716.96 199.94 Z M 611.86 478.69 Q 624.06 465.03 635.74 450.29 Q 642.48 441.78 647.69 434.24 Q 670.26 401.60 685.62 364.87 Q 700.84 328.47 707.11 289.51 Q 710.15 270.57 708.10 251.52 C 707.26 243.71 705.67 235.66 700.75 229.29 C 690.94 216.60 670.35 227.27 661.21 234.83 Q 640.23 252.17 625.51 277.44 Q 611.49 301.49 602.25 327.02 Q 597.41 340.39 594.82 349.90 Q 582.55 394.94 579.94 441.75 Q 579.49 449.87 579.53 457.84 A 0.88 0.88 0.0 0 0 580.05 458.63 C 590.63 463.39 599.12 470.02 607.67 479.02 C 611.27 482.79 614.71 487.43 618.20 491.69 Q 618.32 491.83 618.46 491.71 L 618.67 491.53 Q 618.76 491.45 618.75 491.43 L 611.71 481.03 Q 610.88 479.80 611.86 478.69 Z"/>
  <path fill="#461103" d=" M 611.86 478.69 Q 610.88 479.80 611.71 481.03 L 618.75 491.43 Q 618.76 491.45 618.67 491.53 L 618.46 491.71 Q 618.32 491.83 618.20 491.69 C 614.71 487.43 611.27 482.79 607.67 479.02 C 599.12 470.02 590.63 463.39 580.05 458.63 A 0.88 0.88 0.0 0 1 579.53 457.84 Q 579.49 449.87 579.94 441.75 Q 582.55 394.94 594.82 349.90 Q 597.41 340.39 602.25 327.02 Q 611.49 301.49 625.51 277.44 Q 640.23 252.17 661.21 234.83 C 670.35 227.27 690.94 216.60 700.75 229.29 C 705.67 235.66 707.26 243.71 708.10 251.52 Q 710.15 270.57 707.11 289.51 Q 700.84 328.47 685.62 364.87 Q 670.26 401.60 647.69 434.24 Q 642.48 441.78 635.74 450.29 Q 624.06 465.03 611.86 478.69 Z M 584.46 441.70 L 583.68 456.13 Q 583.66 456.45 583.96 456.58 Q 598.87 462.68 609.05 475.20 A 0.54 0.54 0.0 0 0 609.87 475.22 Q 627.92 455.40 643.51 433.53 Q 677.56 385.09 694.47 328.43 Q 700.88 306.94 704.01 284.75 Q 706.73 265.45 703.58 246.25 Q 702.59 240.20 699.83 234.88 C 691.16 218.13 668.57 232.64 659.69 240.70 Q 645.18 253.85 634.60 270.34 Q 619.56 293.75 609.50 319.71 Q 594.34 358.80 588.64 400.37 Q 585.50 423.27 584.46 441.70 Z"/>
  <path fill="#e98d99" d=" M 643.51 433.53 Q 642.68 433.11 643.55 431.69 Q 643.71 431.43 643.50 431.22 Q 643.38 431.10 643.22 431.10 Q 642.55 431.12 642.85 430.51 Q 643.69 428.79 642.81 427.09 Q 642.56 426.60 642.62 426.06 Q 642.73 425.04 642.53 424.14 Q 642.26 422.91 642.31 421.69 Q 642.50 417.53 642.77 413.16 Q 642.96 410.15 641.40 405.75 C 640.62 403.53 640.57 401.13 639.42 399.01 Q 638.76 397.78 638.21 396.47 Q 638.03 396.04 637.59 396.20 L 637.03 396.41 Q 658.23 367.82 671.36 334.52 Q 678.81 315.62 682.93 295.74 Q 686.42 278.92 685.55 261.75 Q 685.25 255.74 680.42 252.40 C 677.61 250.46 673.06 252.50 670.80 254.35 Q 656.03 266.44 645.82 282.39 C 632.95 302.50 623.29 324.53 617.65 347.75 Q 614.78 359.57 613.53 367.31 Q 610.90 383.53 612.67 400.08 Q 613.33 406.22 617.55 410.23 Q 619.52 412.09 623.41 412.00 C 617.68 419.61 610.38 426.25 603.00 432.21 Q 598.42 435.91 591.32 438.92 Q 591.13 439.00 587.99 440.53 Q 586.26 441.37 584.46 441.70 Q 585.50 423.27 588.64 400.37 Q 594.34 358.80 609.50 319.71 Q 619.56 293.75 634.60 270.34 Q 645.18 253.85 659.69 240.70 C 668.57 232.64 691.16 218.13 699.83 234.88 Q 702.59 240.20 703.58 246.25 Q 706.73 265.45 704.01 284.75 Q 700.88 306.94 694.47 328.43 Q 677.56 385.09 643.51 433.53 Z"/>
  <path fill="#a2a2b0" d=" M 475.16 433.79 Q 454.85 436.11 435.30 444.21 Q 434.84 444.41 434.80 443.91 L 432.29 414.60 Q 433.21 414.73 433.78 413.21 Q 434.20 412.11 434.62 411.48 C 439.28 404.53 441.48 395.13 443.02 387.00 Q 447.54 363.28 444.88 339.26 Q 443.40 325.92 441.60 316.37 Q 434.49 278.61 419.50 243.00 Q 419.30 242.51 419.69 242.17 Q 420.58 241.38 421.56 241.12 Q 422.02 241.00 422.25 240.59 Q 423.05 239.16 424.40 238.31 Q 426.52 236.98 428.52 234.83 Q 428.90 234.41 429.47 234.35 Q 430.27 234.28 430.66 233.93 A 1.48 1.47 -38.2 0 1 432.87 234.19 Q 433.27 234.78 434.07 235.28 Q 434.49 235.54 434.71 235.99 C 437.45 241.48 439.52 247.30 442.03 252.82 Q 444.19 257.59 447.78 266.22 Q 453.79 280.64 459.04 294.38 Q 462.43 303.25 465.28 312.70 Q 471.63 333.73 474.86 351.05 Q 477.72 366.38 478.61 385.00 Q 479.31 399.50 477.69 415.00 Q 477.41 417.69 476.38 424.39 Q 475.66 429.01 475.16 433.79 Z"/>
  <path fill="#f198a4" d=" M 429.62 434.14 Q 427.69 434.78 425.93 435.53 Q 423.84 436.42 422.22 436.89 Q 418.37 438.01 414.38 439.28 Q 407.79 441.38 398.69 440.07 Q 396.64 439.78 394.34 439.21 Q 392.21 438.68 389.99 438.38 Q 389.52 438.32 389.37 438.77 Q 389.16 439.41 388.45 439.53 Q 382.09 425.98 378.66 417.33 Q 357.30 363.57 348.46 306.50 L 347.66 301.99 Q 347.61 301.68 347.66 301.38 Q 347.73 300.96 347.55 300.63 Q 347.36 300.29 347.34 300.67 L 347.24 302.73 Q 346.83 300.09 347.29 297.59 Q 347.88 294.40 347.82 292.84 Q 347.70 289.67 347.65 286.50 Q 347.64 285.14 348.31 284.01 Q 348.57 283.59 348.57 283.09 Q 348.61 280.65 348.73 278.20 Q 348.87 275.59 349.69 273.38 Q 351.31 268.99 351.66 266.73 Q 352.37 262.13 352.54 257.28 Q 352.59 255.89 353.29 254.39 Q 353.96 252.98 354.37 251.49 Q 355.29 248.18 356.99 245.88 Q 363.50 236.34 372.73 240.55 C 378.48 243.17 383.16 249.42 386.97 255.29 Q 391.23 261.85 394.66 269.07 Q 401.70 283.93 405.19 295.01 C 408.02 303.99 411.05 313.20 413.23 322.10 Q 419.63 348.24 422.99 372.50 Q 426.79 399.91 429.62 434.14 Z M 363.48 298.86 Q 363.45 305.57 365.55 314.48 Q 372.10 342.25 379.64 365.00 C 382.00 372.13 385.21 379.40 388.56 386.23 C 392.61 394.52 398.88 404.80 405.79 411.96 Q 408.60 414.87 412.28 416.52 Q 414.78 417.64 417.98 417.05 A 1.82 1.82 0.0 0 0 419.47 415.46 Q 419.86 412.00 420.40 408.54 Q 420.98 404.74 419.62 390.26 C 418.24 375.64 415.39 362.57 411.54 347.26 Q 407.45 330.93 398.61 308.64 Q 394.05 297.14 387.05 286.62 Q 384.21 273.67 375.94 263.08 Q 374.42 261.12 369.86 257.73 C 365.19 254.25 361.96 261.24 361.19 264.62 Q 357.11 282.48 363.48 298.86 Z"/>
  <path fill="#e5d0d2" d=" M 726.26 245.04 C 727.53 270.17 724.17 295.07 718.72 319.55 Q 718.36 319.93 718.05 320.10 A 0.41 0.41 0.0 0 1 717.46 319.66 Q 719.23 310.46 720.98 300.25 Q 721.34 298.11 721.64 296.21 Q 722.78 288.80 723.72 280.07 Q 724.73 270.79 724.83 263.86 Q 724.96 254.42 725.52 244.92 A 0.20 0.20 0.0 0 1 725.89 244.84 Q 726.04 245.09 726.26 245.04 Z"/>
  <path fill="#fab4bd" d=" M 637.03 396.41 Q 630.72 405.03 623.41 412.00 Q 619.52 412.09 617.55 410.23 Q 613.33 406.22 612.67 400.08 Q 610.90 383.53 613.53 367.31 Q 614.78 359.57 617.65 347.75 C 623.29 324.53 632.95 302.50 645.82 282.39 Q 656.03 266.44 670.80 254.35 C 673.06 252.50 677.61 250.46 680.42 252.40 Q 685.25 255.74 685.55 261.75 Q 686.42 278.92 682.93 295.74 Q 678.81 315.62 671.36 334.52 Q 658.23 367.82 637.03 396.41 Z"/>
  <path fill="#fbdee1" d=" M 387.05 286.62 Q 386.93 294.23 384.41 298.65 C 381.57 303.64 376.14 305.24 370.60 304.04 C 367.80 303.44 365.83 300.75 363.48 298.86 Q 357.11 282.48 361.19 264.62 C 361.96 261.24 365.19 254.25 369.86 257.73 Q 374.42 261.12 375.94 263.08 Q 384.21 273.67 387.05 286.62 Z"/>
  <path fill="#fab4bd" d=" M 387.05 286.62 Q 394.05 297.14 398.61 308.64 Q 407.45 330.93 411.54 347.26 C 415.39 362.57 418.24 375.64 419.62 390.26 Q 420.98 404.74 420.40 408.54 Q 419.86 412.00 419.47 415.46 A 1.82 1.82 0.0 0 1 417.98 417.05 Q 414.78 417.64 412.28 416.52 Q 408.60 414.87 405.79 411.96 C 398.88 404.80 392.61 394.52 388.56 386.23 C 385.21 379.40 382.00 372.13 379.64 365.00 Q 372.10 342.25 365.55 314.48 Q 363.45 305.57 363.48 298.86 C 365.83 300.75 367.80 303.44 370.60 304.04 C 376.14 305.24 381.57 303.64 384.41 298.65 Q 386.93 294.23 387.05 286.62 Z"/>
  <path fill="#6f460d" d=" M 348.46 306.50 Q 347.77 306.29 347.47 307.97 L 347.24 302.73 L 347.34 300.67 Q 347.36 300.29 347.55 300.63 Q 347.73 300.96 347.66 301.38 Q 347.61 301.68 347.66 301.99 L 348.46 306.50 Z"/>
  <path fill="#a2a2b0" d=" M 349.56 329.76 Q 352.46 349.26 357.84 368.18 Q 365.30 394.45 373.17 414.75 Q 378.67 428.96 387.34 446.84 C 389.96 452.26 393.70 458.32 396.64 464.19 Q 396.90 464.71 396.50 465.13 Q 391.44 470.45 385.56 475.00 A 0.61 0.61 0.0 0 1 384.69 474.87 L 373.30 458.30 L 373.78 458.38 A 0.83 0.83 0.0 0 0 374.72 457.40 Q 373.79 452.48 374.40 447.75 C 374.79 444.69 373.63 440.66 372.25 437.58 Q 363.63 418.32 360.26 405.71 Q 357.49 395.36 354.80 385.42 Q 352.16 375.67 350.43 365.91 Q 348.29 353.84 346.21 342.51 Q 345.46 338.40 344.80 330.27 A 2.27 2.22 54.2 0 1 344.95 329.27 Q 345.57 327.72 345.71 326.13 Q 345.82 324.84 346.63 325.85 Q 347.13 326.46 346.91 327.23 Q 346.76 327.77 347.31 327.61 L 347.63 327.52 Q 347.88 327.44 347.92 327.70 Q 348.12 329.12 349.56 329.76 Z"/>
  <path fill="#df7e8c" d=" M 643.51 433.53 Q 627.92 455.40 609.87 475.22 A 0.54 0.54 0.0 0 1 609.05 475.20 Q 598.87 462.68 583.96 456.58 Q 583.66 456.45 583.68 456.13 L 584.46 441.70 Q 586.26 441.37 587.99 440.53 Q 591.13 439.00 591.32 438.92 Q 598.42 435.91 603.00 432.21 C 610.38 426.25 617.68 419.61 623.41 412.00 Q 630.72 405.03 637.03 396.41 L 637.59 396.20 Q 638.03 396.04 638.21 396.47 Q 638.76 397.78 639.42 399.01 C 640.57 401.13 640.62 403.53 641.40 405.75 Q 642.96 410.15 642.77 413.16 Q 642.50 417.53 642.31 421.69 Q 642.26 422.91 642.53 424.14 Q 642.73 425.04 642.62 426.06 Q 642.56 426.60 642.81 427.09 Q 643.69 428.79 642.85 430.51 Q 642.55 431.12 643.22 431.10 Q 643.38 431.10 643.50 431.22 Q 643.71 431.43 643.55 431.69 Q 642.68 433.11 643.51 433.53 Z"/>
  <path fill="#fdfffe" d=" M 539.35 443.28 Q 540.46 444.82 536.78 444.13 Q 525.66 442.06 514.41 441.10 C 506.55 440.44 497.24 440.84 488.77 440.70 Q 475.88 440.49 459.77 445.31 Q 445.85 449.47 431.20 457.46 C 424.69 461.01 420.40 463.28 415.52 467.06 Q 407.95 472.92 400.50 479.37 Q 388.36 489.89 376.95 505.50 Q 362.83 524.82 353.68 547.67 Q 350.60 555.34 347.16 566.01 Q 342.00 581.99 336.98 598.01 Q 335.81 601.74 332.90 605.92 Q 332.62 606.33 332.12 606.38 L 331.12 606.49 L 330.70 603.06 Q 333.63 591.44 339.03 571.76 Q 344.88 550.45 352.72 531.72 Q 368.82 493.25 401.17 467.97 C 415.07 457.10 430.25 450.54 446.60 444.91 Q 462.98 439.28 480.24 437.73 Q 482.19 437.55 484.62 438.41 Q 485.17 438.61 484.87 438.10 Q 481.17 432.04 482.88 425.65 A 1.06 1.06 0.0 0 1 484.69 425.21 Q 489.72 430.80 495.32 435.66 A 0.43 0.43 0.0 0 0 496.03 435.32 C 495.94 430.59 496.04 425.76 498.31 421.45 A 0.68 0.67 -61.2 0 1 499.24 421.17 Q 500.70 422.00 501.77 423.48 Q 506.28 429.73 509.81 436.03 A 3.50 3.49 78.8 0 0 512.45 437.80 C 521.31 438.84 530.86 440.27 539.35 443.28 Z"/>
  <path fill="#df7e8c" d=" M 429.62 434.14 L 430.73 444.61 A 1.56 1.55 -16.1 0 1 429.86 446.18 C 419.91 451.03 410.20 455.83 401.18 462.50 A 0.60 0.60 0.0 0 1 400.31 462.33 Q 393.68 451.28 388.45 439.53 Q 389.16 439.41 389.37 438.77 Q 389.52 438.32 389.99 438.38 Q 392.21 438.68 394.34 439.21 Q 396.64 439.78 398.69 440.07 Q 407.79 441.38 414.38 439.28 Q 418.37 438.01 422.22 436.89 Q 423.84 436.42 425.93 435.53 Q 427.69 434.78 429.62 434.14 Z"/>
  <path fill="#c8ccd1" d=" M 539.35 443.28 Q 543.03 443.65 543.71 445.75 Q 544.89 449.36 547.57 453.87 Q 553.52 457.50 565.47 463.57 Q 577.46 469.65 591.84 479.70 C 606.52 489.96 616.87 504.17 623.51 520.74 Q 636.54 553.24 639.05 587.66 Q 639.75 597.18 639.08 606.03 C 638.34 615.87 633.07 623.55 626.05 629.94 Q 623.89 631.89 626.77 631.43 Q 626.89 631.41 627.93 631.90 Q 626.27 632.07 624.87 632.24 Q 623.90 632.36 623.31 632.90 Q 622.64 633.53 622.26 634.31 Q 622.02 634.81 621.54 635.09 Q 619.89 636.02 618.86 637.59 Q 618.56 638.06 618.09 638.33 L 611.41 642.21 Q 603.42 637.23 592.74 636.02 Q 583.01 634.91 575.08 635.49 Q 574.60 635.52 574.20 635.26 Q 573.57 634.84 572.32 635.10 Q 576.93 631.56 579.30 626.50 Q 584.80 614.73 585.38 601.90 Q 586.19 584.16 579.27 569.71 C 571.16 552.80 553.76 542.05 535.32 550.97 Q 530.17 553.46 525.41 558.81 C 517.66 567.49 513.88 579.06 512.83 590.57 C 511.41 606.07 513.16 621.54 522.73 634.04 Q 524.30 636.09 527.76 638.34 Q 536.86 639.67 547.05 639.16 Q 547.54 639.13 547.97 638.91 Q 548.33 638.72 548.75 638.67 Q 551.87 638.27 554.93 637.68 Q 558.56 636.97 560.79 635.69 Q 564.03 633.82 565.82 631.07 L 566.92 629.52 Q 567.05 630.56 566.46 631.08 Q 566.13 631.37 566.13 631.80 L 566.13 632.19 Q 566.13 632.62 565.75 632.82 Q 565.02 633.20 565.11 634.11 A 0.80 0.79 -89.1 0 0 565.78 634.81 Q 566.77 634.96 567.74 635.29 Q 569.62 635.95 567.71 636.53 Q 566.03 637.04 564.58 637.89 Q 564.15 638.13 563.66 638.12 C 561.93 638.08 560.34 638.98 559.16 639.30 Q 555.92 640.18 552.93 640.95 Q 552.54 641.05 552.30 641.37 Q 551.99 641.79 551.45 641.60 A 1.04 1.03 -47.0 0 0 550.68 641.63 Q 549.22 642.28 547.71 642.54 Q 540.03 643.87 532.78 643.26 Q 524.68 642.58 519.81 640.21 Q 507.01 633.98 493.62 628.12 A 3.06 3.05 -78.5 0 1 491.79 625.35 Q 491.62 609.63 491.06 596.97 Q 488.47 538.41 473.53 481.76 Q 472.21 476.77 469.66 471.24 A 1.02 1.01 55.2 0 0 468.03 470.94 Q 459.57 479.34 453.51 489.97 Q 442.11 509.97 436.25 532.25 Q 429.61 557.50 427.37 583.50 Q 425.77 602.19 424.61 621.51 A 2.10 2.10 0.0 0 1 423.09 623.40 C 420.96 624.01 418.86 624.68 416.88 625.96 C 410.86 629.86 404.91 633.79 398.00 635.22 Q 396.17 635.60 394.29 636.01 Q 392.35 636.43 390.62 636.45 Q 385.12 636.51 379.70 635.55 C 377.16 635.10 374.48 634.96 371.87 634.45 Q 368.67 633.83 366.35 632.19 Q 362.52 629.49 358.57 626.93 C 354.60 624.36 350.12 622.53 345.73 620.61 Q 335.98 616.34 329.85 608.43 Q 331.01 607.83 331.12 606.49 L 332.12 606.38 Q 332.62 606.33 332.90 605.92 Q 335.81 601.74 336.98 598.01 Q 342.00 581.99 347.16 566.01 Q 350.60 555.34 353.68 547.67 Q 362.83 524.82 376.95 505.50 Q 388.36 489.89 400.50 479.37 Q 407.95 472.92 415.52 467.06 C 420.40 463.28 424.69 461.01 431.20 457.46 Q 445.85 449.47 459.77 445.31 Q 475.88 440.49 488.77 440.70 C 497.24 440.84 506.55 440.44 514.41 441.10 Q 525.66 442.06 536.78 444.13 Q 540.46 444.82 539.35 443.28 Z M 552.66 520.91 Q 554.44 521.62 556.16 522.18 A 2.05 2.05 0.0 0 0 558.47 521.41 C 560.01 519.23 557.98 516.32 556.41 514.83 C 550.93 509.61 541.45 508.15 536.26 514.75 Q 533.75 517.93 535.82 520.79 A 2.58 2.57 61.6 0 0 538.83 521.69 C 543.38 519.95 547.93 519.02 552.66 520.91 Z M 383.58 523.36 C 387.50 521.38 391.69 520.90 395.86 522.36 Q 397.31 522.87 398.85 523.36 Q 399.36 523.52 399.86 523.30 Q 402.82 521.99 401.86 518.53 C 400.58 513.93 395.50 511.50 391.04 512.20 Q 384.45 513.23 380.54 518.69 Q 378.70 521.27 380.30 523.64 Q 380.60 524.08 381.12 524.03 Q 382.50 523.91 383.58 523.36 Z M 370.87 630.77 L 378.85 631.84 Q 379.35 631.91 379.33 631.41 L 379.30 630.26 Q 380.80 631.07 382.27 631.91 Q 383.87 632.82 385.43 633.07 Q 391.81 634.09 397.24 632.75 Q 401.56 631.67 404.42 628.04 Q 407.98 622.77 409.30 618.50 Q 411.60 611.09 411.80 602.00 Q 412.03 591.53 410.16 580.36 C 408.35 569.56 403.54 555.87 393.52 550.51 C 383.96 545.39 373.60 550.30 367.11 558.25 C 353.61 574.79 352.77 598.92 359.79 618.25 Q 363.41 628.23 370.87 630.77 Z"/>
  <path fill="#fdfffe" d=" M 566.92 629.52 C 571.76 621.59 573.70 613.22 574.44 604.04 Q 575.83 602.26 577.51 602.91 Q 578.95 603.46 580.10 603.41 Q 580.60 603.39 580.76 603.86 Q 581.31 605.40 581.10 607.30 Q 580.92 614.03 579.27 620.60 Q 577.42 627.92 572.32 635.10 Q 573.57 634.84 574.20 635.26 Q 574.60 635.52 575.08 635.49 Q 583.01 634.91 592.74 636.02 Q 603.42 637.23 611.41 642.21 Q 623.66 651.02 621.17 666.12 Q 620.44 670.52 619.20 673.48 C 613.91 686.13 605.59 695.49 594.29 704.34 Q 575.17 719.30 551.51 728.30 Q 529.07 736.83 509.21 739.76 Q 470.03 745.54 426.48 738.44 C 414.47 736.48 404.58 733.40 393.92 728.93 C 387.78 726.36 381.82 723.13 375.87 719.94 Q 372.43 718.11 368.49 715.59 Q 364.38 712.97 359.79 710.13 Q 357.06 708.44 349.78 702.44 Q 348.12 701.07 346.47 699.33 Q 344.88 697.65 343.14 696.01 Q 340.48 693.49 338.48 691.00 Q 332.89 684.03 327.82 677.16 Q 325.70 674.28 325.99 670.53 Q 326.29 669.43 325.98 668.72 Q 325.74 668.17 325.24 668.50 Q 324.80 668.80 324.61 669.58 Q 323.34 670.61 322.98 670.62 A 2.49 2.48 8.6 0 0 320.66 672.33 Q 319.49 675.90 318.64 679.50 Q 318.25 681.18 318.55 683.40 Q 318.61 683.88 318.93 684.24 Q 319.65 685.06 319.40 687.20 Q 316.78 686.94 314.81 682.89 Q 310.64 674.33 310.25 664.76 Q 309.48 645.69 322.81 632.50 Q 323.48 631.83 322.57 632.06 C 318.24 633.15 312.13 640.01 310.61 642.63 Q 308.43 646.42 305.99 650.56 A 0.61 0.60 42.6 0 1 304.98 650.60 Q 303.39 648.36 303.65 645.31 C 304.99 629.17 316.82 616.37 328.46 605.31 Q 330.01 605.97 329.85 608.43 Q 335.98 616.34 345.73 620.61 C 350.12 622.53 354.60 624.36 358.57 626.93 Q 362.52 629.49 366.35 632.19 Q 368.67 633.83 371.87 634.45 C 374.48 634.96 377.16 635.10 379.70 635.55 Q 385.12 636.51 390.62 636.45 Q 392.35 636.43 394.29 636.01 Q 396.17 635.60 398.00 635.22 C 404.91 633.79 410.86 629.86 416.88 625.96 C 418.86 624.68 420.96 624.01 423.09 623.40 A 2.10 2.10 0.0 0 0 424.61 621.51 Q 425.77 602.19 427.37 583.50 Q 429.61 557.50 436.25 532.25 Q 442.11 509.97 453.51 489.97 Q 459.57 479.34 468.03 470.94 A 1.02 1.01 55.2 0 1 469.66 471.24 Q 472.21 476.77 473.53 481.76 Q 488.47 538.41 491.06 596.97 Q 491.62 609.63 491.79 625.35 A 3.06 3.05 -78.5 0 0 493.62 628.12 Q 507.01 633.98 519.81 640.21 Q 524.68 642.58 532.78 643.26 Q 540.03 643.87 547.71 642.54 Q 549.22 642.28 550.68 641.63 A 1.04 1.03 -47.0 0 1 551.45 641.60 Q 551.99 641.79 552.30 641.37 Q 552.54 641.05 552.93 640.95 Q 555.92 640.18 559.16 639.30 C 560.34 638.98 561.93 638.08 563.66 638.12 Q 564.15 638.13 564.58 637.89 Q 566.03 637.04 567.71 636.53 Q 569.62 635.95 567.74 635.29 Q 566.77 634.96 565.78 634.81 A 0.80 0.79 -89.1 0 1 565.11 634.11 Q 565.02 633.20 565.75 632.82 Q 566.13 632.62 566.13 632.19 L 566.13 631.80 Q 566.13 631.37 566.46 631.08 Q 567.05 630.56 566.92 629.52 Z M 437.58 649.33 Q 434.75 653.28 432.91 657.69 Q 432.04 659.75 431.14 660.51 Q 429.65 661.77 427.76 661.57 Q 425.23 661.32 422.67 661.32 Q 420.16 661.18 416.14 655.53 A 0.63 0.63 0.0 0 0 415.00 655.86 L 414.88 657.88 A 2.77 2.75 -62.4 0 0 415.44 659.69 Q 418.40 663.59 423.48 665.05 Q 427.83 681.73 436.12 697.13 Q 437.08 698.91 440.17 702.58 Q 441.50 707.52 444.95 713.27 C 448.06 718.47 453.16 722.91 459.39 722.46 C 471.40 721.60 473.47 703.62 474.32 694.49 Q 475.44 682.55 477.69 670.78 Q 478.08 668.76 478.82 668.32 C 482.18 666.31 484.45 665.11 486.15 662.43 C 488.24 659.13 486.46 656.38 483.11 655.16 Q 480.30 654.15 480.17 655.99 Q 480.57 656.79 479.96 657.53 C 476.39 661.89 471.01 663.08 465.27 663.62 Q 455.90 664.50 447.82 659.62 Q 445.89 658.46 445.30 656.54 Q 443.80 651.65 446.95 647.74 Q 454.22 645.25 459.26 639.50 C 462.18 636.17 463.18 631.15 459.00 628.27 C 451.52 623.09 438.64 623.46 430.16 625.12 C 424.71 626.19 420.13 630.29 422.70 636.34 Q 425.73 643.45 432.53 647.19 Q 434.24 648.12 437.58 649.33 Z"/>
  <path fill="#461103" d=" M 552.66 520.91 C 547.93 519.02 543.38 519.95 538.83 521.69 A 2.58 2.57 61.6 0 1 535.82 520.79 Q 533.75 517.93 536.26 514.75 C 541.45 508.15 550.93 509.61 556.41 514.83 C 557.98 516.32 560.01 519.23 558.47 521.41 A 2.05 2.05 0.0 0 1 556.16 522.18 Q 554.44 521.62 552.66 520.91 Z"/>
  <path fill="#461103" d=" M 383.58 523.36 Q 382.50 523.91 381.12 524.03 Q 380.60 524.08 380.30 523.64 Q 378.70 521.27 380.54 518.69 Q 384.45 513.23 391.04 512.20 C 395.50 511.50 400.58 513.93 401.86 518.53 Q 402.82 521.99 399.86 523.30 Q 399.36 523.52 398.85 523.36 Q 397.31 522.87 395.86 522.36 C 391.69 520.90 387.50 521.38 383.58 523.36 Z"/>
  <path fill="#cfd4e8" d=" M 647.75 526.68 C 658.81 553.84 662.68 578.27 668.40 609.26 Q 669.40 614.66 667.55 618.11 Q 667.17 618.82 667.87 618.43 Q 669.74 617.37 669.85 615.74 Q 669.97 614.02 671.01 615.39 C 679.08 625.98 686.23 639.20 688.00 652.76 Q 688.71 658.21 686.17 661.99 A 2.02 2.01 -62.7 0 1 683.80 662.75 C 679.71 661.22 677.35 656.01 675.56 652.13 Q 673.70 648.12 670.08 644.29 Q 669.79 643.99 669.59 644.35 Q 669.48 644.53 669.63 644.78 Q 672.36 649.53 673.56 654.24 Q 677.66 670.43 671.70 685.99 Q 668.33 694.78 661.46 701.17 C 657.64 704.73 655.54 699.04 655.85 696.63 Q 656.57 691.05 655.83 685.44 Q 655.75 684.84 655.41 685.34 Q 655.07 685.85 655.04 686.46 C 654.93 688.94 652.69 691.99 651.03 694.01 Q 644.80 701.57 638.06 707.34 C 615.63 726.56 587.82 739.45 559.21 747.15 C 518.71 758.06 478.29 759.96 438.25 749.76 Q 433.50 748.55 423.24 745.17 C 409.96 740.80 397.35 735.07 384.27 729.00 Q 380.57 727.29 368.90 720.78 Q 352.89 711.85 343.46 703.31 Q 337.81 698.19 331.16 690.10 Q 326.32 684.20 324.12 678.29 L 324.34 674.68 Q 324.37 674.20 324.65 673.80 Q 325.67 672.35 325.99 670.53 Q 325.70 674.28 327.82 677.16 Q 332.89 684.03 338.48 691.00 Q 340.48 693.49 343.14 696.01 Q 344.88 697.65 346.47 699.33 Q 348.12 701.07 349.78 702.44 Q 357.06 708.44 359.79 710.13 Q 364.38 712.97 368.49 715.59 Q 372.43 718.11 375.87 719.94 C 381.82 723.13 387.78 726.36 393.92 728.93 C 404.58 733.40 414.47 736.48 426.48 738.44 Q 470.03 745.54 509.21 739.76 Q 529.07 736.83 551.51 728.30 Q 575.17 719.30 594.29 704.34 C 605.59 695.49 613.91 686.13 619.20 673.48 Q 620.44 670.52 621.17 666.12 Q 623.66 651.02 611.41 642.21 L 618.09 638.33 Q 618.56 638.06 618.86 637.59 Q 619.89 636.02 621.54 635.09 Q 622.02 634.81 622.26 634.31 Q 622.64 633.53 623.31 632.90 Q 623.90 632.36 624.87 632.24 Q 626.27 632.07 627.93 631.90 Q 641.06 629.79 650.56 623.81 Q 658.55 618.80 665.56 612.93 A 1.51 1.49 -28.4 0 0 666.04 611.34 Q 665.40 609.19 664.96 607.11 Q 662.18 594.13 659.87 580.99 C 658.38 572.53 656.30 563.89 654.44 555.26 Q 652.48 546.16 646.52 527.68 A 0.74 0.73 63.5 0 1 646.79 526.86 Q 647.20 526.57 647.75 526.68 Z"/>
  <path fill="#461103" d=" M 572.32 635.10 Q 577.42 627.92 579.27 620.60 Q 580.92 614.03 581.10 607.30 Q 581.71 595.08 578.35 583.41 C 574.88 571.38 565.85 557.91 553.21 555.40 Q 538.55 552.49 528.82 564.08 Q 524.50 569.23 521.83 575.53 C 514.10 593.48 512.88 616.49 524.46 633.28 Q 525.97 635.48 528.06 637.37 Q 527.28 637.97 527.76 638.34 Q 524.30 636.09 522.73 634.04 C 513.16 621.54 511.41 606.07 512.83 590.57 C 513.88 579.06 517.66 567.49 525.41 558.81 Q 530.17 553.46 535.32 550.97 C 553.76 542.05 571.16 552.80 579.27 569.71 Q 586.19 584.16 585.38 601.90 Q 584.80 614.73 579.30 626.50 Q 576.93 631.56 572.32 635.10 Z"/>
  <path fill="#461103" d=" M 404.42 628.04 L 404.18 624.63 Q 404.15 624.15 403.86 623.75 Q 401.53 620.51 400.14 616.73 Q 399.90 616.07 400.22 615.44 Q 400.45 615.00 400.14 614.66 Q 399.66 614.15 399.03 614.46 Q 390.04 618.84 380.07 618.43 C 378.66 618.37 377.28 618.67 375.83 618.74 A 0.85 0.85 0.0 0 0 375.05 619.80 Q 375.73 622.47 374.83 624.58 C 366.91 612.13 366.06 596.71 368.02 582.50 Q 368.90 576.12 372.18 569.66 Q 374.34 565.70 378.83 561.84 Q 384.52 556.94 391.15 558.54 Q 392.67 558.91 394.06 559.08 Q 395.84 559.29 394.38 558.25 C 390.05 555.15 382.51 553.92 377.69 556.93 Q 369.14 562.26 365.25 572.29 Q 363.29 576.69 361.21 585.25 Q 357.81 599.23 360.41 612.07 C 361.58 617.83 363.86 624.60 368.13 628.42 Q 369.50 629.64 370.87 630.77 Q 363.41 628.23 359.79 618.25 C 352.77 598.92 353.61 574.79 367.11 558.25 C 373.60 550.30 383.96 545.39 393.52 550.51 C 403.54 555.87 408.35 569.56 410.16 580.36 Q 412.03 591.53 411.80 602.00 Q 411.60 611.09 409.30 618.50 Q 407.98 622.77 404.42 628.04 Z M 397.9000 565.3259 A 11.33 9.65 -22.6 0 0 383.7316 560.7710 A 11.33 9.65 -22.6 0 0 376.9800 574.0341 A 11.33 9.65 -22.6 0 0 391.1484 578.5890 A 11.33 9.65 -22.6 0 0 397.9000 565.3259 Z M 395.5996 607.7685 A 2.30 1.18 80.5 0 0 396.3838 605.3052 A 2.30 1.18 80.5 0 0 394.8404 603.2315 A 2.30 1.18 80.5 0 0 394.0562 605.6948 A 2.30 1.18 80.5 0 0 395.5996 607.7685 Z"/>
  <path fill="#e5d0d2" d=" M 581.10 607.30 Q 581.31 605.40 580.76 603.86 Q 580.60 603.39 580.10 603.41 Q 578.95 603.46 577.51 602.91 Q 575.83 602.26 574.44 604.04 Q 575.14 589.09 570.70 577.55 Q 567.75 569.87 561.27 564.18 C 551.61 555.71 538.96 558.19 532.34 568.84 Q 532.31 567.75 531.81 567.63 Q 530.93 567.42 530.18 567.93 Q 528.65 569.00 527.14 570.55 Q 526.80 570.90 526.32 571.01 Q 525.99 571.09 525.67 571.19 Q 525.16 571.36 524.75 571.81 Q 523.23 573.56 521.83 575.53 Q 524.50 569.23 528.82 564.08 Q 538.55 552.49 553.21 555.40 C 565.85 557.91 574.88 571.38 578.35 583.41 Q 581.71 595.08 581.10 607.30 Z"/>
  <path fill="#debcb7" d=" M 372.18 569.66 Q 370.29 567.66 365.25 572.29 Q 369.14 562.26 377.69 556.93 C 382.51 553.92 390.05 555.15 394.38 558.25 Q 395.84 559.29 394.06 559.08 Q 392.67 558.91 391.15 558.54 Q 384.52 556.94 378.83 561.84 Q 374.34 565.70 372.18 569.66 Z"/>
  <path fill="#461103" d=" M 574.44 604.04 C 573.70 613.22 571.76 621.59 566.92 629.52 L 565.82 631.07 Q 565.26 628.60 563.96 627.44 Q 562.67 626.30 562.64 626.26 Q 560.32 623.55 559.38 620.44 Q 558.86 618.72 557.30 619.62 Q 552.25 622.56 547.31 623.07 Q 542.13 623.60 533.16 622.16 Q 532.61 622.07 532.65 622.62 Q 532.77 624.77 533.41 625.48 Q 535.83 628.16 534.98 630.28 Q 528.77 622.30 526.84 612.85 C 524.00 598.96 524.54 581.20 532.34 568.84 C 538.96 558.19 551.61 555.71 561.27 564.18 Q 567.75 569.87 570.70 577.55 Q 575.14 589.09 574.44 604.04 Z M 557.6101 567.0603 A 11.71 9.71 -21.7 0 0 543.1398 562.3681 A 11.71 9.71 -21.7 0 0 535.8499 575.7197 A 11.71 9.71 -21.7 0 0 550.3202 580.4119 A 11.71 9.71 -21.7 0 0 557.6101 567.0603 Z M 553.8670 610.6052 A 2.32 1.41 64.0 0 0 554.1173 607.9019 A 2.32 1.41 64.0 0 0 551.8330 606.4348 A 2.32 1.41 64.0 0 0 551.5827 609.1381 A 2.32 1.41 64.0 0 0 553.8670 610.6052 Z M 540.7735 612.5336 A 1.53 0.96 81.6 0 0 541.4997 610.8798 A 1.53 0.96 81.6 0 0 540.3265 609.5064 A 1.53 0.96 81.6 0 0 539.6003 611.1602 A 1.53 0.96 81.6 0 0 540.7735 612.5336 Z"/>
  <ellipse fill="#fdfffe" cx="0.00" cy="0.00" transform="translate(387.44,569.68) rotate(-22.6)" rx="11.33" ry="9.65"/>
  <ellipse fill="#fdfffe" cx="0.00" cy="0.00" transform="translate(546.73,571.39) rotate(-21.7)" rx="11.71" ry="9.71"/>
  <path fill="#fdfffe" d=" M 532.34 568.84 C 524.54 581.20 524.00 598.96 526.84 612.85 Q 528.77 622.30 534.98 630.28 Q 537.20 633.49 540.50 636.07 Q 542.42 637.58 539.98 637.72 L 530.37 638.28 Q 529.87 638.31 529.42 638.08 L 528.06 637.37 Q 525.97 635.48 524.46 633.28 C 512.88 616.49 514.10 593.48 521.83 575.53 Q 523.23 573.56 524.75 571.81 Q 525.16 571.36 525.67 571.19 Q 525.99 571.09 526.32 571.01 Q 526.80 570.90 527.14 570.55 Q 528.65 569.00 530.18 567.93 Q 530.93 567.42 531.81 567.63 Q 532.31 567.75 532.34 568.84 Z"/>
  <path fill="#fdfffe" d=" M 372.18 569.66 Q 368.90 576.12 368.02 582.50 C 366.06 596.71 366.91 612.13 374.83 624.58 L 379.30 630.26 L 379.33 631.41 Q 379.35 631.91 378.85 631.84 L 370.87 630.77 Q 369.50 629.64 368.13 628.42 C 363.86 624.60 361.58 617.83 360.41 612.07 Q 357.81 599.23 361.21 585.25 Q 363.29 576.69 365.25 572.29 Q 370.29 567.66 372.18 569.66 Z"/>
  <path fill="#a2a2b0" d=" M 330.70 603.06 L 331.12 606.49 Q 331.01 607.83 329.85 608.43 Q 330.01 605.97 328.46 605.31 Q 330.01 605.22 330.70 603.06 Z"/>
  <ellipse fill="#c28364" cx="0.00" cy="0.00" transform="translate(395.22,605.50) rotate(80.5)" rx="2.30" ry="1.18"/>
  <ellipse fill="#b77255" cx="0.00" cy="0.00" transform="translate(552.85,608.52) rotate(64.0)" rx="2.32" ry="1.41"/>
  <ellipse fill="#b77255" cx="0.00" cy="0.00" transform="translate(540.55,611.02) rotate(81.6)" rx="1.53" ry="0.96"/>
  <path fill="#9e623f" d=" M 404.42 628.04 Q 401.56 631.67 397.24 632.75 Q 391.81 634.09 385.43 633.07 Q 383.87 632.82 382.27 631.91 Q 380.80 631.07 379.30 630.26 L 374.83 624.58 Q 375.73 622.47 375.05 619.80 A 0.85 0.85 0.0 0 1 375.83 618.74 C 377.28 618.67 378.66 618.37 380.07 618.43 Q 390.04 618.84 399.03 614.46 Q 399.66 614.15 400.14 614.66 Q 400.45 615.00 400.22 615.44 Q 399.90 616.07 400.14 616.73 Q 401.53 620.51 403.86 623.75 Q 404.15 624.15 404.18 624.63 L 404.42 628.04 Z M 385.7113 632.1016 A 3.29 0.80 36.6 0 0 383.5470 629.4977 A 3.29 0.80 36.6 0 0 380.4287 628.1784 A 3.29 0.80 36.6 0 0 382.5930 630.7823 A 3.29 0.80 36.6 0 0 385.7113 632.1016 Z"/>
  <path fill="#9e623f" d=" M 565.82 631.07 Q 564.03 633.82 560.79 635.69 Q 558.56 636.97 554.93 637.68 Q 551.87 638.27 548.75 638.67 Q 548.33 638.72 547.97 638.91 Q 547.54 639.13 547.05 639.16 Q 536.86 639.67 527.76 638.34 Q 527.28 637.97 528.06 637.37 L 529.42 638.08 Q 529.87 638.31 530.37 638.28 L 539.98 637.72 Q 542.42 637.58 540.50 636.07 Q 537.20 633.49 534.98 630.28 Q 535.83 628.16 533.41 625.48 Q 532.77 624.77 532.65 622.62 Q 532.61 622.07 533.16 622.16 Q 542.13 623.60 547.31 623.07 Q 552.25 622.56 557.30 619.62 Q 558.86 618.72 559.38 620.44 Q 560.32 623.55 562.64 626.26 Q 562.67 626.30 563.96 627.44 Q 565.26 628.60 565.82 631.07 Z"/>
  <path fill="#461103" d=" M 446.95 647.74 L 440.53 648.84 Q 440.08 648.91 440.13 649.37 C 440.54 653.24 440.73 657.61 443.30 660.62 C 450.54 669.10 464.96 669.46 474.62 666.32 Q 478.67 665.01 482.68 661.90 C 486.04 659.29 482.90 656.62 480.17 655.99 Q 480.30 654.15 483.11 655.16 C 486.46 656.38 488.24 659.13 486.15 662.43 C 484.45 665.11 482.18 666.31 478.82 668.32 Q 478.08 668.76 477.69 670.78 Q 475.44 682.55 474.32 694.49 C 473.47 703.62 471.40 721.60 459.39 722.46 C 453.16 722.91 448.06 718.47 444.95 713.27 Q 441.50 707.52 440.17 702.58 L 428.80 666.25 Q 428.57 665.52 427.81 665.45 L 423.48 665.05 Q 418.40 663.59 415.44 659.69 A 2.77 2.75 -62.4 0 1 414.88 657.88 L 415.00 655.86 A 0.63 0.63 0.0 0 1 416.14 655.53 Q 420.16 661.18 422.67 661.32 L 424.75 662.29 Q 427.63 663.33 430.89 662.22 Q 437.38 661.42 438.11 655.75 Q 438.52 652.63 437.58 649.33 Q 434.24 648.12 432.53 647.19 Q 425.73 643.45 422.70 636.34 C 420.13 630.29 424.71 626.19 430.16 625.12 C 438.64 623.46 451.52 623.09 459.00 628.27 C 463.18 631.15 462.18 636.17 459.26 639.50 Q 454.22 645.25 446.95 647.74 Z M 433.82 626.70 Q 428.28 626.74 424.82 631.15 Q 423.46 633.66 425.61 637.21 Q 433.85 650.86 448.84 644.36 C 453.22 642.45 458.95 638.90 458.81 633.68 Q 458.77 631.96 457.44 630.67 Q 455.98 629.27 454.51 628.70 Q 445.03 625.00 433.82 626.70 Z M 441.55 694.11 Q 442.72 705.84 449.83 714.17 Q 450.89 715.41 452.39 716.57 Q 453.86 717.70 455.28 718.50 Q 456.82 719.36 458.88 719.38 C 463.89 719.42 468.13 711.10 469.07 706.99 Q 470.87 699.10 471.46 690.96 L 474.17 670.70 A 0.68 0.68 0.0 0 0 473.34 669.95 C 469.08 670.92 464.13 672.15 460.87 674.71 Q 456.19 678.37 455.48 684.33 Q 453.87 685.95 453.37 684.35 C 453.12 683.57 453.49 682.76 453.38 681.88 Q 453.21 680.57 453.38 680.12 Q 453.64 679.42 454.19 678.91 Q 454.75 678.40 455.14 677.84 Q 457.50 674.48 460.81 671.84 Q 461.29 671.45 460.77 671.13 Q 458.40 669.62 455.60 670.29 Q 455.13 670.41 454.67 670.26 L 449.76 668.67 Q 449.21 668.49 448.82 668.06 Q 448.27 667.45 447.51 667.10 Q 443.50 665.27 439.81 662.84 Q 439.35 662.54 438.81 662.57 Q 435.10 662.76 430.81 664.26 Q 429.69 664.65 430.09 665.77 C 430.65 667.30 431.49 668.76 432.00 670.42 Q 434.24 677.74 436.63 684.88 Q 437.50 687.46 438.14 691.01 Q 438.43 692.62 441.55 694.11 Z"/>
  <path fill="#f49692" d=" M 424.82 631.15 Q 429.27 632.04 435.25 632.48 Q 439.38 632.78 442.91 634.49 Q 444.74 635.39 446.39 635.50 Q 448.14 635.62 449.94 635.62 A 1.34 1.34 0.0 0 0 451.16 633.73 Q 448.85 628.55 442.49 628.42 Q 441.07 628.39 439.67 628.38 Q 439.19 628.37 438.95 627.96 Q 438.69 627.52 438.25 627.38 Q 436.26 626.74 433.82 626.70 Q 445.03 625.00 454.51 628.70 Q 455.98 629.27 457.44 630.67 Q 458.77 631.96 458.81 633.68 C 458.95 638.90 453.22 642.45 448.84 644.36 Q 433.85 650.86 425.61 637.21 Q 423.46 633.66 424.82 631.15 Z"/>
  <path fill="#fbdee1" d=" M 433.82 626.70 Q 436.26 626.74 438.25 627.38 Q 438.69 627.52 438.95 627.96 Q 439.19 628.37 439.67 628.38 Q 441.07 628.39 442.49 628.42 Q 448.85 628.55 451.16 633.73 A 1.34 1.34 0.0 0 1 449.94 635.62 Q 448.14 635.62 446.39 635.50 Q 444.74 635.39 442.91 634.49 Q 439.38 632.78 435.25 632.48 Q 429.27 632.04 424.82 631.15 Q 428.28 626.74 433.82 626.70 Z"/>
  <ellipse fill="#debcb7" cx="0.00" cy="0.00" transform="translate(383.07,630.14) rotate(36.6)" rx="3.29" ry="0.80"/>
  <path fill="#c8ccd1" d=" M 446.95 647.74 Q 443.80 651.65 445.30 656.54 Q 445.89 658.46 447.82 659.62 Q 455.90 664.50 465.27 663.62 C 471.01 663.08 476.39 661.89 479.96 657.53 Q 480.57 656.79 480.17 655.99 C 482.90 656.62 486.04 659.29 482.68 661.90 Q 478.67 665.01 474.62 666.32 C 464.96 669.46 450.54 669.10 443.30 660.62 C 440.73 657.61 440.54 653.24 440.13 649.37 Q 440.08 648.91 440.53 648.84 L 446.95 647.74 Z"/>
  <path fill="#e5d0d2" d=" M 437.58 649.33 Q 438.52 652.63 438.11 655.75 Q 437.38 661.42 430.89 662.22 L 424.75 662.29 L 422.67 661.32 Q 425.23 661.32 427.76 661.57 Q 429.65 661.77 431.14 660.51 Q 432.04 659.75 432.91 657.69 Q 434.75 653.28 437.58 649.33 Z"/>
  <path fill="#9e623f" d=" M 424.75 662.29 L 430.89 662.22 Q 427.63 663.33 424.75 662.29 Z"/>
  <path fill="#801b08" d=" M 455.48 684.33 L 454.96 687.42 L 453.44 693.55 A 0.98 0.98 0.0 0 1 452.71 694.28 L 452.45 694.35 A 0.25 0.25 0.0 0 1 452.14 694.12 Q 451.71 688.34 452.89 683.22 A 0.79 0.79 0.0 0 0 452.02 682.25 Q 446.18 683.00 443.38 688.33 Q 441.75 691.43 441.55 694.11 Q 438.43 692.62 438.14 691.01 Q 437.50 687.46 436.63 684.88 Q 434.24 677.74 432.00 670.42 C 431.49 668.76 430.65 667.30 430.09 665.77 Q 429.69 664.65 430.81 664.26 Q 435.10 662.76 438.81 662.57 Q 439.35 662.54 439.81 662.84 Q 443.50 665.27 447.51 667.10 Q 448.27 667.45 448.82 668.06 Q 449.21 668.49 449.76 668.67 L 454.67 670.26 Q 455.13 670.41 455.60 670.29 Q 458.40 669.62 460.77 671.13 Q 461.29 671.45 460.81 671.84 Q 457.50 674.48 455.14 677.84 Q 454.75 678.40 454.19 678.91 Q 453.64 679.42 453.38 680.12 Q 453.21 680.57 453.38 681.88 C 453.49 682.76 453.12 683.57 453.37 684.35 Q 453.87 685.95 455.48 684.33 Z"/>
  <path fill="#e5d0d2" d=" M 423.48 665.05 L 427.81 665.45 Q 428.57 665.52 428.80 666.25 L 440.17 702.58 Q 437.08 698.91 436.12 697.13 Q 427.83 681.73 423.48 665.05 Z"/>
  <path fill="#a2a2b0" d=" M 325.99 670.53 Q 325.67 672.35 324.65 673.80 Q 324.37 674.20 324.34 674.68 L 324.12 678.29 Q 324.60 674.42 323.31 673.49 L 324.61 669.58 Q 324.80 668.80 325.24 668.50 Q 325.74 668.17 325.98 668.72 Q 326.29 669.43 325.99 670.53 Z"/>
  <path fill="#c7abb5" d=" M 324.61 669.58 L 323.31 673.49 Q 320.70 679.42 319.40 687.20 Q 319.65 685.06 318.93 684.24 Q 318.61 683.88 318.55 683.40 Q 318.25 681.18 318.64 679.50 Q 319.49 675.90 320.66 672.33 A 2.49 2.48 8.6 0 1 322.98 670.62 Q 323.34 670.61 324.61 669.58 Z"/>
  <path fill="#b43a2a" d=" M 471.46 690.96 L 471.33 682.65 A 1.52 1.50 -87.0 0 0 470.01 681.17 Q 463.54 680.35 457.75 684.18 Q 456.73 684.86 454.96 687.42 L 455.48 684.33 Q 456.19 678.37 460.87 674.71 C 464.13 672.15 469.08 670.92 473.34 669.95 A 0.68 0.68 0.0 0 1 474.17 670.70 L 471.46 690.96 Z"/>
  <path fill="#f198a4" d=" M 471.46 690.96 Q 470.87 699.10 469.07 706.99 C 468.13 711.10 463.89 719.42 458.88 719.38 Q 456.82 719.36 455.28 718.50 Q 453.86 717.70 452.39 716.57 Q 450.89 715.41 449.83 714.17 Q 442.72 705.84 441.55 694.11 Q 441.75 691.43 443.38 688.33 Q 446.18 683.00 452.02 682.25 A 0.79 0.79 0.0 0 1 452.89 683.22 Q 451.71 688.34 452.14 694.12 A 0.25 0.25 0.0 0 0 452.45 694.35 L 452.71 694.28 A 0.98 0.98 0.0 0 0 453.44 693.55 L 454.96 687.42 Q 456.73 684.86 457.75 684.18 Q 463.54 680.35 470.01 681.17 A 1.52 1.50 -87.0 0 1 471.33 682.65 L 471.46 690.96 Z"/>
  <path fill="#a2a2b0" d=" M 605.12 763.92 Q 606.12 768.33 608.64 772.62 C 610.91 776.48 613.36 781.40 616.33 785.61 Q 621.71 793.23 624.19 797.52 Q 625.58 799.92 626.84 799.50 Q 631.30 805.60 634.62 811.81 Q 635.26 812.99 634.27 812.08 C 627.09 805.45 619.09 800.08 609.50 797.01 C 603.12 794.96 597.17 795.27 590.25 796.43 Q 583.78 797.53 578.79 800.03 Q 578.24 800.31 578.33 799.70 L 579.54 791.77 Q 579.63 791.21 579.08 791.38 Q 578.61 791.53 578.38 792.23 Q 577.13 796.01 575.77 798.21 Q 572.86 800.65 571.79 804.35 Q 566.35 823.12 562.57 834.55 Q 561.81 836.85 561.31 839.04 A 0.40 0.40 0.0 0 1 560.68 839.27 C 555.96 835.79 550.56 833.48 545.27 831.04 Q 545.24 831.02 545.23 831.00 Q 545.19 830.88 545.15 830.76 Q 544.87 830.41 544.77 830.13 Q 544.67 829.84 544.89 829.45 Q 547.36 824.98 554.98 812.25 C 564.28 796.72 568.34 776.83 568.22 758.45 Q 568.22 757.93 567.76 757.70 Q 566.56 757.08 564.75 757.38 Q 560.36 758.11 556.02 759.18 L 551.10 761.01 L 540.55 764.42 Q 540.07 764.57 539.79 764.98 L 537.06 768.88 L 537.08 756.93 A 0.45 0.43 -4.7 0 1 537.46 756.50 Q 556.32 753.44 573.99 747.97 Q 581.89 745.52 589.33 741.83 A 1.96 1.96 0.0 0 1 591.87 742.55 L 605.12 763.92 Z"/>
  <path fill="#cfd4e8" d=" M 518.25 787.28 Q 519.81 788.91 521.03 789.13 Q 522.59 789.43 523.19 787.76 Q 524.98 782.86 524.75 777.68 Q 524.65 775.45 522.41 775.51 Q 513.85 775.74 504.65 775.08 C 484.90 773.66 465.95 771.72 446.49 767.55 Q 438.56 765.85 427.94 762.05 Q 424.32 760.76 422.60 759.87 Q 422.16 759.64 422.03 759.16 L 421.41 756.85 Q 422.24 755.96 422.25 755.02 A 0.58 0.58 0.0 0 0 421.34 754.54 Q 419.52 755.78 417.47 756.06 Q 415.22 756.36 416.15 754.29 L 418.41 749.24 Q 418.60 748.80 419.06 748.95 Q 435.99 754.29 449.50 756.97 Q 475.24 762.07 502.66 760.84 C 512.71 760.39 523.19 758.80 533.54 757.16 A 0.54 0.54 0.0 0 1 534.16 757.62 Q 535.26 765.43 533.16 772.93 Q 533.00 773.52 532.63 773.03 Q 529.04 768.25 524.91 764.33 A 0.17 0.07 -26.0 0 0 524.75 764.34 L 524.60 764.40 Q 524.48 764.46 524.54 764.53 C 528.63 769.62 532.64 774.38 530.62 781.48 Q 528.40 789.27 523.20 795.01 Q 522.77 795.50 522.34 795.01 Q 519.29 791.53 518.25 787.28 Z"/>
  <path fill="#c28364" d=" M 413.50 755.36 Q 413.43 751.63 412.32 752.20 L 413.67 749.37 Q 413.90 748.89 414.21 749.33 Q 414.41 749.61 414.22 750.26 Q 413.33 753.20 413.50 755.36 Z"/>
  <path fill="#cfd4e8" d=" M 412.32 752.20 Q 413.43 751.63 413.50 755.36 Q 414.87 760.60 412.26 767.75 Q 411.63 770.31 411.94 773.00 Q 411.98 773.32 411.67 773.40 Q 411.40 773.46 411.35 773.74 Q 410.81 777.09 412.19 780.18 C 412.76 783.97 413.84 787.34 416.86 789.79 Q 417.22 790.09 417.24 790.55 C 417.69 804.94 422.42 817.48 433.84 826.63 Q 435.16 827.68 436.61 827.46 Q 437.09 827.39 437.31 827.82 Q 438.71 830.73 439.65 833.79 C 445.76 853.70 452.21 868.19 462.58 891.81 Q 462.79 892.27 462.45 892.65 C 454.47 901.69 449.72 910.42 451.80 922.99 Q 452.13 925.00 452.45 927.01 Q 452.53 927.50 452.13 927.80 C 446.75 931.72 439.59 933.26 434.05 929.33 Q 431.33 927.40 429.43 923.44 Q 426.94 918.24 426.37 913.13 Q 434.48 914.31 441.65 908.65 Q 446.12 905.13 449.18 901.35 C 452.01 897.86 455.01 891.20 451.56 887.22 Q 449.84 885.23 447.75 883.50 Q 446.44 882.41 446.83 881.07 Q 448.26 876.16 447.96 871.46 Q 447.73 867.91 445.57 862.26 C 442.70 854.75 438.96 848.25 435.41 841.40 Q 432.45 835.68 429.69 831.25 Q 426.81 826.61 423.83 821.22 Q 422.46 818.74 420.30 818.66 Q 412.62 818.38 403.87 819.38 A 0.98 0.97 87.1 0 1 402.79 818.40 Q 403.10 796.97 407.42 776.39 C 407.70 775.07 408.39 773.40 408.52 771.79 Q 408.65 770.11 409.18 768.52 Q 409.95 766.23 409.52 763.74 A 0.74 0.73 84.4 0 0 408.79 763.13 L 408.38 763.14 Q 407.75 763.15 407.88 763.77 Q 408.11 764.80 407.19 764.90 L 412.32 752.20 Z"/>
  <path fill="#fdfffe" d=" M 421.41 756.85 L 422.03 759.16 Q 422.16 759.64 422.60 759.87 Q 424.32 760.76 427.94 762.05 Q 438.56 765.85 446.49 767.55 C 465.95 771.72 484.90 773.66 504.65 775.08 Q 513.85 775.74 522.41 775.51 Q 524.65 775.45 524.75 777.68 Q 524.98 782.86 523.19 787.76 Q 522.59 789.43 521.03 789.13 Q 519.81 788.91 518.25 787.28 L 516.37 783.15 Q 516.59 781.43 515.54 778.90 Q 515.47 778.73 515.35 778.67 Q 515.21 778.59 515.03 778.62 Q 514.76 778.65 514.77 778.92 Q 514.91 782.24 513.94 786.21 Q 511.60 795.74 507.17 801.49 Q 504.00 805.59 498.66 808.04 Q 497.93 808.37 497.95 807.58 Q 498.03 804.42 497.10 801.78 Q 495.87 798.28 495.33 801.95 C 494.60 806.98 492.41 810.88 488.44 814.26 Q 485.06 817.15 482.10 820.80 Q 480.49 822.78 480.27 820.24 Q 480.23 819.81 480.48 818.25 Q 480.96 815.31 481.04 812.13 Q 481.19 806.50 478.86 811.63 C 477.07 815.57 472.78 819.00 469.68 821.98 C 468.29 823.31 467.67 825.02 466.56 826.60 Q 466.15 827.19 465.97 826.50 L 465.04 822.74 Q 464.89 822.15 464.41 822.53 Q 463.86 822.97 464.15 824.05 Q 465.12 827.72 463.80 830.90 C 463.13 832.52 461.56 833.08 460.09 833.73 A 2.00 1.99 52.9 0 1 457.99 833.43 Q 456.35 832.03 454.39 831.06 Q 453.94 830.84 453.45 830.89 Q 452.19 831.01 450.98 830.54 Q 450.03 827.74 449.64 824.75 Q 449.62 824.58 449.49 824.56 Q 449.37 824.54 449.36 824.67 Q 448.81 830.87 450.74 836.36 Q 451.18 837.60 450.08 836.88 C 444.83 833.44 441.61 829.46 437.62 823.08 Q 433.44 816.39 432.78 808.49 Q 432.45 804.44 432.21 801.00 Q 432.13 799.78 431.84 800.97 Q 429.52 810.79 432.39 819.87 Q 433.29 822.71 436.69 824.89 Q 436.89 825.02 436.73 825.19 L 436.52 825.41 Q 436.50 825.43 436.48 825.43 Q 435.97 825.22 434.58 823.93 Q 429.45 819.11 426.71 813.81 Q 417.10 795.26 422.92 776.29 Q 424.05 772.62 422.01 775.87 Q 419.56 779.76 417.88 784.77 Q 417.23 786.71 416.63 784.75 C 414.73 778.62 414.81 772.66 416.50 766.35 Q 417.74 761.74 418.63 759.67 Q 419.04 758.71 421.41 756.85 Z"/>
  <path fill="#c8ccd1" d=" M 545.15 830.76 Q 544.58 830.83 543.60 830.19 Q 541.45 829.82 536.93 828.60 Q 524.44 825.25 509.00 826.97 Q 507.80 827.11 505.42 825.84 Q 512.89 808.11 515.17 802.99 Q 517.27 798.26 518.26 794.19 Q 518.40 793.64 518.78 794.05 L 521.65 797.15 A 2.22 2.22 0.0 0 0 524.82 797.24 Q 526.23 795.88 527.52 793.77 Q 530.47 788.95 532.22 783.57 Q 534.69 776.03 537.06 768.88 L 539.79 764.98 Q 540.07 764.57 540.55 764.42 L 551.10 761.01 Q 549.07 766.91 550.71 772.47 Q 551.14 773.94 552.63 773.87 Q 556.97 773.67 557.75 769.85 Q 558.45 766.41 556.98 763.09 C 556.60 762.23 556.82 761.35 557.18 760.57 Q 557.39 760.11 557.08 759.71 Q 556.73 759.25 556.02 759.18 Q 560.36 758.11 564.75 757.38 Q 566.56 757.08 567.76 757.70 Q 568.22 757.93 568.22 758.45 C 568.34 776.83 564.28 796.72 554.98 812.25 Q 547.36 824.98 544.89 829.45 Q 544.67 829.84 544.77 830.13 Q 544.87 830.41 545.15 830.76 Z"/>
  <path fill="#dcdbdf" d=" M 556.02 759.18 Q 556.73 759.25 557.08 759.71 Q 557.39 760.11 557.18 760.57 C 556.82 761.35 556.60 762.23 556.98 763.09 Q 558.45 766.41 557.75 769.85 Q 556.97 773.67 552.63 773.87 Q 551.14 773.94 550.71 772.47 Q 549.07 766.91 551.10 761.01 L 556.02 759.18 Z"/>
  <path fill="#fdfffe" d=" M 426.37 913.13 Q 425.48 906.69 426.85 900.38 Q 426.89 900.18 426.70 900.12 L 426.41 900.03 Q 426.40 900.03 426.40 900.04 L 424.14 906.37 Q 419.87 913.04 417.00 919.99 C 415.18 924.41 409.46 923.69 405.90 921.96 Q 400.81 908.86 407.66 896.65 Q 407.73 896.52 407.60 896.43 L 407.60 896.43 Q 407.47 896.34 407.38 896.47 Q 401.36 904.11 401.92 914.00 Q 401.80 915.71 400.70 916.58 Q 400.29 916.90 399.79 916.79 Q 398.98 916.61 397.63 916.11 Q 391.87 913.99 390.32 910.81 Q 389.12 905.12 391.50 899.27 Q 394.83 891.05 400.39 886.00 C 401.12 885.33 402.17 885.03 403.05 884.53 Q 403.48 884.29 403.30 883.82 C 403.03 883.15 402.69 882.78 402.61 882.03 C 400.06 858.85 397.84 835.75 398.40 812.39 Q 399.01 786.61 407.19 764.90 Q 408.11 764.80 407.88 763.77 Q 407.75 763.15 408.38 763.14 L 408.79 763.13 A 0.74 0.73 84.4 0 1 409.52 763.74 Q 409.95 766.23 409.18 768.52 Q 408.65 770.11 408.52 771.79 C 408.39 773.40 407.70 775.07 407.42 776.39 Q 403.10 796.97 402.79 818.40 A 0.98 0.97 87.1 0 0 403.87 819.38 Q 412.62 818.38 420.30 818.66 Q 422.46 818.74 423.83 821.22 Q 426.81 826.61 429.69 831.25 Q 432.45 835.68 435.41 841.40 C 438.96 848.25 442.70 854.75 445.57 862.26 Q 447.73 867.91 447.96 871.46 Q 448.26 876.16 446.83 881.07 Q 446.44 882.41 447.75 883.50 Q 449.84 885.23 451.56 887.22 C 455.01 891.20 452.01 897.86 449.18 901.35 Q 446.12 905.13 441.65 908.65 Q 434.48 914.31 426.37 913.13 Z"/>
  <path fill="#dcdbdf" d=" M 605.12 763.92 L 626.84 799.50 Q 625.58 799.92 624.19 797.52 Q 621.71 793.23 616.33 785.61 C 613.36 781.40 610.91 776.48 608.64 772.62 Q 606.12 768.33 605.12 763.92 Z"/>
  <path fill="#a2a2b0" d=" M 412.26 767.75 Q 412.75 769.55 412.55 771.44 Q 412.26 774.17 412.28 775.07 Q 412.35 777.64 412.19 780.18 Q 410.81 777.09 411.35 773.74 Q 411.40 773.46 411.67 773.40 Q 411.98 773.32 411.94 773.00 Q 411.63 770.31 412.26 767.75 Z"/>
  <path fill="#cfd4e8" d=" M 516.37 783.15 Q 517.52 790.76 515.06 797.51 Q 513.98 800.47 508.91 811.63 Q 505.12 819.99 499.36 827.13 Q 496.88 830.19 493.53 831.67 A 0.48 0.48 0.0 0 1 492.88 831.08 Q 494.51 825.81 495.81 821.28 Q 496.50 818.91 496.15 816.10 Q 495.91 814.11 495.36 816.04 Q 494.40 819.43 492.31 823.83 C 489.88 828.92 483.63 830.18 479.96 834.20 Q 479.51 834.70 479.44 834.03 Q 479.25 832.01 479.48 830.31 Q 479.50 830.21 479.40 830.23 L 479.10 830.29 Q 479.00 830.31 478.99 830.40 Q 478.09 836.00 478.60 839.84 Q 478.65 840.21 478.85 840.49 Q 480.03 842.10 478.23 841.24 C 474.42 839.40 472.98 836.70 470.17 833.78 C 468.95 832.51 467.15 831.77 466.56 829.87 A 0.05 0.05 0.0 0 0 466.48 829.84 L 466.24 829.99 Q 466.08 830.10 466.19 830.26 Q 467.91 832.76 468.34 835.38 Q 469.34 841.57 470.11 848.61 A 0.33 0.33 0.0 0 1 469.58 848.91 Q 466.27 846.35 462.56 844.70 Q 460.52 843.79 455.53 838.98 Q 452.59 836.14 450.98 830.54 Q 452.19 831.01 453.45 830.89 Q 453.94 830.84 454.39 831.06 Q 456.35 832.03 457.99 833.43 A 2.00 1.99 52.9 0 0 460.09 833.73 C 461.56 833.08 463.13 832.52 463.80 830.90 Q 465.12 827.72 464.15 824.05 Q 463.86 822.97 464.41 822.53 Q 464.89 822.15 465.04 822.74 L 465.97 826.50 Q 466.15 827.19 466.56 826.60 C 467.67 825.02 468.29 823.31 469.68 821.98 C 472.78 819.00 477.07 815.57 478.86 811.63 Q 481.19 806.50 481.04 812.13 Q 480.96 815.31 480.48 818.25 Q 480.23 819.81 480.27 820.24 Q 480.49 822.78 482.10 820.80 Q 485.06 817.15 488.44 814.26 C 492.41 810.88 494.60 806.98 495.33 801.95 Q 495.87 798.28 497.10 801.78 Q 498.03 804.42 497.95 807.58 Q 497.93 808.37 498.66 808.04 Q 504.00 805.59 507.17 801.49 Q 511.60 795.74 513.94 786.21 Q 514.91 782.24 514.77 778.92 Q 514.76 778.65 515.03 778.62 Q 515.21 778.59 515.35 778.67 Q 515.47 778.73 515.54 778.90 Q 516.59 781.43 516.37 783.15 Z"/>
  <path fill="#fdfffe" d=" M 669.62 802.74 L 669.09 805.48 Q 668.99 805.97 668.65 806.33 Q 662.32 813.09 653.30 817.76 C 651.23 818.83 650.02 817.66 649.05 815.98 Q 643.44 806.20 636.35 797.42 Q 634.48 795.11 632.20 793.21 Q 631.80 792.88 631.28 792.88 L 629.89 792.88 Q 629.40 792.88 629.23 792.42 Q 628.65 790.83 627.33 790.75 L 623.58 784.21 Q 623.32 783.76 623.83 783.67 Q 637.99 781.21 645.26 793.32 Q 645.67 794.01 646.02 793.29 Q 647.53 790.18 651.81 789.79 C 660.39 788.99 668.12 794.36 669.62 802.74 Z"/>
  <path fill="#cfd4e8" d=" M 627.33 790.75 Q 628.65 790.83 629.23 792.42 Q 629.40 792.88 629.89 792.88 L 631.28 792.88 Q 631.80 792.88 632.20 793.21 Q 634.48 795.11 636.35 797.42 Q 643.44 806.20 649.05 815.98 C 650.02 817.66 651.23 818.83 653.30 817.76 Q 662.32 813.09 668.65 806.33 Q 668.99 805.97 669.09 805.48 L 669.62 802.74 C 670.09 805.95 669.70 812.07 667.16 814.40 Q 665.98 815.49 666.80 815.80 Q 666.06 816.47 665.70 817.31 Q 665.49 817.78 665.93 818.06 Q 667.14 818.83 668.49 819.53 Q 671.87 821.26 674.39 824.70 C 677.75 829.28 681.20 834.02 682.02 839.57 Q 682.97 845.96 681.31 851.42 C 680.08 855.48 676.83 857.50 674.32 860.90 Q 674.00 861.34 674.42 861.68 Q 674.68 861.89 675.04 861.86 Q 671.57 864.92 668.25 865.15 Q 665.88 865.32 667.88 866.59 Q 669.86 867.85 672.68 867.43 A 1.49 1.48 74.2 0 1 674.28 868.33 Q 675.12 870.36 674.64 873.42 Q 674.44 872.78 673.87 872.85 Q 673.53 872.89 673.22 873.29 C 670.03 877.46 667.45 880.44 662.82 882.74 Q 662.10 883.10 661.91 883.52 Q 661.59 884.27 662.44 884.89 Q 658.34 886.09 653.73 885.86 Q 652.88 885.82 653.07 884.98 Q 658.93 859.77 650.89 835.77 Q 649.66 832.08 646.01 824.51 C 643.64 819.58 641.48 814.09 639.07 809.66 Q 633.77 799.93 627.33 790.75 Z"/>
  <path fill="#c8ccd1" d=" M 615.73 802.96 Q 616.25 804.29 617.38 805.10 Q 617.78 805.38 617.93 805.85 Q 618.66 808.11 620.36 810.05 C 623.10 813.18 623.70 817.73 623.98 821.74 Q 624.56 830.32 618.24 837.33 Q 616.51 836.93 614.51 836.22 Q 612.92 835.65 611.20 834.32 C 606.38 830.58 601.64 827.70 595.26 827.93 Q 580.94 828.43 570.16 837.60 Q 569.78 837.92 569.92 837.45 Q 574.10 823.66 576.54 810.82 Q 585.67 809.38 594.09 806.75 C 596.99 805.85 599.51 804.41 602.61 803.89 Q 603.79 803.70 603.60 802.50 A 0.73 0.73 0.0 0 0 603.00 801.89 L 592.73 800.15 Q 592.25 800.07 591.80 800.24 Q 588.54 801.45 585.77 799.38 Q 602.08 793.68 615.73 802.96 Z"/>
  <path fill="#cfd4e8" d=" M 575.77 798.21 L 564.77 840.05 A 6.48 6.47 -15.7 0 1 563.16 842.91 C 560.44 845.73 557.52 848.62 555.17 851.83 Q 537.38 876.21 536.15 906.44 Q 535.99 910.30 535.90 914.50 Q 535.78 919.69 534.92 922.39 Q 532.08 931.31 524.03 936.02 C 516.43 940.48 501.89 944.35 495.63 935.82 Q 494.63 934.45 493.87 928.70 L 494.01 924.51 Q 493.98 926.57 495.05 927.65 Q 495.42 928.01 495.93 928.01 Q 507.41 927.92 515.52 920.32 C 520.12 916.01 520.33 910.85 521.07 904.46 C 521.39 901.65 522.20 899.41 523.07 896.81 Q 524.12 893.65 524.77 890.71 Q 529.66 868.36 536.22 850.31 Q 538.79 843.25 543.91 831.39 Q 544.21 830.68 543.60 830.19 Q 544.58 830.83 545.15 830.76 Q 545.19 830.88 545.23 831.00 Q 545.24 831.02 545.27 831.04 C 550.56 833.48 555.96 835.79 560.68 839.27 A 0.40 0.40 0.0 0 0 561.31 839.04 Q 561.81 836.85 562.57 834.55 Q 566.35 823.12 571.79 804.35 Q 572.86 800.65 575.77 798.21 Z"/>
  <path fill="#eeeaeb" d=" M 585.77 799.38 Q 588.54 801.45 591.80 800.24 Q 592.25 800.07 592.73 800.15 L 603.00 801.89 A 0.73 0.73 0.0 0 1 603.60 802.50 Q 603.79 803.70 602.61 803.89 C 599.51 804.41 596.99 805.85 594.09 806.75 Q 585.67 809.38 576.54 810.82 Q 577.33 807.47 577.66 805.49 C 578.28 801.89 582.67 800.19 585.77 799.38 Z"/>
  <path fill="#a2a2b0" d=" M 615.73 802.96 Q 630.19 810.98 638.19 822.83 Q 642.23 833.45 644.05 839.75 C 648.38 854.75 648.11 870.71 643.10 885.61 Q 640.92 892.10 639.48 894.46 Q 633.21 904.71 627.88 909.10 Q 624.55 911.84 621.24 914.76 Q 619.34 916.44 621.32 917.39 Q 617.82 919.66 614.20 920.52 Q 612.79 920.85 613.67 919.70 C 619.98 911.49 624.24 901.76 627.54 891.76 C 631.13 880.87 633.28 867.69 631.17 856.26 Q 628.89 843.94 618.24 837.33 Q 624.56 830.32 623.98 821.74 C 623.70 817.73 623.10 813.18 620.36 810.05 Q 618.66 808.11 617.93 805.85 Q 617.78 805.38 617.38 805.10 Q 616.25 804.29 615.73 802.96 Z"/>
  <path fill="#eeeaeb" d=" M 391.11 811.90 Q 392.26 809.95 393.15 808.14 Q 393.53 807.39 393.49 808.23 C 392.79 822.83 393.68 835.98 394.71 849.88 Q 394.82 851.29 394.13 850.05 C 393.08 848.14 392.23 846.03 390.98 844.24 Q 387.38 839.06 383.99 833.75 C 383.04 832.26 383.51 831.26 383.87 829.75 Q 386.05 820.55 391.11 811.90 Z"/>
  <path fill="#fdfffe" d=" M 362.84 819.31 Q 363.67 821.42 364.53 823.53 Q 365.37 825.57 367.07 827.15 C 371.43 831.20 374.51 836.28 378.05 841.16 Q 385.11 850.89 387.12 862.20 Q 388.07 867.48 387.52 874.05 Q 386.91 881.38 386.97 887.99 Q 386.98 889.52 388.11 890.97 Q 388.41 891.35 388.88 891.25 Q 389.64 891.09 390.33 891.78 Q 384.88 901.43 386.05 912.49 Q 386.37 915.56 388.04 921.92 Q 388.17 922.40 387.72 922.61 C 380.50 926.07 370.92 924.70 364.07 921.14 C 342.83 910.10 329.77 887.10 322.28 864.23 Q 317.47 849.54 319.71 834.60 Q 320.62 828.52 322.98 824.81 C 325.87 820.27 331.07 816.12 336.77 816.29 Q 337.35 816.31 337.12 816.84 Q 335.62 820.32 335.59 824.49 A 0.35 0.34 55.1 0 0 336.26 824.61 C 337.11 822.27 337.86 819.61 339.35 817.66 Q 340.60 816.02 342.55 815.45 C 349.61 813.41 356.69 815.67 362.84 819.31 Z M 340.49 843.93 C 341.77 846.89 344.00 850.78 347.50 850.98 C 350.94 851.18 356.59 850.22 358.34 846.76 C 362.34 838.83 352.43 824.55 343.41 831.15 Q 337.01 835.84 340.49 843.93 Z M 337.44 861.71 C 343.55 855.16 335.84 843.72 330.91 839.41 Q 329.47 838.15 327.32 838.55 A 1.70 1.66 14.5 0 0 326.36 839.10 C 322.37 843.74 323.05 850.62 324.82 856.00 Q 326.75 861.90 331.75 865.32 A 1.31 1.30 -44.5 0 0 333.20 865.33 Q 335.45 863.84 337.44 861.71 Z M 375.4017 917.0546 A 33.72 20.28 68.0 0 0 381.5733 878.1930 A 33.72 20.28 68.0 0 0 350.1383 854.5254 A 33.72 20.28 68.0 0 0 343.9667 893.3870 A 33.72 20.28 68.0 0 0 375.4017 917.0546 Z"/>
  <path fill="#fdfffe" d=" M 675.04 861.86 Q 674.68 861.89 674.42 861.68 Q 674.00 861.34 674.32 860.90 C 676.83 857.50 680.08 855.48 681.31 851.42 Q 682.97 845.96 682.02 839.57 C 681.20 834.02 677.75 829.28 674.39 824.70 Q 671.87 821.26 668.49 819.53 Q 667.14 818.83 665.93 818.06 Q 665.49 817.78 665.70 817.31 Q 666.06 816.47 666.80 815.80 C 670.69 814.26 675.81 817.66 678.33 820.44 Q 684.03 826.72 685.21 835.21 Q 687.51 851.69 675.04 861.86 Z"/>
  <path fill="#cfd4e8" d=" M 362.84 819.31 C 370.24 823.84 375.65 829.76 381.40 836.88 Q 388.74 845.96 393.43 856.79 Q 395.10 860.64 395.87 864.77 Q 397.51 873.54 398.03 882.25 A 1.62 1.61 64.2 0 1 397.62 883.45 L 390.33 891.78 Q 389.64 891.09 388.88 891.25 Q 388.41 891.35 388.11 890.97 Q 386.98 889.52 386.97 887.99 Q 386.91 881.38 387.52 874.05 Q 388.07 867.48 387.12 862.20 Q 385.11 850.89 378.05 841.16 C 374.51 836.28 371.43 831.20 367.07 827.15 Q 365.37 825.57 364.53 823.53 Q 363.67 821.42 362.84 819.31 Z"/>
  <path fill="#c8ccd1" d=" M 638.19 822.83 Q 644.83 831.84 647.53 843.25 Q 651.47 859.92 649.26 875.72 Q 645.34 903.81 621.32 917.39 Q 619.34 916.44 621.24 914.76 Q 624.55 911.84 627.88 909.10 Q 633.21 904.71 639.48 894.46 Q 640.92 892.10 643.10 885.61 C 648.11 870.71 648.38 854.75 644.05 839.75 Q 642.23 833.45 638.19 822.83 Z"/>
  <path fill="#fdfffe" d=" M 505.42 825.84 Q 507.80 827.11 509.00 826.97 Q 524.44 825.25 536.93 828.60 Q 541.45 829.82 543.60 830.19 Q 544.21 830.68 543.91 831.39 Q 538.79 843.25 536.22 850.31 Q 529.66 868.36 524.77 890.71 Q 524.12 893.65 523.07 896.81 C 522.20 899.41 521.39 901.65 521.07 904.46 C 520.33 910.85 520.12 916.01 515.52 920.32 Q 507.41 927.92 495.93 928.01 Q 495.42 928.01 495.05 927.65 Q 493.98 926.57 494.01 924.51 Q 493.57 920.40 494.30 917.24 Q 495.12 913.70 497.34 908.87 A 0.11 0.10 3.6 0 0 497.21 908.73 Q 497.09 908.76 496.97 908.79 Q 496.91 908.80 496.88 908.85 Q 493.64 913.37 492.19 918.67 Q 491.66 919.41 491.10 919.38 A 1.80 1.42 -77.3 0 0 489.57 920.62 C 488.33 924.29 487.27 928.15 484.85 931.23 Q 484.54 931.63 484.07 931.78 Q 481.40 932.62 478.74 932.02 C 476.48 931.50 474.64 929.43 472.50 928.16 Q 472.06 927.91 471.85 927.45 L 470.74 925.03 Q 468.83 914.13 474.19 905.93 Q 475.79 903.49 473.70 905.52 Q 470.01 909.12 468.81 914.70 L 465.25 923.48 Q 465.06 923.96 464.57 924.13 C 462.65 924.82 460.31 924.58 458.85 923.04 Q 458.54 922.71 458.16 922.53 Q 457.73 922.32 457.47 921.92 L 456.02 919.72 Q 454.98 913.62 457.69 907.26 Q 463.41 893.89 476.82 889.56 C 477.98 889.19 479.52 889.16 480.58 889.26 Q 483.64 889.55 480.99 888.04 L 480.07 887.51 Q 479.61 887.24 479.81 886.75 L 505.42 825.84 Z"/>
  <path fill="#cfd4e8" d=" M 493.84 841.79 Q 493.61 841.33 493.17 841.35 Q 492.70 841.36 492.55 841.81 Q 490.59 847.83 487.34 852.56 Q 486.50 853.78 485.00 853.79 C 480.29 853.81 477.05 855.65 473.09 857.50 A 2.32 2.31 -43.8 0 1 471.07 857.46 Q 464.71 854.17 458.32 850.97 C 454.94 849.27 451.74 848.71 448.97 845.22 Q 448.62 844.77 448.28 845.23 Q 448.03 845.56 448.12 846.23 L 444.86 837.51 Q 444.57 836.73 445.30 837.14 L 470.32 851.04 Q 471.75 851.83 471.74 850.20 Q 471.71 845.16 471.15 839.80 Q 471.07 839.02 471.67 839.53 C 473.91 841.42 477.04 843.90 479.84 844.71 A 1.19 1.19 0.0 0 0 481.36 843.55 L 481.24 837.05 A 2.90 2.89 76.1 0 1 482.82 834.42 Q 487.63 831.97 490.90 828.09 Q 491.79 827.02 491.53 828.39 Q 490.90 831.76 490.87 835.03 Q 490.84 839.15 492.87 835.57 Q 494.26 833.12 497.83 831.65 Q 498.54 831.36 498.22 832.06 L 493.84 841.79 Z"/>
  <path fill="#461103" d=" M 340.49 843.93 Q 337.01 835.84 343.41 831.15 C 352.43 824.55 362.34 838.83 358.34 846.76 C 356.59 850.22 350.94 851.18 347.50 850.98 C 344.00 850.78 341.77 846.89 340.49 843.93 Z M 353.6306 848.2848 A 9.36 7.27 59.5 0 0 355.1440 836.5302 A 9.36 7.27 59.5 0 0 344.1294 832.1552 A 9.36 7.27 59.5 0 0 342.6160 843.9098 A 9.36 7.27 59.5 0 0 353.6306 848.2848 Z"/>
  <ellipse fill="#fab8b6" cx="0.00" cy="0.00" transform="translate(348.88,840.22) rotate(59.5)" rx="9.36" ry="7.27"/>
  <path fill="#fdfffe" d=" M 603.20 833.69 Q 604.02 837.46 605.85 840.42 Q 606.11 840.84 606.16 841.33 Q 606.24 842.21 606.62 843.01 Q 606.75 843.28 607.05 843.25 Q 607.24 843.23 607.29 843.08 L 610.29 839.74 Q 610.63 839.36 611.12 839.45 Q 617.17 840.57 620.77 844.18 Q 617.20 853.30 610.49 857.53 L 608.27 857.59 Q 608.09 857.56 607.92 857.55 Q 607.76 857.54 607.58 857.62 Q 602.34 859.93 598.24 863.75 Q 597.57 864.06 597.08 864.05 Q 596.53 864.04 596.47 863.49 L 596.26 861.18 Q 598.62 855.73 596.12 850.80 C 592.29 843.22 584.52 845.77 580.24 850.89 Q 578.79 850.90 577.38 851.05 Q 576.00 851.19 574.84 852.11 Q 564.10 860.62 557.56 872.70 Q 557.32 873.14 557.39 873.63 L 557.82 877.02 Q 553.59 881.30 551.33 887.04 Q 549.33 892.12 547.79 896.94 L 545.09 899.66 A 0.75 0.75 0.0 0 1 544.29 899.82 Q 541.27 898.56 541.33 896.48 Q 544.65 873.61 556.67 856.67 Q 566.62 842.64 581.64 835.14 Q 592.25 829.83 603.20 833.69 Z"/>
  <path fill="#dcdbdf" d=" M 603.20 833.69 C 607.24 835.23 609.57 837.95 606.99 842.29 Q 606.83 842.57 606.88 842.73 Q 606.94 842.99 607.29 843.08 Q 607.24 843.23 607.05 843.25 Q 606.75 843.28 606.62 843.01 Q 606.24 842.21 606.16 841.33 Q 606.11 840.84 605.85 840.42 Q 604.02 837.46 603.20 833.69 Z"/>
  <path fill="#662a11" d=" M 330.91 839.41 C 335.84 843.72 343.55 855.16 337.44 861.71 Q 335.45 863.84 333.20 865.33 A 1.31 1.30 -44.5 0 1 331.75 865.32 Q 326.75 861.90 324.82 856.00 C 323.05 850.62 322.37 843.74 326.36 839.10 A 1.70 1.66 14.5 0 1 327.32 838.55 Q 329.47 838.15 330.91 839.41 Z M 329.79 841.34 A 1.78 1.78 0.0 0 0 327.77 841.54 Q 326.11 842.97 325.68 845.03 Q 324.02 852.96 328.06 859.37 Q 329.67 861.93 331.75 862.92 Q 333.01 863.51 334.11 862.66 Q 339.07 858.81 337.36 853.03 C 336.21 849.14 332.91 843.08 329.79 841.34 Z"/>
  <path fill="#f49692" d=" M 329.79 841.34 C 332.91 843.08 336.21 849.14 337.36 853.03 Q 339.07 858.81 334.11 862.66 Q 333.01 863.51 331.75 862.92 Q 329.67 861.93 328.06 859.37 Q 324.02 852.96 325.68 845.03 Q 326.11 842.97 327.77 841.54 A 1.78 1.78 0.0 0 1 329.79 841.34 Z"/>
  <path fill="#fdfffe" d=" M 493.84 841.79 L 478.96 876.27 Q 477.69 878.04 476.27 878.17 C 474.05 878.37 471.86 878.10 469.75 876.99 Q 462.75 873.32 456.86 867.36 L 448.12 846.23 Q 448.03 845.56 448.28 845.23 Q 448.62 844.77 448.97 845.22 C 451.74 848.71 454.94 849.27 458.32 850.97 Q 464.71 854.17 471.07 857.46 A 2.32 2.31 -43.8 0 0 473.09 857.50 C 477.05 855.65 480.29 853.81 485.00 853.79 Q 486.50 853.78 487.34 852.56 Q 490.59 847.83 492.55 841.81 Q 492.70 841.36 493.17 841.35 Q 493.61 841.33 493.84 841.79 Z"/>
  <path fill="#cfd4e8" d=" M 620.77 844.18 C 624.52 848.26 626.65 854.66 627.40 859.63 Q 629.00 870.19 625.63 883.39 C 622.05 897.40 615.84 912.05 605.79 922.36 Q 592.22 936.27 571.11 939.58 Q 567.30 940.18 562.13 938.92 C 541.02 933.80 537.85 915.13 541.33 896.48 Q 541.27 898.56 544.29 899.82 A 0.75 0.75 0.0 0 0 545.09 899.66 L 547.79 896.94 Q 547.43 899.38 547.02 901.45 Q 545.16 910.96 547.79 920.26 C 550.60 930.18 559.98 936.86 570.42 934.57 Q 586.76 930.99 592.96 913.83 C 597.27 901.89 596.54 886.98 588.81 876.23 Q 594.19 877.69 595.83 874.62 Q 597.29 875.88 599.84 876.08 A 0.62 0.62 0.0 0 1 600.40 876.79 C 599.74 881.56 599.61 887.96 605.77 889.09 C 611.51 890.15 615.60 884.39 616.49 879.32 Q 617.40 874.18 614.33 870.76 A 1.30 1.29 -61.3 0 1 614.02 869.69 C 614.33 867.66 614.92 865.65 614.55 863.61 Q 613.82 859.66 610.49 857.53 Q 617.20 853.30 620.77 844.18 Z"/>
  <path fill="#461103" d=" M 596.26 861.18 Q 591.61 867.52 585.29 867.47 C 575.57 867.40 576.16 856.63 580.24 850.89 C 584.52 845.77 592.29 843.22 596.12 850.80 Q 598.62 855.73 596.26 861.18 Z M 582.0616 864.3748 A 9.44 7.43 125.4 0 0 593.5864 860.9841 A 9.44 7.43 125.4 0 0 592.9984 848.9852 A 9.44 7.43 125.4 0 0 581.4736 852.3759 A 9.44 7.43 125.4 0 0 582.0616 864.3748 Z"/>
  <ellipse fill="#fab8b6" cx="0.00" cy="0.00" transform="translate(587.53,856.68) rotate(125.4)" rx="9.44" ry="7.43"/>
  <path fill="#eeeaeb" d=" M 580.24 850.89 C 576.16 856.63 575.57 867.40 585.29 867.47 Q 591.61 867.52 596.26 861.18 L 596.47 863.49 Q 596.53 864.04 597.08 864.05 Q 597.57 864.06 598.24 863.75 L 596.68 866.21 Q 593.48 870.05 595.83 874.62 Q 594.19 877.69 588.81 876.23 Q 580.53 865.80 567.25 870.71 Q 562.22 872.56 557.82 877.02 L 557.39 873.63 Q 557.32 873.14 557.56 872.70 Q 564.10 860.62 574.84 852.11 Q 576.00 851.19 577.38 851.05 Q 578.79 850.90 580.24 850.89 Z"/>
  <path fill="#461103" d=" M 375.4017 917.0546 A 33.72 20.28 68.0 0 1 343.9667 893.3870 A 33.72 20.28 68.0 0 1 350.1383 854.5254 A 33.72 20.28 68.0 0 1 381.5733 878.1930 A 33.72 20.28 68.0 0 1 375.4017 917.0546 Z M 344.50 862.93 Q 339.53 871.51 343.10 882.58 Q 347.00 900.67 359.93 911.33 C 363.67 914.41 371.32 916.00 375.76 913.39 Q 378.96 911.49 380.10 907.81 Q 384.49 893.60 378.54 879.19 Q 375.67 869.74 368.84 862.66 Q 362.43 856.03 353.98 856.45 Q 348.12 856.74 344.50 862.93 Z"/>
  <path fill="#fab4bd" d=" M 378.54 879.19 Q 376.12 886.87 369.25 888.52 C 362.98 890.03 354.60 889.79 348.78 886.39 Q 346.43 885.03 345.23 884.67 Q 343.53 884.17 343.58 882.52 Q 343.99 882.73 344.87 883.64 Q 345.21 883.99 345.57 883.87 Q 346.07 883.70 346.01 883.18 Q 345.26 876.92 344.45 870.68 Q 344.25 869.14 344.51 866.84 Q 344.73 864.81 344.50 862.93 Q 348.12 856.74 353.98 856.45 Q 362.43 856.03 368.84 862.66 Q 375.67 869.74 378.54 879.19 Z"/>
  <path fill="#e98d99" d=" M 608.27 857.59 Q 608.01 857.80 608.01 857.98 Q 608.01 858.12 608.25 858.25 C 611.73 860.16 613.71 865.19 612.12 868.94 Q 611.91 869.45 611.42 869.70 L 601.73 874.80 Q 601.26 875.05 600.73 874.97 Q 598.97 874.71 598.10 873.35 Q 597.59 872.56 597.37 869.99 Q 597.19 868.03 596.68 866.21 L 598.24 863.75 Q 602.34 859.93 607.58 857.62 Q 607.76 857.54 607.92 857.55 Q 608.09 857.56 608.27 857.59 Z"/>
  <path fill="#461103" d=" M 608.27 857.59 L 610.49 857.53 Q 613.82 859.66 614.55 863.61 C 614.92 865.65 614.33 867.66 614.02 869.69 A 1.30 1.29 -61.3 0 0 614.33 870.76 Q 617.40 874.18 616.49 879.32 C 615.60 884.39 611.51 890.15 605.77 889.09 C 599.61 887.96 599.74 881.56 600.40 876.79 A 0.62 0.62 0.0 0 0 599.84 876.08 Q 597.29 875.88 595.83 874.62 Q 593.48 870.05 596.68 866.21 Q 597.19 868.03 597.37 869.99 Q 597.59 872.56 598.10 873.35 Q 598.97 874.71 600.73 874.97 Q 601.26 875.05 601.73 874.80 L 611.42 869.70 Q 611.91 869.45 612.12 868.94 C 613.71 865.19 611.73 860.16 608.25 858.25 Q 608.01 858.12 608.01 857.98 Q 608.01 857.80 608.27 857.59 Z M 610.43 872.42 C 607.35 873.72 602.87 875.75 602.55 879.33 C 602.38 881.18 602.26 885.62 604.44 886.59 Q 608.98 888.60 612.03 884.56 Q 615.78 879.60 613.24 873.53 Q 612.43 871.58 610.43 872.42 Z"/>
  <path fill="#fdfbf6" d=" M 344.50 862.93 Q 344.73 864.81 344.51 866.84 Q 344.25 869.14 344.45 870.68 Q 345.26 876.92 346.01 883.18 Q 346.07 883.70 345.57 883.87 Q 345.21 883.99 344.87 883.64 Q 343.99 882.73 343.58 882.52 Q 343.34 882.55 343.10 882.58 Q 339.53 871.51 344.50 862.93 Z"/>
  <path fill="#cfd4e8" d=" M 456.86 867.36 Q 462.75 873.32 469.75 876.99 C 471.86 878.10 474.05 878.37 476.27 878.17 Q 477.69 878.04 478.96 876.27 L 475.77 884.98 A 3.04 3.04 0.0 0 1 474.22 886.67 L 467.13 890.03 Q 466.72 890.22 466.55 889.81 L 456.86 867.36 Z"/>
  <path fill="#461103" d=" M 588.81 876.23 C 596.54 886.98 597.27 901.89 592.96 913.83 Q 586.76 930.99 570.42 934.57 C 559.98 936.86 550.60 930.18 547.79 920.26 Q 545.16 910.96 547.02 901.45 Q 547.43 899.38 547.79 896.94 Q 549.33 892.12 551.33 887.04 Q 553.59 881.30 557.82 877.02 Q 562.22 872.56 567.25 870.71 Q 580.53 865.80 588.81 876.23 Z M 550.14 896.11 Q 548.00 903.90 549.05 911.72 C 549.43 922.71 556.40 934.25 568.50 932.43 Q 578.31 930.95 585.11 922.87 Q 590.39 916.59 592.21 905.98 Q 593.21 899.72 592.37 892.70 Q 591.66 887.35 589.47 882.25 C 584.18 869.91 570.76 868.47 561.14 876.63 Q 552.20 884.21 550.14 896.11 Z"/>
  <path fill="#fab4bd" d=" M 592.37 892.70 Q 585.71 899.30 575.49 900.53 Q 565.76 901.70 556.92 899.91 Q 555.18 899.56 553.44 898.28 Q 551.82 897.09 550.14 896.11 Q 552.20 884.21 561.14 876.63 C 570.76 868.47 584.18 869.91 589.47 882.25 Q 591.66 887.35 592.37 892.70 Z"/>
  <path fill="#e98d99" d=" M 610.43 872.42 Q 612.43 871.58 613.24 873.53 Q 615.78 879.60 612.03 884.56 Q 608.98 888.60 604.44 886.59 C 602.26 885.62 602.38 881.18 602.55 879.33 C 602.87 875.75 607.35 873.72 610.43 872.42 Z"/>
  <path fill="#eeeaeb" d=" M 674.64 873.42 Q 672.26 882.15 662.44 884.89 Q 661.59 884.27 661.91 883.52 Q 662.10 883.10 662.82 882.74 C 667.45 880.44 670.03 877.46 673.22 873.29 Q 673.53 872.89 673.87 872.85 Q 674.44 872.78 674.64 873.42 Z"/>
  <path fill="#e98d99" d=" M 378.54 879.19 Q 384.49 893.60 380.10 907.81 Q 378.96 911.49 375.76 913.39 C 371.32 916.00 363.67 914.41 359.93 911.33 Q 347.00 900.67 343.10 882.58 Q 343.34 882.55 343.58 882.52 Q 343.53 884.17 345.23 884.67 Q 346.43 885.03 348.78 886.39 C 354.60 889.79 362.98 890.03 369.25 888.52 Q 376.12 886.87 378.54 879.19 Z"/>
  <path fill="#e98d99" d=" M 592.37 892.70 Q 593.21 899.72 592.21 905.98 Q 587.44 908.28 583.15 911.29 Q 578.72 914.41 576.19 915.30 Q 567.64 918.32 558.27 916.26 Q 553.34 915.17 549.05 911.72 Q 548.00 903.90 550.14 896.11 Q 551.82 897.09 553.44 898.28 Q 555.18 899.56 556.92 899.91 Q 565.76 901.70 575.49 900.53 Q 585.71 899.30 592.37 892.70 Z"/>
  <path fill="#df7e8c" d=" M 592.21 905.98 Q 590.39 916.59 585.11 922.87 Q 578.31 930.95 568.50 932.43 C 556.40 934.25 549.43 922.71 549.05 911.72 Q 553.34 915.17 558.27 916.26 Q 567.64 918.32 576.19 915.30 Q 578.72 914.41 583.15 911.29 Q 587.44 908.28 592.21 905.98 Z"/>
  <path fill="#cfd4e8" d=" M 424.14 906.37 Q 424.30 911.12 424.59 914.99 Q 425.16 922.61 429.27 928.97 A 0.83 0.82 -36.0 0 1 429.09 930.06 Q 423.57 934.47 417.23 932.96 C 411.16 931.52 406.90 928.41 405.90 921.96 C 409.46 923.69 415.18 924.41 417.00 919.99 Q 419.87 913.04 424.14 906.37 Z"/>
  <path fill="#6f460d" d=" M 494.01 924.51 L 493.87 928.70 L 493.68 918.80 Q 493.67 918.20 493.17 918.52 Q 492.68 918.82 492.28 919.75 Q 492.42 919.11 492.19 918.67 Q 493.64 913.37 496.88 908.85 Q 496.91 908.80 496.97 908.79 Q 497.09 908.76 497.21 908.73 A 0.11 0.10 3.6 0 1 497.34 908.87 Q 495.12 913.70 494.30 917.24 Q 493.57 920.40 494.01 924.51 Z"/>
  <path fill="#cfd4e8" d=" M 390.32 910.81 Q 391.87 913.99 397.63 916.11 Q 398.98 916.61 399.79 916.79 Q 400.29 916.90 400.70 916.58 Q 401.80 915.71 401.92 914.00 Q 402.10 921.98 405.76 929.26 Q 405.98 929.71 405.49 929.79 Q 402.85 930.25 401.51 929.46 Q 390.79 923.12 390.32 910.81 Z"/>
  <path fill="#cfd4e8" d=" M 468.81 914.70 Q 467.94 925.74 468.62 930.12 Q 469.24 934.05 471.20 936.43 Q 472.03 937.43 470.73 937.39 C 465.40 937.19 460.84 933.29 458.14 928.76 Q 455.77 924.81 456.02 919.72 L 457.47 921.92 Q 457.73 922.32 458.16 922.53 Q 458.54 922.71 458.85 923.04 C 460.31 924.58 462.65 924.82 464.57 924.13 Q 465.06 923.96 465.25 923.48 L 468.81 914.70 Z"/>
  <path fill="#cfd4e8" d=" M 492.19 918.67 Q 492.42 919.11 492.28 919.75 Q 490.57 928.75 493.49 937.57 Q 493.65 938.05 493.37 938.46 Q 492.32 940.03 490.38 940.48 Q 482.12 942.42 476.00 937.70 Q 473.17 935.52 471.96 932.08 Q 470.78 928.74 470.74 925.03 L 471.85 927.45 Q 472.06 927.91 472.50 928.16 C 474.64 929.43 476.48 931.50 478.74 932.02 Q 481.40 932.62 484.07 931.78 Q 484.54 931.63 484.85 931.23 C 487.27 928.15 488.33 924.29 489.57 920.62 A 1.80 1.42 -77.3 0 1 491.10 919.38 Q 491.66 919.41 492.19 918.67 Z"/>
</svg>