<?xml version="1.0" encoding="utf-8"?>
<svg viewBox="0 0 200 200" xmlns="http://www.w3.org/2000/svg">
  <path d="M 106.91 51.083 C 104.961 53.331 101.135 53.562 99.137 51.25 C 95.198 46.696 91.244 42.121 87.273 37.525 C 69.707 17.178 40.27 22.402 29.029 47.904 C 22.592 62.514 23.901 80.246 32.719 93.255 C 33.786 94.828 35.201 96.635 36.962 98.674 C 59.068 124.24 81.021 149.661 102.82 174.938 C 102.891 175.02 103.007 175.02 103.078 174.938 C 125.559 148.871 147.428 123.551 168.685 98.98 C 170.569 96.803 172.093 94.856 173.259 93.14 C 186.669 73.379 181.934 43.898 163.157 30.948 C 150.561 22.263 134.697 23.134 122.882 33.263 C 121.306 34.616 119.733 36.208 118.161 38.042 C 114.337 42.5 110.586 46.847 106.91 51.083 Z" style="fill: rgb(106, 0, 119);" transform="matrix(0.9999999999999999, 0, 0, 0.9999999999999999, 0, 0)"/>
</svg>