<?xml version="1.0" encoding="utf-8"?>
<svg version="1.1" viewBox="0 0 792.536 800.934" xmlns="http://www.w3.org/2000/svg">
  <path d="M 201.949 583.854 C 184.259 571.904 159.149 577.664 151.989 599.154 C 147.269 613.344 140.689 626.064 131.099 637.894 C 121.729 649.454 109.309 658.594 94.289 658.164 C 72.779 657.534 54.909 641.674 43.999 624.384 C 40.819 619.344 38.412 613.901 36.779 608.054 C 34.466 599.741 32.886 592.184 32.039 585.384 C 30.419 572.254 31.879 552.774 47.809 548.954 C 57.409 546.654 67.569 543.078 78.289 538.224 C 85.762 534.851 91.802 531.634 96.409 528.574 C 105.982 522.221 113.292 513.378 118.339 502.044 C 124.449 488.314 121.429 475.594 110.569 465.594 C 106.576 461.914 101.286 459.324 94.699 457.824 C 80.879 454.694 67.059 452.684 53.009 451.434 C 48.836 451.068 45.389 450.388 42.669 449.394 C 32.099 445.534 21.279 437.704 17.259 426.844 C 13.512 416.751 14.166 406.764 19.219 396.884 C 22.019 391.398 26.509 387.211 32.689 384.324 C 45.939 378.144 60.669 373.764 74.659 369.014 C 79.349 367.424 84.309 364.714 86.729 360.154 C 91.189 351.764 87.599 339.494 82.139 332.524 C 74.579 322.864 63.239 316.404 50.609 318.924 C 47.562 319.531 44.629 320.064 41.809 320.524 C 24.379 323.394 15.389 297.324 12.719 283.924 C 7.449 257.424 11.899 221.774 39.549 208.694 C 59.959 199.044 83.739 204.214 100.759 218.154 C 114.289 229.234 142.579 248.714 159.419 234.284 C 171.029 224.344 173.019 201.934 172.869 188.124 C 172.689 170.034 175.009 150.034 185.939 136.264 C 204.679 112.644 239.939 120.654 263.789 131.014 C 275.019 135.894 287.459 136.104 298.249 130.784 C 320.479 119.824 312.169 90.334 303.789 73.024 C 299.819 64.844 296.389 57.234 296.859 47.934 C 297.939 26.624 312.989 13.364 333.429 10.644 C 339.982 9.771 346.906 9.758 354.199 10.604 C 374.809 13.014 413.749 21.754 414.249 48.534 C 414.369 54.908 412.949 60.981 409.989 66.754 C 400.089 86.081 399.272 106.564 407.539 128.204 C 414.999 147.731 427.756 162.691 445.809 173.084 C 460.696 181.664 476.449 184.061 493.069 180.274 C 515.219 175.224 532.419 160.284 545.819 142.134 C 551.489 134.454 558.409 130.134 568.209 129.074 C 588.539 126.854 611.949 139.454 621.509 157.604 C 633.829 180.994 618.469 203.224 599.999 216.824 C 582.079 230.024 554.639 251.544 563.889 277.314 C 566.129 283.561 570.139 289.334 575.919 294.634 C 582.639 300.794 591.749 307.124 600.789 309.684 C 611.929 312.834 625.379 317.814 634.019 325.674 C 646.399 336.944 639.049 348.454 628.499 356.194 C 626.399 357.734 623.932 358.998 621.099 359.984 C 600.209 367.264 574.809 384.464 579.159 410.384 C 583.919 438.744 615.019 444.974 638.849 443.564 C 644.502 443.224 649.832 443.154 654.839 443.354 C 677.179 444.214 706.209 456.124 711.559 480.784 C 716.269 502.464 703.709 528.554 690.569 545.324 C 688.216 548.338 685.419 551.104 682.179 553.624 C 663.679 568.044 643.909 556.894 628.919 543.244 C 623.426 538.244 617.569 532.758 611.349 526.784 C 609.636 525.144 607.709 523.578 605.569 522.084 C 597.259 516.294 585.369 522.864 579.069 528.664 C 575.749 531.711 573.079 535.248 571.059 539.274 C 564.739 551.914 565.729 565.124 572.299 577.384 C 579.079 590.034 591.159 616.234 571.749 624.624 C 559.979 629.724 547.309 625.194 539.869 615.184 C 530.429 602.494 517.949 594.054 502.949 592.594 C 495.476 591.874 488.959 592.671 483.399 594.984 C 459.779 604.794 463.959 644.584 468.399 664.684 C 472.359 682.664 473.629 706.374 463.159 722.584 C 449.519 743.714 422.339 741.724 400.739 736.494 C 374.209 730.074 344.809 714.764 351.209 681.534 C 352.119 676.794 353.789 672.164 353.859 667.164 C 354.026 655.338 349.642 645.674 340.709 638.174 C 324.039 624.184 301.929 641.734 290.029 653.874 C 286.262 657.728 282.539 661.568 278.859 665.394 C 276.032 668.334 272.132 670.854 267.159 672.954 C 255.439 677.904 241.539 677.254 234.339 665.494 C 229.409 657.454 228.759 648.634 227.139 639.794 C 224.606 625.988 220.496 612.461 214.809 599.214 C 212.116 592.941 207.829 587.821 201.949 583.854 Z" style=""/>
  <path d="M 178.119 27.204 C 192.259 34.744 201.219 51.704 203.399 67.044 C 205.559 82.274 199.709 92.014 183.479 92.584 C 167.029 93.164 146.179 85.884 137.189 71.164 C 122.609 47.304 153.319 13.984 178.119 27.204 Z" style=""/>
  <circle cx="501.559" cy="118.844" r="11.17" style=""/>
  <circle cx="139.069" cy="180.194" r="11.17" style=""/>
  <path d="M 740.569 282.814 C 754.119 279.394 766.539 284.644 773.059 297.014 C 776.452 303.447 777.932 310.017 777.499 316.724 C 775.319 350.114 736.279 349.374 714.779 337.084 C 701.569 329.534 697.539 318.834 706.819 305.964 C 715.406 294.051 726.656 286.334 740.569 282.814 Z" style=""/>
  <circle cx="21.959" cy="498.054" r="11.17" style=""/>
  <circle cx="540.599" cy="659.794" r="11.17" style=""/>
  <path d="M 223.339 777.154 C 210.879 767.914 207.606 755.624 213.519 740.284 C 218.889 726.334 231.529 711.984 245.809 706.194 C 258.399 701.094 266.909 706.994 272.349 717.764 C 278.216 729.364 280.299 741.467 278.599 754.074 C 277.489 762.364 274.369 771.024 268.399 776.754 C 255.929 788.734 236.849 787.174 223.339 777.154 Z" style=""/>
</svg>