<?xml version="1.0" encoding="utf-8"?>
<svg version="1.1" viewBox="0.00 0.00 1000.00 1080.00" xmlns="http://www.w3.org/2000/svg">
  <path d=" M 346.38 686.25 C 328.69 674.30 303.58 680.06 296.42 701.55 C 291.70 715.74 285.12 728.46 275.53 740.29 C 266.16 751.85 253.74 760.99 238.72 760.56 C 217.21 759.93 199.34 744.07 188.43 726.78 Q 183.66 719.22 181.21 710.45 Q 177.74 697.98 176.47 687.78 C 174.85 674.65 176.31 655.17 192.24 651.35 Q 206.64 647.90 222.72 640.62 Q 233.93 635.56 240.84 630.97 Q 255.20 621.44 262.77 604.44 C 268.88 590.71 265.86 577.99 255.00 567.99 Q 249.01 562.47 239.13 560.22 C 225.31 557.09 211.49 555.08 197.44 553.83 Q 191.18 553.28 187.10 551.79 C 176.53 547.93 165.71 540.10 161.69 529.24 Q 156.07 514.10 163.65 499.28 Q 167.85 491.05 177.12 486.72 C 190.37 480.54 205.10 476.16 219.09 471.41 C 223.78 469.82 228.74 467.11 231.16 462.55 C 235.62 454.16 232.03 441.89 226.57 434.92 C 219.01 425.26 207.67 418.80 195.04 421.32 Q 190.47 422.23 186.24 422.92 C 168.81 425.79 159.82 399.72 157.15 386.32 C 151.88 359.82 156.33 324.17 183.98 311.09 C 204.39 301.44 228.17 306.61 245.19 320.55 C 258.72 331.63 287.01 351.11 303.85 336.68 C 315.46 326.74 317.45 304.33 317.30 290.52 C 317.12 272.43 319.44 252.43 330.37 238.66 C 349.11 215.04 384.37 223.05 408.22 233.41 C 419.45 238.29 431.89 238.50 442.68 233.18 C 464.91 222.22 456.60 192.73 448.22 175.42 C 444.25 167.24 440.82 159.63 441.29 150.33 C 442.37 129.02 457.42 115.76 477.86 113.04 Q 487.69 111.73 498.63 113.00 C 519.24 115.41 558.18 124.15 558.68 150.93 Q 558.86 160.49 554.42 169.15 Q 539.57 198.14 551.97 230.60 Q 563.16 259.89 590.24 275.48 Q 612.57 288.35 637.50 282.67 C 659.65 277.62 676.85 262.68 690.25 244.53 C 695.92 236.85 702.84 232.53 712.64 231.47 C 732.97 229.25 756.38 241.85 765.94 260.00 C 778.26 283.39 762.90 305.62 744.43 319.22 C 726.51 332.42 699.07 353.94 708.32 379.71 Q 711.68 389.08 720.35 397.03 C 727.07 403.19 736.18 409.52 745.22 412.08 C 756.36 415.23 769.81 420.21 778.45 428.07 C 790.83 439.34 783.48 450.85 772.93 458.59 Q 769.78 460.90 765.53 462.38 C 744.64 469.66 719.24 486.86 723.59 512.78 C 728.35 541.14 759.45 547.37 783.28 545.96 Q 791.76 545.45 799.27 545.75 C 821.61 546.61 850.64 558.52 855.99 583.18 C 860.70 604.86 848.14 630.95 835.00 647.72 Q 831.47 652.24 826.61 656.02 C 808.11 670.44 788.34 659.29 773.35 645.64 Q 765.11 638.14 755.78 629.18 Q 753.21 626.72 750.00 624.48 C 741.69 618.69 729.80 625.26 723.50 631.06 Q 718.52 635.63 715.49 641.67 C 709.17 654.31 710.16 667.52 716.73 679.78 C 723.51 692.43 735.59 718.63 716.18 727.02 C 704.41 732.12 691.74 727.59 684.30 717.58 C 674.86 704.89 662.38 696.45 647.38 694.99 Q 636.17 693.91 627.83 697.38 C 604.21 707.19 608.39 746.98 612.83 767.08 C 616.79 785.06 618.06 808.77 607.59 824.98 C 593.95 846.11 566.77 844.12 545.17 838.89 C 518.64 832.47 489.24 817.16 495.64 783.93 C 496.55 779.19 498.22 774.56 498.29 769.56 Q 498.54 751.82 485.14 740.57 C 468.47 726.58 446.36 744.13 434.46 756.27 Q 428.81 762.05 423.29 767.79 Q 419.05 772.20 411.59 775.35 C 399.87 780.30 385.97 779.65 378.77 767.89 C 373.84 759.85 373.19 751.03 371.57 742.19 Q 367.77 721.48 359.24 701.61 Q 355.20 692.20 346.38 686.25 Z" style="fill: rgb(255, 243, 16);"/>
  <path d=" M 300.65 129.60 C 314.79 137.14 323.75 154.10 325.93 169.44 C 328.09 184.67 322.24 194.41 306.01 194.98 C 289.56 195.56 268.71 188.28 259.72 173.56 C 245.14 149.70 275.85 116.38 300.65 129.60 Z" style="fill: rgb(255, 243, 16);"/>
  <circle cx="624.09" cy="221.24" r="11.17" style="fill: rgb(255, 243, 16);"/>
  <circle cx="261.60" cy="282.59" r="11.17" style="fill: rgb(255, 243, 16);"/>
  <path d=" M 863.10 385.21 C 876.65 381.79 889.07 387.04 895.59 399.41 Q 900.68 409.06 900.03 419.12 C 897.85 452.51 858.81 451.77 837.31 439.48 C 824.10 431.93 820.07 421.23 829.35 408.36 Q 842.23 390.49 863.10 385.21 Z" style="fill: rgb(255, 243, 16);"/>
  <circle cx="144.49" cy="600.45" r="11.17" style="fill: rgb(255, 243, 16);"/>
  <circle cx="663.13" cy="762.19" r="11.17" style="fill: rgb(255, 243, 16);"/>
  <path d=" M 345.87 879.55 Q 327.18 865.69 336.05 842.68 C 341.42 828.73 354.06 814.38 368.34 808.59 C 380.93 803.49 389.44 809.39 394.88 820.16 Q 403.68 837.56 401.13 856.47 C 400.02 864.76 396.90 873.42 390.93 879.15 C 378.46 891.13 359.38 889.57 345.87 879.55 Z" style="fill: rgb(255, 243, 16);"/>
</svg>